<svg clip-rule="evenodd" fill-rule="evenodd" height="70.9322mm" image-rendering="optimizeQuality" shape-rendering="geometricPrecision" text-rendering="geometricPrecision" viewBox="0 0 14867.39 4599.68" width="229.272mm" xmlns="http://www.w3.org/2000/svg"><g fill="#fff"><g fill-rule="nonzero"><path d="m10261.65 302.44c105.91 128.19 164.45 199.27 176.28 213.2 158.16 195.08 176.98 381.13 176.98 1746.75 0 1412.29-18.82 1541.88-186.04 1644.32-306.55 195.08-195.08 250.83 473.79 250.83 631.95 0 845.15-111.5 464.74-232.03-158.15-46.69-186.04-139.36-186.04-539.29.71-32.05 3.51-193 9.06-482.83 161.66 195.08 251.54 303.78 269.65 325.38 148.39 176.28 371.36 464.03 482.83 622.19 186.05 269.63 260.6 306.57 659.82 306.57 436.88 0 585.27-120.56 278.72-222.97-92.67-27.86-418.04-334.44-724.62-668.88-36.92-41.11-219.47-248.75-548.35-622.19 245.27-217.38 381.84-338.62 408.99-362.33 232.03-195.07 492.6-381.1 585.26-408.98 83.61-27.86 158.16-102.41 158.16-158.16 0-73.83-186.02-111.47-557.38-111.47-362.32 0-557.4 37.63-557.4 111.47 0 55.75 55.75 121.24 120.53 149.1 74.55 27.88-9.06 176.28-232.01 399.24-23.7 24.38-141.44 144.91-353.26 362.29 0-797.06 0-1239.5 0-1328.69 0-1449.22 18.83-1421.36-576.2-1151.71-45.98 20.89-160.24 73.83-343.5 158.16v.01z"/><path d="m13252.78 1741.92c-17.41 9.06-103.82 52.25-259.89 130.28l259.89 36.94 250.83 27.86v957.32c0 1077.15 93.35 1263.2 622.91 1263.2 390.17 0 566.44-83.61 687-306.57 93.35-167.22 83.61-186.02-176.28-130.3-473.8 93.38-576.21-101.73-566.46-1012.37 0-52.25 3.48-312.14 9.06-780.34h362.3c492.6 0 501.66-259.89 18.83-297.52-325.38-27.86-353.27-55.72-381.13-334.44-36.92-380.42-139.36-380.42-381.13 9.77-101.73 176.28-306.55 371.35-445.91 436.16l-.01-.01z"/><path d="m5663.84 2055.46c101.73 83.61 139.33 316.31 139.33 891.84 0 678.62-27.86 790.09-186.02 891.82-315.63 204.85-213.91 260.6 464.75 260.6 631.25 0 845.15-111.5 464.03-232.71-176.28-55.75-195.08-129.61-167.22-909.97 2.08-57.14 11.14-342.1 27.86-854.89h399.93c296.83 0 427.1-46.69 501.66-176.28 195.11-353.27-445.91-576.21-780.34-269.66-158.16 139.35-167.22 139.35-167.22 0 0-195.08-139.36-195.08-529.52 0-344.2 176.28-372.07 232.03-167.22 399.24h-.01z"/><path d="m7650.95 2959.11c0 743.43 473.8 1198.42 1245.09 1198.42 334.44 0 482.86-55.75 724.62-269.66 167.22-148.39 287.75-296.8 259.89-324.67-27.89-27.88-232.03 18.12-454.99 92.67-325.38 111.47-436.85 111.47-640.99 18.8-250.83-121.24-604.09-687.67-520.49-836.1 27.89-37.63 399.93-74.55 836.1-74.55 863.98 0 891.84-27.86 678.65-641.01-167.22-464.71-808.23-696.73-1337.75-473.77-427.82 176.28-790.12 771.28-790.12 1309.85l-.01.01zm1607.39-659.82c46.69 167.22 0 186.05-454.97 186.05-557.4 0-650.76-130.3-316.33-464.74 222.97-222.97 269.64-222.97 529.52-45.98 102.44 73.83 213.91 222.93 241.78 324.66z"/></g><path d="m.1 3489.06c0 158.46 149.28 286.98 242.23 376.19 22.09 21.22 43.51 36.81 67.72 56.19 243.94 195.06 678.46 421.05 982.82 467.75l897.96 51.67c265.9 37.14 477.04 158.83 572.71 158.83 24.01 0 52.56-21.11 52.56-48.28 0-77.56-269.88-121.44-307.9-177.05 31.85-22.85 16.1-16.09 90.12-16.09l195.01 8.34c82.34.46 142.92 4.5 142.92-72.72 0-105.93-332.78-33.1-458.09-64.39 49.54-79.25 315.41-41.35 315.41-144.86 0-66.73-181.98-32.37-240.31-32.19-79.31.25-256.34 24.32-322.64 24.43l-165.21 8.05c-142.99.4-536.62-40.7-585.98-112.96 100.28-25.05 205.05-8.05 315.4-8.05 223.07 0 585.85 16.67 787.06-41.75 98.16-28.51 182.52-66.12 238.89-146.38 77.25-110 42.12-356.74-129.28-483.16-23.37-17.22-36.67-31.36-55.63-45 10.88-24.32 7.14-31.47 24.41-54.32l195.01-201.78c68.94-76.62 43.44 10.58 43.44 54.9 0 358.36-36.27 400.73 201.72 604.7 119.78 102.68 398.78 268.65 541.8 336.82 33.43 15.92 67.35 33.75 98.43 47.42 145.38 64.02 493.41 113.64 659.94 113.64 41.15 0 132.81-65.83-89.41-113.42-73.72-15.81-129.89-18.01-158.41-63.63 39.63-48.9 106.22-46.19 180.43-48.08 210.14-5.38 211.99-108.52 97.56-113.03-47.05-1.84-71.93-7.69-112.48-8.23-92.61-1.23-156.93 14.65-210.57-23.82 20.27-81.45 277.85-124.25 277.85-209.24 0-77.59-190.47-1.05-204.95 5.7-40.78 19.06-72.44 34.93-115.74 53.02-266.95 111.63-274.62 108.37-444.25-27.66-70.95-56.87-85.47-76.18-141.9-129.6l-67.52-64.44c-97.32-104.66-115.72-87.45-48.09-280.88 67.52-193.19 82.78-216.68 128.81-425.31 59.5-269.72 28.49-173.37 171.68-379.37l392.66-561.03c70.79-102.13 190.06-327.22 238.15-452.99 66.65-174.31 98.61-305.82 98.61-522.07 0-204.41-516.21-222.74-722.04-377.05-59.27-44.47-151.53-121.91-246.7-121.91-314.13 0-293.18 308.35-565.71 456.02l-135.21 72.39c-92.2 50.24-185.38 86.72-280.34 134.14-289.54 144.61-612.38 296.9-919.5 406.86-27.95 10-49.98 16.6-78.57 28.47-208.05 86.36-350.39 129.06-533.28 281.57-21.85 18.22-29.12 30.81-51.42 49.51-29.16 24.43-26.3 31.44-51.01 58-158.31 170.01-352.69 588.14-438.02 818.24-39.3 105.96-78.09 202.86-113.14 313.32l-95.41 324.3c-20.1 67.13-53.14 74.27-93.35 117.25-30.41 32.55-69.33 81.52-69.33 142.98l.1.01h-.01z"/></g></svg>