<svg enable-background="new 0 0 484.14011 141.73228" viewBox="0 0 484.14011 141.73228" xmlns="http://www.w3.org/2000/svg"><g fill="#333332"><path d="m210.34273 44.06507c-10.98828 0-19.75928 5.03662-22.34521 12.83154-.21973.6626-.14404 1.3833.20752 1.97705.3291.55566.87305.94287 1.49658 1.06592l9.80273 2.45996c1.02734.18945 2.04932-.3623 2.44482-1.30957 1.12012-2.67871 4.21582-4.15381 8.71729-4.15381 5.94775 0 9.09131 2.86914 9.09131 8.29785v2.38232h-11.25293c-14.61523 0-23.34082 7.2041-23.34082 19.27148 0 13.05664 10.04736 17.70801 19.44971 17.70801 6.30566 0 11.51758-1.87598 15.14404-5.42383v2.33691c0 1.20996.96582 2.19434 2.15283 2.19434h9.94434c1.18701 0 2.15283-.98438 2.15283-2.19434v-37.61375c0-11.67578-9.73145-19.83008-23.66504-19.83008zm9.41504 34.19043v4.94873c0 5.89258-6.10645 9.41406-12.00977 9.41406-3.97656 0-8.22607-1.74023-8.22607-6.62402 0-4.91797 4.18018-7.73877 11.46924-7.73877z"/><path d="m275.71335 45.18812c-1.51074-.60498-3.17578-.89941-5.09082-.89941-5.08594 0-9.22754 2.06836-12.33496 6.15283v-3.28857c0-1.20996-.96484-2.19482-2.15234-2.19482h-9.94582c-1.18652 0-2.15186.98438-2.15186 2.19385v54.35693c0 1.20996.96582 2.19434 2.15283 2.19434h9.94484c1.1875 0 2.15234-.98438 2.15234-2.19434v-31.58693c0-6.80957 4.91602-10.14062 9.8584-10.42725 1.7168-.24072 2.6875-.16162 3.78223.05566 1.22168.2417 2.37598-.50781 2.64941-1.70947l2.6377-9.69727c.26758-1.23387-.37793-2.50438-1.50195-2.95555z"/><path d="m363.40964 44.06507c-11.55176 0-20.30566 6.53271-23.41113 17.4541-1.01855 3.26025-1.45508 7.32959-1.33496 12.42041 0 6.25977.83496 11.29688 2.54395 15.37891 3.7832 9.70117 12.0459 15.16699 23.27246 15.38867.1377.00195.27441.00293.41211.00293 9.3457 0 17.36035-3.86523 22.04688-10.66309.66211-1.02832.49023-2.05664-.48926-2.90039l-6.69922-5.6875c-.62305-.53711-1.20312-.58691-1.58203-.54297-.40039.05176-.98828.27344-1.51953 1.04199-2.66504 3.90039-6.35645 5.87793-10.95605 5.87793-6.27637-.10156-10.2627-2.64258-11.87891-7.63672-.47656-1.08203-.68555-2.6543-.86914-4.38135h33.49119c1.2832 0 2.14648-.87598 2.15234-2.18115.11328-3.77197.09668-6.73486-.33008-9.82178-1.8164-15.75927-10.17675-23.74999-24.84862-23.74999zm10.7998 24.44336h-21.16797c.12402-1.8667.36426-3.17139.79102-4.31445l.01953-.05859c1.37891-4.70996 4.68359-7.19922 9.55762-7.19922 5.24902 0 8.96582 2.85498 10.21289 7.8916.26465.81591.47168 2.13134.58691 3.68066z"/><path d="m424.35886 44.06507c-5.61035 0-10.00586 1.72852-13.09082 5.14209v-2.05518c0-1.25049-.9248-2.19385-2.15234-2.19385h-9.94531c-1.22754 0-2.15234.94336-2.15234 2.19385v54.35693c0 1.25098.9248 2.19434 2.15234 2.19434h9.94531c1.22754 0 2.15234-.94336 2.15234-2.19434v-34.04247c0-6.29834 3.82715-10.53027 9.52344-10.53027 5.71875 0 9.41504 4.17676 9.41504 10.64111v33.93164c0 1.25098.9248 2.19434 2.15137 2.19434h9.94629c1.22656 0 2.15137-.94336 2.15137-2.19434v-36.60938c-.00001-12.65625-7.88771-20.83447-20.09669-20.83447z"/><path d="m481.98874 44.95814h-10.71289v-12.90967c0-.68408-.30469-1.31543-.83691-1.73194-.5166-.40527-1.17773-.54932-1.80859-.3916l-9.4248 2.32031c-.96484.23828-1.63867 1.11133-1.63867 2.12354v10.58936h-5.37109c-1.18652 0-2.15137.98438-2.15137 2.19385v7.81299c0 1.20996.96484 2.19482 2.15234 2.19482h5.37012v31.521c.12207 13.39844 8.69238 15.24512 17.93555 15.24512.91406 0 1.82812-.02637 2.75586-.05469.9375-.02734 1.8877-.05664 2.86621-.05664l.10938-.00684c1.25977-.16211 2.04199-1.04297 2.04199-2.29883v-8.37207c0-1.20996-.96484-2.19336-2.15137-2.19336h-3.24316c-4.69141 0-6.60547-2.08105-6.60547-7.18164v-26.60205h10.71289c1.18652 0 2.15137-.98438 2.15137-2.19434v-7.81348c-.00002-1.20947-.96487-2.19384-2.15139-2.19384z"/><path d="m328.02585 44.95814h-9.90625c-1.22461 0-2.14746.94092-2.14746 2.18848v1.4751c-3.28906-3.06152-7.56738-4.55322-13.03711-4.55322-9.67773 0-17.58203 5.93652-20.62012 15.4707-1.56934 4.48877-1.77051 10.05469-1.77051 14.40186 0 5.70557.4541 10.05029 1.43555 13.69775 3.4248 11.43457 13.45996 15.50781 21.70898 15.50781 5.14062 0 9.26953-1.4502 12.28125-4.30273-.05566 4.77832-1.30762 8.21777-3.82227 10.50684-3.29297 2.99609-8.86621 4.07422-17.11914 3.30078-2.13281 0-2.3623 1.45215-2.3623 2.0459l-.32324 9.14746c0 1.28027.7207 2.1377 1.95117 2.29688 2.04395.21191 4.03125.31738 5.95117.31738 9.23047 0 16.91797-2.42676 22.02539-7.03125 5.24316-4.72754 7.90137-11.65234 7.90137-20.58301v-51.69826c0-1.24755-.92285-2.18847-2.14648-2.18847zm-12.05371 28.87158c0 6.15527-.2334 7.74316-.73047 9.69385-1.13184 4.67188-4.55664 7.35156-9.39844 7.35156-4.78613 0-8.50586-2.80859-9.97168-7.57031-.46484-1.19873-1.01855-3.7959-1.01855-9.36377 0-4.3999.39062-7.40625 1.24805-9.51514 1.58301-4.78516 5.09473-7.52979 9.63379-7.52979 4.80762 0 8.32031 2.78613 9.40918 7.49951.58788 2.02589.82812 3.4463.82812 9.43409z"/></g><path d="m97.45042 0h-39.88942c-1.33331 0-2.40221 1.10717-2.43088 2.48345-.80571 38.67787-20.4041 75.38773-54.13895 101.38952-1.07052.82513-1.3147 2.37559-.53182 3.49324l23.33906 33.31924c.79414 1.13373 2.34118 1.38939 3.42967.55595 21.09314-16.15079 38.05938-35.63654 50.27765-57.23302 12.21826 21.59647 29.1845 41.08223 50.27764 57.23302 1.08849.83344 2.63553.57777 3.42967-.55595l23.33905-33.31924c.78288-1.11765.5387-2.66811-.53183-3.49325-33.73486-26.00178-53.33325-62.71164-54.13896-101.38951-.02867-1.37628-1.09757-2.48345-2.43088-2.48345z" fill="#ff875b"/></svg>