<svg width="1000" height="296" viewBox="0 0 1000 296" fill="none" xmlns="http://www.w3.org/2000/svg">
<path d="M228.867 0H132.823L162.49 92.4164H258.534L180.845 147.482L210.512 240.539C260.455 204.042 276.89 148.976 258.534 92.4164L228.867 0ZM7.32414 92.4164H103.155L132.823 0H36.9913L7.32414 92.4164C-11.0311 148.976 5.18981 204.042 55.1331 240.539L84.8002 147.482L7.32414 92.4164ZM55.1331 240.539L132.823 295.391L210.512 240.539L132.823 184.619L55.1331 240.539ZM779.524 90.2821C756.687 90.2821 742.173 100.527 735.343 117.175H733.636V41.1925H699.7V240.112H734.49V153.672C734.49 132.328 747.722 119.949 766.504 119.949C785.287 119.949 795.531 131.688 795.531 151.537V240.112H830.321V145.775C830.321 110.131 810.045 90.2821 779.524 90.2821ZM924.445 40.7657C877.276 40.7657 848.89 77.6895 848.89 141.719C848.89 205.749 877.063 243.527 924.445 243.527C971.827 243.527 1000 206.176 1000 141.719C1000 77.2627 971.613 40.7657 924.445 40.7657ZM884.746 141.719C884.96 94.9776 900.113 70.4328 924.445 70.4328C941.092 70.4328 953.472 81.7448 959.661 103.942L885.387 157.727C884.96 152.889 884.746 147.553 884.746 141.719ZM924.445 213.433C907.37 213.433 894.564 201.267 888.588 177.789L963.29 123.364C963.908 129.462 964.193 135.59 964.143 141.719C964.143 188.888 948.989 213.433 924.445 213.433ZM542.827 178.003C542.827 200.413 526.82 211.512 511.452 211.512C496.085 211.512 483.493 199.773 483.493 180.991V92.203H448.703V186.327C448.703 221.97 468.979 242.033 498.006 242.033C519.99 242.033 535.57 230.294 542.4 213.86H543.894V240.112H577.616V92.203H542.827V178.003ZM369.946 90.0686C338.785 90.0686 315.094 103.942 307.411 130.834L339.852 135.53C343.267 125.285 353.085 116.748 370.16 116.748C387.235 116.748 395.131 124.858 395.131 139.585V140.012C395.131 150.043 384.673 150.47 358.635 153.245C332.596 156.019 302.502 164.984 302.502 198.279C302.502 227.306 323.845 242.673 352.018 242.673C375.069 242.673 388.942 231.788 395.345 219.409H396.412V239.685H429.921V140.866C429.921 101.807 398.12 90.0686 369.946 90.0686ZM395.345 186.754C395.345 203.188 381.899 217.061 360.982 217.061C346.469 217.061 336.011 210.445 336.011 197.639C336.011 184.833 347.749 178.643 363.33 176.509C372.508 175.228 390.649 172.881 395.345 169.252V186.754ZM652.105 55.2791H617.315V92.4164H596.185V119.949H617.315V201.907C617.102 229.654 637.164 243.313 663.416 242.46C669.411 242.423 675.372 241.561 681.131 239.898V212.366C678.57 212.793 672.381 213.433 667.899 213.646C659.148 213.86 652.105 210.445 652.105 196.572V119.949H681.131V92.4164H652.105V55.2791Z" fill="white"/>
</svg>
