<?xml version="1.0" encoding="UTF-8"?><svg id="Capa_1" xmlns="http://www.w3.org/2000/svg" xmlns:xlink="http://www.w3.org/1999/xlink" viewBox="0 0 459.79 149.29"><defs><style>.cls-1{clip-rule:evenodd;}.cls-1,.cls-2,.cls-3{fill:#fff;}.cls-4{clip-path:url(#clippath);}.cls-3{fill-rule:evenodd;}</style><clipPath id="clippath"><path class="cls-1" d="M127.22,71.65c4.92-5.23,8.75-7.69,11.48-15.99,2.18-7.7,2.18-16-1.09-23.37-5.47-12.31-16.4-18.77-32.8-22.15-13.67-2.46-39.35-.93-54.12-.93-22.95,0-28.42,4.31-28.42,27.07V118.71c0,24.6,18.58,22.14,32.8,22.14,26.78,0,53.02,2.78,74.34-7.68,3.28,2.46,3.83,4.92,9.29,7.38,4.38,1.84,9.84,2.15,14.22,.3,12.57-5.23,8.2-14.14,17.49-15.68,7.65-1.23,25.14-.31,33.35-.31,7.1,0,26.23-1.54,30.61,2.46,2.73,2.15,3.83,6.46,7.11,9.54,10.38,9.84,27.33,4.92,31.16-8.31,2.73-9.53-3.28-17.83-7.11-24.6-3.83-7.39-7.11-14.46-10.94-21.53-4.37-8-30.61-60.9-34.43-65.52-3.83-5.23-12.02-10.76-22.96-9.54-16.94,1.54-22.41,19.07-30.61,35.06-2.73,5.53-20.77,41.21-22.95,43.06-2.19-2.16-2.19-3.69-7.11-8-2.19-2.16-6.02-4-9.29-5.84Z"/></clipPath></defs><g><path class="cls-2" d="M265.56,47.65h-15.52V15.77h14.7c6.38,0,9.6,3.31,9.6,8.64,0,2.66-1.15,4.82-3.13,6.25,2.71,1.42,4.36,4,4.36,7.62,0,5.7-3.86,9.37-10.01,9.37Zm-9.46-26.36v7.02h8.64c2.06,0,3.72-1.42,3.72-3.53s-1.43-3.49-3.72-3.49h-8.64Zm8.5,12.58h-8.5v8.22h8.64c2.34,0,4.64-.91,4.64-4.04,0-2.66-1.7-4.18-4.78-4.18Z"/><path class="cls-2" d="M300.66,47.65h-5.79v-2.16c-1.47,1.7-3.53,2.71-6.02,2.71-5.6,0-9.32-4.18-9.32-10.38v-13.82h6.06v13.82c0,1.33,.46,4.64,4.41,4.64,2.71,0,4.59-2.02,4.59-4.64v-13.82h6.06v23.65Z"/><path class="cls-2" d="M310.93,38.19c.78,2.89,3.08,4.68,5.93,4.68,2.02,0,4-.87,5-2.75h6.48c-1.38,4.82-5.56,8.08-11.44,8.08-6.66,0-12.12-5.51-12.12-12.35s5.47-12.44,12.12-12.44,12.77,5.42,11.89,14.78h-17.87Zm11.85-4.96c-.73-2.76-3.03-4.5-5.92-4.5s-4.96,1.74-5.83,4.5h11.76Z"/><path class="cls-2" d="M354.13,47.65h-6.06v-13.82c0-1.38-.41-4.69-4.41-4.69-2.71,0-4.59,2.02-4.59,4.69v13.82h-6.06V24h5.78v2.3c1.51-1.79,3.58-2.89,6.11-2.89,5.55,0,9.23,4.18,9.23,10.42v13.82Z"/><path class="cls-2" d="M381.94,35.85c0,7.07-5.37,12.35-11.94,12.35s-11.89-5.28-11.89-12.35,5.33-12.44,11.89-12.44,11.94,5.37,11.94,12.44Zm-6.11,.04c0-4.09-2.62-6.93-5.83-6.93s-5.83,2.85-5.83,6.93,2.61,6.75,5.83,6.75,5.83-2.76,5.83-6.75Z"/><path class="cls-2" d="M395.65,48.2c-6.02,0-10.47-3.17-11.2-8.27h6.15c.83,2.02,3.26,2.76,5.05,2.76,2.44,0,4.27-.74,4.27-2.11s-.83-1.88-4.96-2.53c-4.22-.64-9.87-1.79-9.87-7.07,0-3.72,3.26-7.57,10.1-7.57,5.42,0,9.46,2.94,10.24,7.39h-6.29c-.37-1.1-1.7-1.98-3.95-1.98-2.8,0-3.95,1.01-3.95,1.88,0,1.24,1.75,1.66,4.69,2.11,5.88,.96,10.1,2.25,10.1,7.39,0,4.68-4.32,7.99-10.38,7.99Z"/></g><g><path class="cls-2" d="M280.31,80.27l-2.16,6.38h-6.43l11.11-31.87h7.67l11.11,31.87h-6.43l-2.16-6.38h-12.72Zm6.34-18.74l-4.46,13.09h8.91l-4.45-13.09Z"/><path class="cls-2" d="M311.01,60.44h-6.06v-5.65h6.06v5.65Zm0,26.22h-6.06v-23.65h6.06v23.65Z"/><path class="cls-2" d="M330.06,68.43c-2.43-.28-4.45,0-5.83,1.47-1.28,1.33-1.51,3.26-1.51,5.14v11.62h-6.06v-23.65h5.79v2.34c1.93-2.38,4.78-3.26,7.62-2.8v5.88Z"/><path class="cls-2" d="M338.13,77.2c.78,2.9,3.08,4.68,5.93,4.68,2.02,0,4-.87,5-2.75h6.48c-1.38,4.82-5.56,8.08-11.44,8.08-6.66,0-12.12-5.51-12.12-12.35s5.47-12.45,12.12-12.45,12.77,5.42,11.89,14.79h-17.87Zm11.85-4.96c-.73-2.76-3.03-4.5-5.92-4.5s-4.96,1.74-5.83,4.5h11.76Z"/><path class="cls-2" d="M369.8,87.21c-6.02,0-10.47-3.17-11.2-8.27h6.15c.83,2.02,3.26,2.76,5.05,2.76,2.44,0,4.27-.74,4.27-2.11s-.83-1.88-4.96-2.53c-4.22-.64-9.87-1.79-9.87-7.07,0-3.72,3.26-7.58,10.1-7.58,5.42,0,9.46,2.94,10.24,7.4h-6.29c-.37-1.1-1.7-1.98-3.95-1.98-2.8,0-3.95,1.01-3.95,1.88,0,1.24,1.75,1.66,4.69,2.11,5.88,.96,10.1,2.25,10.1,7.39,0,4.68-4.32,7.99-10.38,7.99Z"/></g><g><path class="cls-2" d="M305.81,130.7c-9.91,0-17.62-8.34-17.62-18.98s7.71-18.99,17.62-18.99c8.23,0,14.32,4.67,16.57,12.12h-7.5c-1.62-3.3-4.87-5.77-9.07-5.77-5.98,0-10.7,5.77-10.7,12.64s4.72,12.69,10.7,12.69c4.14,0,7.45-2.57,9.07-5.87h7.45c-2.31,7.4-8.44,12.17-16.52,12.17Z"/><path class="cls-2" d="M333.82,100.12h-6.92v-6.45h6.92v6.45Zm0,29.95h-6.92v-27.01h6.92v27.01Z"/><path class="cls-2" d="M364.18,130.07h-6.61v-2.46c-1.68,1.94-4.04,3.09-6.87,3.09-6.4,0-10.65-4.77-10.65-11.85v-15.78h6.93v15.78c0,1.52,.52,5.3,5.03,5.3,3.09,0,5.24-2.31,5.24-5.3v-15.78h6.92v27.01Z"/><path class="cls-2" d="M396.65,130.07h-6.61v-2.89c-2.15,2.2-4.98,3.46-8.29,3.46-7.02,0-12.85-6.08-12.85-14.06s5.83-14.1,12.85-14.1c3.15,0,5.87,1.15,7.97,3.14v-14.58h6.92v39.02Zm-13.84-21.19c-3.83,0-6.93,3.36-6.93,7.76s3.09,7.61,6.93,7.61,6.92-3.41,6.92-7.61-3.09-7.76-6.92-7.76Z"/><path class="cls-2" d="M420.82,127.55c-1.78,1.89-4.51,3.04-8.28,3.04-5.72,0-10.96-2.89-10.96-8.76s5.09-7.65,11.07-8.18c4.51-.42,7.71-.95,7.71-3.15,0-1.42-1.83-2.57-4.93-2.57-2.47,0-5.3,1.1-5.93,3.41h-6.92c.68-5.14,5.61-8.97,12.69-8.97,10.96,0,11.8,7.08,11.8,9.23v14.06c0,1.31,.42,3.36,.79,4.4h-6.34c-.32-.68-.52-1.52-.68-2.52Zm-.21-10.49c-1.47,.94-3.73,1.41-6.55,1.73-3.41,.37-5.51,1.1-5.51,3.09,0,1.52,1.78,2.57,4.56,2.57,4.14,0,7.5-1.42,7.5-4.88v-2.51Z"/><path class="cls-2" d="M459.79,130.07h-6.61v-2.89c-2.15,2.2-4.98,3.46-8.29,3.46-7.02,0-12.85-6.08-12.85-14.06s5.83-14.1,12.85-14.1c3.15,0,5.87,1.15,7.97,3.14v-14.58h6.92v39.02Zm-13.84-21.19c-3.83,0-6.93,3.36-6.93,7.76s3.09,7.61,6.93,7.61,6.92-3.41,6.92-7.61-3.09-7.76-6.92-7.76Z"/></g><g><path class="cls-3" d="M127.22,71.65c4.92-5.23,8.75-7.69,11.48-15.99,2.18-7.7,2.18-16-1.09-23.37-5.47-12.31-16.4-18.77-32.8-22.15-13.67-2.46-39.35-.93-54.12-.93-22.95,0-28.42,4.31-28.42,27.07V118.71c0,24.6,18.58,22.14,32.8,22.14,26.78,0,53.02,2.78,74.34-7.68,3.28,2.46,3.83,4.92,9.29,7.38,4.38,1.84,9.84,2.15,14.22,.3,12.57-5.23,8.2-14.14,17.49-15.68,7.65-1.23,25.14-.31,33.35-.31,7.1,0,26.23-1.54,30.61,2.46,2.73,2.15,3.83,6.46,7.11,9.54,10.38,9.84,27.33,4.92,31.16-8.31,2.73-9.53-3.28-17.83-7.11-24.6-3.83-7.39-7.11-14.46-10.94-21.53-4.37-8-30.61-60.9-34.43-65.52-3.83-5.23-12.02-10.76-22.96-9.54-16.94,1.54-22.41,19.07-30.61,35.06-2.73,5.53-20.77,41.21-22.95,43.06-2.19-2.16-2.19-3.69-7.11-8-2.19-2.16-6.02-4-9.29-5.84Z"/><g class="cls-4"><path class="cls-3" d="M295.58,148.32V.96c0-.53-66.13-.96-147.68-.96h0C66.16,0,0,.43,0,.96H0V148.32c0,.54,66.16,.97,147.9,.97h0c81.56,0,147.68-.43,147.68-.97Z"/></g></g></svg>