<svg fill="none" height="220" viewBox="0 0 378 220" width="378" xmlns="http://www.w3.org/2000/svg"><g fill="#faf7f5"><path d="m175.667 76h8.673c2.203 0 3.942.6071 5.043 1.7086.424.4153.759.9132.982 1.463.224.5497.333 1.1395.319 1.7329v.0564c0 2.3157-1.322 3.5559-2.758 4.3018 2.26.7719 3.834 2.0641 3.834 4.6833v.0564c0 3.4692-2.841 5.2905-7.142 5.2905h-8.951zm7.966 8.1309c2.169 0 3.639-.8673 3.639-2.6019v-.0564c0-1.5134-1.215-2.4501-3.392-2.4501h-4.878v5.1084zm.993 8.1612c2.316 0 3.721-.9107 3.721-2.6496v-.052c0-1.6305-1.301-2.6019-3.972-2.6019h-5.373v5.3035z"/><path d="m194.735 90.0024v-9.2627h3.339v8.2697c0 2.2593 1.127 3.5559 3.113 3.5559s3.279-1.353 3.279-3.608v-8.2176h3.334v14.5532h-3.334v-2.2593c-.937 1.379-2.286 2.5628-4.549 2.5628-3.279 0-5.182-2.2029-5.182-5.594z"/><path d="m210.641 88.0728v-.0564c0-4.1587 2.949-7.5802 7.112-7.5802 4.631 0 6.973 3.6383 6.973 7.8317 0 .2992-.026.6028-.057.9367h-10.694c.36 2.3677 2.043 3.6903 4.19 3.6903 1.63 0 2.784-.6028 3.941-1.7346l1.96 1.7346c-.714.8835-1.624 1.5897-2.656 2.0636-1.033.474-2.162.7027-3.298.6684-4.219 0-7.471-3.0616-7.471-7.5541zm10.776-1.0755c-.217-2.1682-1.488-3.8291-3.69-3.8291-2.043 0-3.47 1.5698-3.778 3.8291z"/><path d="m227.54 80.7398h3.322v2.2593c.936-1.3747 2.289-2.5629 4.549-2.5629 3.278 0 5.203 2.2073 5.203 5.5984v9.2584h-3.334v-8.2697c0-2.2593-1.132-3.5515-3.118-3.5515s-3.3 1.3486-3.3 3.6079v8.2133h-3.335z"/><path d="m243.281 88.0987v-.052c-.001-1.0132.201-2.0164.593-2.9507.393-.9342.968-1.7806 1.691-2.4896.724-.7089 1.583-1.2661 2.525-1.6388s1.949-.5533 2.962-.5314c4.467 0 7.745 3.3911 7.745 7.5541v.0564c0 4.1326-3.309 7.5801-7.806 7.5801-1.003.0243-2.002-.1525-2.936-.5199-.935-.3674-1.786-.9181-2.505-1.6196-.718-.7014-1.289-1.5396-1.679-2.465-.389-.9254-.59-1.9194-.59-2.9236zm12.181 0v-.052c0-2.5628-1.847-4.6877-4.466-4.6877s-4.38 2.0945-4.38 4.6313v.0564c0 2.5325 1.847 4.6834 4.436 4.6834 2.702 0 4.41-2.1206 4.41-4.6314z"/><path d="m260.454 93.3935 1.487-2.2593c1.358 1.0902 3.03 1.7177 4.77 1.791 1.431 0 2.259-.6071 2.259-1.5742v-.052c0-1.1318-1.543-1.5178-3.252-2.0425-2.168-.6071-4.549-1.4874-4.549-4.2714v-.0564c0-2.7536 2.285-4.4362 5.182-4.4362 1.903.0361 3.756.6088 5.347 1.6522l-1.323 2.3721c-1.405-.8673-2.892-1.379-4.106-1.379-1.301 0-2.043.6071-2.043 1.4614v.0737c0 1.0451 1.574 1.4874 3.283 2.0381 2.121.6635 4.519 1.6262 4.519 4.2454v.0564c0 3.0572-2.368 4.5749-5.399 4.5749-2.24-.0273-4.41-.789-6.175-2.1682"/><path d="m182.068 100.111h3.144l8.491 19.436h-3.604l-1.956-4.662h-9.106l-1.986 4.662h-3.47zm4.852 11.769-3.326-7.693-3.308 7.714z"/><path d="m194.696 99.5903h3.581v3.1697h-3.581zm.138 5.3987h3.335v14.558h-3.335z"/><path d="m201.972 104.989h3.335v3.283c.911-2.168 2.602-3.669 5.156-3.556v3.526h-.195c-2.923 0-4.961 1.903-4.961 5.763v5.542h-3.335z"/><path d="m211.512 112.322v-.056c0-4.159 2.949-7.58 7.108-7.58 4.631 0 6.977 3.638 6.977 7.831 0 .304-.03.603-.056.937h-10.694c.356 2.368 2.038 3.69 4.189 3.69 1.626 0 2.784-.602 3.942-1.734l1.956 1.734c-.715.884-1.624 1.59-2.657 2.064s-2.161.703-3.297.668c-4.215 0-7.468-3.061-7.468-7.554zm10.776-1.075c-.221-2.168-1.487-3.829-3.694-3.829-2.038 0-3.469 1.569-3.777 3.829z"/><path d="m227.223 117.63 1.47-2.246c1.356 1.098 3.028 1.733 4.771 1.812 1.431 0 2.259-.607 2.259-1.569v-.078c0-1.132-1.544-1.518-3.252-2.043-2.169-.607-4.549-1.487-4.549-4.271v-.057c0-2.753 2.289-4.436 5.182-4.436 1.902.035 3.756.608 5.346 1.652l-1.322 2.372c-1.405-.867-2.893-1.379-4.107-1.379-1.301 0-2.038.607-2.038 1.462v.056c0 1.045 1.57 1.488 3.278 2.038 2.121.664 4.523 1.626 4.523 4.246v.056c0 3.036-2.372 4.575-5.403 4.575-2.24-.027-4.409-.789-6.175-2.168"/><path d="m173.946 134.074v-.057c0-5.485 4.106-9.973 9.952-9.973 3.551 0 5.702 1.24 7.549 3.005l-2.168 2.506c-1.544-1.431-3.196-2.398-5.403-2.398-3.695 0-6.366 3.036-6.366 6.808v.057c0 3.777 2.671 6.864 6.366 6.864 2.372 0 3.903-.967 5.542-2.51l2.168 2.207c-2.012 2.094-4.219 3.417-7.827 3.417-5.637 0-9.813-4.384-9.813-9.922"/><path d="m194.696 123.701h3.581v3.17h-3.581zm.138 5.399h3.335v14.549h-3.335z"/><path d="m201.807 138.371v-9.258h3.335v8.265c0 2.26 1.132 3.556 3.114 3.556 1.981 0 3.282-1.349 3.282-3.608v-8.213h3.335v14.536h-3.335v-2.264c-.941 1.379-2.289 2.567-4.549 2.567-3.278 0-5.182-2.207-5.182-5.598"/><path d="m217.766 136.416v-.057c0-4.822 3.282-7.55 6.756-7.55 2.398 0 3.903 1.21 4.961 2.563v-7.831h3.334v20.108h-3.334v-2.429c-1.076 1.518-2.602 2.732-4.961 2.732-3.422 0-6.756-2.732-6.756-7.554zm11.769-.018v-.056c0-2.81-1.982-4.657-4.215-4.657-2.234 0-4.189 1.764-4.189 4.657v.056c0 2.81 1.929 4.658 4.189 4.658 2.259 0 4.215-1.874 4.215-4.658z"/><path d="m245.332 143.649v-1.791c-.575.684-1.298 1.228-2.115 1.591s-1.705.535-2.598.503c-2.758 0-5.182-1.574-5.182-4.492v-.057c0-3.226 2.51-4.77 5.897-4.77 1.366-.024 2.726.181 4.024.607v-.264c0-2.008-1.266-3.114-3.582-3.114-1.436.006-2.855.316-4.163.911l-.906-2.676c1.73-.817 3.625-1.225 5.538-1.192 4.302 0 6.396 2.259 6.396 6.145v8.599zm.083-6.071c-1.068-.391-2.198-.588-3.335-.581-2.095 0-3.335.867-3.335 2.263v.052c0 1.379 1.24 2.168 2.81 2.168 2.208 0 3.86-1.24 3.86-3.035z"/><path d="m251.317 136.416v-.057c0-4.822 3.278-7.55 6.752-7.55 2.398 0 3.902 1.21 4.96 2.563v-7.831h3.335v20.108h-3.335v-2.429c-1.075 1.518-2.601 2.732-4.96 2.732-3.418 0-6.752-2.732-6.752-7.554zm11.769-.018v-.056c0-2.81-1.986-4.657-4.22-4.657-2.233 0-4.189 1.764-4.189 4.657v.056c0 2.81 1.93 4.658 4.189 4.658 2.26 0 4.22-1.874 4.22-4.658z"/><path d="m133.521 87.0753c-.084 0-.164.0334-.224.0928-.059.0593-.092.1399-.092.2238 0 .084.033.1645.092.2239.06.0593.14.0927.224.0927s.165-.0334.224-.0927c.059-.0594.093-.1399.093-.2239 0-.0417-.007-.0832-.023-.1218-.016-.0387-.039-.0738-.069-.1033-.029-.0295-.064-.0528-.103-.0685s-.08-.0235-.122-.023z"/><path d="m149.605 91.9972h-.048c-1.66-.065-3.243-.6635-4.77-1.2402-.62-.2385-1.266-.4814-1.903-.6765-1.106-.3747-2.257-.6007-3.422-.6721-.277 0-.533-.0261-.798-.0261-.707 0-1.7.0738-2.32.6722-.176-.8445-.413-1.675-.711-2.4848-.317-.7892-.781-1.7346-1.622-1.9818-.134-.0392-.272-.0596-.412-.0607-.832 0-1.465.7502-1.778 1.1925l-.138.2039c-.365.5203-.56.7849-.495 1.0277s.36.4336 1.041.8239c.286.1692.347.5941.382.9107v.0347c.064.4567.093.9178.086 1.379-.958-.9931-2.441-1.3834-3.742-1.6349-.365-.0679-.735-.1027-1.106-.104-1.393.0633-2.76.4039-4.02 1.0017-.564.2471-1.123.5117-1.665.7805-1.051.5318-2.14.9869-3.257 1.3617-.377.1135-.761.2033-1.149.2688h-.082c-.169.0304-.46.1258-.516.386-.057.2602-.022.4336.334.7155.934.4915 1.98.7292 3.035.6895.252 0 .512 0 .794-.026.368-.0217.741-.0694 1.132-.1171.562-.0853 1.13-.1346 1.699-.1474.344-.0036.688.0313 1.024.104.911.2125 1.457 1.1188 1.934 1.9124.117.2038.23.3903.347.5637.306.3727.503.8231.568 1.301-.022.4336-.581.7415-.984.993-.109.0694-.213.1258-.291.1822l-.434.2905c-.915.5813-2.168 1.3793-2.02 2.4543.038.26.16.5.348.684.188.183.432.299.692.331.049.004.099.004.148 0 .374-.03.735-.149 1.053-.347.139-.074.287-.147.434-.204.413-.171.854-.262 1.301-.269.764.01 1.503.273 2.103.746.214.168.414.352.599.551.195.223.408.431.637.62.256.175.557.273.867.282.131.013.261-.024.364-.105s.17-.199.187-.329c.089-.537.124-1.082.104-1.626-.016-.434-.001-.869.048-1.301.03-.26.1-.789.434-.945.123-.059.258-.088.394-.083.176.007.351.024.525.052.23.053.467.07.702.052.963-.13 1.774-.9232 2.169-2.1201.062-.1735.169-.3274.31-.4462s.31-.1983.492-.2303c.455-.1636.838-.4811 1.084-.8976.074-.0998.152-.1952.221-.2819.289-.3505.656-.6279 1.072-.8096.416-.1816.869-.2623 1.322-.2355.21-.0003.42.0112.629.0347.212 0 .433.0434.641.0737.543.0725 1.088.1131 1.635.1215.539.0085 1.075-.0706 1.587-.2342 1.235-.471 2.376-1.1583 3.37-2.0295l.147-.1214c.287-.2385.352-.3903.278-.6548s-.434-.3382-.568-.3556zm-21.6 3.7294c-.241-.4229-.514-.8273-.815-1.2099-.733-.8933-1.704-1.3009-3.153-1.3009-.62.0107-1.24.0556-1.856.1344-.61.0752-1.224.1187-1.838.1301-.29.0027-.58-.0162-.868-.0564 1.039-.3678 2.053-.8024 3.036-1.3009 1.048-.5354 2.133-.9934 3.248-1.3703.703-.2126 1.434-.3207 2.168-.3209 1.276-.0197 2.529.3362 3.604 1.0234.845.5594 1.088 1.1491.802 1.9774-.344.9538-.875 1.8294-1.561 2.5758-.048.0521-.096.1171-.161.1865-.32.3773-.867 1.0147-1.301 1.0147-.07-.0004-.14-.0166-.204-.0473-.064-.0308-.12-.0753-.164-.1305-.351-.4115-.659-.8575-.919-1.3312zm8.495 1.2055c-.06.6695-.355 1.2962-.832 1.7693-.195.1633-.42.2859-.663.3604s-.498.0994-.751.0732h-.65c-.171-.0047-.34.0255-.498.0889s-.302.1586-.422.2797c-.694.7244-.694 2.2684-.672 3.2954v.33l-.069-.065c-.868-.815-1.705-1.592-2.945-1.778-.197-.034-.398-.05-.598-.048-.397.005-.793.053-1.18.143-.333.094-.657.219-.967.373-.125.048-.247.109-.373.165-.148.065-.306.106-.468.121-.012.006-.026.008-.039.008s-.027-.002-.039-.008c-.006-.021-.006-.043 0-.065.121-.433.572-.719.932-.958l.096-.065c.928-.624 1.786-1.2489 2.645-1.9124 1.561-1.2142 3.278-2.7319 4.133-4.7701.494-1.2187.702-2.5347.607-3.8464v-.1128c-.005-.5623-.106-1.1196-.3-1.6478-.185-.3676-.491-.6601-.867-.8283-.065-.039-.13-.0737-.186-.1127.16-.3123.624-1.1145 1.145-1.1145.119.0103.235.0491.337.1133.102.0641.187.1516.248.2553.552.8469.944 1.7875 1.158 2.7753.039.1518.091.3209.139.4944.49 1.7346 1.3 4.6573 1.045 6.7215zm10.646-3.261c-.701.4345-1.504.6795-2.328.7112h-.07c-.472-.0165-.942-.0613-1.409-.1345-.399-.052-.807-.104-1.21-.1214-.829-.083-1.665.0847-2.398.4814-.396.2677-.742.6022-1.023.9887-.205.2697-.436.5182-.69.7415-.076.0754-.175.1241-.282.1388-.113 0-.121-.0781-.113-.2429.003-.0375.003-.0752 0-.1127 0-.3773-.073-.7502-.121-1.1058l-.035-.2082c-.077-.6558-.189-1.3071-.334-1.9514-.026-.1171-.065-.2471-.112-.3946-.182-.5767-.408-1.3009.039-1.6608.315-.19.676-.2919 1.045-.2949 0 0 .347-.0304.728-.0347h.143c.435.0008.87.0283 1.301.0824.884.1257 1.754.3348 2.598.6244.538.1822 1.08.3816 1.613.5811 1.227.4989 2.497.885 3.794 1.1535-.365.2688-.746.5164-1.14.7415"/><path d="m160.702 103.376c-.362-2.318-.935-4.5988-1.713-6.8126-.749-2.1207-1.692-4.1675-2.819-6.1144-.875-1.5106-1.87-2.9491-2.974-4.3017-1.41-1.7313-3.01-3.298-4.77-4.6704-1.721-1.3304-3.6-2.4418-5.594-3.3087-1.993-.8596-4.094-1.4432-6.245-1.7346-2.187-.2856-4.404-.2564-6.583.0867-2.139.3413-4.222.976-6.188 1.8864-1.977.9151-3.834 2.0701-5.529 3.4388-1.73 1.4086-3.296 3.0088-4.666 4.7701-1.354 1.7129-2.536 3.5546-3.53 5.4986-1.03 2.0277-1.872 4.1455-2.515 6.3269-.669 2.2789-1.131 4.6149-1.379 6.9769-.256 2.45-.293 4.917-.113 7.372.181 2.392.579 4.762 1.189 7.082.576 2.22 1.357 4.381 2.333 6.457.938 1.99 2.063 3.886 3.36 5.663 1.466 1.986 5.204 5.508 5.204 5.508 4.376 3.59 9.683 5.715 15.416 5.715 2.187.001 4.363-.31 6.462-.924 2.075-.605 4.062-1.48 5.91-2.601 1.878-1.153 3.613-2.522 5.169-4.081 1.554-1.561 2.942-3.278 4.142-5.126 1.216-1.868 2.25-3.849 3.087-5.915.876-2.147 1.551-4.371 2.017-6.643.989-4.787 1.1-9.714.329-14.54zm-48.889 15.989h-.703l.629-2.386c.065-.182.1-.169.117-.095 0 .867-.026 1.7-.043 2.489zm.347-6.496-1.418-.664c-.083-.039-.074-.065 0-.065h3.035c.087 0 .091.026 0 .065l-1.331.655c-.093.03-.193.03-.286 0zm-1.774-1.345 1.583-1.123c0 .364 0 .742-.022 1.123zm.525-3.799h2.71c.074 0 .078.031 0 .061l-1.21.573c-.086.027-.178.027-.264 0l-1.258-.581c-.069-.031-.065-.057 0-.057zm-.356-.555 1.488-.962c0 .303 0 .624-.022.962zm1.969-.936 1.44.936h-1.405c0-.316 0-.633 0-.936zm.095 4.167 1.592 1.119h-1.583c0-.377 0-.759 0-1.119zm.139 8.964c0-.79-.03-1.627-.043-2.485 0-.061.056-.104.104.069l.637 2.416zm20.815 21.417c-4.157-.017-8.219-1.248-11.687-3.543 2.716.051 5.424.309 8.101.772 2.693.399 5.382.846 8.087 1.119 1.037.109 2.082.187 3.127.23-2.426.954-5.008 1.445-7.615 1.448zm12.359-3.955c-2.672.237-5.361.189-8.022-.143-2.663-.286-5.304-.733-7.953-1.118-2.725-.449-5.479-.688-8.24-.716-.936 0-1.864.052-2.801.147-.885-.789-1.719-1.633-2.498-2.528 2.773-.365 5.578-.432 8.365-.199 2.797.208 5.577.616 8.348 1.028 1.396.208 2.788.412 4.18.598.694.091 3.469.304 4.133.304 2.789-.003 5.573-.229 8.326-.677-1.172 1.217-2.458 2.318-3.842 3.287zm6.336-6.266c-2.678.625-5.407 1.002-8.153 1.128-1.371.086-2.747.1-4.119.039-1.388-.065-2.763-.291-4.137-.486-2.763-.399-5.529-.841-8.305-1.153-2.765-.329-5.552-.435-8.334-.317-1.516.073-3.024.253-4.515.538-.511-.711-.993-1.453-1.452-2.221 2.457-.514 4.954-.822 7.463-.919 2.537-.066 5.075.079 7.588.434 2.433.321 4.844.763 7.277 1.093 2.221.314 4.461.479 6.704.494 2.325-.006 4.645-.2 6.938-.581 1.679-.269 3.348-.612 4.987-1.045-.593 1.05-1.249 2.063-1.964 3.035zm-37.094-8.504c-.387-.237-.705-.57-.924-.967-.22-.396-.333-.843-.33-1.296l3.6-8.482c.078-.152.112-.104.091 0zm2.385-8c-.052 3.798-.104 7.337-.126 9.033-.66-.159-1.289-.427-1.86-.794l1.903-8.413c.052-.082.074.044.083.174zm-.928-7.485h2.706c.073 0 .078.03 0 .065l-1.202.585c-.04.019-.083.028-.128.028-.044 0-.087-.009-.127-.028l-1.262-.576c-.07-.035-.065-.065 0-.065zm-.352-.538 1.427-.941v.941zm1.995-.923 1.414.923h-1.388c0-.321 0-.629 0-.923zm2.914 12.454c-.043 1.821-.091 3.638-.117 5.043l-.043.031-1.223-5.261.646-1.53zm-.472-2.298.481-1.132c.052-.074.078-.052.095 0-.021.737-.043 1.518-.06 2.32zm-1.215 2.831 1.163 4.77c-.438.164-.894.272-1.358.321-.158.023-.317.038-.477.044-.095.008-.191.008-.286 0 0-.642 0-1.614-.035-2.802zm-1.01 1.223c0-1.578-.048-3.421-.074-5.334 0-.156.048-.264.126-.034l.789 3.391zm1.136-2.688-1.231-5.356c0-.104 0-.156.091 0l1.734 3.994zm2.364 1.66v-.776c-.031-1.392-.07-2.038-.1-3.326 0-.095.039-.156.104-.048l2.168 5.36c-.219.563-.544 1.078-.958 1.518zm.867 3.075c-.23.247-.479.475-.746.681 0-.733-.052-1.678-.069-2.537zm2.168-2.051 2.454-5.282c-.047 1.513-.095 3.686-.138 5.282h-.989c-.373 0-.954 0-1.301 0zm17.584-6.761h3.548c.095 0 .108 0 .043.061s-1.613.772-1.613.772c-.054.023-.111.034-.169.034s-.116-.011-.169-.034l-1.657-.763c-.095-.048-.087-.074 0-.074zm-.425-.711 1.861-1.327v1.327zm.686-5.23c.02-.002.04-.002.06 0h2.971.056c.022 0 0 .031-.043.052l-1.349.625c-.09.032-.188.032-.277 0l-1.384-.629c-.047 0-.06-.043-.052-.052zm-.334-.641 1.595-1.128v1.132zm2.138-1.115 1.626 1.119h-1.587c0-.382 0-.755 0-1.115zm.117 5.642 1.851 1.327h-1.847c0-.434 0-.894-.026-1.327zm5.355-1.427h3.036c.082 0 .095.026 0 .065l-1.353.685c-.09.031-.188.031-.278 0l-1.418-.65c-.078-.039-.074-.065 0-.065zm-.377-.598 1.587-1.128v1.128zm2.211-1.123 1.614 1.123h-1.596c0-.382 0-.755 0-1.123zm-.68 6.504c-.052 3.682-.113 7.628-.152 10.408-.752.271-1.553.381-2.35.321l1.509-6.739.893-3.968c.035-.1.082-.152.1-.026zm-.23-1.561-2.637 11.709-1.145-3.14 3.608-8.647c.096-.173.204-.286.165.117zm-2.906 12.22c-.738-.166-1.42-.52-1.981-1.028l.867-2.046zm-2.298-1.348c-.364-.389-.672-.827-.915-1.301 0-1.778-.061-4.415-.104-7.251l1.995 6.175zm-4.336-1.427h-4.337l6.444-7.311zm2.48-7.121c0 1.644-.074 6.939-.074 7.121h-1.973zm8.079-.75c0-.117.056-.082.1.031l1.817 7.836c-.396.819-1.014 1.512-1.783 1.999 0-1.427-.13-9.831-.134-9.866zm2.376 7.806-2.22-9.311c-.069-.559.082-.359.191-.156l4.059 9.467zm3.617-4.54c-.294 1.483-.682 2.946-1.162 4.379l-4.857-11.535 2.138-.949c.05-.025.093-.063.122-.111.03-.047.046-.102.046-.158s-.016-.111-.046-.159c-.029-.047-.072-.085-.122-.11l-2.212-1.574-.052-3.517c.26-.03.507-.152.759-.191.277-.027.557-.008.828.057.249.054.506.054.755 0 .232-.074.448-.193.633-.352-.551 0-1.002-.364-1.487-.585-.25-.109-.515-.181-.785-.213-.279-.043-.563-.031-.837.035-.031-.208-.057-.434-.091-.655h-.113c-.132.998-.189 2.004-.169 3.01 0 .689 0 1.383-.022 2.064v.373l-2.22 1.578c-.051.025-.093.063-.123.111-.029.047-.045.102-.045.158s.016.111.045.159c.03.047.072.086.123.11l2.068.95-4.18 10.177-2.168-6.543 2.389-1.119c.056-.031.103-.076.136-.131.032-.055.05-.117.05-.181s-.018-.127-.05-.182c-.033-.055-.08-.1-.136-.131 0 0-2.251-1.578-2.545-1.79 0-.829-.026-1.735-.035-2.503l2.168-1.032c.049-.025.09-.064.119-.111.029-.048.044-.102.044-.158 0-.055-.015-.109-.044-.157-.029-.047-.07-.086-.119-.111l-2.237-1.592c0-1.604-.04-3.209-.061-4.8134.141-.0068.28-.036.412-.0867.142-.0447.287-.0809.433-.1084.277-.0375.558-.0228.829.0434.259.0606.529.0606.789 0 .233-.0752.449-.1945.637-.3513-.555 0-1.01-.3642-1.491-.5854-.249-.111-.514-.1827-.785-.2125-.277-.0424-.56-.0306-.833.0347-.026-.2125-.056-.4336-.095-.6635h-.104c-.132.8856-.19 1.7805-.174 2.6761v2.45 1.591l-2.22 1.587c-.05.026-.092.064-.122.112-.029.048-.045.103-.045.159s.016.112.045.159c.03.048.072.087.122.112l2.168 1.032c0 .772 0 1.687-.035 2.507l-2.588 1.795c-.058.03-.105.076-.139.131-.033.055-.051.119-.051.184 0 .064.018.128.051.183.034.055.081.101.139.131l2.337 1.119-7.307 8.109c-.143 0-1.054 0-1.184.173-.081.071-.136.166-.156.272-.02.105-.005.214.043.309.119.256.321.464.573.59.124.075.255.139.39.191.016.009.031.021.043.035 0 0 .655 2.168 3.47 3.209 0 0 .073.026.052.086-.022.061 0 0 0 .026h-.074c-2.689-.169-5.343-.615-7.996-1.027-1.02-.169-2.03-.321-3.036-.434-.685-.087-1.37-.169-2.055-.295-.07 0-.105-.043-.118-.069l.035-.052c3.738-1.115 4.523-3.842 4.523-3.842s.1-.052.143-.074l.299-.143c.25-.13.451-.337.573-.59.049-.096.064-.207.043-.313s-.078-.202-.16-.272c-.139-.182-1.197-.178-1.197-.178h-.182c0-.586 0-2.095-.052-3.075.116.031.24.022.351-.026.139-.039.273-.082.434-.112.286-.06.581-.06.867 0 .274.069.559.078.837.026.244-.071.47-.192.663-.356-.563 0-1.019-.39-1.517-.607-.263-.115-.543-.182-.829-.2-.282-.046-.571-.022-.841.07-.022-.234-.043-.434-.065-.586h-.108c-.144.837-.148 3.738-.152 4.866h-1.913c-.06-2.043-.147-4.77-.199-6.505l1.63-3.469c.222.1.482.117.712.204.243.091.466.228.659.403.188.175.407.313.646.408.264.073.542.082.811.026-.412-.352-.743-.791-.967-1.284-.156-.22-.347-.413-.564-.572-.227-.183-.486-.321-.763-.408.068-.183.119-.371.152-.564 0-.017-.003-.035-.011-.051-.007-.015-.019-.029-.033-.04h-.03c-.074 0-.091.057-.143.117-.137.187-.261.383-.373.586l-1.735 3.725c0-.59-.026-1.175-.034-1.765.007-.736-.047-1.472-.161-2.199h-.121c-.128.888-.185 1.784-.169 2.68 0 .802-.035 1.609-.061 2.416l-2.988 6.183-2.676-6.561c0-.811-.039-1.626-.047-2.437.011-.922-.047-1.844-.174-2.758h-.104c-.124.898-.179 1.804-.165 2.711 0 .832-.034 1.656-.052 2.48l-.867 2.021-2.081-4.866c0-.815 0-1.609-.039-2.385l1.908-.897c.043-.023.08-.057.105-.099.026-.042.039-.091.039-.14s-.013-.097-.039-.139c-.025-.042-.062-.077-.105-.099 0 0-1.609-1.158-1.956-1.397-.022-1.682-.035-3.36-.061-5.043.124-.0074.247-.0322.364-.0737.142-.0461.287-.0823.434-.1085.275-.0376.555-.0229.824.0434.261.0613.533.0613.794 0 .233-.0743.45-.1936.637-.3512-.526-.0874-1.028-.2871-1.47-.5855-.248-.1162-.513-.1909-.785-.2211-.288-.0485-.583-.0381-.867.0303-.022-.2255-.048-.4336-.087-.6635h-.104c-.146 1.0733-.205 2.1566-.178 3.2398 0 1.045-.026 2.09-.039 3.135v.585l-1.947 1.392c-.043.024-.08.058-.105.101-.025.042-.039.091-.039.14s.014.098.039.14c.025.043.062.077.105.101l1.895.906c0 .867-.035 2.285-.035 2.385l-3.868 9.111-.563-2.095h.737c.111-.007.221-.03.325-.069.074 0 .247-.087.247-.186 0-.1-.156-.152-.221-.178-.111-.047-.231-.072-.351-.074h-.868l-.381-1.44c0-.594-.022-1.192-.031-1.773l2.138-1.006c.049-.026.091-.065.119-.112.029-.048.044-.102.044-.157 0-.056-.015-.11-.044-.157-.028-.048-.07-.086-.119-.112 0 0-2.055-1.457-2.207-1.557 0-.434 0-1.015 0-1.405l1.93-.906c.043-.025.079-.06.104-.103.025-.044.038-.092.038-.142s-.013-.099-.038-.142-.061-.079-.104-.103c0 0-1.735-1.227-1.986-1.414 0-1.401-.031-2.342-.035-2.446.231-.021.459-.074.677-.156.241-.032.485-.024.724.022.231.05.471.05.702 0 .218-.066.418-.18.586-.334-.472-.078-.922-.252-1.323-.512-.224-.099-.463-.162-.707-.186-.247-.039-.5-.025-.741.043-.022-.186-.052-.373-.096-.581h-.099c-.129.768-.184 1.546-.165 2.324 0 .673 0 1.124-.035 1.796l-1.973 1.426c-.045.023-.082.058-.108.101s-.04.092-.04.142.014.1.04.142c.026.043.063.078.108.101l1.93.915c0 .395 0 .984-.022 1.405l-2.164 1.557c-.049.026-.09.064-.119.112-.028.047-.044.101-.044.157 0 .055.016.109.044.157.029.047.07.086.119.112l2.125 1.01c0 .581-.026 1.171-.035 1.735l-.39 1.487h-.867c-.112.005-.222.029-.326.069-.078.031-.247.087-.247.191s.152.152.221.174c.112.046.231.074.352.082h.243.498l-.681 2.52h-1.071c-.647-2.443-1.042-4.945-1.179-7.468-.144-2.525-.038-5.058.316-7.563.328-2.326.882-4.6147 1.653-6.8339.732-2.1122 1.673-4.1459 2.81-6.071.598-1.0159 1.257-1.9948 1.973-2.9315 2.914.9844 6.66.0781 6.66.0781 3.379-.6071 5.49-.5161 6.713-.3253l.659.1171c.056-.3697.139-.735.248-1.0928-3.561-1.1188-7.524-.5767-7.524-.5767-2.42.2212-3.903-.2689-4.645-.6895.858-.9059 1.783-1.7453 2.767-2.5108 1.135.7389 2.419 1.2186 3.76 1.405.867.1518 1.734.2168 2.563.412.865.1935 1.718.4382 2.554.7328.295.1041.685.2949.867.3773.168-.3413.367-.6665.594-.9714l-.572-.3469c-1.036-.5615-2.135-.9982-3.274-1.3009-.77-.2241-1.518-.5143-2.238-.8673-.604-.3201-1.157-.7294-1.639-1.2142 1.042-.6275 2.134-1.1671 3.265-1.6132.733 1.0364 2.095 1.6175 3.036 2.4154.795.657 1.492 1.4252 2.068 2.281.298-.2378.63-.4293.985-.5681-.514-1.2265-1.249-2.3481-2.168-3.3087-.536-.4548-.946-1.0404-1.189-1.6999 1.225-.2964 2.475-.4764 3.734-.5377l.603 5.3338c.188-.0281.378-.0411.568-.039.19.0008.38.0138.568.039l.594-5.3295c.873.0465 1.742.1479 2.602.3036.646.1257 1.14.2515 1.14.2515-.249.6549-.657 1.2376-1.188 1.6956-.921.9622-1.657 2.087-2.168 3.3173.352.1343.683.3167.984.5421.583-.8498 1.277-1.617 2.065-2.281.91-.7936 2.272-1.405 3.009-2.4154.791.3068 1.565.6586 2.316 1.0538l.971.555c-.518.4397-1.062.8467-1.63 1.2186-.712.3681-1.46.6589-2.234.8673-1.141.3034-2.243.74-3.282 1.3009l-.555.3426c.238.2959.443.6173.611.9584.282-.1398.572-.2643.867-.373.835-.2947 1.686-.5394 2.55-.7328.841-.1952 1.704-.2602 2.559-.412 1.336-.1939 2.616-.673 3.751-1.405.973.7805 1.897 1.6205 2.766 2.5151-.767.4337-2.237.9063-4.64.6852 0 0-3.981-.5464-7.515.5637.108.3541.185.7168.23 1.0841l.703-.1127c1.253-.1778 3.308-.2515 6.682.3556 0 0 3.738.8673 6.648-.0737.286.3729.568.7588.837 1.1448 1.241 1.8122 2.294 3.7462 3.144 5.7718.889 2.1362 1.569 4.3539 2.029 6.6214.488 2.384.748 4.809.776 7.242.031 2.643-.213 5.283-.728 7.875"/></g></svg>