<svg fill="none" height="220" viewBox="0 0 378 220" width="378" xmlns="http://www.w3.org/2000/svg"><path d="m104.92 123.997v-45.997l-20.0735 33.935z" fill="#ffe644"/><path d="m104.92 78 20.073 33.935-20.073 11.972z" fill="#ec7463"/><path d="m84.8465 114.546 20.0735 11.972v15.482" fill="#009ecb"/><path d="m124.993 114.546-20.073 11.972v15.482" fill="#4d68ae"/><path d="m104.92 99.9635-20.0735 11.9715 20.0735 11.972z" fill="#57a759"/><path d="m104.92 99.9635 20.073 11.9715-20.073 11.972z" fill="#8e5298"/><g fill="#faf7f5"><path d="m138.582 101.592c0-1.17.27-2.3406.81-3.4208.54-.9901 1.26-1.8002 2.251-2.3403.99-.5401 2.16-.8102 3.24-.8102s2.25.2701 3.241.8102c.9.5401 1.71 1.3502 2.16 2.3403.54 1.0802.81 2.2508.81 3.4208v.99h-9.181c0 .72.36 1.44.9 1.89.63.54 1.35.72 2.16.72.63 0 1.17-.09 1.71-.45.631-.36 1.261-.81 1.711-1.44l2.07 2.16c-.72.811-1.53 1.441-2.43 1.891-.991.45-1.981.63-3.061.63-1.17 0-2.34-.27-3.33-.81-.991-.54-1.711-1.351-2.251-2.251-.63-.9-.81-2.07-.81-3.33zm9.092-1.35c-.09-.6305-.36-1.2606-.901-1.7107-1.17-.9001-2.7-.9001-3.87 0-.54.4501-.81 1.0802-.99 1.7107z"/><path d="m161.446 98.4413v4.9507c0 .36.09.63.27.9.27.18.63.27.99.27h2.79v3.241h-3.15c-1.17.09-2.251-.27-3.151-.99-.81-.721-1.17-1.711-1.08-2.791v-5.6707h-3.06v-2.9705h3.06v-3.1505h3.331v3.1505h4.86v2.9705z"/><path d="m170.807 90.7901h3.331v5.7609h.09c1.53-1.6202 4.05-1.9803 5.941-.8101.72.4501 1.26 1.0802 1.62 1.8003.36.9001.63 1.8003.54 2.7008v7.471h-3.331v-7.021c0-.7204-.18-1.3505-.63-1.8906-.45-.4501-1.08-.7201-1.71-.7201-.72 0-1.35.18-1.89.7201-.45.5401-.72 1.1702-.72 1.8906v7.021h-3.331z"/><path d="m186.02 101.592c0-1.17.27-2.3406.81-3.4208.54-.9901 1.26-1.8002 2.25-2.3403s2.16-.8102 3.241-.8102c1.08 0 2.25.2701 3.24.8102.9.5401 1.71 1.3502 2.16 2.3403.541 1.0802.811 2.2508.811 3.4208v.99h-9.182c0 .72.36 1.44.9 1.89.63.54 1.35.72 2.161.72.63 0 1.17-.09 1.71-.45.63-.36 1.26-.81 1.71-1.44l2.07 2.16c-.72.811-1.53 1.441-2.43 1.891-.99.45-1.98.72-3.06.63-1.171 0-2.341-.27-3.331-.81s-1.71-1.351-2.25-2.251-.81-2.07-.81-3.33zm9.091-1.35c-.09-.6305-.36-1.2606-.9-1.7107-1.17-.9001-2.701-.9001-3.871 0-.54.4501-.81 1.0802-.99 1.7107z"/><path d="m203.302 95.4709h3.151v1.1702h.09c.9-.9902 2.25-1.5303 3.6-1.5303.99 0 1.981.2701 2.791.9002s1.35 1.5302 1.62 2.6104l-3.15.9901c-.271-.9901-1.171-1.6202-2.251-1.5302-.72-.09-1.44.18-1.89.7201s-.72 1.2606-.63 1.9806v6.931h-3.331z"/><path d="m217.704 101.592c0-1.17.271-2.3406.811-3.4208.54-.9901 1.26-1.8002 2.25-2.3403s2.16-.8102 3.24-.8102c1.081 0 2.251.2701 3.241.8102.9.5401 1.71 1.3502 2.16 2.3403.54 1.0802.81 2.2508.81 3.4208v.99h-9.181c0 .72.36 1.44.9 1.89.63.54 1.35.72 2.16.72.631 0 1.171-.09 1.711-.45.63-.36 1.26-.81 1.71-1.44l2.07 2.16c-.72.811-1.53 1.441-2.43 1.891-.99.45-1.98.72-3.061.63-1.17 0-2.34-.27-3.33-.81s-1.71-1.351-2.25-2.251c-.63-.9-.901-2.07-.811-3.33zm9.092-1.35c-.09-.6305-.36-1.2606-.9-1.7107-1.17-.9001-2.701-.9001-3.871 0-.54.4501-.81 1.0802-.99 1.7107z"/><path d="m234.177 103.572v-8.1012h3.331v7.3812c-.18 1.08.54 2.07 1.62 2.25h.54c.63 0 1.17-.18 1.62-.63s.63-1.08.63-1.62v-7.3812h3.331v12.3322h-3.151v-1.08h-.09c-.36.45-.9.81-1.44 1.08-1.8.72-3.781.45-5.221-.81-.81-.991-1.26-2.161-1.17-3.421z"/><path d="m248.939 95.4708h2.971v1.0802h.09c.27-.36.63-.7201.99-.9901.45-.2701.9-.3601 1.35-.3601.99 0 1.89.5401 2.341 1.3502h.09c.54-.9001 1.53-1.4402 2.52-1.3502.81 0 1.62.3601 2.16.9902.54.7201.9 1.6202.81 2.5204v9.0916h-3.06v-8.5516c0-.27-.09-.6301-.27-.8101s-.54-.27-.81-.27-.54.09-.81.36c-.18.2701-.27.5401-.27.8102v8.4615h-2.881v-8.5516c0-.27-.09-.54-.27-.8101-.18-.18-.45-.27-.72-.27s-.63.09-.81.27c-.18.2701-.36.5401-.27.8101v8.4616h-3.061z"/><path d="m142.273 124.365h-3.241v-2.97h3.241v-1.8c-.09-.99.36-1.891 1.08-2.611.81-.63 1.89-.99 2.97-.9h3.601v2.971h-3.151c-.27 0-.54.09-.72.27s-.27.45-.27.72v1.44h4.861v2.97h-4.951v8.012h-3.42z"/><path d="m154.425 126.166c0-1.171.27-2.341.81-3.421.54-.99 1.26-1.8 2.25-2.34 2.07-1.08 4.501-1.08 6.571 0 .9.54 1.71 1.35 2.25 2.34 1.081 2.16 1.081 4.681 0 6.751-.54.99-1.26 1.8-2.25 2.341-2.07 1.08-4.501 1.08-6.571 0-.99-.541-1.71-1.351-2.25-2.341-.63-.99-.9-2.16-.81-3.33zm9.181 0c.09-.9-.18-1.801-.81-2.521-.54-.63-1.35-.99-2.16-.9-.811 0-1.621.27-2.161.9-.54.72-.81 1.621-.81 2.521-.09.9.18 1.8.81 2.52 1.17 1.17 3.061 1.26 4.321.09l.09-.09c.54-.72.81-1.62.72-2.52z"/><path d="m170.897 128.146v-8.101h3.331v7.381c-.18 1.08.63 2.07 1.71 2.25h.54c.63 0 1.17-.18 1.62-.63s.63-1.08.63-1.62v-7.381h3.331v12.332h-3.151v-1.081h-.09c-.36.451-.9.811-1.44 1.081-2.07 1.17-4.771.36-5.941-1.711-.45-.81-.63-1.71-.54-2.52z"/><path d="m186.65 120.045h3.33v1.17h.09c.45-.45.99-.81 1.62-1.17.631-.27 1.261-.36 1.981-.36.81 0 1.53.18 2.25.54.72.45 1.35.99 1.71 1.71.45.9.72 1.89.63 2.88v7.472h-3.33v-7.022c0-.72-.18-1.35-.63-1.89s-1.08-.72-1.71-.72c-.721 0-1.351.18-1.891.72-.45.54-.72 1.17-.72 1.89v7.022h-3.33z"/><path d="m201.592 126.166c0-1.17.27-2.341.72-3.331s1.17-1.8 1.98-2.34c.901-.54 1.891-.81 2.971-.81 1.17-.09 2.34.36 3.24 1.08h.09v-5.401h3.331v17.013h-3.061v-1.08h-.09c-.9.99-2.25 1.44-3.6 1.44-.99 0-2.07-.27-2.881-.81-.9-.54-1.53-1.351-1.98-2.251-.45-1.17-.72-2.34-.72-3.51zm9.001.81v-1.62c0-.45-.09-.901-.36-1.261-.27-.45-.63-.72-1.08-.99s-.99-.36-1.44-.36c-.81 0-1.53.36-2.07.9-.991 1.531-.991 3.511 0 5.041.45.63 1.26.99 1.98.99.81 0 1.53-.27 2.07-.81.63-.45.9-1.17.9-1.89z"/><path d="m218.425 129.046c-.09-.99.36-1.98 1.17-2.7 1.17-.81 2.52-1.261 3.96-1.441.721-.09 1.351-.27 1.981-.54.27-.18.54-.45.54-.81s-.18-.72-.54-.9c-.45-.27-.9-.36-1.44-.36-.631 0-1.261.18-1.711.63s-.81.99-.9 1.62l-3.06-.72c.18-.81.54-1.62 1.08-2.25s1.26-1.17 2.07-1.53 1.8-.54 2.701-.54c1.35-.09 2.79.36 3.78 1.35.99.9 1.44 2.25 1.44 3.51v7.832h-2.97v-1.261h-.09c-.36.54-.9.991-1.53 1.261-.72.27-1.441.45-2.161.45s-1.53-.18-2.16-.45-1.17-.721-1.53-1.261c-.45-.63-.63-1.26-.63-1.89zm7.741-1.26v-1.44h-.09c-.18.27-.45.45-.72.54-.54.18-.99.36-1.531.45-.63.09-1.26.27-1.8.63-.27.18-.54.54-.45.9 0 .36.18.63.45.81.36.18.81.27 1.26.27s.991-.09 1.441-.27.81-.45 1.08-.81c.18-.36.36-.72.36-1.08z"/><path d="m240.568 123.015v4.951c0 .36.09.63.27.9.27.18.63.27.99.27h2.791v3.241h-3.151c-1.17.09-2.25-.27-3.15-.991-.81-.72-1.17-1.71-1.08-2.79v-5.671h-3.061v-2.97h3.061v-3.151h3.33v3.151h4.861v2.97h-4.861z"/><path d="m261.631 129.316v3.061h-12.152v-3.061h4.411v-6.211h-4.14v-3.06h7.471v9.271zm-7.741-14.492h3.421v3.24h-3.421z"/><path d="m265.142 126.166c0-1.171.27-2.341.81-3.421.54-.99 1.26-1.8 2.25-2.34 2.071-1.08 4.501-1.08 6.571 0 .901.54 1.711 1.35 2.251 2.34 1.08 2.16 1.08 4.681 0 6.751-.54.99-1.26 1.8-2.251 2.341-2.07 1.08-4.5 1.08-6.571 0-.9-.541-1.71-1.351-2.25-2.341s-.81-2.16-.81-3.33zm9.271 0c.09-.9-.18-1.801-.81-2.521-.54-.63-1.35-.99-2.16-.9-.81 0-1.62.27-2.16.9-.541.72-.811 1.621-.811 2.521-.09.9.18 1.8.811 2.52 1.17 1.17 3.06 1.26 4.32.09l.09-.09c.45-.72.72-1.62.72-2.52z"/><path d="m281.524 120.045h3.331v1.17h.09c.45-.45.99-.81 1.62-1.17.63-.27 1.26-.36 1.981-.36.81 0 1.53.18 2.25.54.72.45 1.35.99 1.71 1.71.45.9.72 1.89.63 2.88v7.472h-3.33v-7.022c0-.72-.18-1.35-.63-1.89s-1.08-.72-1.711-.72c-.72 0-1.35.18-1.89.72-.45.54-.72 1.17-.72 1.89v7.022h-3.331z"/></g></svg>