<svg fill="none" height="278" viewBox="0 0 1000 278" width="1000" xmlns="http://www.w3.org/2000/svg" xmlns:xlink="http://www.w3.org/1999/xlink"><linearGradient id="a" gradientUnits="userSpaceOnUse" x1="105.693" x2="268.292" y1="138.162" y2="138.163"><stop offset="0" stop-color="#00a55f"/><stop offset="1" stop-color="#4cf1ac"/></linearGradient><g clip-rule="evenodd" fill-rule="evenodd"><path d="m26.7296 0h-26.7296v215.915h26.7296zm326.2554 55.9068c-27.185 0-48.373 13.8221-59.567 32.3831-8.795 14.6121-11.993 31.1991-11.993 49.7601 0 22.115 6.396 42.651 19.589 57.657 11.993 14.217 29.983 23.301 52.37 23.301 14.792 0 28.784-4.345 39.979-11.848 12.793-8.688 21.989-22.905 24.387-38.307h-25.988c-1.998 8.293-4.796 12.638-9.194 16.981-6.396 6.714-16.791 10.268-29.184 10.268-11.993 0-21.588-3.949-28.784-11.057-9.594-9.478-15.191-24.88-15.191-39.097h111.536l.403-15.797c.398-20.93-7.196-41.071-19.989-54.8931-11.995-11.8477-27.986-19.3511-48.374-19.3511zm-43.183 67.9252c.8-22.905 14.792-45.81 43.176-45.81 13.992 0 24.387 5.529 31.183 14.2171 6.396 8.2939 9.593 20.1409 9.593 31.5929zm202.417-66.3485c-17.496 0-37.774 8.6662-46.918 24.029l-4.77-20.09h-20.277v215.0815h26.242v-78.39c8.348 14.181 28.625 22.06 45.324 22.06 18.289 0 32.606-6.303 42.942-15.757 15.902-14.97 23.855-39.393 23.855-66.179 0-25.605-7.554-49.2409-22.664-64.2098-9.543-10.2421-24.648-16.5447-43.734-16.5447zm-4.364 141.0415c-11.531 0-19.085-4.727-25.445-10.242-13.121-11.423-17.496-29.938-17.496-49.24s4.375-38.211 17.496-49.2406c6.36-5.5149 13.914-10.2421 25.445-10.2421 34.989 0 44.133 31.1207 44.133 59.4827s-9.144 59.482-44.133 59.482zm101.625-110.2351c11.196-18.561 32.383-32.3831 59.567-32.3831 20.391 0 36.379 7.5034 48.375 19.3511 12.793 13.8221 20.387 33.9631 19.988 54.8931l-.402 15.797h-111.535c0 14.217 5.597 29.619 15.191 39.097 7.195 7.108 16.789 11.057 28.781 11.057 12.395 0 22.789-3.554 29.184-10.268 4.398-4.343 7.199-8.688 9.195-16.981h25.989c-2.399 15.402-11.594 29.619-24.387 38.307-11.196 7.503-25.188 11.848-39.981 11.848-22.386 0-40.375-9.084-52.367-23.301-13.195-15.006-19.59-35.542-19.59-57.657 0-18.561 3.196-35.148 11.992-49.7601zm59.559-10.2679c-28.383 0-42.375 22.905-43.176 45.81h83.953c0-11.452-3.199-23.299-9.593-31.5929-6.797-8.6881-17.192-14.2171-31.184-14.2171zm157.227-22.1089c-27.184 0-48.371 13.8221-59.567 32.383-8.797 14.6119-11.992 31.1979-11.992 49.7599 0 22.115 6.395 42.651 19.586 57.658 11.996 14.217 29.984 23.3 52.371 23.3 14.793 0 28.785-4.344 39.981-11.848 12.792-8.688 21.988-22.905 24.386-38.307h-25.988c-1.996 8.294-4.797 12.637-9.195 16.982-6.395 6.713-16.789 10.268-29.184 10.268-11.992 0-21.586-3.95-28.781-11.058-9.598-9.478-15.192-24.88-15.192-39.097h111.536l.402-15.797c.398-20.93-7.195-41.0712-19.988-54.8932-11.996-11.8473-27.985-19.3507-48.375-19.3507zm-43.18 67.9189c.801-22.905 14.793-45.81 43.176-45.81 13.992 0 24.386 5.529 31.183 14.2171 6.395 8.2929 9.594 20.1409 9.594 31.5929zm216.914-43.4906-5.977-18.972-55.394 19.3671-4.781-20.1576h-20.325v155.3341h26.301v-110.275zm-946.541-19.7625h26.7293v155.3341h-26.7293zm29.8762-60.5789h-29.8743v29.5135h29.8743z" fill="#fff"/><path d="m203.251 56.9258h-32.52v32.53h32.52zm0 130.1202h-32.52v32.53h32.52zm32.521-130.1202h32.52v32.53h-32.52zm-97.561 0h-32.521v32.53h32.521zm65.04 65.0602h32.521v32.53h-32.521zm-32.52 0h-32.52v32.53h32.52z" fill="url(#a)"/></g></svg>