<svg fill="none" height="80" viewBox="0 0 564 80" width="564" xmlns="http://www.w3.org/2000/svg"><g fill="#1aab9b"><path d="m12 17.0331v61.9756h-12v-71.99597c0-5.77361 6.59592-9.06478 11.2091-5.59317l57 42.89494c1.7573 1.3224 2.7909 3.3939 2.7909 5.5931v29.1011h-12v-26.6061z"/><path d="m205.528 11.0087c-4.71 0-8.528 3.8181-8.528 8.5281v53.9182h11.074v-46.7139l14.93 24.3635c1.7 2.7737 4.719 4.4646 7.973 4.4646 3.245 0 6.259-1.6833 7.961-4.447l15.015-24.3811v46.7139h11.074v-54.3143c0-4.4912-3.64-8.132-8.132-8.132-2.884 0-5.553 1.5278-7.013 4.0153l-18.693 31.844-18.279-31.6012c-1.524-2.6353-4.338-4.2581-7.382-4.2581z"/><path clip-rule="evenodd" d="m316.172 11.0087c-3.659 0-6.947 2.2342-8.295 5.6362l-22.508 56.8101h10.722l6.988-16.3477h25.488l6.987 16.3477h11.382l-22.466-56.8051c-1.347-3.4046-4.636-5.6412-8.298-5.6412zm-.349 12.7881 8.877 23.1591h-17.798z" fill-rule="evenodd"/><path d="m376.902 39.6171 27.009-27.135c.939-.9432 2.215-1.4734 3.546-1.4734 4.462 0 6.692 5.3996 3.53 8.5479l-21.429 21.3349 31.596 32.5635h-14.37l-29.882-30.2344v30.2344h-11.075v-56.9092c0-3.0581 2.479-5.5371 5.537-5.5371 3.059 0 5.538 2.479 5.538 5.5371z"/><path d="m440.749 63.455c0 5.5228 4.477 10 10 10h28.716c2.815 0 5.097-2.2823 5.097-5.0977s-2.282-5.0977-5.097-5.0977h-27.598v-16.875h25.181c2.815 0 5.097-2.2823 5.097-5.0976 0-2.8154-2.282-5.0977-5.097-5.0977h-25.181v-14.9853h27.598c2.815 0 5.097-2.2823 5.097-5.0977 0-2.8153-2.282-5.0976-5.097-5.0976h-28.716c-5.523 0-10 4.4771-10 10z"/><path clip-rule="evenodd" d="m558.165 28.8944c0 1.9922-.249 3.8965-.747 5.7129-.468 1.7871-1.23 3.5156-2.285 5.1855-1.025 1.67-2.446 3.1641-4.263 4.4825-1.787 1.3183-3.911 2.3437-6.372 3.0761l18.853 26.1036h-14.414l-17.49-24.2139h-10.591v24.2139h-11.074v-52.4463c0-5.5229 4.477-10 10-10h16.587c1.318 0 2.519.0439 3.603.1318 1.113.0586 2.446.2344 3.999.5273 1.582.2637 2.974.6299 4.175 1.0987 1.23.4687 2.49 1.1572 3.779 2.0654 1.319.9082 2.403 1.9775 3.252 3.208.879 1.2012 1.597 2.7393 2.153 4.6143.557 1.8457.835 3.9258.835 6.2402zm-37.309-7.7344v17.8858h10.195c1.758 0 3.311-.0586 4.658-.1758 1.348-.1172 2.74-.3516 4.175-.7031 1.436-.3809 2.608-.8936 3.516-1.5381.937-.6445 1.699-1.5381 2.285-2.6807.615-1.1426.923-2.4902.923-4.0429 0-5.8301-4.497-8.7452-13.491-8.7452z" fill-rule="evenodd"/><path d="m139 79.0087v-61.9756l-47 35.3695v26.6061h-12v-29.1011c0-2.1992 1.0336-4.2707 2.7909-5.5931l57.0001-42.89494c4.613-3.47161 11.209-.18044 11.209 5.59317v71.99597z"/></g></svg>