<?xml version="1.0" encoding="utf-8"?>
<!-- Generator: Adobe Illustrator 25.0.0, SVG Export Plug-In . SVG Version: 6.00 Build 0)  -->
<svg version="1.1" id="Capa_1" xmlns="http://www.w3.org/2000/svg" xmlns:xlink="http://www.w3.org/1999/xlink" x="0px" y="0px"
	 viewBox="0 0 958 546" style="enable-background:new 0 0 958 546;" xml:space="preserve">
<style type="text/css">
	.st0{fill:#7908FF;}
</style>
<g id="Capa_1-2">
	<path class="st0" d="M230.4,231.6h0.5C239.5,216,254.4,209,272,209h8.7v43.4c-6.2-3.5-12.2-4.2-19.1-4.2
		c-25.1,0-31.3,16.6-31.3,38.5V338h-45.1V210.8h45.2L230.4,231.6z"/>
	<rect x="304.1" y="210.8" class="st0" width="45.1" height="127.3"/>
	<path class="st0" d="M428.4,225.2h0.5c8.2-12.6,23.6-18.6,38.5-18.6c38,0,64.2,31.8,64.2,68.2c0,36.7-26,67.5-63.8,67.5
		c-14.6,0-29.8-5.2-39.4-16.4v69.7l-45.2,19.1V210.8h45.2L428.4,225.2z M426.9,274.5c0,16.1,10.7,28.5,29,28.5s29-12.4,29-28.5
		c0-15.6-10.7-28.8-29-28.8S426.9,258.9,426.9,274.5"/>
	<rect x="555.6" y="210.8" class="st0" width="45.2" height="127.3"/>
	<path class="st0" d="M776.8,274.5c0,43.2-35.7,67.7-76.7,67.7c-40.7,0-76.7-24.3-76.7-67.7s35.7-68,76.7-68
		S776.8,231.1,776.8,274.5 M671.1,274.5c0,16.1,10.7,28.5,29,28.5s29-12.4,29-28.5c0-15.6-10.7-28.8-29-28.8
		S671.1,258.9,671.1,274.5"/>
	<polygon class="st0" points="349.2,175.4 305.1,193.2 305.1,151.1 349.3,133.3 	"/>
	<polygon class="st0" points="600.2,175.4 556.1,193.2 556.1,151.1 600.3,133.3 	"/>
</g>
</svg>
