<svg height="32" viewBox="0 0 123 32" width="123" xmlns="http://www.w3.org/2000/svg" xmlns:xlink="http://www.w3.org/1999/xlink"><linearGradient id="a" x1="19.482422%" x2="80.517578%" y1="0%" y2="100%"><stop offset="0" stop-color="#00d3e6"/><stop offset="1" stop-color="#2b4cd4"/></linearGradient><g fill="none" fill-rule="evenodd"><path d="m40.408 21v-10.296h3.438v-2.484h-9.468v2.484h3.402v10.296zm7.308 0v-4.392c0-1.728.864-2.556 1.998-2.556 1.026 0 1.584.792 1.584 2.088v4.86h2.466v-5.274c0-2.34-1.296-3.924-3.474-3.924-1.17 0-2.106.504-2.574 1.224v-5.526h-2.466v13.5zm12.456.198c2.286 0 4.068-1.314 4.608-3.132h-2.574c-.288.612-1.044.99-1.908.99-1.53 0-2.322-.918-2.43-1.98h7.02c.126-3.384-2.052-5.274-4.698-5.274-2.736 0-4.734 1.998-4.734 4.68 0 2.736 1.962 4.716 4.716 4.716zm2.016-5.742h-4.23c.234-.99 1.026-1.656 2.16-1.656.846 0 1.764.45 2.07 1.656zm14.832 5.76c3.798 0 6.876-2.61 6.3-7.866h-6.606v2.448h3.906c-.288 1.764-1.53 2.898-3.6 2.898-2.484 0-4.104-1.8-4.104-4.086s1.62-4.086 4.068-4.086c1.224 0 2.412.54 3.042 1.476h2.988c-.864-2.412-3.348-3.996-6.03-3.996-3.87 0-6.696 2.898-6.696 6.606s2.826 6.606 6.732 6.606zm10.602-.216v-4.302c0-1.476.774-2.394 1.944-2.394.396 0 .738.072 1.116.198v-2.502c-.306-.09-.576-.108-.828-.108-1.008 0-1.926.666-2.232 1.548v-1.44h-2.466v9zm7.974.198c1.242 0 2.196-.63 2.592-1.206v1.008h2.466v-9h-2.466v1.008c-.396-.576-1.35-1.206-2.592-1.206-2.394 0-4.23 2.142-4.23 4.698s1.836 4.698 4.23 4.698zm.522-2.25c-1.35 0-2.268-1.044-2.268-2.448s.918-2.448 2.268-2.448 2.268 1.044 2.268 2.448-.918 2.448-2.268 2.448zm9.396 5.814v-4.77c.414.576 1.368 1.206 2.61 1.206 2.394 0 4.23-2.142 4.23-4.698s-1.836-4.698-4.23-4.698c-1.242 0-2.196.63-2.61 1.206v-1.008h-2.466v12.762zm2.07-5.814c-1.35 0-2.268-1.044-2.268-2.448s.918-2.448 2.268-2.448 2.268 1.044 2.268 2.448-.918 2.448-2.268 2.448zm9.036 2.052v-4.392c0-1.728.864-2.556 1.998-2.556 1.026 0 1.584.792 1.584 2.088v4.86h2.466v-5.274c0-2.34-1.296-3.924-3.474-3.924-1.17 0-2.106.504-2.574 1.224v-5.526h-2.466v13.5z" fill="#fff" fill-opacity=".96" fill-rule="nonzero"/><path d="m24.2924242 21.1221444c.5720881.5695435.6078436 1.470691.1072666 2.0816851l-.1072666.1181458-6.2501894 6.2223899c-.6102272.6075131-1.5994318.6075131-2.209659 0-.5720881-.5695436-.6078436-1.4706911-.1072666-2.0816851l.1072666-.1181459 6.2501894-6.2223898c.6102272-.6075131 1.5994318-.6075131 2.209659 0zm-8.9174242-19.1221444c5.1776515 0 9.375 4.17867953 9.375 9.3333019 0 5.1546224-4.1973485 9.3333019-9.375 9.3333019s-9.375-4.1786795-9.375-9.3333019c0-5.15462237 4.1973485-9.3333019 9.375-9.3333019zm0 3.11110064c-3.4517045 0-6.25 2.78566065-6.25 6.22220126 0 3.4365406 2.7982955 6.2222013 6.25 6.2222013 3.4518939 0 6.25-2.7856607 6.25-6.2222013 0-3.43654061-2.7981061-6.22220126-6.25-6.22220126zm10.9376894-3.11110064c.8628788 0 1.5623106.69632089 1.5623106 1.55555032s-.6994318 1.55555032-1.5623106 1.55555032c-.8630682 0-1.5625-.69632089-1.5625-1.55555032s.6994318-1.55555032 1.5625-1.55555032z" fill="url(#a)"/></g></svg>