<?xml version="1.0" encoding="utf-8"?>
<!-- Generator: Adobe Illustrator 24.0.1, SVG Export Plug-In . SVG Version: 6.00 Build 0)  -->
<svg version="1.1" xmlns="http://www.w3.org/2000/svg" xmlns:xlink="http://www.w3.org/1999/xlink" x="0px" y="0px"
	 viewBox="0 0 1200 1200" style="enable-background:new 0 0 1200 1200;" xml:space="preserve">
<style type="text/css">
	.st0{clip-path:url(#SVGID_2_);fill:url(#SVGID_3_);}
	.st1{clip-path:url(#SVGID_2_);fill:url(#SVGID_4_);}
	.st2{fill:#FCFCFC;}
	.st3{fill:#00288B;}
	.st4{clip-path:url(#SVGID_6_);fill:url(#SVGID_7_);}
	.st5{opacity:0.15;clip-path:url(#SVGID_6_);}
	
		.st6{fill-rule:evenodd;clip-rule:evenodd;fill:none;stroke:#002C8A;stroke-width:12.4275;stroke-linecap:round;stroke-linejoin:round;stroke-miterlimit:10;}
	.st7{fill:#0080FF;}
	.st8{fill:#FFFFFF;}
	.st9{fill:#002C8A;}
	.st10{fill:none;stroke:#FFFFFF;stroke-width:0.6749;stroke-miterlimit:10;}
	.st11{fill:none;stroke:#FFFFFF;stroke-width:1.6874;stroke-miterlimit:10;}
	.st12{fill:none;stroke:#FFFFFF;stroke-width:0.6566;stroke-miterlimit:10;}
	.st13{fill:none;stroke:#FFFFFF;stroke-width:0.8886;stroke-linecap:round;stroke-linejoin:round;stroke-miterlimit:10;}
	.st14{fill:none;stroke:#FFFFFF;stroke-width:0.7672;stroke-miterlimit:10;}
	.st15{fill:none;stroke:#FFFFFF;stroke-width:0.8886;stroke-miterlimit:10;}
	.st16{fill:none;stroke:#FFFFFF;stroke-width:0.7217;stroke-linecap:round;stroke-linejoin:round;stroke-miterlimit:10;}
	.st17{clip-path:url(#SVGID_9_);fill:#FFFFFF;}
	.st18{clip-path:url(#SVGID_9_);}
	.st19{fill:#E9E9E9;}
	.st20{fill:none;stroke:#FFFFFF;stroke-width:2.9283;stroke-linecap:round;stroke-linejoin:round;stroke-miterlimit:10;}
	.st21{fill:none;stroke:#000000;stroke-width:0.6749;stroke-miterlimit:10;}
	.st22{fill:none;stroke:#000000;stroke-width:1.6874;stroke-miterlimit:10;}
	.st23{fill:none;stroke:#000000;stroke-width:0.6566;stroke-miterlimit:10;}
	.st24{fill:none;stroke:#000000;stroke-width:0.8886;stroke-linecap:round;stroke-linejoin:round;stroke-miterlimit:10;}
	.st25{fill:none;stroke:#000000;stroke-width:0.7672;stroke-miterlimit:10;}
	.st26{fill:none;stroke:#000000;stroke-width:0.8886;stroke-miterlimit:10;}
	.st27{fill:none;stroke:#000000;stroke-width:0.7217;stroke-linecap:round;stroke-linejoin:round;stroke-miterlimit:10;}
	.st28{fill:none;}
	.st29{opacity:0.02;}
	.st30{fill:none;stroke:#000000;stroke-width:8.2207;stroke-linecap:round;stroke-linejoin:round;stroke-miterlimit:10;}
	.st31{fill:#C9C9C9;}
	.st32{fill:#6050D1;}
	.st33{fill:#0F0F0F;}
	.st34{display:none;}
	.st35{display:inline;}
	.st36{fill:none;stroke:#FF00FF;stroke-width:0.5;stroke-miterlimit:10;}
	.st37{display:inline;fill:none;stroke:#FF00FF;stroke-width:0.5;stroke-miterlimit:10;}
	.st38{fill:none;stroke:#FF00FF;stroke-width:0.5689;stroke-miterlimit:10;}
</style>
<g id="Fondo">
</g>
<g id="Contenido">
	<rect x="-3.53" y="-3.53" class="st33" width="1207.06" height="1207.06"/>
	<g>
		<path class="st8" d="M420.31,551.09h65.88l-48.99,168.92h-63.52l-20.95-79.39l-20.95,79.39h-63.51L219.3,551.09h65.88l19.6,93.58
			l24.33-93.58h47.3l24.33,93.58L420.31,551.09z"/>
		<path class="st32" d="M714.6,512.48l-113.01,7.76l-15.92-46.32l106.64-26.29L714.6,512.48z M535.27,534.24
			c-10.4,1.06-19.59-1.67-27.59-8.18c-7.99-6.52-12.53-14.97-13.59-25.37c-1.06-10.39,1.67-19.59,8.18-27.59
			c6.52-8,14.97-12.52,25.36-13.59c10.4-1.06,19.59,1.66,27.59,8.18c8,6.51,12.53,14.97,13.59,25.37
			c1.06,10.39-1.66,19.59-8.18,27.59C554.12,528.65,545.66,533.18,535.27,534.24z"/>
		<path class="st8" d="M683.87,546.36c18.47,0,33.28,6.37,44.43,19.09c11.15,12.73,16.72,31.7,16.72,56.93v97.64h-62.5v-90.88
			c0-15.09-6.98-22.64-20.95-22.64c-7.43,0-13.12,2.37-17.06,7.09c-3.94,4.73-5.91,11.27-5.91,19.59v86.83h-62.5V551.09h62.5v16.55
			C648.96,553.45,664.05,546.36,683.87,546.36z"/>
		<path class="st8" d="M933.24,720.01h-69.26l-40.54-67.57v67.57h-62.5V551.09h62.5v65.54l35.47-65.54h70.95l-51.35,84.46
			L933.24,720.01z"/>
		<g>
			<path class="st8" d="M955.14,697.51v6.24h-5.3v16.27h-6.43v-16.27h-5.3v-6.24H955.14z"/>
			<path class="st8" d="M980.7,697.51v22.5h-6.43v-10.96l-5.01,8.42h-0.58l-5.01-8.42v10.96h-6.43v-22.5h6.43l5.3,9.16l5.3-9.16
				H980.7z"/>
		</g>
		<g>
			<path class="st8" d="M497.68,720.37V551.45h62.5v168.92H497.68z"/>
		</g>
	</g>
</g>
<g id="guides" class="st34">
	<g class="st35">
		
			<rect x="-313.73" y="783.06" transform="matrix(-1.836970e-16 1 -1 -1.836970e-16 1123.454 1257.0989)" class="st36" width="493.81" height="814.43"/>
		
			<rect x="-356.25" y="740.54" transform="matrix(-1.836970e-16 1 -1 -1.836970e-16 1123.454 1257.0989)" class="st38" width="578.85" height="899.47"/>
		<rect x="9.36" y="900.85" class="st36" width="13.1" height="578.85"/>
		<rect x="92.12" y="900.85" class="st36" width="13.1" height="578.85"/>
		<rect x="174.88" y="900.85" class="st36" width="13.1" height="578.85"/>
		<rect x="257.63" y="900.85" class="st36" width="13.1" height="578.85"/>
		<rect x="340.39" y="900.85" class="st36" width="13.1" height="578.85"/>
	</g>
</g>
</svg>
