<svg width="189" height="88" viewBox="0 0 189 88" fill="none" xmlns="http://www.w3.org/2000/svg">
<g clip-path="url(#clip0_1_194)">
<path d="M102.905 52.7L95.9315 35.782C95.8766 35.6278 95.8476 35.4656 95.8455 35.302C95.8319 34.9549 95.955 34.6163 96.1885 34.359C96.3081 34.2365 96.4525 34.141 96.612 34.0789C96.7716 34.0168 96.9426 33.9895 97.1135 33.999C97.3726 34.0024 97.6242 34.0863 97.8335 34.239C98.0541 34.4016 98.2268 34.6206 98.3335 34.873L104.965 51.428L111.594 34.874C111.7 34.6216 111.873 34.4026 112.094 34.24C112.303 34.0873 112.554 34.0034 112.813 34C112.984 33.9905 113.155 34.0178 113.315 34.0799C113.475 34.142 113.619 34.2375 113.738 34.36C113.972 34.6173 114.095 34.9559 114.081 35.303C114.079 35.4666 114.05 35.6288 113.995 35.783L107.018 52.7C106.899 53.0717 106.666 53.3967 106.353 53.6297C106.039 53.8627 105.661 53.9922 105.27 54H104.653C104.263 53.9922 103.885 53.8627 103.571 53.6297C103.258 53.3967 103.025 53.0717 102.905 52.7V52.7Z" fill="url(#paint0_linear_1_194)"/>
<path d="M117.043 53.486C116.924 53.3669 116.831 53.225 116.769 53.0689C116.708 52.9129 116.678 52.7458 116.683 52.578V35.437C116.676 35.0933 116.806 34.7611 117.043 34.512C117.159 34.3885 117.3 34.2911 117.456 34.2264C117.613 34.1618 117.781 34.1313 117.951 34.137H129.283C129.443 34.1325 129.602 34.1623 129.75 34.2244C129.898 34.2864 130.031 34.3794 130.14 34.497C130.256 34.607 130.348 34.74 130.41 34.8876C130.472 35.0351 130.502 35.194 130.5 35.354C130.504 35.5117 130.474 35.6686 130.412 35.8136C130.35 35.9586 130.257 36.0884 130.14 36.194C130.026 36.3049 129.892 36.3923 129.745 36.4512C129.598 36.5101 129.441 36.5392 129.283 36.537H119.254V42.775H128.268C128.428 42.7705 128.587 42.8004 128.735 42.8624C128.883 42.9245 129.016 43.0175 129.125 43.135C129.239 43.246 129.331 43.3792 129.393 43.5266C129.454 43.6739 129.486 43.8322 129.485 43.992C129.489 44.1497 129.459 44.3066 129.397 44.4516C129.335 44.5966 129.242 44.7264 129.125 44.832C129.011 44.9429 128.877 45.0303 128.73 45.0892C128.583 45.1481 128.426 45.1772 128.268 45.175H119.254V51.448H129.283C129.443 51.4435 129.602 51.4733 129.75 51.5354C129.898 51.5974 130.031 51.6904 130.14 51.808C130.256 51.918 130.348 52.051 130.41 52.1986C130.472 52.3461 130.502 52.505 130.5 52.665C130.504 52.8227 130.474 52.9796 130.412 53.1246C130.35 53.2696 130.257 53.3994 130.14 53.505C130.026 53.6159 129.892 53.7033 129.745 53.7622C129.598 53.8211 129.441 53.8502 129.283 53.848H117.951C117.782 53.8602 117.612 53.834 117.455 53.7713C117.298 53.7086 117.157 53.611 117.043 53.486V53.486Z" fill="url(#paint1_linear_1_194)"/>
<path d="M97.5075 52.218L90.5335 35.3C90.4136 34.9283 90.1808 34.6033 89.8675 34.3703C89.5541 34.1373 89.1759 34.0078 88.7855 34H88.1685C87.778 34.0078 87.3998 34.1373 87.0864 34.3703C86.7731 34.6033 86.5403 34.9283 86.4205 35.3L83.3875 42.669H81.0875C80.7569 42.6727 80.4412 42.8063 80.2084 43.0409C79.9756 43.2756 79.8445 43.5925 79.8435 43.923V43.94C79.8453 44.2712 79.9777 44.5883 80.2119 44.8226C80.4461 45.0568 80.7632 45.1892 81.0945 45.191H82.3285L79.4285 52.218C79.3736 52.3722 79.3445 52.5344 79.3425 52.698C79.3287 53.0451 79.4519 53.3838 79.6855 53.641C79.805 53.7635 79.9495 53.859 80.109 53.9211C80.2685 53.9832 80.4395 54.0104 80.6105 54.001C80.8695 53.9976 81.1211 53.9137 81.3305 53.761C81.5511 53.5984 81.7238 53.3794 81.8305 53.127L85.0175 45.192H87.2105C87.5417 45.1902 87.8588 45.0578 88.093 44.8236C88.3272 44.5893 88.4596 44.2722 88.4615 43.941V43.906C88.4596 43.5748 88.3272 43.2577 88.093 43.0234C87.8588 42.7892 87.5417 42.6568 87.2105 42.655H86.0285L88.4785 36.571L95.1105 53.126C95.2172 53.3784 95.3899 53.5974 95.6105 53.76C95.8198 53.9127 96.0714 53.9966 96.3305 54C96.5014 54.0095 96.6724 53.9822 96.8319 53.9201C96.9915 53.858 97.1359 53.7625 97.2555 53.64C97.489 53.3828 97.6122 53.0441 97.5985 52.697C97.6031 52.5326 97.5721 52.3692 97.5075 52.218V52.218Z" fill="url(#paint2_linear_1_194)"/>
<path d="M76.6695 52.218L69.6955 35.3C69.5757 34.9283 69.3429 34.6033 69.0295 34.3703C68.7162 34.1373 68.3379 34.0078 67.9475 34H67.3305C66.9401 34.0078 66.5618 34.1373 66.2485 34.3703C65.9352 34.6033 65.7023 34.9283 65.5825 35.3L62.5495 42.672H60.2495C59.9195 42.6757 59.6042 42.8089 59.3715 43.0429C59.1388 43.2769 59.0073 43.593 59.0055 43.923V43.94C59.0074 44.2712 59.1398 44.5883 59.374 44.8226C59.6082 45.0568 59.9253 45.1892 60.2565 45.191H61.4875L58.5875 52.218C58.5326 52.3722 58.5036 52.5344 58.5015 52.698C58.4878 53.0451 58.611 53.3838 58.8445 53.641C58.9641 53.7635 59.1085 53.859 59.2681 53.9211C59.4276 53.9832 59.5986 54.0104 59.7695 54.001C60.0286 53.9976 60.2802 53.9137 60.4895 53.761C60.7101 53.5984 60.8828 53.3794 60.9895 53.127L64.1765 45.192H66.3875C66.7191 45.1904 67.0366 45.058 67.2711 44.8236C67.5055 44.5891 67.6379 44.2716 67.6395 43.94V43.906C67.6377 43.5748 67.5053 43.2577 67.2711 43.0234C67.0369 42.7892 66.7197 42.6568 66.3885 42.655H65.2055L67.6385 36.571L74.2705 53.126C74.3772 53.3784 74.5499 53.5974 74.7705 53.76C74.9798 53.9127 75.2314 53.9966 75.4905 54C75.6615 54.0095 75.8324 53.9822 75.992 53.9201C76.1515 53.858 76.2959 53.7625 76.4155 53.64C76.6491 53.3828 76.7722 53.0441 76.7585 52.697C76.7638 52.5328 76.7335 52.3694 76.6695 52.218V52.218Z" fill="url(#paint3_linear_1_194)"/>
</g>
<defs>
<linearGradient id="paint0_linear_1_194" x1="59.3867" y1="54.6801" x2="132.259" y2="39.2141" gradientUnits="userSpaceOnUse">
<stop stop-color="#30BAC6"/>
<stop offset="1" stop-color="#B6509E"/>
</linearGradient>
<linearGradient id="paint1_linear_1_194" x1="60.7473" y1="60.061" x2="134.161" y2="50.8505" gradientUnits="userSpaceOnUse">
<stop stop-color="#30BAC6"/>
<stop offset="1" stop-color="#B6509E"/>
</linearGradient>
<linearGradient id="paint2_linear_1_194" x1="58.8376" y1="52.5226" x2="131.711" y2="37.0239" gradientUnits="userSpaceOnUse">
<stop stop-color="#30BAC6"/>
<stop offset="1" stop-color="#B6509E"/>
</linearGradient>
<linearGradient id="paint3_linear_1_194" x1="57.5693" y1="47.5419" x2="130.447" y2="32.0245" gradientUnits="userSpaceOnUse">
<stop stop-color="#30BAC6"/>
<stop offset="1" stop-color="#B6509E"/>
</linearGradient>
<clipPath id="clip0_1_194">
<rect width="71.989" height="20" fill="white" transform="translate(58.5055 34)"/>
</clipPath>
</defs>
</svg>
