<svg fill="none" height="90" viewBox="0 0 191 90" width="191" xmlns="http://www.w3.org/2000/svg" xmlns:xlink="http://www.w3.org/1999/xlink"><linearGradient id="a"><stop offset="0" stop-color="#30bac6"/><stop offset="1" stop-color="#b6509e"/></linearGradient><linearGradient id="b" gradientUnits="userSpaceOnUse" x1="60.3867" x2="133.259" xlink:href="#a" y1="55.6801" y2="40.2142"/><linearGradient id="c" gradientUnits="userSpaceOnUse" x1="61.7473" x2="135.161" xlink:href="#a" y1="61.0611" y2="51.8505"/><linearGradient id="d" gradientUnits="userSpaceOnUse" x1="59.8377" x2="132.711" xlink:href="#a" y1="53.5226" y2="38.0239"/><linearGradient id="e" gradientUnits="userSpaceOnUse" x1="58.5693" x2="131.447" xlink:href="#a" y1="48.5419" y2="33.0245"/><clipPath id="f"><path d="m59.5055 35h71.989v20h-71.989z"/></clipPath><g clip-path="url(#f)"><path d="m103.905 53.7-6.9735-16.918c-.0549-.1542-.0839-.3163-.086-.48-.0136-.3471.1095-.6857.343-.943.1196-.1225.264-.218.4235-.2801.1596-.0621.3306-.0893.5015-.0799.2591.0035.5107.0873.72.24.2206.1626.3933.3816.5.634l6.6315 16.555 6.629-16.554c.106-.2524.279-.4714.5-.634.209-.1527.46-.2365.719-.24.171-.0094.342.0178.502.0799s.304.1576.423.2801c.234.2573.357.5959.343.943-.002.1637-.031.3258-.086.48l-6.977 16.917c-.119.3717-.352.6967-.665.9297-.314.2331-.692.3625-1.083.3703h-.617c-.39-.0078-.768-.1372-1.082-.3703-.313-.233-.546-.558-.666-.9297z" fill="url(#b)"/><path d="m118.043 54.486c-.119-.1191-.212-.2609-.274-.417s-.091-.3231-.086-.491v-17.141c-.007-.3436.123-.6759.36-.925.115-.1235.256-.2209.413-.2855.157-.0647.325-.0952.495-.0895h11.332c.16-.0045.319.0253.467.0874s.281.155.39.2726c.116.11.208.2431.27.3906.062.1476.092.3064.09.4664.004.1578-.026.3146-.088.4596-.062.1451-.155.2749-.272.3804-.114.1109-.248.1984-.395.2572-.147.0589-.304.0881-.462.0858h-10.029v6.238h9.014c.16-.0044.319.0254.467.0875s.281.155.39.2725c.114.1111.206.2443.267.3916.062.1473.094.3057.093.4654.004.1578-.026.3146-.088.4596-.062.1451-.155.2749-.272.3804-.114.1109-.248.1984-.395.2572-.147.0589-.304.0881-.462.0858h-9.014v6.273h10.029c.16-.0045.319.0253.467.0874s.281.155.39.2726c.116.11.208.2431.27.3906.062.1476.092.3064.09.4664.004.1578-.026.3146-.088.4596-.062.1451-.155.2749-.272.3804-.114.1109-.248.1984-.395.2572-.147.0589-.304.0881-.462.0858h-11.332c-.169.0122-.339-.014-.496-.0767s-.298-.1602-.412-.2853z" fill="url(#c)"/><path d="m98.5075 53.218-6.974-16.918c-.1198-.3717-.3526-.6967-.666-.9297-.3133-.233-.6916-.3625-1.082-.3703h-.617c-.3904.0078-.7686.1373-1.082.3703-.3133.233-.5462.558-.666.9297l-3.033 7.369h-2.3c-.3305.0037-.6463.1373-.8791.3719-.2328.2347-.3638.5516-.3649.8821v.017c.0019.3312.1343.6483.3685.8826.2342.2342.5513.3666.8825.3684h1.234l-2.9 7.027c-.0549.1542-.0839.3164-.086.48-.0137.3471.1095.6858.343.943.1196.1225.264.218.4236.2801.1595.0621.3305.0894.5014.0799.2591-.0034.5107-.0873.72-.24.2206-.1626.3933-.3816.5-.634l3.187-7.935h2.193c.3312-.0018.6484-.1342.8826-.3684.2342-.2343.3666-.5514.3684-.8826v-.035c-.0018-.3312-.1342-.6483-.3684-.8826-.2342-.2342-.5514-.3666-.8826-.3684h-1.182l2.45-6.084 6.632 16.555c.1067.2524.2795.4714.5.634.2093.1527.461.2366.72.24.171.0095.3419-.0178.5015-.0799.1595-.0621.3039-.1576.4235-.2801.2336-.2572.3567-.5959.343-.943.0047-.1644-.0263-.3278-.091-.479z" fill="url(#d)"/><path d="m77.6695 53.218-6.974-16.918c-.1198-.3717-.3526-.6967-.666-.9297-.3133-.233-.6916-.3625-1.082-.3703h-.617c-.3904.0078-.7687.1373-1.082.3703s-.5462.558-.666.9297l-3.033 7.372h-2.3c-.33.0037-.6453.1369-.878.3709s-.3642.5501-.366.8801v.017c.0019.3312.1343.6483.3685.8826.2342.2342.5513.3666.8825.3684h1.231l-2.9 7.027c-.0549.1542-.0839.3164-.086.48-.0137.3471.1095.6858.343.943.1196.1225.264.218.4236.2801.1595.0621.3305.0894.5014.0799.2591-.0034.5107-.0873.72-.24.2206-.1626.3933-.3816.5-.634l3.187-7.935h2.211c.3316-.0016.6491-.134.8836-.3684.2344-.2345.3668-.552.3684-.8836v-.034c-.0018-.3312-.1342-.6483-.3684-.8826-.2342-.2342-.5514-.3666-.8826-.3684h-1.183l2.433-6.084 6.632 16.555c.1067.2524.2794.4714.5.634.2093.1527.4609.2366.72.24.171.0095.3419-.0178.5015-.0799.1595-.0621.3039-.1576.4235-.2801.2336-.2572.3567-.5959.343-.943.0053-.1642-.025-.3276-.089-.479z" fill="url(#e)"/></g><path d="m1 1h189v88h-189z" stroke="#4d4d4d"/></svg>