<svg width="378" height="220" viewBox="0 0 378 220" fill="none" xmlns="http://www.w3.org/2000/svg">
<path d="M175.667 76H184.34C186.543 76 188.282 76.6071 189.383 77.7086C189.807 78.1239 190.142 78.6218 190.365 79.1716C190.589 79.7213 190.698 80.3111 190.684 80.9045V80.9609C190.684 83.2766 189.362 84.5168 187.926 85.2627C190.186 86.0346 191.76 87.3268 191.76 89.946V90.0024C191.76 93.4716 188.919 95.2929 184.618 95.2929H175.667V76ZM183.633 84.1309C185.802 84.1309 187.272 83.2636 187.272 81.529V81.4726C187.272 79.9592 186.057 79.0225 183.88 79.0225H179.002V84.1309H183.633ZM184.626 92.2921C186.942 92.2921 188.347 91.3814 188.347 89.6425V89.5905C188.347 87.96 187.046 86.9886 184.375 86.9886H179.002V92.2921H184.626Z" fill="#FAF7F5"/>
<path d="M194.735 90.0024V80.7397H198.074V89.0094C198.074 91.2687 199.201 92.5653 201.187 92.5653C203.173 92.5653 204.466 91.2123 204.466 88.9573V80.7397H207.8V95.2929H204.466V93.0336C203.529 94.4126 202.18 95.5964 199.917 95.5964C196.638 95.5964 194.735 93.3935 194.735 90.0024Z" fill="#FAF7F5"/>
<path d="M210.641 88.0728V88.0164C210.641 83.8577 213.59 80.4362 217.753 80.4362C222.384 80.4362 224.726 84.0745 224.726 88.2679C224.726 88.5671 224.7 88.8707 224.669 89.2046H213.975C214.335 91.5723 216.018 92.8949 218.165 92.8949C219.795 92.8949 220.949 92.2921 222.106 91.1603L224.066 92.8949C223.352 93.7784 222.442 94.4846 221.41 94.9585C220.377 95.4325 219.248 95.6612 218.112 95.6269C213.893 95.6269 210.641 92.5653 210.641 88.0728ZM221.417 86.9973C221.2 84.8291 219.929 83.1682 217.727 83.1682C215.684 83.1682 214.257 84.738 213.949 86.9973H221.417Z" fill="#FAF7F5"/>
<path d="M227.54 80.7398H230.862V82.9991C231.798 81.6244 233.151 80.4362 235.411 80.4362C238.689 80.4362 240.614 82.6435 240.614 86.0346V95.293H237.28V87.0233C237.28 84.764 236.148 83.4718 234.162 83.4718C232.176 83.4718 230.862 84.8204 230.862 87.0797V95.293H227.527L227.54 80.7398Z" fill="#FAF7F5"/>
<path d="M243.281 88.0987V88.0467C243.28 87.0335 243.482 86.0303 243.874 85.096C244.267 84.1618 244.842 83.3154 245.565 82.6064C246.289 81.8975 247.148 81.3403 248.09 80.9676C249.032 80.5949 250.039 80.4143 251.052 80.4362C255.519 80.4362 258.797 83.8273 258.797 87.9903V88.0467C258.797 92.1793 255.488 95.6268 250.991 95.6268C249.988 95.6511 248.989 95.4743 248.055 95.1069C247.12 94.7395 246.269 94.1888 245.55 93.4873C244.832 92.7859 244.261 91.9477 243.871 91.0223C243.482 90.0969 243.281 89.1029 243.281 88.0987ZM255.462 88.0987V88.0467C255.462 85.4839 253.615 83.359 250.996 83.359C248.377 83.359 246.616 85.4535 246.616 87.9903V88.0467C246.616 90.5792 248.463 92.7301 251.052 92.7301C253.754 92.7301 255.462 90.6095 255.462 88.0987Z" fill="#FAF7F5"/>
<path d="M260.454 93.3935L261.941 91.1342C263.299 92.2244 264.971 92.8519 266.711 92.9252C268.142 92.9252 268.97 92.3181 268.97 91.351V91.299C268.97 90.1672 267.427 89.7812 265.718 89.2565C263.55 88.6494 261.169 87.7691 261.169 84.9851V84.9287C261.169 82.1751 263.454 80.4925 266.351 80.4925C268.254 80.5286 270.107 81.1013 271.698 82.1447L270.375 84.5168C268.97 83.6495 267.483 83.1378 266.269 83.1378C264.968 83.1378 264.226 83.7449 264.226 84.5992V84.6729C264.226 85.718 265.8 86.1603 267.509 86.711C269.63 87.3745 272.028 88.3372 272.028 90.9564V91.0128C272.028 94.07 269.66 95.5877 266.629 95.5877C264.389 95.5604 262.219 94.7987 260.454 93.4195" fill="#FAF7F5"/>
<path d="M182.068 100.111H185.212L193.703 119.547H190.099L188.143 114.885H179.037L177.051 119.547H173.581L182.068 100.111ZM186.92 111.88L183.594 104.187L180.286 111.901L186.92 111.88Z" fill="#FAF7F5"/>
<path d="M194.696 99.5903H198.277V102.76H194.696V99.5903ZM194.834 104.989H198.169V119.547H194.834V104.989Z" fill="#FAF7F5"/>
<path d="M201.972 104.989H205.307V108.272C206.218 106.104 207.909 104.603 210.463 104.716V108.242H210.268C207.345 108.242 205.307 110.145 205.307 114.005V119.547H201.972V104.989Z" fill="#FAF7F5"/>
<path d="M211.512 112.322V112.266C211.512 108.107 214.461 104.686 218.62 104.686C223.251 104.686 225.597 108.324 225.597 112.517C225.597 112.821 225.567 113.12 225.541 113.454H214.847C215.203 115.822 216.885 117.144 219.036 117.144C220.662 117.144 221.82 116.542 222.978 115.41L224.934 117.144C224.219 118.028 223.31 118.734 222.277 119.208C221.244 119.682 220.116 119.911 218.98 119.876C214.765 119.876 211.512 116.815 211.512 112.322ZM222.288 111.247C222.067 109.079 220.801 107.418 218.594 107.418C216.556 107.418 215.125 108.987 214.817 111.247H222.288Z" fill="#FAF7F5"/>
<path d="M227.223 117.63L228.693 115.384C230.049 116.482 231.721 117.117 233.464 117.196C234.895 117.196 235.723 116.589 235.723 115.627V115.549C235.723 114.417 234.179 114.031 232.471 113.506C230.302 112.899 227.922 112.019 227.922 109.235V109.178C227.922 106.425 230.211 104.742 233.104 104.742C235.006 104.777 236.86 105.35 238.45 106.394L237.128 108.766C235.723 107.899 234.235 107.387 233.021 107.387C231.72 107.387 230.983 107.994 230.983 108.849V108.905C230.983 109.95 232.553 110.393 234.261 110.943C236.382 111.607 238.784 112.569 238.784 115.189V115.245C238.784 118.281 236.412 119.82 233.381 119.82C231.141 119.793 228.972 119.031 227.206 117.652" fill="#FAF7F5"/>
<path d="M173.946 134.074V134.017C173.946 128.532 178.052 124.044 183.898 124.044C187.449 124.044 189.6 125.284 191.447 127.049L189.279 129.555C187.735 128.124 186.083 127.157 183.876 127.157C180.181 127.157 177.51 130.193 177.51 133.965V134.022C177.51 137.799 180.181 140.886 183.876 140.886C186.248 140.886 187.779 139.919 189.418 138.376L191.586 140.583C189.574 142.677 187.367 144 183.759 144C178.122 144 173.946 139.616 173.946 134.078" fill="#FAF7F5"/>
<path d="M194.696 123.701H198.277V126.871H194.696V123.701ZM194.834 129.1H198.169V143.649H194.834V129.1Z" fill="#FAF7F5"/>
<path d="M201.807 138.371V129.113H205.142V137.378C205.142 139.638 206.274 140.934 208.256 140.934C210.237 140.934 211.538 139.585 211.538 137.326V129.113H214.873V143.649H211.538V141.385C210.597 142.764 209.249 143.952 206.989 143.952C203.711 143.952 201.807 141.745 201.807 138.354" fill="#FAF7F5"/>
<path d="M217.766 136.416V136.359C217.766 131.537 221.048 128.809 224.522 128.809C226.92 128.809 228.425 130.019 229.483 131.372V123.541H232.817V143.649H229.483V141.22C228.407 142.738 226.881 143.952 224.522 143.952C221.1 143.952 217.766 141.22 217.766 136.398V136.416ZM229.535 136.398V136.342C229.535 133.532 227.553 131.685 225.32 131.685C223.086 131.685 221.131 133.449 221.131 136.342V136.398C221.131 139.208 223.06 141.056 225.32 141.056C227.579 141.056 229.535 139.182 229.535 136.398Z" fill="#FAF7F5"/>
<path d="M245.332 143.649V141.858C244.757 142.542 244.034 143.086 243.217 143.449C242.4 143.812 241.512 143.984 240.619 143.952C237.861 143.952 235.437 142.378 235.437 139.46V139.403C235.437 136.177 237.947 134.633 241.334 134.633C242.7 134.609 244.06 134.814 245.358 135.24V134.976C245.358 132.968 244.092 131.862 241.776 131.862C240.34 131.868 238.921 132.178 237.613 132.773L236.707 130.097C238.437 129.28 240.332 128.872 242.245 128.905C246.547 128.905 248.641 131.164 248.641 135.05V143.649H245.332ZM245.415 137.578C244.347 137.187 243.217 136.99 242.08 136.997C239.985 136.997 238.745 137.864 238.745 139.26V139.312C238.745 140.691 239.985 141.48 241.555 141.48C243.763 141.48 245.415 140.24 245.415 138.445V137.578Z" fill="#FAF7F5"/>
<path d="M251.317 136.416V136.359C251.317 131.537 254.595 128.809 258.069 128.809C260.467 128.809 261.971 130.019 263.029 131.372V123.541H266.364V143.649H263.029V141.22C261.954 142.738 260.428 143.952 258.069 143.952C254.651 143.952 251.317 141.22 251.317 136.398V136.416ZM263.086 136.398V136.342C263.086 133.532 261.1 131.685 258.866 131.685C256.633 131.685 254.677 133.449 254.677 136.342V136.398C254.677 139.208 256.607 141.056 258.866 141.056C261.126 141.056 263.086 139.182 263.086 136.398Z" fill="#FAF7F5"/>
<path d="M133.521 87.0753C133.437 87.0753 133.357 87.1087 133.297 87.1681C133.238 87.2274 133.205 87.308 133.205 87.3919C133.205 87.4759 133.238 87.5564 133.297 87.6158C133.357 87.6751 133.437 87.7085 133.521 87.7085C133.605 87.7085 133.686 87.6751 133.745 87.6158C133.804 87.5564 133.838 87.4759 133.838 87.3919C133.838 87.3502 133.831 87.3087 133.815 87.2701C133.799 87.2314 133.776 87.1963 133.746 87.1668C133.717 87.1373 133.682 87.114 133.643 87.0983C133.604 87.0826 133.563 87.0748 133.521 87.0753Z" fill="#FAF7F5"/>
<path d="M149.605 91.9972H149.557C147.897 91.9322 146.314 91.3337 144.787 90.757C144.167 90.5185 143.521 90.2756 142.884 90.0805C141.778 89.7058 140.627 89.4798 139.462 89.4084C139.185 89.4084 138.929 89.3823 138.664 89.3823C137.957 89.3823 136.964 89.4561 136.344 90.0545C136.168 89.21 135.931 88.3795 135.633 87.5697C135.316 86.7805 134.852 85.8351 134.011 85.5879C133.877 85.5487 133.739 85.5283 133.599 85.5272C132.767 85.5272 132.134 86.2774 131.821 86.7197L131.683 86.9236C131.318 87.4439 131.123 87.7085 131.188 87.9513C131.253 88.1941 131.548 88.3849 132.229 88.7752C132.515 88.9444 132.576 89.3693 132.611 89.6859V89.7206C132.675 90.1773 132.704 90.6384 132.697 91.0996C131.739 90.1065 130.256 89.7162 128.955 89.4647C128.59 89.3968 128.22 89.362 127.849 89.3607C126.456 89.424 125.089 89.7646 123.829 90.3624C123.265 90.6095 122.706 90.8741 122.164 91.1429C121.113 91.6747 120.024 92.1298 118.907 92.5046C118.53 92.6181 118.146 92.7079 117.758 92.7734H117.676C117.507 92.8038 117.216 92.8992 117.16 93.1594C117.103 93.4196 117.138 93.593 117.494 93.8749C118.428 94.3664 119.474 94.6041 120.529 94.5644C120.781 94.5644 121.041 94.5644 121.323 94.5384C121.691 94.5167 122.064 94.469 122.455 94.4213C123.017 94.336 123.585 94.2867 124.154 94.2739C124.498 94.2703 124.842 94.3052 125.178 94.3779C126.089 94.5904 126.635 95.4967 127.112 96.2903C127.229 96.4941 127.342 96.6806 127.459 96.854C127.765 97.2267 127.962 97.6771 128.027 98.155C128.005 98.5886 127.446 98.8965 127.043 99.148C126.934 99.2174 126.83 99.2738 126.752 99.3302L126.318 99.6207C125.403 100.202 124.15 101 124.298 102.075C124.336 102.335 124.458 102.575 124.646 102.759C124.834 102.942 125.078 103.058 125.338 103.09C125.387 103.094 125.437 103.094 125.486 103.09C125.86 103.06 126.221 102.941 126.539 102.743C126.678 102.669 126.826 102.596 126.973 102.539C127.386 102.368 127.827 102.277 128.274 102.27C129.038 102.28 129.777 102.543 130.377 103.016C130.591 103.184 130.791 103.368 130.976 103.567C131.171 103.79 131.384 103.998 131.613 104.187C131.869 104.362 132.17 104.46 132.48 104.469C132.611 104.482 132.741 104.445 132.844 104.364C132.947 104.283 133.014 104.165 133.031 104.035C133.12 103.498 133.155 102.953 133.135 102.409C133.119 101.975 133.134 101.54 133.183 101.108C133.213 100.848 133.283 100.319 133.617 100.163C133.74 100.104 133.875 100.075 134.011 100.08C134.187 100.087 134.362 100.104 134.536 100.132C134.766 100.185 135.003 100.202 135.238 100.184C136.201 100.054 137.012 99.2608 137.407 98.0639C137.469 97.8904 137.576 97.7365 137.717 97.6177C137.858 97.4989 138.027 97.4194 138.209 97.3874C138.664 97.2238 139.047 96.9063 139.293 96.4898C139.367 96.39 139.445 96.2946 139.514 96.2079C139.803 95.8574 140.17 95.58 140.586 95.3983C141.002 95.2167 141.455 95.136 141.908 95.1628C142.118 95.1625 142.328 95.174 142.537 95.1975C142.749 95.1975 142.97 95.2409 143.178 95.2712C143.721 95.3437 144.266 95.3843 144.813 95.3927C145.352 95.4012 145.888 95.3221 146.4 95.1585C147.635 94.6875 148.776 94.0002 149.77 93.129L149.917 93.0076C150.204 92.7691 150.269 92.6173 150.195 92.3528C150.121 92.0883 149.761 92.0146 149.627 91.9972H149.605ZM128.005 95.7266C127.764 95.3037 127.491 94.8993 127.19 94.5167C126.457 93.6234 125.486 93.2158 124.037 93.2158C123.417 93.2265 122.797 93.2714 122.181 93.3502C121.571 93.4254 120.957 93.4689 120.343 93.4803C120.053 93.483 119.763 93.4641 119.475 93.4239C120.514 93.0561 121.528 92.6215 122.511 92.123C123.559 91.5876 124.644 91.1296 125.759 90.7527C126.462 90.5401 127.193 90.432 127.927 90.4318C129.203 90.4121 130.456 90.768 131.531 91.4552C132.376 92.0146 132.619 92.6043 132.333 93.4326C131.989 94.3864 131.458 95.262 130.772 96.0084C130.724 96.0605 130.676 96.1255 130.611 96.1949C130.291 96.5722 129.744 97.2096 129.31 97.2096C129.24 97.2092 129.17 97.193 129.106 97.1623C129.042 97.1315 128.986 97.087 128.942 97.0318C128.591 96.6203 128.283 96.1743 128.023 95.7006L128.005 95.7266ZM136.5 96.9321C136.44 97.6016 136.145 98.2283 135.668 98.7014C135.473 98.8647 135.248 98.9873 135.005 99.0618C134.762 99.1363 134.507 99.1612 134.254 99.135H133.604C133.433 99.1303 133.264 99.1605 133.106 99.2239C132.948 99.2873 132.804 99.3825 132.684 99.5036C131.99 100.228 131.99 101.772 132.012 102.799V103.129L131.943 103.064C131.075 102.249 130.238 101.472 128.998 101.286C128.801 101.252 128.6 101.236 128.4 101.238C128.003 101.243 127.607 101.291 127.22 101.381C126.887 101.475 126.563 101.6 126.253 101.754C126.128 101.802 126.006 101.863 125.88 101.919C125.732 101.984 125.574 102.025 125.412 102.04C125.4 102.046 125.386 102.048 125.373 102.048C125.36 102.048 125.346 102.046 125.334 102.04C125.328 102.019 125.328 101.997 125.334 101.975C125.455 101.542 125.906 101.256 126.266 101.017L126.362 100.952C127.29 100.328 128.148 99.7031 129.007 99.0396C130.568 97.8254 132.285 96.3077 133.14 94.2695C133.634 93.0508 133.842 91.7348 133.747 90.4231V90.3103C133.742 89.748 133.641 89.1907 133.447 88.6625C133.262 88.2949 132.956 88.0024 132.58 87.8342C132.515 87.7952 132.45 87.7605 132.394 87.7215C132.554 87.4092 133.018 86.607 133.539 86.607C133.658 86.6173 133.774 86.6561 133.876 86.7203C133.978 86.7844 134.063 86.8719 134.124 86.9756C134.676 87.8225 135.068 88.7631 135.282 89.7509C135.321 89.9027 135.373 90.0718 135.421 90.2453C135.911 91.9799 136.721 94.9026 136.466 96.9668L136.5 96.9321ZM147.146 93.6711C146.445 94.1056 145.642 94.3506 144.818 94.3823H144.748C144.276 94.3658 143.806 94.321 143.339 94.2478C142.94 94.1958 142.532 94.1438 142.129 94.1264C141.3 94.0434 140.464 94.2111 139.731 94.6078C139.335 94.8755 138.989 95.21 138.708 95.5965C138.503 95.8662 138.272 96.1147 138.018 96.338C137.942 96.4134 137.843 96.4621 137.736 96.4768C137.623 96.4768 137.615 96.3987 137.623 96.2339C137.626 96.1964 137.626 96.1587 137.623 96.1212C137.623 95.7439 137.55 95.371 137.502 95.0154L137.467 94.8072C137.39 94.1514 137.278 93.5001 137.133 92.8558C137.107 92.7387 137.068 92.6087 137.021 92.4612C136.839 91.8845 136.613 91.1603 137.06 90.8004C137.375 90.6104 137.736 90.5085 138.105 90.5055C138.105 90.5055 138.452 90.4751 138.833 90.4708H138.976C139.411 90.4716 139.846 90.4991 140.277 90.5532C141.161 90.6789 142.031 90.888 142.875 91.1776C143.413 91.3598 143.955 91.5592 144.488 91.7587C145.715 92.2576 146.985 92.6437 148.282 92.9122C147.917 93.181 147.536 93.4286 147.142 93.6537" fill="#FAF7F5"/>
<path d="M160.702 103.376C160.34 101.058 159.767 98.7772 158.989 96.5634C158.24 94.4427 157.297 92.3959 156.17 90.449C155.295 88.9384 154.3 87.4999 153.196 86.1473C151.786 84.416 150.186 82.8493 148.426 81.4769C146.705 80.1465 144.826 79.0351 142.832 78.1682C140.839 77.3086 138.738 76.725 136.587 76.4336C134.4 76.148 132.183 76.1772 130.004 76.5203C127.865 76.8616 125.782 77.4963 123.816 78.4067C121.839 79.3218 119.982 80.4768 118.287 81.8455C116.557 83.2541 114.991 84.8543 113.621 86.6156C112.267 88.3285 111.085 90.1702 110.091 92.1142C109.061 94.1419 108.219 96.2597 107.576 98.4411C106.907 100.72 106.445 103.056 106.197 105.418C105.941 107.868 105.904 110.335 106.084 112.79C106.265 115.182 106.663 117.552 107.273 119.872C107.849 122.092 108.63 124.253 109.606 126.329C110.544 128.319 111.669 130.215 112.966 131.992C114.432 133.978 118.17 137.5 118.17 137.5C122.546 141.09 127.853 143.215 133.586 143.215C135.773 143.216 137.949 142.905 140.048 142.291C142.123 141.686 144.11 140.811 145.958 139.69C147.836 138.537 149.571 137.168 151.127 135.609C152.681 134.048 154.069 132.331 155.269 130.483C156.485 128.615 157.519 126.634 158.356 124.568C159.232 122.421 159.907 120.197 160.373 117.925C161.362 113.138 161.473 108.211 160.702 103.385V103.376ZM111.813 119.365H111.11L111.739 116.979C111.804 116.797 111.839 116.81 111.856 116.884C111.856 117.751 111.83 118.584 111.813 119.373V119.365ZM112.16 112.869L110.742 112.205C110.659 112.166 110.668 112.14 110.742 112.14H113.777C113.864 112.14 113.868 112.166 113.777 112.205L112.446 112.86C112.353 112.89 112.253 112.89 112.16 112.86V112.869ZM110.386 111.524L111.969 110.401C111.969 110.765 111.969 111.143 111.947 111.524H110.386ZM110.911 107.725H113.621C113.695 107.725 113.699 107.756 113.621 107.786L112.411 108.359C112.325 108.386 112.233 108.386 112.147 108.359L110.889 107.778C110.82 107.747 110.824 107.721 110.889 107.721L110.911 107.725ZM110.555 107.17L112.043 106.208C112.043 106.511 112.043 106.832 112.021 107.17H110.555ZM112.524 106.234L113.964 107.17H112.559C112.559 106.854 112.559 106.537 112.559 106.234H112.524ZM112.619 110.401L114.211 111.52H112.628C112.628 111.143 112.628 110.761 112.628 110.401H112.619ZM112.758 119.365C112.758 118.575 112.728 117.738 112.715 116.88C112.715 116.819 112.771 116.776 112.819 116.949L113.456 119.365H112.758ZM133.573 140.782C129.416 140.765 125.354 139.534 121.886 137.239C124.602 137.29 127.31 137.548 129.987 138.011C132.68 138.41 135.369 138.857 138.074 139.13C139.111 139.239 140.156 139.317 141.201 139.36C138.775 140.314 136.193 140.805 133.586 140.808L133.573 140.782ZM145.932 136.827C143.26 137.064 140.571 137.016 137.91 136.684C135.247 136.398 132.606 135.951 129.957 135.566C127.232 135.117 124.478 134.878 121.717 134.85C120.781 134.85 119.853 134.902 118.916 134.997C118.031 134.208 117.197 133.364 116.418 132.469C119.191 132.104 121.996 132.037 124.783 132.27C127.58 132.478 130.36 132.886 133.131 133.298C134.527 133.506 135.919 133.71 137.311 133.896C138.005 133.987 140.78 134.2 141.444 134.2C144.233 134.197 147.017 133.971 149.77 133.523C148.598 134.74 147.312 135.841 145.928 136.81L145.932 136.827ZM152.268 130.561C149.59 131.186 146.861 131.563 144.115 131.689C142.744 131.775 141.368 131.789 139.996 131.728C138.608 131.663 137.233 131.437 135.859 131.242C133.096 130.843 130.33 130.401 127.554 130.089C124.789 129.76 122.002 129.654 119.22 129.772C117.704 129.845 116.196 130.025 114.705 130.31C114.194 129.599 113.712 128.857 113.253 128.089C115.71 127.575 118.207 127.267 120.716 127.17C123.253 127.104 125.791 127.249 128.304 127.604C130.737 127.925 133.148 128.367 135.581 128.697C137.802 129.011 140.042 129.176 142.285 129.191C144.61 129.185 146.93 128.991 149.223 128.61C150.902 128.341 152.571 127.998 154.21 127.565C153.617 128.615 152.961 129.628 152.246 130.6L152.268 130.561ZM115.174 122.057C114.787 121.82 114.469 121.487 114.25 121.09C114.03 120.694 113.917 120.247 113.92 119.794L117.52 111.312C117.598 111.16 117.632 111.208 117.611 111.312L115.174 122.057ZM117.559 114.057C117.507 117.855 117.455 121.394 117.433 123.09C116.773 122.931 116.144 122.663 115.573 122.296L117.476 113.883C117.528 113.801 117.55 113.927 117.559 114.057ZM116.631 106.572H119.337C119.41 106.572 119.415 106.602 119.337 106.637L118.135 107.222C118.095 107.241 118.052 107.25 118.007 107.25C117.963 107.25 117.92 107.241 117.88 107.222L116.618 106.646C116.548 106.611 116.553 106.581 116.618 106.581L116.631 106.572ZM116.279 106.034L117.706 105.093C117.706 105.397 117.706 105.713 117.706 106.034H116.279ZM118.274 105.111L119.688 106.034H118.3C118.3 105.713 118.3 105.405 118.3 105.111H118.274ZM121.188 117.565C121.145 119.386 121.097 121.203 121.071 122.608L121.028 122.639L119.805 117.378L120.451 115.848L121.188 117.565ZM120.716 115.267L121.197 114.135C121.249 114.061 121.275 114.083 121.292 114.135C121.271 114.872 121.249 115.653 121.232 116.455L120.716 115.267ZM119.501 118.098L120.664 122.868C120.226 123.032 119.77 123.14 119.306 123.189C119.148 123.212 118.989 123.227 118.829 123.233C118.734 123.241 118.638 123.241 118.543 123.233C118.543 122.591 118.543 121.619 118.508 120.431L119.501 118.098ZM118.491 119.321C118.491 117.743 118.443 115.9 118.417 113.987C118.417 113.831 118.465 113.723 118.543 113.953L119.332 117.344L118.491 119.321ZM119.627 116.633L118.396 111.277C118.396 111.173 118.396 111.121 118.487 111.277L120.221 115.271L119.627 116.633ZM121.991 118.293V117.517C121.96 116.125 121.921 115.479 121.891 114.191C121.891 114.096 121.93 114.035 121.995 114.143L124.163 119.503C123.944 120.066 123.619 120.581 123.205 121.021L121.991 118.293ZM122.858 121.368C122.628 121.615 122.379 121.843 122.112 122.049C122.112 121.316 122.06 120.371 122.043 119.512L122.858 121.368ZM125.026 119.317L127.48 114.035C127.433 115.548 127.385 117.721 127.342 119.317H126.353C125.98 119.317 125.399 119.317 125.052 119.317H125.026ZM142.61 112.556H146.158C146.253 112.556 146.266 112.556 146.201 112.617C146.136 112.678 144.588 113.389 144.588 113.389C144.534 113.412 144.477 113.423 144.419 113.423C144.361 113.423 144.303 113.412 144.25 113.389L142.593 112.626C142.498 112.578 142.506 112.552 142.593 112.552L142.61 112.556ZM142.185 111.845L144.046 110.518C144.046 110.913 144.046 111.819 144.046 111.845H142.185ZM142.871 106.615C142.891 106.613 142.911 106.613 142.931 106.615H145.902H145.958C145.98 106.615 145.958 106.646 145.915 106.667L144.566 107.292C144.476 107.324 144.378 107.324 144.289 107.292L142.905 106.663C142.858 106.663 142.845 106.62 142.853 106.611L142.871 106.615ZM142.537 105.974L144.132 104.846C144.132 105.21 144.132 105.592 144.132 105.978L142.537 105.974ZM144.675 104.859L146.301 105.978H144.714C144.714 105.596 144.714 105.223 144.714 104.863L144.675 104.859ZM144.792 110.501L146.643 111.828H144.796C144.796 111.394 144.796 110.934 144.77 110.501H144.792ZM150.147 109.074H153.183C153.265 109.074 153.278 109.1 153.183 109.139L151.83 109.824C151.74 109.855 151.642 109.855 151.552 109.824L150.134 109.174C150.056 109.135 150.06 109.109 150.134 109.109L150.147 109.074ZM149.77 108.476L151.357 107.348C151.357 107.721 151.357 108.09 151.357 108.476H149.77ZM151.981 107.353L153.595 108.476H151.999C151.999 108.094 151.999 107.721 151.999 107.353H151.981ZM151.301 113.857C151.249 117.539 151.188 121.485 151.149 124.265C150.397 124.536 149.596 124.646 148.799 124.586L150.308 117.847L151.201 113.879C151.236 113.779 151.283 113.727 151.301 113.853V113.857ZM151.071 112.296L148.434 124.005L147.289 120.865L150.897 112.218C150.993 112.045 151.101 111.932 151.062 112.335L151.071 112.296ZM148.165 124.516C147.427 124.35 146.745 123.996 146.184 123.488L147.051 121.442L148.165 124.516ZM145.867 123.168C145.503 122.779 145.195 122.341 144.952 121.867C144.952 120.089 144.891 117.452 144.848 114.616L146.843 120.791L145.867 123.168ZM141.531 121.741H137.194L143.638 114.43L141.531 121.741ZM144.011 114.62C144.011 116.264 143.937 121.559 143.937 121.741H141.964L144.011 114.62ZM152.09 113.87C152.09 113.753 152.146 113.788 152.19 113.901L154.007 121.737C153.611 122.556 152.993 123.249 152.224 123.736C152.224 122.309 152.094 113.905 152.09 113.87ZM154.466 121.676L152.246 112.365C152.177 111.806 152.328 112.006 152.437 112.209L156.496 121.676H154.466ZM158.083 117.136C157.789 118.619 157.401 120.082 156.921 121.515L152.064 109.98L154.202 109.031C154.252 109.006 154.295 108.968 154.324 108.92C154.354 108.873 154.37 108.818 154.37 108.762C154.37 108.706 154.354 108.651 154.324 108.603C154.295 108.556 154.252 108.518 154.202 108.493L151.99 106.919L151.938 103.402C152.198 103.372 152.445 103.25 152.697 103.211C152.974 103.184 153.254 103.203 153.525 103.268C153.774 103.322 154.031 103.322 154.28 103.268C154.512 103.194 154.728 103.075 154.913 102.916C154.362 102.916 153.911 102.552 153.426 102.331C153.176 102.222 152.911 102.15 152.641 102.118C152.362 102.075 152.078 102.087 151.804 102.153C151.773 101.945 151.747 101.719 151.713 101.498H151.6C151.468 102.496 151.411 103.502 151.431 104.508C151.431 105.197 151.431 105.891 151.409 106.572C151.409 106.702 151.409 106.819 151.409 106.945L149.189 108.523C149.138 108.548 149.096 108.586 149.066 108.634C149.037 108.681 149.021 108.736 149.021 108.792C149.021 108.848 149.037 108.903 149.066 108.951C149.096 108.998 149.138 109.037 149.189 109.061L151.257 110.011L147.077 120.188L144.909 113.645L147.298 112.526C147.354 112.495 147.401 112.45 147.434 112.395C147.466 112.34 147.484 112.278 147.484 112.214C147.484 112.15 147.466 112.087 147.434 112.032C147.401 111.977 147.354 111.932 147.298 111.901C147.298 111.901 145.047 110.323 144.753 110.111C144.753 109.282 144.727 108.376 144.718 107.608L146.886 106.576C146.935 106.551 146.976 106.512 147.005 106.465C147.034 106.417 147.049 106.363 147.049 106.307C147.049 106.252 147.034 106.198 147.005 106.15C146.976 106.103 146.935 106.064 146.886 106.039L144.649 104.447C144.649 102.843 144.609 101.238 144.588 99.6336C144.729 99.6268 144.868 99.5976 145 99.5469C145.142 99.5022 145.287 99.466 145.433 99.4385C145.71 99.401 145.991 99.4157 146.262 99.4819C146.521 99.5425 146.791 99.5425 147.051 99.4819C147.284 99.4067 147.5 99.2874 147.688 99.1306C147.133 99.1306 146.678 98.7664 146.197 98.5452C145.948 98.4342 145.683 98.3625 145.412 98.3327C145.135 98.2903 144.852 98.3021 144.579 98.3674C144.553 98.1549 144.523 97.9338 144.484 97.7039H144.38C144.248 98.5895 144.19 99.4844 144.206 100.38C144.206 101.195 144.206 102.01 144.206 102.83C144.206 103.363 144.206 103.892 144.206 104.421L141.986 106.008C141.936 106.034 141.894 106.072 141.864 106.12C141.835 106.168 141.819 106.223 141.819 106.279C141.819 106.335 141.835 106.391 141.864 106.438C141.894 106.486 141.936 106.525 141.986 106.55L144.154 107.582C144.154 108.354 144.154 109.269 144.119 110.089L141.531 111.884C141.473 111.914 141.426 111.96 141.392 112.015C141.359 112.07 141.341 112.134 141.341 112.199C141.341 112.263 141.359 112.327 141.392 112.382C141.426 112.437 141.473 112.483 141.531 112.513L143.868 113.632L136.561 121.741C136.418 121.741 135.507 121.741 135.377 121.914C135.296 121.985 135.241 122.08 135.221 122.186C135.201 122.291 135.216 122.4 135.264 122.495C135.383 122.751 135.585 122.959 135.837 123.085C135.961 123.16 136.092 123.224 136.227 123.276C136.243 123.285 136.258 123.297 136.27 123.311C136.27 123.311 136.925 125.479 139.74 126.52C139.74 126.52 139.813 126.546 139.792 126.606C139.77 126.667 139.792 126.606 139.792 126.632H139.718C137.029 126.463 134.375 126.017 131.722 125.605C130.702 125.436 129.692 125.284 128.686 125.171C128.001 125.084 127.316 125.002 126.631 124.876C126.561 124.876 126.526 124.833 126.513 124.807L126.548 124.755C130.286 123.64 131.071 120.913 131.071 120.913C131.071 120.913 131.171 120.861 131.214 120.839L131.513 120.696C131.763 120.566 131.964 120.359 132.086 120.106C132.135 120.01 132.15 119.899 132.129 119.793C132.108 119.687 132.051 119.591 131.969 119.521C131.83 119.339 130.772 119.343 130.772 119.343H130.59C130.59 118.757 130.59 117.248 130.538 116.268C130.654 116.299 130.778 116.29 130.889 116.242C131.028 116.203 131.162 116.16 131.323 116.13C131.609 116.07 131.904 116.07 132.19 116.13C132.464 116.199 132.749 116.208 133.027 116.156C133.271 116.085 133.497 115.964 133.69 115.8C133.127 115.8 132.671 115.41 132.173 115.193C131.91 115.078 131.63 115.011 131.344 114.993C131.062 114.947 130.773 114.971 130.503 115.063C130.481 114.829 130.46 114.629 130.438 114.477H130.33C130.186 115.314 130.182 118.215 130.178 119.343H128.265C128.205 117.3 128.118 114.573 128.066 112.838L129.696 109.369C129.918 109.469 130.178 109.486 130.408 109.573C130.651 109.664 130.874 109.801 131.067 109.976C131.255 110.151 131.474 110.289 131.713 110.384C131.977 110.457 132.255 110.466 132.524 110.41C132.112 110.058 131.781 109.619 131.557 109.126C131.401 108.906 131.21 108.713 130.993 108.554C130.766 108.371 130.507 108.233 130.23 108.146C130.298 107.963 130.349 107.775 130.382 107.582C130.382 107.565 130.379 107.547 130.371 107.531C130.364 107.516 130.352 107.502 130.338 107.491H130.308C130.234 107.491 130.217 107.548 130.165 107.608C130.028 107.795 129.904 107.991 129.792 108.194L128.057 111.919C128.057 111.329 128.031 110.744 128.023 110.154C128.03 109.418 127.976 108.682 127.862 107.955H127.741C127.613 108.843 127.556 109.739 127.572 110.635C127.572 111.437 127.537 112.244 127.511 113.051L124.523 119.234L121.847 112.673C121.847 111.862 121.808 111.047 121.8 110.236C121.811 109.314 121.753 108.392 121.626 107.478H121.522C121.398 108.376 121.343 109.282 121.357 110.189C121.357 111.021 121.323 111.845 121.305 112.669L120.438 114.69L118.357 109.824C118.357 109.009 118.357 108.215 118.318 107.439L120.226 106.542C120.269 106.519 120.306 106.485 120.331 106.443C120.357 106.401 120.37 106.352 120.37 106.303C120.37 106.254 120.357 106.206 120.331 106.164C120.306 106.122 120.269 106.087 120.226 106.065C120.226 106.065 118.617 104.907 118.27 104.668C118.248 102.986 118.235 101.308 118.209 99.625C118.333 99.6176 118.456 99.5928 118.573 99.5513C118.715 99.5052 118.86 99.469 119.007 99.4428C119.282 99.4052 119.562 99.4199 119.831 99.4862C120.092 99.5475 120.364 99.5475 120.625 99.4862C120.858 99.4119 121.075 99.2926 121.262 99.135C120.736 99.0476 120.234 98.8479 119.792 98.5495C119.544 98.4333 119.279 98.3586 119.007 98.3284C118.719 98.2799 118.424 98.2903 118.14 98.3587C118.118 98.1332 118.092 97.9251 118.053 97.6952H117.949C117.803 98.7685 117.744 99.8518 117.771 100.935C117.771 101.98 117.745 103.025 117.732 104.07C117.732 104.265 117.732 104.456 117.732 104.655L115.785 106.047C115.742 106.071 115.705 106.105 115.68 106.148C115.655 106.19 115.641 106.239 115.641 106.288C115.641 106.337 115.655 106.386 115.68 106.428C115.705 106.471 115.742 106.505 115.785 106.529L117.68 107.435C117.68 108.302 117.645 109.72 117.645 109.82L113.777 118.931L113.214 116.836H113.951C114.062 116.829 114.172 116.806 114.276 116.767C114.35 116.767 114.523 116.68 114.523 116.581C114.523 116.481 114.367 116.429 114.302 116.403C114.191 116.356 114.071 116.331 113.951 116.329H113.083L112.702 114.889C112.702 114.295 112.68 113.697 112.671 113.116L114.809 112.11C114.858 112.084 114.9 112.045 114.928 111.998C114.957 111.95 114.972 111.896 114.972 111.841C114.972 111.785 114.957 111.731 114.928 111.684C114.9 111.636 114.858 111.598 114.809 111.572C114.809 111.572 112.754 110.115 112.602 110.015C112.602 109.581 112.602 109 112.602 108.61L114.532 107.704C114.575 107.679 114.611 107.644 114.636 107.601C114.661 107.557 114.674 107.509 114.674 107.459C114.674 107.409 114.661 107.36 114.636 107.317C114.611 107.274 114.575 107.238 114.532 107.214C114.532 107.214 112.797 105.987 112.546 105.8C112.546 104.399 112.515 103.458 112.511 103.354C112.742 103.333 112.97 103.28 113.188 103.198C113.429 103.166 113.673 103.174 113.912 103.22C114.143 103.27 114.383 103.27 114.614 103.22C114.832 103.154 115.032 103.04 115.2 102.886C114.728 102.808 114.278 102.634 113.877 102.374C113.653 102.275 113.414 102.212 113.17 102.188C112.923 102.149 112.67 102.163 112.429 102.231C112.407 102.045 112.377 101.858 112.333 101.65H112.234C112.105 102.418 112.05 103.196 112.069 103.974C112.069 104.647 112.069 105.098 112.034 105.77L110.061 107.196C110.016 107.219 109.979 107.254 109.953 107.297C109.927 107.34 109.913 107.389 109.913 107.439C109.913 107.489 109.927 107.539 109.953 107.581C109.979 107.624 110.016 107.659 110.061 107.682L111.991 108.597C111.991 108.992 111.991 109.581 111.969 110.002L109.805 111.559C109.756 111.585 109.715 111.623 109.686 111.671C109.658 111.718 109.642 111.772 109.642 111.828C109.642 111.883 109.658 111.937 109.686 111.985C109.715 112.032 109.756 112.071 109.805 112.097L111.93 113.107C111.93 113.688 111.904 114.278 111.895 114.842L111.505 116.329H110.638C110.526 116.334 110.416 116.358 110.312 116.398C110.234 116.429 110.065 116.485 110.065 116.589C110.065 116.693 110.217 116.741 110.286 116.763C110.398 116.809 110.517 116.837 110.638 116.845H110.881H111.379L110.698 119.365H109.627C108.98 116.922 108.585 114.42 108.448 111.897C108.304 109.372 108.41 106.839 108.764 104.334C109.092 102.008 109.646 99.7193 110.417 97.5001C111.149 95.3879 112.09 93.3542 113.227 91.4291C113.825 90.4132 114.484 89.4343 115.2 88.4976C118.114 89.482 121.86 88.5757 121.86 88.5757C125.239 87.9686 127.35 88.0596 128.573 88.2504L129.232 88.3675C129.288 87.9978 129.371 87.6325 129.48 87.2747C125.919 86.1559 121.956 86.698 121.956 86.698C119.536 86.9192 118.053 86.4291 117.311 86.0085C118.169 85.1026 119.094 84.2632 120.078 83.4977C121.213 84.2366 122.497 84.7163 123.838 84.9027C124.705 85.0545 125.572 85.1195 126.401 85.3147C127.266 85.5082 128.119 85.7529 128.955 86.0475C129.25 86.1516 129.64 86.3424 129.822 86.4248C129.99 86.0835 130.189 85.7583 130.416 85.4534L129.844 85.1065C128.808 84.545 127.709 84.1083 126.57 83.8056C125.8 83.5815 125.052 83.2913 124.332 82.9383C123.728 82.6182 123.175 82.2089 122.693 81.7241C123.735 81.0966 124.827 80.557 125.958 80.1109C126.691 81.1473 128.053 81.7284 128.994 82.5263C129.789 83.1833 130.486 83.9515 131.062 84.8073C131.36 84.5695 131.692 84.378 132.047 84.2392C131.533 83.0127 130.798 81.8911 129.879 80.9305C129.343 80.4757 128.933 79.8901 128.69 79.2306C129.915 78.9342 131.165 78.7542 132.424 78.6929L133.027 84.0267C133.215 83.9986 133.405 83.9856 133.595 83.9877C133.785 83.9885 133.975 84.0015 134.163 84.0267L134.757 78.6972C135.63 78.7437 136.499 78.8451 137.359 79.0008C138.005 79.1265 138.499 79.2523 138.499 79.2523C138.25 79.9072 137.842 80.4899 137.311 80.9479C136.39 81.9101 135.654 83.0349 135.143 84.2652C135.495 84.3995 135.826 84.5819 136.127 84.8073C136.71 83.9575 137.404 83.1903 138.192 82.5263C139.102 81.7327 140.464 81.1213 141.201 80.1109C141.992 80.4177 142.766 80.7695 143.517 81.1647L144.488 81.7197C143.97 82.1594 143.426 82.5664 142.858 82.9383C142.146 83.3064 141.398 83.5972 140.624 83.8056C139.483 84.109 138.381 84.5456 137.342 85.1065L136.787 85.4491C137.025 85.745 137.23 86.0664 137.398 86.4075C137.68 86.2677 137.97 86.1432 138.265 86.0345C139.1 85.7398 139.951 85.4951 140.815 85.3017C141.656 85.1065 142.519 85.0415 143.374 84.8897C144.71 84.6958 145.99 84.2167 147.125 83.4847C148.098 84.2652 149.022 85.1052 149.891 85.9998C149.124 86.4335 147.654 86.9061 145.251 86.685C145.251 86.685 141.27 86.1386 137.736 87.2487C137.844 87.6028 137.921 87.9655 137.966 88.3328L138.669 88.2201C139.922 88.0423 141.977 87.9686 145.351 88.5757C145.351 88.5757 149.089 89.443 151.999 88.502C152.285 88.8749 152.567 89.2608 152.836 89.6468C154.077 91.459 155.13 93.393 155.98 95.4186C156.869 97.5548 157.549 99.7725 158.009 102.04C158.497 104.424 158.757 106.849 158.785 109.282C158.816 111.925 158.572 114.565 158.057 117.157" fill="#FAF7F5"/>
</svg>
