<svg fill="none" height="90" viewBox="0 0 191 90" width="191" xmlns="http://www.w3.org/2000/svg" xmlns:xlink="http://www.w3.org/1999/xlink"><clipPath id="a"><path d="m43.4033 29h104.193v32h-104.193z"/></clipPath><g clip-path="url(#a)" fill="#375bd2"><path d="m79.1727 44.7997c-.0302-.7443.0873-1.4873.3457-2.186.2584-.6988.6527-1.3394 1.1599-1.885.5073-.5455 1.1176-.9853 1.7957-1.2938s1.4106-.4797 2.1552-.5036h.2313c2.8778 0 4.5763 1.6928 5.0785 3.6734l-1.7887.5981c-.1607-.738-.5814-1.3937-1.1853-1.8474-.604-.4537-1.3508-.6752-2.1045-.6241-1.8621 0-3.7298 1.3599-3.7298 4.1023s1.8226 4.0515 3.7524 4.0515c.7574.0207 1.4998-.2133 2.1085-.6644.6087-.4512 1.0484-1.0934 1.2489-1.8241l1.7549.5643c-.3029 1.1145-.9767 2.0926-1.9102 2.7727s-2.0709 1.0217-3.2247.9684c-1.4822.0272-2.9145-.5352-3.9821-1.5637-1.0677-1.0285-1.6832-2.4388-1.7114-3.921-.0056-.1354 0-.2765.0057-.4176z"/><path d="m93.477 50.4424h-1.8508v-11.5451h1.8508v4.5142c.2687-.3187.6067-.5718.988-.74.3814-.1682.7962-.247 1.2127-.2305 1.9129 0 2.8214 1.3712 2.8214 3.0809v4.9205h-1.7831v-4.5932c.0534-.3916-.0491-.7884-.2856-1.1051-.2364-.3166-.5878-.5277-.9784-.5877-.1107-.0114-.2222-.0114-.3329 0-.428 0-.8385.17-1.1412.4727-.3026.3026-.4726.7131-.4726 1.1411-.0029.047-.0029.0941 0 .1411z"/><path d="m102.652 45.9959 1.986-.3103c.452-.0564.565-.2878.565-.5643 0-.6545-.44-1.1793-1.467-1.1793-.388-.0314-.773.0914-1.071.3418-.298.2503-.485.608-.521.9955v.0847l-1.693-.3781c.142-1.343 1.36-2.5392 3.268-2.5392 2.392 0 3.301 1.3542 3.301 2.9342v3.854c-.002.4176.03.8346.096 1.247h-1.693c-.061-.3273-.086-.6604-.074-.9931-.257.3954-.613.7166-1.032.9315-.42.2148-.889.3158-1.36.293-.643.0531-1.282-.1511-1.775-.5679s-.8-1.0121-.855-1.6554c0-.0395 0-.079 0-.1128-.028-1.4276.993-2.195 2.325-2.3813zm2.562 1.2471v-.3555l-2.026.3047c-.275.0087-.536.1234-.728.32-.193.1967-.302.4601-.304.7352.002.1363.031.2709.086.3957.055.1249.134.2377.232.3317.099.094.216.1674.343.216.127.0485.263.0712.399.0666h.085c.231.0242.465.0025.687-.064.223-.0664.43-.1762.61-.3231s.329-.3279.438-.5326c.11-.2047.178-.4291.201-.6602.008-.1455-.002-.2913-.029-.4345z"/><path d="m110.168 38.7394c.159-.0022.317.027.465.086s.282.1465.396.2577.205.2437.267.39.095.3035.097.4626c0 .2381-.071.4709-.203.6691s-.319.3529-.539.4448-.461.1168-.695.0715c-.234-.0452-.449-.1585-.619-.3257-.169-.1672-.286-.3808-.334-.6139-.049-.2331-.027-.4754.062-.6963s.241-.4107.437-.5454.428-.2083.666-.2117zm-.903 11.7369v-7.7982h1.851v7.7644z"/><path d="m115.331 50.4424h-1.845v-7.7644h1.8v1.0326c.235-.3965.572-.7226.976-.944s.86-.3299 1.321-.3143c1.896 0 2.821 1.3712 2.821 3.0809v4.9092h-1.845v-4.5932c0-.9536-.434-1.7267-1.597-1.7267-.215.0015-.427.0453-.625.1289s-.378.2054-.529.3584-.27.3342-.351.5333-.121.4122-.12.6271v.1862z"/><path d="m122.639 50.4424v-11.5451h1.85v11.5451z"/><path d="m127.791 38.7394c.238-.0011.471.0686.669.2002.199.1316.354.3193.445.5391.092.2199.116.462.07.6957s-.161.4483-.329.6168c-.168.1684-.383.283-.617.3292-.233.0462-.476.0219-.695-.0698-.22-.0916-.408-.2466-.54-.4451-.131-.1985-.201-.4317-.2-.6698.003-.3164.13-.619.354-.8427s.526-.3507.843-.3536zm-.909 11.7369v-7.7983h1.834v7.7644z"/><path d="m132.959 50.4424h-1.85v-7.7644h1.8v1.0326c.235-.3961.572-.7218.976-.9432.404-.2213.86-.3301 1.32-.3151 1.896 0 2.822 1.3712 2.822 3.0809v4.9092h-1.851v-4.5932c.053-.3915-.049-.7884-.286-1.105-.236-.3167-.588-.5278-.978-.5878-.113-.0113-.226-.0113-.339 0-.431.0045-.843.1788-1.146.4852s-.473.7201-.473 1.1512c-.006.0657-.006.1318 0 .1975z"/><path d="m144.341 45.9564 3.256 4.5142h-2.257l-2.258-3.1994-.953 1.0044v2.1668h-1.834v-11.5451h1.834v6.918l2.979-3.1373h2.455z"/><path d="m57.2619 35.7713 8.0014 4.5932v9.2315l-7.9788 4.6214-7.9958-4.5819v-9.2259zm0-6.7713-2.9342 1.6928-7.9902 4.6384-2.9342 1.6928v16.0084l2.9342 1.6929 8.0015 4.5932 2.9342 1.6928 2.9342-1.6928 7.9732-4.6271 2.9342-1.6928v-16.031l-2.9342-1.6929-7.9958-4.5819-2.9342-1.6928z"/></g></svg>
