<svg fill="none" height="112" viewBox="0 0 285 112" width="285" xmlns="http://www.w3.org/2000/svg" xmlns:xlink="http://www.w3.org/1999/xlink"><mask id="a" height="32" maskUnits="userSpaceOnUse" width="35" x="62" y="40"><path d="m75.4796 64.327c-4.7679 2.3296-10.3602-.008-12.4908-5.221-2.1305-5.2131.0074-11.3276 4.7753-13.6571 4.7678-2.3295 10.3601.0081 12.4907 5.2211s-.0073 11.3275-4.7752 13.657z" fill="#000"/><path d="m92.6548 53.6941c-3.3008 1.6128-7.1724-.0056-8.6474-3.6147-1.475-3.609.0051-7.8421 3.3059-9.4548 3.3009-1.6128 7.1725.0056 8.6475 3.6146 1.475 3.6091-.0051 7.8422-3.306 9.4549z" fill="#000"/><path d="m90.3403 71.4969c-2.659 1.2991-5.7778-.0045-6.966-2.9118s.0041-6.3173 2.6632-7.6164c2.6589-1.2992 5.7777.0045 6.9659 2.9117 1.1882 2.9073-.0041 6.3173-2.6631 7.6165z" fill="#000"/></mask><path d="m106.117 69.8938c-.173 0-.315-.0615-.426-.1845-.11-.123-.166-.2812-.166-.4744v-17.1306c0-.1933.056-.3514.166-.4744.111-.123.253-.1845.426-.1845h10.721c.173 0 .315.0615.426.1845.11.123.165.2811.165.4744v2.1083c0 .1758-.055.3251-.165.4481-.111.123-.253.1845-.426.1845h-7.668v4.1377h7.147c.174 0 .316.0615.426.1845.11.1229.166.2811.166.4744v1.9502c0 .1757-.056.325-.166.448-.11.1231-.252.1845-.426.1845h-7.147v4.2695h7.857c.173 0 .315.0615.426.1845.11.123.166.2811.166.4743v2.0821c0 .1932-.056.3514-.166.4744-.111.123-.253.1845-.426.1845zm14.883 0c-.174 0-.316-.0615-.426-.1845s-.166-.2812-.166-.4744v-17.3942c0-.1932.056-.3513.166-.4744.11-.123.252-.1844.426-.1844h2.367c.157 0 .291.0614.402.1844.11.1231.166.2812.166.4744v17.3942c0 .1932-.056.3514-.166.4744-.111.123-.245.1845-.402.1845zm11.652.2635c-1.814 0-3.257-.5622-4.33-1.6867-1.057-1.1245-1.617-2.7585-1.68-4.902 0-.1405 0-.325 0-.5534 0-.246 0-.4393 0-.5798.063-1.3529.339-2.5125.828-3.4789.489-.9839 1.175-1.7307 2.059-2.2402.883-.527 1.917-.7906 3.1-.7906 1.326 0 2.43.3075 3.313.9225.899.5974 1.57 1.4231 2.012 2.4773.457 1.0366.686 2.2314.686 3.5843v.6061c0 .1758-.063.325-.189.4481-.111.123-.245.1844-.403.1844h-7.738v.1054.1055c.016.5622.111 1.0805.284 1.5549.189.4568.45.8258.78 1.1069.348.2811.758.4217 1.232.4217.394 0 .717-.0615.97-.1845s.457-.2723.615-.448c.174-.1757.3-.3251.379-.4481.141-.1757.253-.2811.331-.3162.094-.0527.237-.0791.426-.0791h2.461c.158 0 .284.0527.379.1582.11.0878.158.2195.142.3953-.016.2811-.15.6324-.402 1.0542-.237.404-.592.8082-1.066 1.2123-.473.3865-1.065.7115-1.774.9751-.695.2636-1.499.3953-2.415.3953zm-2.342-8.4072h4.638v-.0527c0-.6325-.094-1.1772-.284-1.6339-.173-.4744-.433-.8434-.781-1.107-.347-.2635-.765-.3953-1.254-.3953s-.907.1318-1.255.3953c-.346.2636-.615.6326-.804 1.107-.173.4567-.26 1.0014-.26 1.6339zm11.5 8.1437c-.157 0-.291-.0615-.402-.1845-.11-.123-.166-.2812-.166-.4744v-12.3867c0-.1933.056-.3514.166-.4744.111-.1231.245-.1845.402-.1845h2.201c.158 0 .292.0614.402.1845.127.123.19.2811.19.4744v.896c.316-.4919.75-.9136 1.301-1.265.568-.3514 1.239-.5359 2.012-.5535 1.831-.0351 3.085.738 3.763 2.3192.363-.6851.884-1.2386 1.562-1.6603.694-.4393 1.451-.6589 2.271-.6589.821 0 1.562.2109 2.225.6325.663.4041 1.183 1.0367 1.562 1.8976.395.8433.592 1.9326.592 3.268v7.5111c0 .1932-.055.3514-.166.4744-.11.123-.244.1845-.402.1845h-2.343c-.158 0-.292-.0615-.403-.1845-.11-.123-.166-.2812-.166-.4744v-7.3003c0-.7203-.094-1.2826-.283-1.6867-.19-.4216-.442-.7204-.757-.896-.3-.1758-.64-.2636-1.018-.2636-.331 0-.655.0878-.971.2636-.299.1756-.551.4744-.756.896-.19.4041-.284.9664-.284 1.6867v7.3003c0 .1932-.056.3514-.166.4744s-.252.1845-.426.1845h-2.32c-.173 0-.315-.0615-.425-.1845-.111-.123-.166-.2812-.166-.4744v-7.3003c0-.7203-.095-1.2826-.284-1.6867-.19-.4216-.442-.7204-.758-.896-.299-.1758-.63-.2636-.994-.2636-.331 0-.654.0967-.97.2899-.315.1758-.575.4656-.781.8697-.189.4041-.284.9576-.284 1.6604v7.3266c0 .1932-.055.3514-.165.4744-.111.123-.244.1845-.402.1845zm26.676.2635c-1.814 0-3.258-.5622-4.331-1.6867-1.057-1.1245-1.618-2.7585-1.68-4.902 0-.1405 0-.325 0-.5534 0-.246 0-.4393 0-.5798.062-1.3529.339-2.5125.829-3.4789.488-.9839 1.174-1.7307 2.058-2.2402.883-.527 1.917-.7906 3.1-.7906 1.326 0 2.43.3075 3.313.9225.9.5974 1.57 1.4231 2.012 2.4773.457 1.0366.687 2.2314.687 3.5843v.6061c0 .1758-.064.325-.19.4481-.111.123-.245.1844-.402.1844h-7.739v.1054.1055c.015.5622.11 1.0805.284 1.5549.189.4568.45.8258.781 1.1069.347.2811.757.4217 1.231.4217.394 0 .717-.0615.97-.1845.252-.123.457-.2723.615-.448.174-.1757.3-.3251.379-.4481.142-.1757.252-.2811.331-.3162.095-.0527.237-.0791.426-.0791h2.461c.158 0 .285.0527.379.1582.11.0878.158.2195.142.3953-.016.2811-.15.6324-.402 1.0542-.237.404-.592.8082-1.065 1.2123-.474.3865-1.065.7115-1.775.9751-.695.2636-1.5.3953-2.414.3953zm-2.343-8.4072h4.639v-.0527c0-.6325-.095-1.1772-.285-1.6339-.173-.4744-.434-.8434-.78-1.107-.348-.2635-.766-.3953-1.255-.3953s-.907.1318-1.254.3953c-.347.2636-.615.6326-.805 1.107-.174.4567-.26 1.0014-.26 1.6339zm11.5 8.1437c-.157 0-.291-.0615-.402-.1845s-.165-.2812-.165-.4744v-12.3867c0-.1933.054-.3514.165-.4744.111-.1231.245-.1845.402-.1845h2.319c.174 0 .316.0614.427.1845.11.123.165.2811.165.4744v1.0278c.41-.5622.939-1.0278 1.585-1.3968.648-.369 1.436-.5535 2.367-.5535s1.744.2372 2.438.7116c.71.4568 1.262 1.1332 1.656 2.0293.41.8785.616 1.9503.616 3.2153v7.353c0 .1932-.063.3514-.189.4744-.111.123-.245.1845-.403.1845h-2.508c-.174 0-.316-.0615-.426-.1845-.111-.123-.166-.2812-.166-.4744v-7.1949c0-.9311-.205-1.6516-.615-2.1611-.395-.527-.978-.7906-1.751-.7906-.742 0-1.334.2636-1.775.7906-.442.5095-.663 1.23-.663 2.1611v7.1949c0 .1932-.055.3514-.166.4744-.11.123-.244.1845-.402.1845zm20.422 0c-.977 0-1.814-.1757-2.508-.5271-.694-.369-1.222-.9312-1.585-1.6867-.347-.7556-.521-1.7043-.521-2.8463v-5.5346h-1.846c-.173 0-.316-.0614-.426-.1844-.11-.1231-.166-.2812-.166-.4744v-1.7921c0-.1933.056-.3514.166-.4744.11-.1231.253-.1845.426-.1845h1.846v-4.3486c0-.1932.055-.3513.165-.4744.127-.123.269-.1844.426-.1844h2.32c.173 0 .316.0614.425.1844.112.1231.166.2812.166.4744v4.3486h2.958c.158 0 .293.0614.403.1845.111.123.165.2811.165.4744v1.7921c0 .1932-.054.3513-.165.4744-.11.123-.245.1844-.403.1844h-2.958v5.2183c0 .6677.103 1.1947.308 1.5813.221.369.6.5534 1.136.5534h1.727c.158 0 .293.0615.403.1845.111.123.165.2723.165.4481v1.9502c0 .1932-.054.3514-.165.4744-.11.123-.245.1845-.403.1845z" fill="#2e69c3"/><path d="m204.921 70.044c-.171 0-.31-.0592-.419-.1779-.109-.1186-.163-.2711-.163-.4575v-16.5202c0-.1864.054-.3389.163-.4575s.248-.1779.419-.1779h10.37c.17 0 .309.0593.418.1779.108.1186.163.2711.163.4575v2.1603c0 .1863-.055.3389-.163.4575-.109.1186-.248.1779-.418.1779h-7.324v4.2953h6.858c.17 0 .311.0593.419.1779.109.1186.163.2711.163.4575v2.1603c0 .1695-.054.3134-.163.4321-.108.1186-.249.1779-.419.1779h-6.858v6.0235c0 .1864-.055.3389-.163.4575-.109.1187-.249.1779-.419.1779zm14.439 0c-.155 0-.287-.0592-.395-.1779-.109-.1186-.163-.2711-.163-.4575v-11.9454c0-.1863.054-.3388.163-.4575.108-.1186.24-.1779.395-.1779h2.326c.17 0 .309.0593.418.1779.108.1187.163.2712.163.4575v11.9454c0 .1864-.055.3389-.163.4575-.109.1187-.248.1779-.418.1779zm-.07-15.2494c-.155 0-.286-.0593-.395-.178-.108-.1186-.163-.2711-.163-.4574v-2.0333c0-.1864.055-.3389.163-.4575.109-.1355.24-.2033.395-.2033h2.442c.17 0 .31.0678.419.2033.123.1186.185.2711.185.4575v2.0333c0 .1863-.062.3388-.185.4574-.109.1187-.249.178-.419.178z" fill="#8fd8e7"/><g mask="url(#a)"><path d="m63.6021 62.8027c4.7069 9.637 17.0612 13.9583 27.5945 9.6519 10.5334-4.3065 15.2564-15.6098 10.5494-25.2469-4.707-9.6369-17.0614-13.9582-27.5946-9.6518-10.5331 4.3064-15.2562 15.6098-10.5493 25.2468z" fill="#2e69c3"/><path d="m70.8542 60.7147c2.5096 6.1151 9.0968 8.8572 14.7128 6.1246 5.616-2.7327 8.1343-9.9052 5.6247-16.0202-2.5096-6.1151-9.0967-8.8572-14.7128-6.1245-5.616 2.7326-8.1343 9.905-5.6247 16.0201z" fill="#6acde2"/></g><path d="m.5 1h283.5v110h-283.5z" stroke="#4d4d4d"/></svg>