<svg fill="none" height="112" viewBox="0 0 285 112" width="285" xmlns="http://www.w3.org/2000/svg"><path clip-rule="evenodd" d="m81.1264 38h-3.4941v28.0588h3.4941zm42.4586 7.3059c-3.494 0-6.247 1.8-7.729 4.2353-1.165 1.9059-1.588 4.0235-1.588 6.4588 0 2.8588.847 5.5059 2.541 7.5176 1.588 1.8 3.917 3.0706 6.776 3.0706 1.906 0 3.706-.5294 5.188-1.5882 1.695-1.1647 2.859-2.9647 3.177-4.9765h-3.388c-.212 1.0589-.636 1.6941-1.165 2.2236-.847.847-2.223 1.3764-3.812 1.3764-1.588 0-2.859-.5294-3.706-1.4823-1.27-1.2706-2.011-3.2824-2.011-5.0824h14.505v-2.0117c0-2.753-.952-5.4-2.647-7.0942-1.376-1.6941-3.494-2.647-6.141-2.647zm-5.612 8.7882c.106-2.9647 1.906-5.9294 5.612-5.9294 1.8 0 3.177.7412 4.024 1.8s1.27 2.6471 1.27 4.1294zm26.365-8.5765c-2.329 0-4.87 1.1648-6.141 3.1765l-.635-2.647h-2.647v27.9529h3.388v-10.1647c1.059 1.8 3.706 2.8588 5.929 2.8588 2.33 0 4.236-.847 5.612-2.0117 2.118-1.9059 3.071-5.0824 3.071-8.5765 0-3.2824-.953-6.4588-2.965-8.3647-1.165-1.4824-3.071-2.2236-5.612-2.2236zm-.529 18.3177c-1.483 0-2.436-.6353-3.283-1.3765-1.694-1.4823-2.329-3.9176-2.329-6.4588s.529-4.9765 2.329-6.4588c.847-.7412 1.8-1.3765 3.283-1.3765 4.553 0 5.717 4.0235 5.717 7.7294 0 3.9177-1.164 7.9412-5.717 7.9412zm13.235-14.2941c1.482-2.4353 4.235-4.2353 7.729-4.2353 2.648 0 4.765.9529 6.248 2.5412 1.694 1.8 2.647 4.447 2.647 7.0941v2.0117h-14.612c0 1.8.741 3.8118 2.012 5.0824.953.9529 2.223 1.4823 3.705 1.4823 1.589 0 2.965-.4235 3.812-1.3764.53-.5294.953-1.1647 1.165-2.2236h3.388c-.317 2.0118-1.482 3.8118-3.176 4.9765-1.483.953-3.283 1.5883-5.189 1.5883-2.964 0-5.294-1.1648-6.776-3.0706-1.694-1.9059-2.541-4.6589-2.541-7.5177 0-2.3294.423-4.447 1.588-6.3529zm7.729-1.3765c-3.705 0-5.505 2.9647-5.611 5.9294h10.906c0-1.4823-.424-3.0706-1.271-4.1294s-2.223-1.8-4.024-1.8zm20.436-2.8588c-3.494 0-6.353 1.8-7.73 4.2353-1.164 1.9059-1.588 4.0235-1.588 6.4588 0 2.8588.847 5.5059 2.541 7.5176 1.589 1.8 3.918 3.0706 6.777 3.0706 1.906 0 3.706-.5294 5.188-1.5882 1.694-1.1647 2.859-2.9647 3.176-4.9765h-3.388c-.212 1.0589-.635 1.6941-1.164 2.2236-.848.847-2.224 1.3764-3.812 1.3764s-2.859-.5294-3.706-1.4823c-1.271-1.2706-2.012-3.2824-2.012-5.0824h14.612v-2.0117c0-2.753-.953-5.4-2.647-7.0942-1.483-1.6941-3.6-2.647-6.247-2.647zm-5.612 8.7882c.106-2.9647 1.906-5.9294 5.612-5.9294 1.8 0 3.176.7412 4.023 1.8s1.271 2.6471 1.271 4.1294zm28.271-5.6117-.742-2.4353-7.2 2.5411-.635-2.647h-2.647v20.2235h3.388v-14.4zm-123.2474-2.6471h3.4941v20.2235h-3.4941zm3.9176-7.8353h-3.9176v3.8118h3.9176z" fill="#faf7f5" fill-rule="evenodd"/><path clip-rule="evenodd" d="m95.4206 45.8353h-3.9177v3.8118h3.9177zm9.0004 0h-3.918v3.8118h3.918zm0 16.6236h-3.918v3.8117h3.918zm4.976-16.6236h3.918v3.8118h-3.918zm-4.341 8.3647h3.918v3.8118h-3.918zm-5.0825 0h-3.9176v3.8118h3.9176z" fill="#faf7f5" fill-rule="evenodd"/><path d="m1 1h283.5v110h-283.5z" stroke="#4d4d4d"/></svg>