<svg fill="none" height="90" viewBox="0 0 191 90" width="191" xmlns="http://www.w3.org/2000/svg" xmlns:xlink="http://www.w3.org/1999/xlink"><clipPath id="a"><path d="m39.1 37h112.8v16h-112.8z"/></clipPath><g clip-path="url(#a)" fill="#1aab9b"><path d="m41.5 40.4066v12.3951h-2.4v-14.3992c0-1.1547 1.3192-1.8129 2.2418-1.1186l11.4 8.579c.3515.2645.5582.6788.5582 1.1186v5.8202h-2.4v-5.3212z"/><path d="m80.2056 39.2018c-.942 0-1.7056.7636-1.7056 1.7056v10.7836h2.2148v-9.3427l2.986 4.8727c.34.5547.9438.8929 1.5946.8929.649 0 1.2518-.3367 1.5922-.8894l3.003-4.8762v9.3427h2.2148v-10.8628c0-.8983-.728-1.6264-1.6264-1.6264-.5768 0-1.1106.3055-1.4026.803l-3.7386 6.3688-3.6558-6.3202c-.3048-.5271-.8676-.8516-1.4764-.8516z"/><path clip-rule="evenodd" d="m102.334 39.2018c-.731 0-1.389.4468-1.659 1.1272l-4.5012 11.362h2.1444l1.3976-3.2695h5.0972l1.398 3.2695h2.276l-4.493-11.361c-.269-.6809-.927-1.1282-1.66-1.1282zm-.069 2.5576 1.775 4.6318h-3.56z" fill-rule="evenodd"/><path d="m114.48 44.9235 5.402-5.427c.188-.1887.443-.2947.709-.2947.893 0 1.339 1.0799.706 1.7096l-4.285 4.2669 6.319 6.5127h-2.874l-5.977-6.0468v6.0468h-2.215v-11.3818c0-.6116.496-1.1074 1.108-1.1074s1.107.4958 1.107 1.1074z"/><path d="m127.25 49.691c0 1.1046.895 2 2 2h5.743c.563 0 1.019-.4564 1.019-1.0195s-.456-1.0195-1.019-1.0195h-5.52v-3.375h5.037c.563 0 1.019-.4565 1.019-1.0196 0-.563-.456-1.0195-1.019-1.0195h-5.037v-2.9971h5.52c.563 0 1.019-.4564 1.019-1.0195s-.456-1.0195-1.019-1.0195h-5.743c-1.105 0-2 .8954-2 2z"/><path clip-rule="evenodd" d="m150.733 42.7789c0 .3985-.05.7793-.149 1.1426-.094.3574-.246.7031-.457 1.0371-.205.334-.49.6328-.853.8965-.357.2637-.782.4687-1.274.6152l3.77 5.2207h-2.883l-3.498-4.8427h-2.118v4.8427h-2.215v-10.4892c0-1.1046.896-2 2-2h3.318c.263 0 .504.0088.72.0263.223.0118.49.0469.8.1055.317.0527.595.126.835.2197.246.0938.498.2315.756.4131.264.1817.481.3955.65.6416.176.2403.32.5479.431.9229.111.3691.167.7851.167 1.248zm-7.462-1.5469v3.5772h2.039c.352 0 .662-.0117.932-.0352.269-.0234.548-.0703.835-.1406.287-.0762.521-.1787.703-.3076.187-.1289.34-.3076.457-.5361.123-.2286.185-.4981.185-.8086 0-1.166-.9-1.7491-2.699-1.7491z" fill-rule="evenodd"/><path d="m66.9 52.8017v-12.3951l-9.4 7.0739v5.3212h-2.4v-5.8202c0-.4398.2067-.8541.5582-1.1186l11.4-8.579c.9226-.6943 2.2418-.0361 2.2418 1.1186v14.3992z"/></g><path d="m1 1h189v88h-189z" stroke="#4d4d4d"/></svg>