<svg fill="none" height="112" viewBox="0 0 285 112" width="285" xmlns="http://www.w3.org/2000/svg" xmlns:xlink="http://www.w3.org/1999/xlink"><clipPath id="a"><path d="m63.6786 45h157.143v22h-157.143z"/></clipPath><g clip-path="url(#a)" fill="#ff3434"><path d="m71.6134 66.1593c-2.3315 0-4.2417-.5485-5.7307-1.6457-1.4694-1.1168-2.2041-2.7037-2.2041-4.7608 0-.4311.049-.9601.1469-1.587.2547-1.4106.6172-3.1054 1.0874-5.0841 1.3322-5.3878 4.7706-8.0817 10.3151-8.0817 1.5086 0 2.8605.2547 4.0556.7641 1.1951.4898 2.1355 1.2343 2.8212 2.2335.6857.9796 1.0286 2.1551 1.0286 3.5265 0 .4115-.0489.9306-.1469 1.5576-.2939 1.7437-.6466 3.4384-1.058 5.0841-.6857 2.6842-1.871 4.6923-3.5559 6.0245-1.685 1.3127-3.938 1.969-6.7592 1.969zm.4114-4.2319c1.0971 0 2.0277-.3231 2.7918-.9698.7837-.6465 1.342-1.6359 1.6751-2.9682.4507-1.8416.7935-3.4481 1.0287-4.8195.0783-.4115.1175-.8327.1175-1.2637 0-1.7829-.9307-2.6743-2.7919-2.6743-1.0971 0-2.0376.3232-2.8212.9698-.7641.6465-1.3127 1.6359-1.6458 2.9682-.3526 1.3126-.7053 2.9191-1.0579 4.8195-.0784.3919-.1176.8033-.1176 1.2343 0 1.8026.9404 2.7037 2.8213 2.7037z"/><path d="m86.1155 65.8654c-.2156 0-.3821-.0685-.4997-.2056-.0979-.1569-.1273-.3332-.0881-.5291l4.0555-19.1022c.0391-.2155.1469-.3918.3232-.529.1764-.1371.3626-.2057.5585-.2057h7.8171c2.175 0 3.918.4506 5.231 1.3519 1.332.9012 1.999 2.2041 1.999 3.9086 0 .4898-.059.9992-.177 1.5281-.49 2.2531-1.479 3.9184-2.968 4.9959-1.469 1.0776-3.4875 1.6164-6.054 1.6164h-3.9674l-1.3518 6.436c-.0392.2155-.147.3918-.3233.5291-.1763.1371-.3624.2056-.5584.2056zm10.4032-11.2262c.823 0 1.538-.2253 2.1453-.6759.627-.4506 1.0384-1.0972 1.2344-1.9396.0587-.3331.0881-.627.0881-.8817 0-.5681-.1665-.9992-.4995-1.293-.3331-.3135-.9013-.4703-1.7046-.4703h-3.5266l-1.1167 5.2605z"/><path d="m112.133 65.8654c-.216 0-.382-.0685-.5-.2056-.117-.1569-.156-.3332-.117-.5291l3.262-15.223h-5.231c-.216 0-.382-.0685-.5-.2057-.098-.1567-.127-.333-.088-.529l.676-3.1445c.039-.2155.147-.3918.323-.529.176-.1371.363-.2057.559-.2057h15.81c.216 0 .382.0686.5.2057.078.1176.118.2351.118.3527 0 .0588-.01.1175-.03.1763l-.676 3.1445c-.039.2155-.147.3919-.323.529-.157.1372-.343.2057-.558.2057h-5.202l-3.262 15.223c-.039.2155-.147.3918-.323.5291-.177.1371-.363.2056-.559.2056z"/><path d="m127.694 65.8654c-.215 0-.382-.0685-.499-.2056-.118-.1569-.157-.3332-.118-.5291l4.085-19.1022c.039-.2155.147-.3918.323-.529.177-.1371.363-.2057.559-.2057h3.967c.215 0 .382.0686.5.2057.078.1176.117.2351.117.3527 0 .0588-.01.1175-.029.1763l-4.056 19.1022c-.039.2155-.147.3918-.323.5291-.176.1371-.363.2056-.558.2056z"/><path d="m138.884 65.8654c-.215 0-.382-.0685-.499-.2056-.118-.1373-.157-.3136-.118-.5291l4.056-19.1022c.039-.2155.146-.3918.323-.529.176-.1371.372-.2057.588-.2057h3.173c.471 0 .774.2155.912.6466l3.203 9.2572 7.141-9.2572c.098-.1568.235-.3037.411-.4409.197-.1371.432-.2057.706-.2057h3.203c.215 0 .382.0686.5.2057.078.1176.118.2351.118.3527 0 .0588-.01.1175-.03.1763l-4.056 19.1022c-.038.2155-.147.3918-.323.5291-.176.1371-.362.2056-.558.2056h-3.556c-.216 0-.382-.0685-.5-.2056-.098-.1569-.127-.3332-.088-.5291l2.292-10.8442-4.496 5.9658c-.196.2155-.382.382-.558.4996-.177.1176-.383.1764-.618.1764h-1.528c-.411 0-.695-.2254-.852-.676l-2.086-6.2302-2.351 11.1086c-.04.2155-.147.3918-.324.5291-.176.1371-.362.2056-.558.2056z"/><path d="m164.824 65.8654c-.215 0-.381-.0685-.499-.2056-.117-.1569-.157-.3332-.117-.5291l4.085-19.1022c.039-.2155.146-.3918.322-.529.176-.1371.363-.2057.559-.2057h3.967c.216 0 .383.0686.5.2057.079.1176.117.2351.117.3527 0 .0588-.009.1175-.029.1763l-4.055 19.1022c-.039.2155-.147.3918-.324.5291-.176.1371-.363.2056-.559.2056z"/><path d="m183.274 66.1593c-1.725 0-3.204-.2351-4.438-.7053-1.216-.4701-2.136-1.0971-2.763-1.8807-.607-.7838-.911-1.6556-.911-2.6157 0-.1567.02-.3917.059-.7052.039-.1764.118-.3233.236-.4408.136-.1176.293-.1763.469-.1763h3.762c.235 0 .411.0391.528.1175.138.0783.275.2154.412.4114.138.5093.451.9306.941 1.2636.51.3331 1.205.4996 2.086.4996 1.117 0 2.019-.1763 2.704-.5289.686-.3526 1.098-.8326 1.234-1.4401.02-.0783.03-.1959.03-.3526 0-.4897-.304-.8718-.911-1.1461-.607-.2939-1.725-.6368-3.35-1.0285-1.901-.4116-3.341-1.0287-4.321-1.8515-.979-.8425-1.468-1.9397-1.468-3.2915 0-.4702.058-.9502.176-1.44.392-1.8221 1.361-3.2523 2.909-4.2906 1.567-1.0384 3.584-1.5576 6.054-1.5576 1.489 0 2.812.2645 3.967.7935 1.156.529 2.048 1.2049 2.675 2.0277.646.8033.969 1.6066.969 2.4099 0 .2351-.009.4016-.03.4996-.038.1763-.126.3232-.264.4408-.117.1175-.264.1763-.44.1763h-3.938c-.431 0-.726-.1665-.881-.4996-.021-.4506-.256-.8326-.707-1.1461-.45-.3135-1.038-.4702-1.763-.4702-.862 0-1.577.1567-2.146.4702-.547.3135-.891.7739-1.027 1.3812-.02.098-.03.2253-.03.3821 0 .4702.274.862.823 1.1755.568.2939 1.558.5976 2.968.911 2.194.431 3.791 1.0482 4.79 1.8514 1.019.8033 1.528 1.871 1.528 3.2033 0 .4507-.058.9404-.176 1.4694-.431 1.9984-1.479 3.5168-3.145 4.5551-1.645 1.0188-3.849 1.5282-6.611 1.5282z"/><path d="m197.105 65.8654c-.216 0-.382-.0685-.499-.2056-.117-.1373-.157-.3136-.117-.5291l4.055-19.1022c.038-.2155.147-.3918.323-.529.176-.1371.372-.2057.588-.2057h3.174c.47 0 .774.2155.911.6466l3.203 9.2572 7.141-9.2572c.098-.1568.236-.3037.412-.4409.195-.1371.43-.2057.705-.2057h3.204c.215 0 .382.0686.499.2057.079.1176.117.2351.117.3527 0 .0588-.009.1175-.029.1763l-4.055 19.1022c-.04.2155-.148.3918-.324.5291-.176.1371-.362.2056-.558.2056h-3.556c-.215 0-.382-.0685-.5-.2056-.098-.1569-.127-.3332-.088-.5291l2.293-10.8442-4.497 5.9658c-.195.2155-.382.382-.558.4996s-.382.1764-.617.1764h-1.528c-.412 0-.697-.2254-.852-.676l-2.087-6.2302-2.351 11.1086c-.04.2155-.148.3918-.324.5291-.176.1371-.363.2056-.558.2056z"/></g><path d="m.5 1h283.5v110h-283.5z" stroke="#4d4d4d"/></svg>