<svg fill="none" height="90" viewBox="0 0 191 90" width="191" xmlns="http://www.w3.org/2000/svg" xmlns:xlink="http://www.w3.org/1999/xlink"><clipPath id="a"><path d="m61.5 29h68v32h-68z"/></clipPath><g clip-path="url(#a)" fill="#faf7f5"><path d="m67.3654 40.1765h.0423c.9735-1.7849 2.6665-2.5498 4.6558-2.5498h.9734v4.9296c-.7195-.3824-1.3967-.4674-2.1585-.4674-2.8358 0-3.5553 1.8698-3.5553 4.3771v5.8221h-5.079v-14.4914h5.1213z"/><path d="m80.8244 37.7969h-5.1213v14.4913h5.1213z"/><path d="m89.7971 39.4542h.0423c.9311-1.4449 2.6664-2.1249 4.3594-2.1249 4.3172 0 7.2802 3.6123 7.2802 7.7769 0 4.1647-2.963 7.6919-7.2378 7.6919-1.6507 0-3.386-.5949-4.4865-1.8698v7.9469l-5.0789 2.1248v-23.2032h5.1213zm-.1693 5.6095c0 1.8274 1.2274 3.2298 3.3013 3.2298s3.3013-1.4024 3.3013-3.2298c0-1.7848-1.2274-3.2722-3.3013-3.2722-2.1162 0-3.3013 1.4874-3.3013 3.2722z"/><path d="m109.309 37.7969h-5.121v14.4913h5.121z"/><path d="m129.244 45.0637c0 4.9297-4.063 7.6919-8.677 7.6919-4.613 0-8.676-2.7622-8.676-7.6919 0-4.9296 4.063-7.7344 8.676-7.7344 4.656 0 8.677 2.8048 8.677 7.7344zm-11.936 0c0 1.8274 1.228 3.2298 3.302 3.2298 2.073 0 3.301-1.4024 3.301-3.2298 0-1.7848-1.228-3.2722-3.301-3.2722-2.117 0-3.302 1.4874-3.302 3.2722z"/><path d="m80.8244 33.8021-4.9943 1.9974v-4.7597l4.9943-2.0398z"/><path d="m109.267 33.8021-4.994 1.9974v-4.7597l4.994-2.0398z"/></g><path d="m1 1h189v88h-189z" stroke="#4d4d4d"/></svg>