<svg fill="none" height="112" viewBox="0 0 285 112" width="285" xmlns="http://www.w3.org/2000/svg" xmlns:xlink="http://www.w3.org/1999/xlink"><linearGradient id="a"><stop offset="0" stop-color="#00d1e6"/><stop offset="1" stop-color="#2b4dd4"/></linearGradient><linearGradient id="b" gradientUnits="userSpaceOnUse" x1="105.648" x2="124.965" xlink:href="#a" y1="35.7509" y2="59.6303"/><linearGradient id="c" gradientUnits="userSpaceOnUse" x1="123.524" x2="142.84" xlink:href="#a" y1="21.2909" y2="45.1703"/><linearGradient id="d" gradientUnits="userSpaceOnUse" x1="98.7784" x2="118.095" xlink:href="#a" y1="41.308" y2="65.1874"/><g fill="#faf7f5"><path d="m150.285 50.4054c0-.0923-.031-.1437-.124-.1437-.626 0-1.252 0-1.878 0-.093 0-.134.0411-.134.1335v.6672c-.564-.5235-.893-.7391-1.385-.8623-1.232-.3079-2.32-.0205-3.244.8213-1.16 1.0778-1.509 2.4328-1.181 3.9521.39 1.7758 1.992 3.1308 3.932 2.9255.636-.0718 1.211-.3079 1.673-.7596.051-.0513.082-.1334.195-.1129-.01.4311.031.852-.051 1.2831-.154.7289-.688 1.2319-1.448 1.314-.79.0924-1.539-.1335-1.888-.8726-.103-.2155-.216-.2771-.432-.2669-.4.0206-.8 0-1.201.0103-.184 0-.359-.0308-.544.0205-.02.1438 0 .2669.031.3901.277 1.1189 1.006 1.8375 2.063 2.2276 1.027.3798 2.074.39 3.111.0718 1.242-.3695 2.022-1.1907 2.34-2.4431.103-.4003.144-.8007.144-1.2216 0-2.3199 0-4.6398 0-6.9597.021-.0514.021-.113.021-.1746zm-3.922 5.5946c-1.232-.0103-1.981-.9444-1.981-1.9915.01-1.1291.842-1.9709 1.95-1.9812 1.13-.0102 1.971.8418 1.971 1.9915.011 1.1189-.831 1.9914-1.94 1.9812z"/><path d="m175.455 51.0521c-1.324-1.2831-3.377-1.2934-4.537-.0513-.021.0205-.041.0205-.083-.0103 0-.154-.01-.3387 0-.5132.011-.1745-.061-.2156-.225-.2156-.514.0103-1.037 0-1.55 0-.411 0-.36-.0411-.36.3593v10.296.1334c.011.2156.011.2258.236.2258h1.653c.236 0 .246 0 .246-.2566 0-1.1394 0-2.2891 0-3.4286v-.4003c.349.3798.698.6262 1.109.7904 1.252.4927 2.731.1335 3.696-.9239.605-.6569.954-1.4371 1.067-2.3096.154-1.4269-.205-2.6895-1.252-3.6955zm-.996 3.8495c-.257.8212-.955 1.3344-1.817 1.3344-.985 0-1.755-.6364-1.93-1.6219-.072-.4003-.061-.7904.062-1.1805.267-.893 1.026-1.4474 1.93-1.4063.924.0411 1.642.6775 1.827 1.5911.072.4414.062.8623-.072 1.2832z"/><path d="m151.804 40.4277c.811-.9341 1.796-1.1497 2.874-.9546 1.232.2258 1.92 1.0367 2.217 2.2172.093.3696.134.7391.134 1.1189v4.2396.0923c.02.154-.041.2259-.195.2054-.031 0-.062 0-.093 0-.513 0-1.036 0-1.55 0-.287 0-.287.0205-.287-.2772 0-.3285 0-.6467 0-.9752 0-.9649 0-1.9196 0-2.8845 0-.2361-.021-.4722-.072-.7083-.195-.9855-1.078-1.4269-2.002-1.0163-.369.1643-.626.4517-.79.8212-.185.4107-.236.8521-.236 1.2935v3.3053.1643c0 .2669 0 .2669-.257.2669-.544 0-1.078 0-1.622 0-.01 0-.02 0-.031 0-.215-.0103-.215-.0103-.225-.2464 0-.041 0-.0821 0-.1334 0-3.6339 0-7.2678 0-10.9119 0-.0513.01-.1129 0-.1643-.021-.1745.061-.2155.225-.2155.555.0102 1.099 0 1.653 0 .257 0 .267 0 .267.2669v4.0752c-.01.1335-.01.2361-.01.4209z"/><path d="m180.762 51.0316c.955-.9957 2.094-1.1702 3.316-.7494 1.047.3593 1.56 1.2011 1.786 2.2481.072.3285.082.6673.082.9957v4.178.1642c0 .1027-.031.1643-.144.1643-.616 0-1.232 0-1.848 0-.092 0-.143-.0411-.143-.1335 0-.0718 0-.154 0-.2258 0-1.2524 0-2.5047 0-3.7571 0-.2566-.011-.5132-.072-.7699-.123-.503-.37-.9136-.893-1.0573-.555-.154-1.078-.0308-1.499.3696-.411.3798-.554.893-.595 1.4268-.021.2361-.011.4722-.011.7083v3.1412c0 .2874 0 .2874-.277.2874-.544 0-1.078 0-1.622 0-.236 0-.236 0-.246-.2566 0-.0411 0-.0822 0-.1335 0-3.6339 0-7.2677 0-10.9119 0-.4208-.041-.3593.359-.3593h1.458c.349 0 .318-.0205.318.308v4.0137c.01.1129-.01.2258.031.349z"/><path d="m166.155 50.2515c-.596 0-1.191.0102-1.787 0-.154 0-.184.0616-.174.195.01.1848 0 .3593 0 .6056-.082-.0615-.103-.0821-.134-.1026-.595-.6262-1.344-.8931-2.186-.8623-1.088.0308-1.981.503-2.648 1.355-.873 1.1087-1.109 2.3713-.801 3.7263.256 1.1497.883 2.053 1.93 2.6279 1.19.6569 2.823.5132 3.726-.4928.021-.0205.051-.041.103.0103 0 .154.01.3388 0 .5235-.011.154.061.2053.215.1951.513-.0103 1.037 0 1.55 0 .39 0 .37.0616.37-.3593 0-2.3507 0-4.7015 0-7.0522 0-.0616 0-.1334 0-.195.02-.1335-.041-.1745-.164-.1745zm-1.889 4.609c-.267.8828-.986 1.3961-1.92 1.3756-.883-.0206-1.591-.5954-1.807-1.4782-.112-.462-.102-.9136.042-1.3756.277-.8622 1.016-1.396 1.909-1.355.893.0308 1.591.6057 1.807 1.4885.051.195.082.4003.071.6056.011.2567-.03.503-.102.7391z"/><path d="m166.812 42.5218c-.339-1.4371-1.181-2.4431-2.608-2.9153-.616-.2053-1.242-.2566-1.889-.1642-1.509.2053-2.607.9752-3.213 2.3815-.328.7699-.4 1.5808-.246 2.4123.236 1.2934.893 2.2994 2.104 2.8537 1.52.6981 3.018.5852 4.435-.3182.606-.3901 1.047-.9341 1.324-1.5911.041-.1026.113-.2053.093-.3593-.688 0-1.376 0-2.064 0-.102 0-.154.0616-.195.1335-.123.195-.298.3387-.493.4517-.431.236-.893.3079-1.375.2566-.996-.1027-1.653-.7083-1.766-1.6527.134-.0513.257-.0308.37-.0308h4.342 1.098c.226 0 .226-.0103.236-.2258-.01-.4209-.061-.8315-.153-1.2319zm-5.811.0206c.103-.8315.914-1.4269 1.869-1.4064.862.0206 1.622.657 1.683 1.4064z"/><path d="m147.841 45.4372v1.6937c0 .154-.102.1745-.205.195-.359.0924-.729.113-1.088.113-.524 0-1.037-.0616-1.509-.2875-.831-.3798-1.304-1.0265-1.468-1.9196-.041-.2361-.051-.4722-.051-.7082 0-.9342 0-1.8786 0-2.8127 0-.2566 0-.2669-.267-.2669-.37 0-.729-.0103-1.098 0-.154 0-.206-.0411-.206-.2053.01-.4927.01-.9957 0-1.4885 0-.1437.052-.1847.185-.1847.39.0102.78-.0103 1.16.0102.174 0 .226-.0513.226-.2155-.01-.5646 0-1.1189 0-1.6835 0-.2464 0-.2567.246-.2567h1.684c.154 0 .205.0411.205.2053-.01.5441 0 1.0779 0 1.6219 0 .3696-.031.3388.359.3388h1.622c.154 0 .236.0308.226.2156-.01.4824-.01.9752 0 1.4576 0 .1848-.072.2156-.226.2053-.575-.0102-1.139 0-1.714 0-.247 0-.257 0-.257.2464v2.4534c0 .1745.021.349.052.5132.082.4414.338.7083.769.811.401.0924.791.0616 1.181-.0308.041-.0308.092-.0513.174-.0205z"/><path d="m154.77 51.3294c.124-.0719.144-.1745.195-.2464.514-.7288 1.345-1.0573 2.279-.8725.103.0205.175.0616.175.195v1.9812c-.175.0103-.308-.0513-.452-.0821-1.108-.2361-1.94.3285-2.145 1.4474-.041.2053-.052.4003-.052.6056v3.2643c0 .0616-.01.1335 0 .1951.021.1745-.071.2155-.225.2155-.565-.0102-1.119 0-1.684 0-.226 0-.226-.0102-.226-.2361 0-2.4328 0-4.8759 0-7.3088 0-.1642.041-.2258.216-.2258.575.0103 1.139.0103 1.714 0 .175 0 .216.0719.216.2258-.011.2567-.011.5338-.011.8418z"/></g><path d="m115.568 64.0274c-2.166 0-4.26-.4209-6.231-1.2626-1.91-.811-3.624-1.9607-5.092-3.4286s-2.628-3.1822-3.428-5.0916c-.8318-1.9811-1.2629-4.0752-1.2629-6.2309s.4208-4.2601 1.2629-6.231c.811-1.9093 1.96-3.6236 3.428-5.0915s3.182-2.6279 5.092-3.4286c1.981-.8315 4.075-1.2626 6.231-1.2626 2.155 0 4.26.4209 6.231 1.2626 1.909.811 3.623 1.9607 5.091 3.4286s2.628 3.1822 3.429 5.0915c.831 1.9812 1.262 4.0753 1.262 6.231s-.42 4.26-1.262 6.2309c-.811 1.9094-1.961 3.6237-3.429 5.0916s-3.182 2.6279-5.091 3.4286c-1.971.8314-4.065 1.2626-6.231 1.2626zm0-26.8537c-5.975 0-10.83 4.8554-10.83 10.8297 0 5.9744 4.866 10.8401 10.84 10.8401s10.84-4.8657 10.84-10.8401c-.01-5.9743-4.876-10.8297-10.85-10.8297z" fill="url(#b)"/><path d="m134.271 37.1017c1.395 0 2.525-1.1305 2.525-2.5252 0-1.3946-1.13-2.5252-2.525-2.5252s-2.525 1.1306-2.525 2.5252c0 1.3947 1.13 2.5252 2.525 2.5252z" fill="url(#c)"/><path d="m118.226 80c-.667 0-1.324-.2567-1.827-.7597-1.016-1.0162-1.016-2.6484 0-3.6646l10.779-10.7785c1.016-1.0162 2.648-1.0162 3.664 0 1.017 1.0163 1.017 2.6484 0 3.6647l-10.778 10.7784c-.513.5133-1.181.7597-1.838.7597z" fill="url(#d)"/><path d="m1 1h283.5v110h-283.5z" stroke="#4d4d4d"/></svg>