<svg fill="none" height="112" viewBox="0 0 285 112" width="285" xmlns="http://www.w3.org/2000/svg" xmlns:xlink="http://www.w3.org/1999/xlink"><clipPath id="a"><path d="m62.6666 36h160.167v40h-160.167z"/></clipPath><g clip-path="url(#a)"><path clip-rule="evenodd" d="m63.2931 36.7845c3.9966 4.8996 8.3848 11.0549 9.0946 12.0506.0379.0531.0653.0916.0816.1144.3783.5281.6906.9208.9278 1.219h.0001v.0001c.5266.6619.6828.8584.3686 1.0388-.2534.1455-.5149.1935-.7758.1935-.295 0-.6275-.1436-.8696-.3755-.1711-.1639-1.3418-1.8814-2.9361-4.3799-1.2198-1.9119-2.2406-3.4978-2.2684-3.5244-.0644-.0614-.0633-.0593 2.1441 3.9301 1.386 2.5051 2.3341 4.3562 2.3341 4.4747 0 .2409-.065.3675-.3593.699-.4904.5528-.7097 1.1738-.868 2.4589-.1774 1.4407-.6763 2.4585-2.059 4.2002-.8094 1.0197-.9418 1.2065-1.1461 1.6175-.2572.5175-.328.8073-.3566 1.4608-.0303.691.0287 1.1374.2377 1.7979.1829.5783.3739.9603.8621 1.724.4214.6591.664 1.149.664 1.3406 0 .1525.0288.1527.6817.0039 1.5624-.3565 2.8311-.9832 3.5446-1.7514.4416-.4755.5453-.738.5486-1.3895.0023-.4261-.0126-.5153-.1266-.7605-.1857-.3991-.5236-.7308-1.2685-1.2451-.976-.674-1.3929-1.2165-1.5081-1.9627-.0944-.6122.0152-1.0442.5551-2.1872.5589-1.1831.6974-1.6873.791-2.88.0605-.7705.1443-1.0743.3635-1.3181.2286-.2544.4344-.3405 1-.4187.9223-.1272 1.5095-.3682 1.9922-.8175.4187-.3897.594-.7653.6208-1.3306l.0205-.4285-.234-.2756c-.8475-.998-12.6241-14.0633-12.6762-14.0633-.0112 0 .2677.3531.6196.7845zm5.5515 25.9597c.1916-.3429.0898-.7834-.2307-.9987-.3029-.2033-.7733-.1075-.7733.1575 0 .0808.0443.1397.1441.1917.168.0873.1802.1855.048.3861-.1339.2034-.1231.382.0305.5034.2475.1958.5979.0881.7814-.24zm5.7669-18.6901c-.3781-.0592-.394-.0662-.2161-.0938.3409-.053 1.146.0192 1.7008.1525 1.2951.3109 2.4736 1.1075 3.7316 2.5223l.3342.3758.4781-.0776c2.0142-.327 4.0632-.0671 5.777.7326.4715.22 1.2149.6579 1.3077.7704.0295.0359.084.2668.1207.5132.1273.8523.0636 1.5055-.1945 1.9935-.1404.2655-.1482.3497-.0539.5769.0754.1814.2855.3156.4937.3153.4258-.0006.8842-.696 1.0967-1.6636l.0843-.3843.1672.1912c.9166 1.0492 1.6368 2.4799 1.7605 3.4983l.0321.2655-.154-.2413c-.2653-.4153-.5316-.6982-.873-.9262-.615-.4111-1.2655-.551-2.9878-.6427-1.5557-.0828-2.436-.217-3.309-.5046-1.4855-.4891-2.2342-1.1406-3.9987-3.4788-.7836-1.0386-1.268-1.6132-1.7498-2.0759-1.0949-1.0515-2.1707-1.603-3.5478-1.8187zm13.4641 2.3189c.0392-.696.1327-1.155.3205-1.5742.0744-.1659.144-.3018.1547-.3018.0108 0-.0215.1225-.0718.2722-.1365.4068-.159.9633-.0649 1.6107.1194.8215.1874.94 1.0469 1.8274.4031.4162.8721.9411 1.0421 1.1665l.3092.4098-.3092-.2929c-.378-.3581-1.2473-1.0566-1.4393-1.1564-.1288-.067-.148-.0658-.2273.014-.0732.0736-.0887.1842-.0989.7068-.0158.8146-.1256 1.3375-.391 1.8603-.1435.2828-.1661.2224-.0363-.0967.097-.2383.1068-.3431.1062-1.1317-.0015-1.5845-.1879-1.9654-1.28-2.6179-.2765-.1653-.7325-.4037-1.013-.5298-.2804-.1261-.5032-.236-.4952-.2442.031-.0311 1.0962.2829 1.5248.4495.6377.2478.7429.2799.8204.25.0518-.02.077-.1727.1021-.6216zm-13.8693-1.2165c-.1028 1.2233.3721 2.8597 1.1396 3.927.5949.8274 1.5172 1.4703 2.1981 1.5324.4458.0406.5798-.1004.3781-.3978-.28-.4131-.6244-1.0491-.7156-1.3214-.0566-.1692-.1796-.6689-.2734-1.1104-.3201-1.5075-.6348-2.0946-1.3617-2.5405-.2649-.1625-.8305-.3752-1.1586-.4356l-.1747-.0322zm12.9385 11.8703c-3.5868-1.4586-4.8502-2.7248-4.8502-4.8612 0-.3144.0109-.5716.0239-.5716.0131 0 .1518.1038.3083.2306.7273.5892 1.5418.8409 3.7967 1.1732 1.3266.1955 2.0733.3534 2.7621.5842 2.1892.7333 3.5437 2.2215 3.8667 4.2487.0938.589.0388 1.6935-.1133 2.2756-.1202.4599-.4869 1.2885-.584 1.3204-.027.0088-.0535-.0955-.0604-.2375-.0368-.7612-.4176-1.5022-1.0571-2.0574-.7272-.6311-1.7042-1.1335-4.0927-2.105zm-2.6913-.1605c.0503.1515.1283.4964.1731.7665.2874 1.727-.6101 3.1224-2.356 3.663-.1848.0572-.9128.2012-1.6178.3197-1.4271.24-2.064.41-2.7039.7213-.4538.2209-1.0032.5515-.9705.5844.0105.0106.1141-.0144.2301-.0555.8069-.2862 1.7049-.4344 3.0693-.506.5415-.0284 1.1573-.0737 1.3687-.1005 1.2155-.1547 2.058-.5277 2.7131-1.2012.3645-.3748.5819-.724.757-1.2163.111-.3122.126-.4284.1269-.9817.001-.5638-.0125-.667-.1329-1.0138-.1575-.4547-.3433-.7959-.5786-1.0627l-.17-.1927zm1.8175 3.716c-.4767-1.0348-.586-2.0338-.325-2.9655.028-.0996.0728-.1811.1-.1811.027 0 .1393.0615.2498.1365.2195.1493.66.4008 1.8333 1.047 1.4644.8063 2.2992 1.4306 2.8669 2.1441.4971.6247.8048 1.3362.9528 2.2039.084.4915.0348 1.6741-.09 2.169-.3937 1.5605-1.3087 2.7861-2.6137 3.5015-.1911.1046-.3628.1906-.3815.1911-.0185.0004.0512-.1785.1549-.3976.439-.927.489-1.8287.1571-2.8322-.2033-.6145-.6176-1.3643-1.4543-2.6317-.9727-1.4733-1.2112-1.8655-1.4503-2.385zm-8.9766 3.394c-1.5086.2475-3.1647 1.0539-4.4957 2.189l-.3963.338.3483.055c1.8173.2865 2.3067.5407 3.5672 1.8524.7255.7546.9705.9226 1.5722 1.0778.8837.2278 1.7549-.1908 2.0537-.9872.1335-.3558.1157-.945-.0375-1.241-.3643-.7043-1.4258-.932-1.9391-.416-.4275.4299-.3029 1.0774.2288 1.1887.1217.0257.1183.0202-.031-.048-.2327-.1063-.3338-.2537-.3351-.4882-.003-.5498.6199-.8585 1.1994-.5945.4243.1935.5928.4462.5928.8892 0 .6822-.5747 1.1962-1.2437 1.1122-.3575-.045-.7948-.276-1.0293-.5439-.59-.6736-.3601-1.737.4636-2.145.6271-.3105 1.4607-.234 2.1071.1935.7427.4914 1.0585.9404 1.6982 2.414.2083.4799.4763 1.02.5955 1.2002.606.9163 1.332 1.3657 2.2065 1.3657.4823 0 .8451-.089 1.3016-.3192.3392-.1712.82-.4963.7854-.5312-.0099-.0098-.1505.0344-.3127.0982-.9548.3762-1.9255.3503-2.4892-.0665-.355-.2623-.6413-.785-.7885-1.4387-.0255-.1131-.1095-.6128-.1868-1.1105-.196-1.2613-.3842-1.8283-.823-2.479-.449-.6656-1.3122-1.2243-2.2772-1.4738-.602-.1557-1.6851-.198-2.3352-.0912zm-2.1128-9.7521c.1303-.486.5511-.9495.9841-1.0839.2753-.0853.8443-.0308 1.1119.1065.5185.2664.8949.8729.8132 1.3107-.0996.5338-.9567.961-1.9427.968-.5036.0035-.6895-.0648-.8819-.3242-.119-.1606-.1641-.6806-.0846-.9771zm1.9636-.787c.2586.1595.3251.3953.173.6135-.1047.1503-.4289.2931-.6659.2931-.3559 0-.7443-.2553-.7443-.4891 0-.4699.7447-.7214 1.2372-.4175zm77.2838 1.3451c-.805-2.6754.522-4.8946 3.352-5.6077.812-.2046 4.487-.1123 5.117.1287.231.0882.332.4271.334 1.1234.001.5484.061 1.2145.133 1.4801.108.4026.045.4818-.38.4754-.384-.006-.617-.2312-.941-.9125-.519-1.0883-1.146-1.4344-2.608-1.4385-1.867-.0054-3.233 1.2514-3.01 2.77.145.9881 1.132 1.9605 3.348 3.2971 2.108 1.2715 3.338 2.3172 3.828 3.254 1.311 2.5047.192 5.185-2.729 6.5355-1.499.6932-4.012.7649-5.779.1649l-1.131-.3844v-1.8076c0-1.637.039-1.808.412-1.808.312 0 .447.2063.557.8526.272 1.6072 1.493 2.5829 3.233 2.5829 1.704 0 2.895-.931 3.351-2.6192.195-.7192.161-.9843-.224-1.7777-.462-.9511-1.258-1.5823-3.96-3.141-1.499-.865-2.559-2.0215-2.903-3.168zm-52.964-4.5396c-.369 0-.512-.1205-.512-.4295 0-.409.143-.4294 3.032-.4294 2.682 0 3.025.0403 2.963.348-.038.1916-.409.4572-.824.5905l-.754.2425-.064 5.4755c-.043 3.6537.017 5.7614.182 6.3344.489 1.7041 1.981 2.6841 4.086 2.6841 1.466 0 2.322-.3426 3.398-1.3603 1.157-1.094 1.341-2.1335 1.338-7.5362-.004-5.3291-.097-5.7689-1.241-5.8795-.521-.0504-.695-.1717-.695-.4831 0-.3882.172-.4159 2.585-.4159 2.443 0 2.586.0238 2.586.4294 0 .2646-.144.4308-.377.4327-.998.0088-1.016.1037-1.15 5.9473-.14 6.0685-.27 6.7868-1.5 8.2733-.355.4288-1.2 1.0515-1.879 1.3838-1.107.5415-1.459.6039-3.39.6002-1.78-.0037-2.342-.0897-3.232-.4948-1.3-.5915-2.145-1.357-2.768-2.5074-.434-.803-.472-1.2375-.572-6.678-.116-6.2274-.171-6.5276-1.212-6.5276zm20.164 0c-.492 0-.636-.0971-.636-.4295 0-.4026.138-.4283 2.209-.4118l2.209.0176 1.056 1.2171c.581.6693 2.475 2.7631 4.209 4.6527 1.734 1.8895 3.724 4.0877 4.423 4.8849.699.7973 1.357 1.4495 1.462 1.4495.108 0 .162-2.252.123-5.1724l-.068-5.1723-.605-.5179c-.332-.2849-.841-.5179-1.131-.5179-.385 0-.527-.1168-.527-.4355 0-.4193.111-.4333 2.963-.3758 2.426.049 2.963.1166 2.963.373 0 .1828-.3.3745-.72.4602-.396.0807-.832.2585-.97.3951-.177.1763-.267 2.4556-.311 7.8605l-.061 7.6121h-.625c-.538 0-1.178-.605-4.599-4.3481-2.187-2.3917-4.738-5.234-5.671-6.3164-.933-1.0825-1.769-1.9763-1.857-1.9861-.251-.028-.19 9.643.066 10.561.199.7153.336.8385 1.184 1.0645.682.1818.958.3663.958.6403 0 .3518-.26.3848-3.017.3848-2.806 0-3.016-.028-3.016-.4025 0-.2741.203-.443.636-.5295 1.316-.2621 1.403-.6783 1.477-7.04.042-3.563-.019-6.0559-.16-6.5779-.248-.918-.866-1.3397-1.964-1.3397zm22.596 0c-.462 0-.606-.102-.606-.4295 0-.4103.144-.4294 3.233-.4294 3.088 0 3.232.0191 3.232.4294 0 .315-.144.4295-.539.4295-.296 0-.736.1971-.978.4381-.427.4253-.438.6368-.377 7.2109.059 6.4175.084 6.7888.481 7.0773.23.1675.642.3045.916.3045.353 0 .497.124.497.4295 0 .4103-.144.4293-3.232.4293-3.015 0-3.233-.027-3.233-.4018 0-.3023.212-.4357.854-.5382 1.275-.2031 1.341-.6191 1.261-8.0423-.064-5.9447-.091-6.3153-.486-6.6029-.23-.1674-.69-.3044-1.023-.3044zm22.547 0c-.295 0-.519-.1634-.589-.4295-.109-.4152-.006-.4294 3.1-.4294 3.068 0 3.212.0191 3.212.4294 0 .3301-.144.4295-.62.4295-1.357 0-1.326.2456.727 5.8611 1.045 2.8585 2.059 5.5739 2.254 6.034l.355.8369 1.646-4.3799c1.937-5.1555 2.189-6.1089 1.86-7.0492-.229-.6553-1.121-1.3029-1.794-1.3029-.19 0-.334-.1847-.334-.4295 0-.4109.144-.4294 3.34-.4294 3.197 0 3.34.0185 3.34.4294 0 .3056-.143.4295-.497.4295-.906 0-1.306.4814-1.175 1.4168.134.9628 3.84 11.311 3.995 11.1562.253-.2519 4.357-11.3918 4.357-11.826 0-.5203-.365-.747-1.202-.747-.378 0-.521-.1183-.521-.4295 0-.4056.143-.4294 2.585-.4294 2.194 0 2.586.0507 2.586.3333 0 .1833-.268.4266-.597.5406-.739.2566-.924.5495-1.851 2.922-.406 1.0418-1.68 4.3025-2.83 7.2455-1.149 2.9433-2.14 5.4798-2.2 5.6366-.061.157-.417.2854-.792.2854h-.682l-1.548-4.0262c-.851-2.2142-1.857-4.8375-2.235-5.8295-.648-1.6998-.702-1.7737-.946-1.2885-.142.2835-1.165 2.9115-2.273 5.8402l-2.014 5.325-.752-.0642-.752-.0642-2.867-7.4986c-1.602-4.1895-3.075-7.7195-3.339-7.9986-.259-.2751-.685-.4999-.947-.4999zm43.087.091c-.036-.0815-.035-.3747-.035-.3747s-.009-.1057.036-.1621c.044-.0562.06-.0577.218-.0728l.002-.0001c.581-.0553 1.749-.1485 2.723-.191.09-.0039.19-.0084.298-.0134h.001l.001-.0001c1.072-.0486 2.991-.1137 4.31-.0478 2.53.1264 4.329 1.3494 4.942 3.3703.614 2.0208.289 3.9178-.547 5.1253-.835 1.2075-2.241 2.2472-4.577 2.1795-1.929-.0558-2.445-.417-2.857-.7055-.088-.061-.17-.1188-.26-.1696v2.5771c.02 1.7577.035 2.6019.171 2.9144.183.4206.598.6798 1.405.8785 0 0 .366.0856.46.177.094.0913.094.2941.094.2941s.02.1897-.056.2864c-.076.0966-.222.0773-.222.0773l-3.577-.0288-2.156-.0057s-.227.0435-.312-.0477c-.084-.0911-.077-.281-.077-.281s.019-.2045.118-.296.467-.194.467-.194c.832-.2335 1.193-.4805 1.381-.9458.152-.375.153-1.0708.151-6.748-.001-5.3838-.009-6.3881-.132-6.677-.183-.4275-.641-.5408-1.292-.7021-.129-.032-.266-.0659-.41-.1045 0 0-.231-.0306-.268-.1122zm10.415 4.3931c0 .8829-.016 2.265-.956 3.1485s-2.79 1.1254-4.046.8794c-.396-.0775-.623-.197-.797-.2892l-.017-.0092-.322-.1693-.019-3.1018c-.011-1.9435.009-3.2097.055-3.3908.042-1.0247 1.553-1.1523 2.292-1.1143 3.16 0 3.717 2.6624 3.81 4.0467zm-20.455-5.1777c-.067.0256-.16.061-.271.1029l-.843.4358-.608 1.5167c-.334.8343-.945 2.3657-1.358 3.4032-.752 1.8896-1.249 3.1311-1.771 4.427-.154.3811-.618 1.5418-1.032 2.5793-.413 1.0373-.827 2.0247-.918 2.194-.016.0282-.032.0585-.049.0907-.231.4345-.633 1.1895-1.342 1.3036 0 0-.39.0384-.535.181-.144.1429-.13.2595-.13.2595v.1799s.013.0871.095.1305c.081.0435.192.046.192.046l2.595-.0295h2.683s.19.0221.263-.0385c.073-.0607.093-.1507.093-.1507v-.1893s-.037-.2054-.143-.2855c-.107-.08-.505-.1349-.505-.1349-1.074-.1411-1.258-.9533-1.126-1.6836.065-.3589.497-1.6862.983-3.0225l.168-.4619 2.81-.0215c1.546-.0118 2.881-.0038 2.966.0179.122.0308.293.3776.794 1.613.76 1.8716.821 2.0996.653 2.4498-.01.0213-.021.0448-.033.0702-.158.3386-.465.9966-1.237 1.0636 0 0-.41.0142-.511.1367-.102.1227-.08.2637-.08.2637v.1873s.027.1098.08.1533c.052.0435.141.0325.141.0325l2.551-.0183 3.587-.0002s.14.015.178-.039c.039-.0541.047-.1178.047-.1178v-.2488s-.016-.1324-.085-.2054c-.069-.0728-.534-.1498-.534-.1498-.594-.0958-.89-.5862-1.11-.9513-.056-.0932-.108-.1782-.158-.2464-.102-.1391-.467-.9018-.752-1.6353-.286-.7335-.93-2.3905-1.432-3.682s-1.202-3.0932-1.556-4.0035c-.355-.9105-1.028-2.6428-1.496-3.8497-.077-.1981-.146-.376-.208-.5352v-.0005c-.314-.8107-.441-1.1378-.475-1.182-.113-.1438-.463 0-.463 0s-.043.0164-.118.045zm-.049 4.8867c-.113-.2751-.313-.7688-.443-1.097-.236-.5965-.326-.7339-.4-.6106-.021.036-.17.4436-.331.906-1.04 2.9933-1.511 4.3411-1.605 4.5951-.059.1597-.108.3242-.108.3657 0 .0477.846.0755 2.295.0755 1.263 0 2.296-.0157 2.296-.0348 0-.0192-.113-.3049-.251-.6352-.137-.3302-.474-1.1548-.748-1.8323-.275-.6775-.592-1.457-.705-1.7324z" fill="#faf7f5" fill-rule="evenodd"/></g></svg>
