<svg fill="none" height="222" viewBox="0 0 380 222" width="380" xmlns="http://www.w3.org/2000/svg"><path d="m95.0667 111c0-17.7333 14.2663-32 32.0003-32 17.733 0 32 14.2667 32 32 0 17.733-14.267 32-32 32-17.734 0-32.0003-14.267-32.0003-32z" fill="#006ae3"/><g fill="#fff"><path d="m125.733 124.467v-26.6671h2.934v26.6671z"/><path d="m140.533 106.733-8.933 2.4-2-9.333 2.667-.6666 1.066 4.3996s2.4-3.9996-.8-8.133c-1.866-2.1333-2.8-2.2666-4.933-2.5333-1.867-.2667-6.267.4-7.467 5.4667-.533 3.3336.134 5.7336 4.267 8.9336l-.267 3.6s-4.666-3.334-5.866-5.6c-.934-1.867-2.534-5.467.4-10.5336 1.6-2.5334 4.666-4.9334 10.133-4.6667 2.8.1333 9.467 3.4667 8.4 11.3333-.133 1.467-.933 3.467-.933 3.467l3.733-.8z"/><path d="m135.467 127.533c-1.6 2.534-4.8 4.8-10.267 4.4-2.8-.133-9.333-3.733-8.133-11.466.266-1.467 1.066-3.334 1.066-3.334l-3.733.667-.667-2.933 9.067-2.134 1.733 9.334-2.666.533-.934-4.4s-2.533 3.867.534 8.133c1.866 2.134 2.8 2.267 4.933 2.667 1.867.267 6.267-.267 7.733-5.2.667-3.2.134-5.733-4-8.933l.267-3.467s4.667 3.467 5.733 5.867c.8 1.6 2.267 5.333-.666 10.266z"/><path d="m180.4 99.9333h6.133l3.867 11.4667c.267.933.533 2.133.667 3.6h.133c.133-1.2.4-2.4.8-3.6l3.733-11.4667h6l-8.666 22.9337c-.8 2.133-1.867 3.733-3.334 4.8-1.466 1.066-3.2 1.6-5.066 1.6-.934 0-1.867-.134-2.8-.267v-4.4c.666.133 1.333.267 2.133.267.933 0 1.867-.267 2.533-.934.8-.533 1.334-1.466 1.734-2.666l.266-1.067zm32.667 3.5997c-1.2 0-2.134.4-2.8 1.067-.667.8-1.067 1.733-1.2 3.2h7.866c0-1.333-.4-2.4-1.066-3.2-.667-.667-1.6-1.067-2.8-1.067zm.8 17.2c-3.334 0-5.867-.933-7.734-2.666-1.866-1.867-2.8-4.4-2.8-7.734 0-3.466.8-6 2.534-7.866 1.733-1.867 4.133-2.8004 7.066-2.8004 2.934 0 5.067.8004 6.667 2.4004s2.4 3.866 2.4 6.8v2.666h-13.2c0 1.6.533 2.8 1.467 3.734.933.933 2.133 1.333 3.733 1.333 1.2 0 2.4-.133 3.467-.4 1.066-.267 2.266-.667 3.466-1.2v4.267c-.933.533-2 .8-3.066 1.066-1.067.267-2.4.4-4 .4zm25.733-.4-1.067-2.8h-.133c-.933 1.2-1.867 2-2.933 2.4-.934.4-2.267.667-3.867.667-2 0-3.467-.533-4.667-1.733-1.066-1.067-1.733-2.667-1.733-4.8 0-2.134.8-3.734 2.267-4.8 1.466-1.067 3.866-1.6 6.8-1.734l3.6-.133v-.933c0-2-1.067-3.067-3.2-3.067-1.6 0-3.6.533-5.734 1.467l-1.866-3.734c2.4-1.1997 4.933-1.8664 7.866-1.8664 2.8 0 4.8.5333 6.267 1.7334 1.467 1.2 2.133 3.067 2.133 5.467v13.6h-3.733zm-1.6-9.466-2.133.133c-1.6 0-2.8.4-3.6.933-.8.534-1.2 1.334-1.2 2.4 0 1.6.933 2.4 2.666 2.4 1.334 0 2.267-.4 3.067-1.066.8-.8 1.2-1.734 1.2-2.934zm22.667-11.3337c.8 0 1.333 0 1.866.1333l-.4 5.2004c-.4-.134-.933-.134-1.6-.134-1.733 0-3.2.4-4.133 1.334-.933.933-1.467 2.133-1.467 3.866v10.4h-5.6v-20.3997h4.267l.8 3.4667h.267c.666-1.2 1.466-2 2.533-2.8.933-.6667 2.133-1.0667 3.467-1.0667zm24.266 20.7997h-5.6v-11.866c0-1.467-.266-2.534-.8-3.334-.533-.8-1.333-1.066-2.533-1.066-1.6 0-2.667.533-3.333 1.6-.667 1.066-1.067 2.8-1.067 5.2v9.6h-5.6v-20.5337h4.267l.8 2.6667h.266c.667-.933 1.467-1.733 2.534-2.267 1.066-.5331 2.4-.7997 3.733-.7997 2.4 0 4.133.6667 5.333 1.8667 1.2 1.333 1.867 3.067 1.867 5.6v13.333z"/></g><path d="m1 1h378v220h-378z" stroke="#4d4d4d"/></svg>