<svg width="378" height="220" viewBox="0 0 378 220" fill="none" xmlns="http://www.w3.org/2000/svg">
<path d="M94.0667 110C94.0667 92.2667 108.333 78 126.067 78C143.8 78 158.067 92.2667 158.067 110C158.067 127.733 143.8 142 126.067 142C108.333 142 94.0667 127.733 94.0667 110Z" fill="#006AE3"/>
<path d="M124.733 123.467V96.8H127.667V123.467H124.733Z" fill="white"/>
<path d="M139.533 105.733L130.6 108.133L128.6 98.8L131.267 98.1334L132.333 102.533C132.333 102.533 134.733 98.5334 131.533 94.4C129.667 92.2667 128.733 92.1334 126.6 91.8667C124.733 91.6 120.333 92.2667 119.133 97.3334C118.6 100.667 119.267 103.067 123.4 106.267L123.133 109.867C123.133 109.867 118.467 106.533 117.267 104.267C116.333 102.4 114.733 98.8 117.667 93.7334C119.267 91.2 122.333 88.8 127.8 89.0667C130.6 89.2 137.267 92.5334 136.2 100.4C136.067 101.867 135.267 103.867 135.267 103.867L139 103.067L139.533 105.733Z" fill="white"/>
<path d="M134.467 126.533C132.867 129.067 129.667 131.333 124.2 130.933C121.4 130.8 114.867 127.2 116.067 119.467C116.333 118 117.133 116.133 117.133 116.133L113.4 116.8L112.733 113.867L121.8 111.733L123.533 121.067L120.867 121.6L119.933 117.2C119.933 117.2 117.4 121.067 120.467 125.333C122.333 127.467 123.267 127.6 125.4 128C127.267 128.267 131.667 127.733 133.133 122.8C133.8 119.6 133.267 117.067 129.133 113.867L129.4 110.4C129.4 110.4 134.067 113.867 135.133 116.267C135.933 117.867 137.4 121.6 134.467 126.533Z" fill="white"/>
<path d="M179.4 98.9333H185.533L189.4 110.4C189.667 111.333 189.933 112.533 190.067 114H190.2C190.333 112.8 190.6 111.6 191 110.4L194.733 98.9333H200.733L192.067 121.867C191.267 124 190.2 125.6 188.733 126.667C187.267 127.733 185.533 128.267 183.667 128.267C182.733 128.267 181.8 128.133 180.867 128V123.6C181.533 123.733 182.2 123.867 183 123.867C183.933 123.867 184.867 123.6 185.533 122.933C186.333 122.4 186.867 121.467 187.267 120.267L187.533 119.2L179.4 98.9333ZM212.067 102.533C210.867 102.533 209.933 102.933 209.267 103.6C208.6 104.4 208.2 105.333 208.067 106.8H215.933C215.933 105.467 215.533 104.4 214.867 103.6C214.2 102.933 213.267 102.533 212.067 102.533ZM212.867 119.733C209.533 119.733 207 118.8 205.133 117.067C203.267 115.2 202.333 112.667 202.333 109.333C202.333 105.867 203.133 103.333 204.867 101.467C206.6 99.5999 209 98.6666 211.933 98.6666C214.867 98.6666 217 99.4666 218.6 101.067C220.2 102.667 221 104.933 221 107.867V110.533H207.8C207.8 112.133 208.333 113.333 209.267 114.267C210.2 115.2 211.4 115.6 213 115.6C214.2 115.6 215.4 115.467 216.467 115.2C217.533 114.933 218.733 114.533 219.933 114V118.267C219 118.8 217.933 119.067 216.867 119.333C215.8 119.6 214.467 119.733 212.867 119.733ZM238.6 119.333L237.533 116.533H237.4C236.467 117.733 235.533 118.533 234.467 118.933C233.533 119.333 232.2 119.6 230.6 119.6C228.6 119.6 227.133 119.067 225.933 117.867C224.867 116.8 224.2 115.2 224.2 113.067C224.2 110.933 225 109.333 226.467 108.267C227.933 107.2 230.333 106.667 233.267 106.533L236.867 106.4V105.467C236.867 103.467 235.8 102.4 233.667 102.4C232.067 102.4 230.067 102.933 227.933 103.867L226.067 100.133C228.467 98.9333 231 98.2666 233.933 98.2666C236.733 98.2666 238.733 98.7999 240.2 99.9999C241.667 101.2 242.333 103.067 242.333 105.467V119.067H238.6V119.333ZM237 109.867L234.867 110C233.267 110 232.067 110.4 231.267 110.933C230.467 111.467 230.067 112.267 230.067 113.333C230.067 114.933 231 115.733 232.733 115.733C234.067 115.733 235 115.333 235.8 114.667C236.6 113.867 237 112.933 237 111.733V109.867ZM259.667 98.5333C260.467 98.5333 261 98.5333 261.533 98.6666L261.133 103.867C260.733 103.733 260.2 103.733 259.533 103.733C257.8 103.733 256.333 104.133 255.4 105.067C254.467 106 253.933 107.2 253.933 108.933V119.333H248.333V98.9333H252.6L253.4 102.4H253.667C254.333 101.2 255.133 100.4 256.2 99.5999C257.133 98.9333 258.333 98.5333 259.667 98.5333ZM283.933 119.333H278.333V107.467C278.333 106 278.067 104.933 277.533 104.133C277 103.333 276.2 103.067 275 103.067C273.4 103.067 272.333 103.6 271.667 104.667C271 105.733 270.6 107.467 270.6 109.867V119.467H265V98.9333H269.267L270.067 101.6H270.333C271 100.667 271.8 99.8666 272.867 99.3333C273.933 98.7999 275.267 98.5333 276.6 98.5333C279 98.5333 280.733 99.1999 281.933 100.4C283.133 101.733 283.8 103.467 283.8 106V119.333H283.933Z" fill="white"/>
</svg>
