<svg width="936" height="500" viewBox="0 0 936 500" fill="none" xmlns="http://www.w3.org/2000/svg">
<path d="M141.423 163.173C144.492 157.476 148.92 152.619 154.319 149.031L244.912 86L152.088 238.931C152.088 238.931 143.978 225.275 140.814 218.365C136.873 209.677 134.885 200.236 134.99 190.702C135.095 181.168 137.291 171.772 141.423 163.173ZM104.034 268.669C105.057 283.294 109.204 297.532 116.198 310.43C123.191 323.329 132.87 334.589 144.586 343.458L244.79 413.075C244.79 413.075 182.096 323.054 129.217 233.477C123.863 224.013 120.264 213.666 118.592 202.931C117.852 198.07 117.852 193.125 118.592 188.264C117.213 190.81 114.537 196.022 114.537 196.022C109.175 206.917 105.523 218.568 103.709 230.568C102.665 243.252 102.774 256.004 104.034 268.669ZM359.512 280.79C356.267 273.881 348.238 260.224 348.238 260.224L255.577 413.075L346.17 350.084C351.568 346.496 355.997 341.64 359.066 335.943C363.198 327.343 365.393 317.947 365.499 308.414C365.604 298.88 363.616 289.438 359.674 280.75L359.512 280.79ZM396.292 230.446C395.269 215.822 391.122 201.583 384.129 188.685C377.135 175.787 367.456 164.526 355.74 155.658L255.698 86C255.698 86 318.351 176.021 371.272 265.598C376.611 275.065 380.196 285.412 381.856 296.144C382.596 301.005 382.596 305.95 381.856 310.811C383.235 308.265 385.911 303.053 385.911 303.053C391.273 292.158 394.925 280.507 396.738 268.507C397.796 255.824 397.701 243.072 396.455 230.406L396.292 230.446Z" fill="url(#paint0_linear_2_10)"/>
<path d="M562.454 318V291.74H500.642V258.612H556.596V233.766H500.642V201.042H562.454V174.782H472.766V318H562.454Z" fill="url(#paint1_linear_2_10)"/>
<path d="M711.954 318V174.782H684.078V269.52L624.489 174.782H589.745V318H617.62V216.394L682.664 318H711.954Z" fill="url(#paint2_linear_2_10)"/>
<path d="M842.14 208.92C838.908 192.76 825.576 171.752 790.832 171.752C763.764 171.752 740.938 191.144 740.938 216.596C740.938 238.21 755.684 252.956 778.51 257.602L798.508 261.642C809.618 263.864 815.88 270.328 815.88 278.61C815.88 288.71 807.598 296.184 792.65 296.184C772.45 296.184 762.552 283.458 761.34 269.318L735.484 276.186C737.706 296.588 754.472 321.03 792.448 321.03C825.778 321.03 844.16 298.81 844.16 276.792C844.16 256.592 830.222 239.624 804.164 234.574L784.166 230.736C773.662 228.716 768.612 222.454 768.612 214.576C768.612 205.082 777.5 196.396 791.034 196.396C809.214 196.396 815.678 208.718 817.092 216.596L842.14 208.92Z" fill="url(#paint3_linear_2_10)"/>
<defs>
<linearGradient id="paint0_linear_2_10" x1="596.675" y1="451.839" x2="422.077" y2="-244.547" gradientUnits="userSpaceOnUse">
<stop stop-color="#44BCF0"/>
<stop offset="0.378795" stop-color="#7298F8"/>
<stop offset="1" stop-color="#A099FF"/>
</linearGradient>
<linearGradient id="paint1_linear_2_10" x1="596.675" y1="451.839" x2="422.077" y2="-244.547" gradientUnits="userSpaceOnUse">
<stop stop-color="#44BCF0"/>
<stop offset="0.378795" stop-color="#7298F8"/>
<stop offset="1" stop-color="#A099FF"/>
</linearGradient>
<linearGradient id="paint2_linear_2_10" x1="596.675" y1="451.839" x2="422.077" y2="-244.547" gradientUnits="userSpaceOnUse">
<stop stop-color="#44BCF0"/>
<stop offset="0.378795" stop-color="#7298F8"/>
<stop offset="1" stop-color="#A099FF"/>
</linearGradient>
<linearGradient id="paint3_linear_2_10" x1="596.675" y1="451.839" x2="422.077" y2="-244.547" gradientUnits="userSpaceOnUse">
<stop stop-color="#44BCF0"/>
<stop offset="0.378795" stop-color="#7298F8"/>
<stop offset="1" stop-color="#A099FF"/>
</linearGradient>
</defs>
</svg>
