<svg fill="none" height="49" viewBox="0 0 1512 49" width="1512" xmlns="http://www.w3.org/2000/svg"><path d="m12.2589 31.612c-.984 0-1.908-.186-2.77201-.558-.864-.36-1.626-.864-2.286-1.512-.648-.66-1.158-1.422-1.53-2.286-.36-.864-.54-1.788-.54-2.772 0-.996.18-1.92.54-2.772.372-.864.882-1.62 1.53-2.268.66-.66 1.422-1.17 2.286-1.53.86401-.372 1.78801-.558 2.77201-.558.996 0 1.92.186 2.772.558.864.36 1.62.87 2.268 1.53.66.648 1.17 1.404 1.53 2.268.372.852.558 1.776.558 2.772 0 .984-.186 1.908-.558 2.772-.36.864-.87 1.626-1.53 2.286-.648.648-1.404 1.152-2.268 1.512-.852.372-1.776.558-2.772.558zm0-.756v-12.744c-.888 0-1.716.168-2.48401.504-.768.324-1.446.78-2.034 1.368-.576.576-1.032 1.248-1.368 2.016-.324.768-.486 1.596-.486 2.484s.162 1.716.486 2.484c.336.768.792 1.446 1.368 2.034.588.576 1.266 1.032 2.034 1.368.76801.324 1.59601.486 2.48401.486zm21.0937.756c-.984 0-1.908-.186-2.772-.558-.852-.36-1.608-.864-2.268-1.512-.648-.66-1.158-1.422-1.53-2.286s-.558-1.788-.558-2.772.186-1.908.558-2.772.882-1.62 1.53-2.268c.66-.66 1.416-1.17 2.268-1.53.864-.372 1.788-.558 2.772-.558s1.908.186 2.772.558c.864.36 1.62.87 2.268 1.53.66.648 1.17 1.404 1.53 2.268.372.864.558 1.788.558 2.772s-.186 1.908-.558 2.772c-.36.864-.87 1.626-1.53 2.286-.648.648-1.404 1.152-2.268 1.512-.864.372-1.788.558-2.772.558zm0-1.242c.816 0 1.578-.15 2.286-.45.708-.312 1.332-.738 1.872-1.278s.96-1.164 1.26-1.872c.312-.708.468-1.47.468-2.286s-.156-1.578-.468-2.286c-.3-.708-.72-1.332-1.26-1.872s-1.164-.96-1.872-1.26c-.708-.312-1.47-.468-2.286-.468s-1.578.156-2.286.468c-.708.3-1.332.72-1.872 1.26s-.966 1.164-1.278 1.872c-.3.708-.45 1.47-.45 2.286s.15 1.578.45 2.286c.312.708.738 1.332 1.278 1.872s1.164.966 1.872 1.278c.708.3 1.47.45 2.286.45zm0-.864c-.696 0-1.35-.126-1.962-.378-.6-.264-1.134-.624-1.602-1.08-.456-.468-.816-1.002-1.08-1.602-.252-.612-.378-1.266-.378-1.962s.126-1.344.378-1.944c.264-.612.624-1.146 1.08-1.602.468-.468 1.002-.828 1.602-1.08.612-.264 1.266-.396 1.962-.396s1.35.132 1.962.396c.612.252 1.146.612 1.602 1.08.468.456.828.99 1.08 1.602.264.6.396 1.248.396 1.944s-.132 1.35-.396 1.962c-.252.6-.612 1.134-1.08 1.602-.456.456-.99.816-1.602 1.08-.612.252-1.266.378-1.962.378zm21.0938 2.106c-.984 0-1.908-.186-2.772-.558-.864-.36-1.626-.864-2.286-1.512-.648-.66-1.158-1.422-1.53-2.286-.36-.864-.54-1.788-.54-2.772 0-.996.18-1.92.54-2.772.372-.864.882-1.62 1.53-2.268.66-.66 1.422-1.17 2.286-1.53.864-.372 1.788-.558 2.772-.558.996 0 1.92.186 2.772.558.864.36 1.62.87 2.268 1.53.66.648 1.17 1.404 1.53 2.268.372.852.558 1.776.558 2.772 0 .984-.186 1.908-.558 2.772-.36.864-.87 1.626-1.53 2.286-.648.648-1.404 1.152-2.268 1.512-.852.372-1.776.558-2.772.558zm0-.756c.888 0 1.716-.162 2.484-.486.768-.336 1.44-.792 2.016-1.368.588-.588 1.044-1.266 1.368-2.034.336-.768.504-1.596.504-2.484s-.168-1.716-.504-2.484c-.324-.768-.78-1.44-1.368-2.016-.576-.588-1.248-1.044-2.016-1.368-.768-.336-1.596-.504-2.484-.504zm13.9657.216v-13.176h13.176v13.176zm27.1495.54c-.984 0-1.908-.186-2.772-.558-.864-.36-1.626-.864-2.286-1.512-.648-.66-1.158-1.422-1.53-2.286-.36-.864-.54-1.788-.54-2.772 0-.996.18-1.92.54-2.772.372-.864.882-1.62 1.53-2.268.66-.66 1.422-1.17 2.286-1.53.864-.372 1.788-.558 2.772-.558.996 0 1.92.186 2.772.558.864.36 1.62.87 2.2684 1.53.66.648 1.17 1.404 1.53 2.268.372.852.558 1.776.558 2.772 0 .984-.186 1.908-.558 2.772-.36.864-.87 1.626-1.53 2.286-.6484.648-1.4044 1.152-2.2684 1.512-.852.372-1.776.558-2.772.558zm0-.756v-12.744c-.888 0-1.716.168-2.484.504-.768.324-1.446.78-2.034 1.368-.576.576-1.032 1.248-1.368 2.016-.324.768-.486 1.596-.486 2.484s.162 1.716.486 2.484c.336.768.792 1.446 1.368 2.034.588.576 1.266 1.032 2.034 1.368.768.324 1.596.486 2.484.486zm21.0934.756c-.984 0-1.908-.186-2.772-.558-.852-.36-1.608-.864-2.268-1.512-.648-.66-1.158-1.422-1.53-2.286s-.558-1.788-.558-2.772.186-1.908.558-2.772.882-1.62 1.53-2.268c.66-.66 1.416-1.17 2.268-1.53.864-.372 1.788-.558 2.772-.558s1.908.186 2.772.558c.864.36 1.62.87 2.268 1.53.66.648 1.17 1.404 1.53 2.268.372.864.558 1.788.558 2.772s-.186 1.908-.558 2.772c-.36.864-.87 1.626-1.53 2.286-.648.648-1.404 1.152-2.268 1.512-.864.372-1.788.558-2.772.558zm0-1.242c.816 0 1.578-.15 2.286-.45.708-.312 1.332-.738 1.872-1.278s.96-1.164 1.26-1.872c.312-.708.468-1.47.468-2.286s-.156-1.578-.468-2.286c-.3-.708-.72-1.332-1.26-1.872s-1.164-.96-1.872-1.26c-.708-.312-1.47-.468-2.286-.468s-1.578.156-2.286.468c-.708.3-1.332.72-1.872 1.26s-.966 1.164-1.278 1.872c-.3.708-.45 1.47-.45 2.286s.15 1.578.45 2.286c.312.708.738 1.332 1.278 1.872s1.164.966 1.872 1.278c.708.3 1.47.45 2.286.45zm0-.864c-.696 0-1.35-.126-1.962-.378-.6-.264-1.134-.624-1.602-1.08-.456-.468-.816-1.002-1.08-1.602-.252-.612-.378-1.266-.378-1.962s.126-1.344.378-1.944c.264-.612.624-1.146 1.08-1.602.468-.468 1.002-.828 1.602-1.08.612-.264 1.266-.396 1.962-.396s1.35.132 1.962.396c.612.252 1.146.612 1.602 1.08.468.456.828.99 1.08 1.602.264.6.396 1.248.396 1.944s-.132 1.35-.396 1.962c-.252.6-.612 1.134-1.08 1.602-.456.456-.99.816-1.602 1.08-.612.252-1.266.378-1.962.378zm21.094 2.106c-.984 0-1.908-.186-2.772-.558-.864-.36-1.626-.864-2.286-1.512-.648-.66-1.158-1.422-1.53-2.286-.36-.864-.54-1.788-.54-2.772 0-.996.18-1.92.54-2.772.372-.864.882-1.62 1.53-2.268.66-.66 1.422-1.17 2.286-1.53.864-.372 1.788-.558 2.772-.558.996 0 1.92.186 2.772.558.864.36 1.62.87 2.268 1.53.66.648 1.17 1.404 1.53 2.268.372.852.558 1.776.558 2.772 0 .984-.186 1.908-.558 2.772-.36.864-.87 1.626-1.53 2.286-.648.648-1.404 1.152-2.268 1.512-.852.372-1.776.558-2.772.558zm0-.756c.888 0 1.716-.162 2.484-.486.768-.336 1.44-.792 2.016-1.368.588-.588 1.044-1.266 1.368-2.034.336-.768.504-1.596.504-2.484s-.168-1.716-.504-2.484c-.324-.768-.78-1.44-1.368-2.016-.576-.588-1.248-1.044-2.016-1.368-.768-.336-1.596-.504-2.484-.504z" fill="#dcf908"/><path d="m174.579 18.358v-1.692h8.46v1.692zm0 0v1.692h-1.692v-1.692zm11.844 7.758v1.692h-1.692v-1.692zm-3.384-1.692v-6.066h1.692v6.066zm1.692 3.384v1.692h-10.152v-1.692zm-3.384-3.384h1.692v1.692h-6.768v-1.692h3.384v-2.682h-3.384v-1.692h5.076zm-6.768-2.682h1.692v2.682h-1.692zm0 4.374v1.692h-1.692v-1.692zm-3.384-6.066h1.692v6.066h-1.692zm25.405-1.692h1.692v3.888h-1.692zm0 3.888v1.692h-6.786v3.87h6.786v1.692h-8.478v-12.834h8.478v1.692h-6.786v3.888zm0 1.692h1.692v3.87h-1.692zm11.866 3.87v1.692h-6.786v-1.692zm-8.478-11.142h1.692v11.142h-1.692zm8.478 0h1.692v11.142h-1.692zm5.079 1.692h-1.692v9.45h1.692v-3.87h5.094v-1.692h-5.094v-3.87zm6.786 11.142h-6.786v-1.692h6.786zm0-11.142h-6.786v-1.692h6.786zm5.084 0v1.692h-1.692v9.45h-1.692v-12.834h1.692v1.692zm6.786-1.692v12.834h-1.692v-1.692h-1.692v-1.692h1.692v-9.45zm-6.786 5.076v-1.692h1.692v1.692zm1.692 4.374v-4.374h1.692v4.374zm10.191 1.692h-1.692v-1.692h1.692zm5.076 1.692h-5.076v-1.692h5.076zm-6.768-3.384h-1.71v-6.066h1.71zm6.768 1.692h1.71v-1.692h-1.71zm1.71-1.692h1.692v-6.066h-1.692zm-1.71-7.758h1.71v1.692h-1.71zm-5.076-1.692h5.076v1.692h-5.076zm0 1.692h-1.692v1.692h1.692zm10.168 9.45v-1.692h1.692v1.692zm8.478 0v-3.87h1.692v3.87zm0-7.758v-1.692h1.692v1.692zm-8.478 2.196v-3.888h1.692v3.888zm1.692 1.692v-1.692h6.786v1.692zm0-5.58v-1.692h6.786v1.692zm0 11.142v-1.692h6.786v1.692zm13.557-11.142v-1.692h3.384v1.692zm0 1.692h-1.692v-1.692h1.692zm6.768 0v9.45h-1.692v-3.87h-6.768v3.87h-1.692v-9.45h1.692v3.888h6.768v-3.888zm-3.384 0v-1.692h1.692v1.692zm5.08-3.384h1.692v12.834h-1.692zm11.889 1.692h1.692v3.888h-1.692zm0 3.888v1.692h1.692v5.562h-1.692v-3.87h-1.692v-1.692h-5.094v5.562h-1.71v-12.834h8.496v1.692h-6.786v3.888zm5.078-3.888h-1.692v9.45h1.692v-3.87h5.094v-1.692h-5.094v-3.87zm6.786 11.142h-6.786v-1.692h6.786zm0-11.142h-6.786v-1.692h6.786zm1.7 9.45v-1.692h1.692v1.692zm8.478 0v-3.87h1.692v3.87zm0-7.758v-1.692h1.692v1.692zm-8.478 2.196v-3.888h1.692v3.888zm1.692 1.692v-1.692h6.786v1.692zm0-5.58v-1.692h6.786v1.692zm0 11.142v-1.692h6.786v1.692z" fill="#e573e5"/><path d="m336.59 18.358v-1.692h3.384v1.692zm0 1.692h-1.692v-1.692h1.692zm6.768 0v9.45h-1.692v-3.87h-6.768v3.87h-1.692v-9.45h1.692v3.888h6.768v-3.888zm-3.384 0v-1.692h1.692v1.692zm13.558 7.758v1.692h-6.786v-1.692zm-8.478-11.142h1.692v11.142h-1.692zm8.478 0h1.692v11.142h-1.692zm11.847 0v1.692h-6.768v-1.692zm1.692 3.87v-2.178h-1.692v2.178zm0 2.556h-5.076v1.692h3.384v3.024h1.692zm-1.692 6.408v-1.692h-6.768v1.692zm-8.46-1.692h1.692v-9.45h-1.692zm18.642-11.142h1.692v12.834h-1.692v-9.45h-3.402v-1.692h3.402zm6.786 0h1.692v12.834h-1.692v-9.45h-3.402v-1.692h3.402zm8.099 5.58v1.692h-4.716v-1.692zm5.102-5.58h1.692v12.834h-1.692v-9.45h-3.402v-1.692h3.402zm10.151 0v1.692h-5.076v-1.692zm1.692 1.692v2.682h-1.692v-2.682zm-8.46 0h1.692v1.692h-1.692zm0 7.758h1.692v1.692h6.768v1.692h-8.46zm1.692-1.692h1.692v1.692h-1.692zm1.692-1.692h1.692v1.692h-1.692zm1.692-1.692h1.692v1.692h-1.692zm9.8 1.206v1.692h-4.716v-1.692zm5.102-5.58h1.692v12.834h-1.692v-9.45h-3.402v-1.692h3.402zm10.151 0v1.692h-5.076v-1.692zm1.692 5.58h-1.692v-3.888h1.692zm-1.692 0v1.692h-3.384v-1.692zm-6.768-3.888h1.692v1.692h-1.692zm1.692 7.758v1.692h-1.692v-1.692zm5.076 1.692v1.692h-5.076v-1.692zm0 0v-3.87h1.692v3.87zm13.553-11.142v1.692h-5.076v-1.692zm1.692 1.692v2.682h-1.692v-2.682zm-8.46 0h1.692v1.692h-1.692zm0 7.758h1.692v1.692h6.768v1.692h-8.46zm1.692-1.692h1.692v1.692h-1.692zm1.692-1.692h1.692v1.692h-1.692zm1.692-1.692h1.692v1.692h-1.692zm6.776 8.46v-1.692h5.076v1.692zm-1.692-1.692v-9.45h1.692v9.45zm6.768 0v-9.45h1.692v9.45zm-5.076-9.45v-1.692h5.076v1.692zm15.236-1.692v1.692h-5.076v-1.692zm1.692 1.692v2.682h-1.692v-2.682zm-8.46 0h1.692v1.692h-1.692zm0 7.758h1.692v1.692h6.768v1.692h-8.46zm1.692-1.692h1.692v1.692h-1.692zm1.692-1.692h1.692v1.692h-1.692zm1.692-1.692h1.692v1.692h-1.692zm11.852-4.374v1.692h-5.076v-1.692zm1.692 1.692v2.682h-1.692v-2.682zm-8.46 0h1.692v1.692h-1.692zm0 7.758h1.692v1.692h6.768v1.692h-8.46zm1.692-1.692h1.692v1.692h-1.692zm1.692-1.692h1.692v1.692h-1.692zm1.692-1.692h1.692v1.692h-1.692z" fill="#faf7f5"/><path d="m512.036 18.13-10.764 10.764v-10.764zm1.84 12.87 10.764-10.764v10.764zm17.613-10.764 10.764 10.764h-10.764zm23.368 8.658-10.764-10.764h10.764zm17.613-10.764-10.764 10.764v-10.764zm1.84 12.87 10.764-10.764v10.764zm17.613-10.764 10.764 10.764h-10.764zm23.367 8.658-10.764-10.764h10.764zm17.614-10.764-10.764 10.764v-10.764zm1.839 12.87 10.764-10.764v10.764zm17.613-10.764 10.764 10.764h-10.764zm23.368 8.658-10.764-10.764h10.764z" fill="#80ff9f"/><path d="m705.579 18.358v-1.692h8.46v1.692zm0 0v1.692h-1.692v-1.692zm11.844 7.758v1.692h-1.692v-1.692zm-3.384-1.692v-6.066h1.692v6.066zm1.692 3.384v1.692h-10.152v-1.692zm-3.384-3.384h1.692v1.692h-6.768v-1.692h3.384v-2.682h-3.384v-1.692h5.076zm-6.768-2.682h1.692v2.682h-1.692zm0 4.374v1.692h-1.692v-1.692zm-3.384-6.066h1.692v6.066h-1.692zm25.405-1.692h1.692v3.888h-1.692zm0 3.888v1.692h-6.786v3.87h6.786v1.692h-8.478v-12.834h8.478v1.692h-6.786v3.888zm0 1.692h1.692v3.87h-1.692zm11.866 3.87v1.692h-6.786v-1.692zm-8.478-11.142h1.692v11.142h-1.692zm8.478 0h1.692v11.142h-1.692zm5.079 1.692h-1.692v9.45h1.692v-3.87h5.094v-1.692h-5.094v-3.87zm6.786 11.142h-6.786v-1.692h6.786zm0-11.142h-6.786v-1.692h6.786zm5.084 0v1.692h-1.692v9.45h-1.692v-12.834h1.692v1.692zm6.786-1.692v12.834h-1.692v-1.692h-1.692v-1.692h1.692v-9.45zm-6.786 5.076v-1.692h1.692v1.692zm1.692 4.374v-4.374h1.692v4.374zm10.191 1.692h-1.692v-1.692h1.692zm5.076 1.692h-5.076v-1.692h5.076zm-6.768-3.384h-1.71v-6.066h1.71zm6.768 1.692h1.71v-1.692h-1.71zm1.71-1.692h1.692v-6.066h-1.692zm-1.71-7.758h1.71v1.692h-1.71zm-5.076-1.692h5.076v1.692h-5.076zm0 1.692h-1.692v1.692h1.692zm10.168 9.45v-1.692h1.692v1.692zm8.478 0v-3.87h1.692v3.87zm0-7.758v-1.692h1.692v1.692zm-8.478 2.196v-3.888h1.692v3.888zm1.692 1.692v-1.692h6.786v1.692zm0-5.58v-1.692h6.786v1.692zm0 11.142v-1.692h6.786v1.692zm13.557-11.142v-1.692h3.384v1.692zm0 1.692h-1.692v-1.692h1.692zm6.768 0v9.45h-1.692v-3.87h-6.768v3.87h-1.692v-9.45h1.692v3.888h6.768v-3.888zm-3.384 0v-1.692h1.692v1.692zm5.08-3.384h1.692v12.834h-1.692zm11.889 1.692h1.692v3.888h-1.692zm0 3.888v1.692h1.692v5.562h-1.692v-3.87h-1.692v-1.692h-5.094v5.562h-1.71v-12.834h8.496v1.692h-6.786v3.888zm5.078-3.888h-1.692v9.45h1.692v-3.87h5.094v-1.692h-5.094v-3.87zm6.786 11.142h-6.786v-1.692h6.786zm0-11.142h-6.786v-1.692h6.786zm1.7 9.45v-1.692h1.692v1.692zm8.478 0v-3.87h1.692v3.87zm0-7.758v-1.692h1.692v1.692zm-8.478 2.196v-3.888h1.692v3.888zm1.692 1.692v-1.692h6.786v1.692zm0-5.58v-1.692h6.786v1.692zm0 11.142v-1.692h6.786v1.692z" fill="#38f"/><path d="m867.59 18.358v-1.692h3.384v1.692zm0 1.692h-1.692v-1.692h1.692zm6.768 0v9.45h-1.692v-3.87h-6.768v3.87h-1.692v-9.45h1.692v3.888h6.768v-3.888zm-3.384 0v-1.692h1.692v1.692zm13.558 7.758v1.692h-6.786v-1.692zm-8.478-11.142h1.692v11.142h-1.692zm8.478 0h1.692v11.142h-1.692zm11.847 0v1.692h-6.768v-1.692zm1.692 3.87v-2.178h-1.692v2.178zm0 2.556h-5.076v1.692h3.384v3.024h1.692zm-1.692 6.408v-1.692h-6.768v1.692zm-8.46-1.692h1.692v-9.45h-1.692zm18.642-11.142h1.692v12.834h-1.692v-9.45h-3.402v-1.692h3.402zm6.786 0h1.692v12.834h-1.692v-9.45h-3.402v-1.692h3.402zm8.099 5.58v1.692h-4.716v-1.692zm5.102-5.58h1.692v12.834h-1.692v-9.45h-3.402v-1.692h3.402zm10.151 0v1.692h-5.076v-1.692zm1.692 1.692v2.682h-1.692v-2.682zm-8.46 0h1.692v1.692h-1.692zm0 7.758h1.692v1.692h6.768v1.692h-8.46zm1.692-1.692h1.692v1.692h-1.692zm1.692-1.692h1.692v1.692h-1.692zm1.692-1.692h1.692v1.692h-1.692zm9.8 1.206v1.692h-4.716v-1.692zm5.102-5.58h1.692v12.834h-1.692v-9.45h-3.402v-1.692h3.402zm10.151 0v1.692h-5.076v-1.692zm1.692 5.58h-1.692v-3.888h1.692zm-1.692 0v1.692h-3.384v-1.692zm-6.768-3.888h1.692v1.692h-1.692zm1.692 7.758v1.692h-1.692v-1.692zm5.076 1.692v1.692h-5.076v-1.692zm0 0v-3.87h1.692v3.87zm13.553-11.142v1.692h-5.076v-1.692zm1.692 1.692v2.682h-1.692v-2.682zm-8.46 0h1.692v1.692h-1.692zm0 7.758h1.692v1.692h6.768v1.692h-8.46zm1.692-1.692h1.692v1.692h-1.692zm1.692-1.692h1.692v1.692h-1.692zm1.692-1.692h1.692v1.692h-1.692zm6.776 8.46v-1.692h5.076v1.692zm-1.692-1.692v-9.45h1.692v9.45zm6.768 0v-9.45h1.692v9.45zm-5.076-9.45v-1.692h5.076v1.692zm15.236-1.692v1.692h-5.076v-1.692zm1.692 1.692v2.682h-1.692v-2.682zm-8.46 0h1.692v1.692h-1.692zm0 7.758h1.692v1.692h6.768v1.692h-8.46zm1.692-1.692h1.692v1.692h-1.692zm1.692-1.692h1.692v1.692h-1.692zm1.692-1.692h1.692v1.692h-1.692zm11.849-4.374v1.692h-5.073v-1.692zm1.7 1.692v2.682h-1.7v-2.682zm-8.465 0h1.692v1.692h-1.692zm0 7.758h1.692v1.692h6.773v1.692h-8.465zm1.692-1.692h1.693v1.692h-1.693zm1.693-1.692h1.69v1.692h-1.69zm1.69-1.692h1.69v1.692h-1.69z" fill="#dcf908"/><path d="m1031.93 31 7.26-12.546 7.23 12.546zm23.59 0-7.26-12.546h14.49zm9.07 0 7.26-12.546 7.23 12.546zm23.59 0-7.26-12.546h14.49zm9.07 0 7.26-12.546 7.23 12.546zm23.59 0-7.26-12.546h14.49zm9.07 0 7.26-12.546 7.23 12.546zm23.59 0-7.26-12.546h14.49zm9.07 0 7.26-12.546 7.23 12.546z" fill="#ff6a4c"/><path d="m1206.58 18.358v-1.692h8.46v1.692zm0 0v1.692h-1.69v-1.692zm11.84 7.758v1.692h-1.69v-1.692zm-3.38-1.692v-6.066h1.69v6.066zm1.69 3.384v1.692h-10.15v-1.692zm-3.38-3.384h1.69v1.692h-6.77v-1.692h3.38v-2.682h-3.38v-1.692h5.08zm-6.77-2.682h1.69v2.682h-1.69zm0 4.374v1.692h-1.69v-1.692zm-3.39-6.066h1.7v6.066h-1.7zm25.41-1.692h1.69v3.888h-1.69zm0 3.888v1.692h-6.79v3.87h6.79v1.692h-8.48v-12.834h8.48v1.692h-6.79v3.888zm0 1.692h1.69v3.87h-1.69zm11.87 3.87v1.692h-6.79v-1.692zm-8.48-11.142h1.69v11.142h-1.69zm8.48 0h1.69v11.142h-1.69zm5.07 1.692h-1.69v9.45h1.69v-3.87h5.1v-1.692h-5.1v-3.87zm6.79 11.142h-6.79v-1.692h6.79zm0-11.142h-6.79v-1.692h6.79zm5.08 0v1.692h-1.69v9.45h-1.69v-12.834h1.69v1.692zm6.79-1.692v12.834h-1.69v-1.692h-1.69v-1.692h1.69v-9.45zm-6.79 5.076v-1.692h1.7v1.692zm1.7 4.374v-4.374h1.69v4.374zm10.19 1.692h-1.69v-1.692h1.69zm5.07 1.692h-5.07v-1.692h5.07zm-6.76-3.384h-1.71v-6.066h1.71zm6.76 1.692h1.71v-1.692h-1.71zm1.71-1.692h1.7v-6.066h-1.7zm-1.71-7.758h1.71v1.692h-1.71zm-5.07-1.692h5.07v1.692h-5.07zm0 1.692h-1.69v1.692h1.69zm10.17 9.45v-1.692h1.69v1.692zm8.47 0v-3.87h1.7v3.87zm0-7.758v-1.692h1.7v1.692zm-8.47 2.196v-3.888h1.69v3.888zm1.69 1.692v-1.692h6.78v1.692zm0-5.58v-1.692h6.78v1.692zm0 11.142v-1.692h6.78v1.692zm13.56-11.142v-1.692h3.38v1.692zm0 1.692h-1.7v-1.692h1.7zm6.76 0v9.45h-1.69v-3.87h-6.77v3.87h-1.69v-9.45h1.69v3.888h6.77v-3.888zm-3.38 0v-1.692h1.69v1.692zm5.08-3.384h1.69v12.834h-1.69zm11.89 1.692h1.69v3.888h-1.69zm0 3.888v1.692h1.69v5.562h-1.69v-3.87h-1.69v-1.692h-5.1v5.562h-1.71v-12.834h8.5v1.692h-6.79v3.888zm5.08-3.888h-1.7v9.45h1.7v-3.87h5.09v-1.692h-5.09v-3.87zm6.78 11.142h-6.78v-1.692h6.78zm0-11.142h-6.78v-1.692h6.78zm1.7 9.45v-1.692h1.69v1.692zm8.48 0v-3.87h1.69v3.87zm0-7.758v-1.692h1.69v1.692zm-8.48 2.196v-3.888h1.69v3.888zm1.69 1.692v-1.692h6.79v1.692zm0-5.58v-1.692h6.79v1.692zm0 11.142v-1.692h6.79v1.692z" fill="#faf7f5"/><path d="m1368.59 18.358v-1.692h3.38v1.692zm0 1.692h-1.69v-1.692h1.69zm6.77 0v9.45h-1.69v-3.87h-6.77v3.87h-1.69v-9.45h1.69v3.888h6.77v-3.888zm-3.39 0v-1.692h1.7v1.692zm13.56 7.758v1.692h-6.78v-1.692zm-8.48-11.142h1.7v11.142h-1.7zm8.48 0h1.69v11.142h-1.69zm11.85 0v1.692h-6.77v-1.692zm1.69 3.87v-2.178h-1.69v2.178zm0 2.556h-5.07v1.692h3.38v3.024h1.69zm-1.69 6.408v-1.692h-6.77v1.692zm-8.46-1.692h1.69v-9.45h-1.69zm18.64-11.142h1.69v12.834h-1.69v-9.45h-3.4v-1.692h3.4zm6.79 0h1.69v12.834h-1.69v-9.45h-3.41v-1.692h3.41zm8.1 5.58v1.692h-4.72v-1.692zm5.1-5.58h1.69v12.834h-1.69v-9.45h-3.4v-1.692h3.4zm10.15 0v1.692h-5.08v-1.692zm1.69 1.692v2.682h-1.69v-2.682zm-8.46 0h1.69v1.692h-1.69zm0 7.758h1.69v1.692h6.77v1.692h-8.46zm1.69-1.692h1.69v1.692h-1.69zm1.69-1.692h1.7v1.692h-1.7zm1.7-1.692h1.69v1.692h-1.69zm9.8 1.206v1.692h-4.72v-1.692zm5.1-5.58h1.69v12.834h-1.69v-9.45h-3.4v-1.692h3.4zm10.15 0v1.692h-5.08v-1.692zm1.69 5.58h-1.69v-3.888h1.69zm-1.69 0v1.692h-3.38v-1.692zm-6.77-3.888h1.69v1.692h-1.69zm1.69 7.758v1.692h-1.69v-1.692zm5.08 1.692v1.692h-5.08v-1.692zm0 0v-3.87h1.69v3.87zm13.55-11.142v1.692h-5.07v-1.692zm1.7 1.692v2.682h-1.7v-2.682zm-8.46 0h1.69v1.692h-1.69zm0 7.758h1.69v1.692h6.77v1.692h-8.46zm1.69-1.692h1.69v1.692h-1.69zm1.69-1.692h1.69v1.692h-1.69zm1.69-1.692h1.69v1.692h-1.69zm6.78 8.46v-1.692h5.07v1.692zm-1.69-1.692v-9.45h1.69v9.45zm6.76 0v-9.45h1.7v9.45zm-5.07-9.45v-1.692h5.07v1.692zm15.23-1.692v1.692h-5.07v-1.692zm1.7 1.692v2.682h-1.7v-2.682zm-8.46 0h1.69v1.692h-1.69zm0 7.758h1.69v1.692h6.77v1.692h-8.46zm1.69-1.692h1.69v1.692h-1.69zm1.69-1.692h1.69v1.692h-1.69zm1.69-1.692h1.69v1.692h-1.69zm11.85-4.374v1.692h-5.07v-1.692zm1.7 1.692v2.682h-1.7v-2.682zm-8.46 0h1.69v1.692h-1.69zm0 7.758h1.69v1.692h6.77v1.692h-8.46zm1.69-1.692h1.69v1.692h-1.69zm1.69-1.692h1.69v1.692h-1.69zm1.69-1.692h1.69v1.692h-1.69z" fill="#e573e5"/></svg>