<svg width="1517" height="44" viewBox="0 0 1517 44" fill="none" xmlns="http://www.w3.org/2000/svg">
<path d="M22.0904 15.858V14.166H25.4744V15.858H22.0904ZM22.0904 17.55H20.3984V15.858H22.0904V17.55ZM28.8584 17.55V27H27.1664V23.13H20.3984V27H18.7064V17.55H20.3984V21.438H27.1664V17.55H28.8584ZM25.4744 17.55V15.858H27.1664V17.55H25.4744ZM39.032 25.308V27H32.246V25.308H39.032ZM30.554 14.166H32.246V25.308H30.554V14.166ZM39.032 14.166H40.724V25.308H39.032V14.166ZM50.8792 14.166V15.858H44.1112V14.166H50.8792ZM52.5712 18.036V15.858H50.8792V18.036H52.5712ZM52.5712 20.592H47.4952V22.284H50.8792V25.308H52.5712V20.592ZM50.8792 27V25.308H44.1112V27H50.8792ZM42.4192 25.308H44.1112V15.858H42.4192V25.308ZM61.0615 14.166H62.7535V27H61.0615V17.55H57.6595V15.858H61.0615V14.166ZM67.8466 14.166H69.5386V27H67.8466V17.55H64.4446V15.858H67.8466V14.166ZM75.9458 19.746V21.438H71.2298V19.746H75.9458ZM81.0478 14.166H82.7398V27H81.0478V17.55H77.6458V15.858H81.0478V14.166ZM91.199 14.166V15.858H86.123V14.166H91.199ZM92.891 15.858V18.54H91.199V15.858H92.891ZM84.431 15.858H86.123V17.55H84.431V15.858ZM84.431 23.616H86.123V25.308H92.891V27H84.431V23.616ZM86.123 21.924H87.815V23.616H86.123V21.924ZM87.815 20.232H89.507V21.924H87.815V20.232ZM89.507 18.54H91.199V20.232H89.507V18.54ZM99.3071 19.746V21.438H94.5911V19.746H99.3071ZM104.409 14.166H106.101V27H104.409V17.55H101.007V15.858H104.409V14.166ZM114.56 14.166V15.858H109.484V14.166H114.56ZM116.252 19.746H114.56V15.858H116.252V19.746ZM114.56 19.746V21.438H111.176V19.746H114.56ZM107.792 15.858H109.484V17.55H107.792V15.858ZM109.484 23.616V25.308H107.792V23.616H109.484ZM114.56 25.308V27H109.484V25.308H114.56ZM114.56 25.308V21.438H116.252V25.308H114.56ZM128.113 14.166V15.858H123.037V14.166H128.113ZM129.805 15.858V18.54H128.113V15.858H129.805ZM121.345 15.858H123.037V17.55H121.345V15.858ZM121.345 23.616H123.037V25.308H129.805V27H121.345V23.616ZM123.037 21.924H124.729V23.616H123.037V21.924ZM124.729 20.232H126.421V21.924H124.729V20.232ZM126.421 18.54H128.113V20.232H126.421V18.54ZM133.197 27V25.308H138.273V27H133.197ZM131.505 25.308V15.858H133.197V25.308H131.505ZM138.273 25.308V15.858H139.965V25.308H138.273ZM133.197 15.858V14.166H138.273V15.858H133.197ZM148.433 14.166V15.858H143.357V14.166H148.433ZM150.125 15.858V18.54H148.433V15.858H150.125ZM141.665 15.858H143.357V17.55H141.665V15.858ZM141.665 23.616H143.357V25.308H150.125V27H141.665V23.616ZM143.357 21.924H145.049V23.616H143.357V21.924ZM145.049 20.232H146.741V21.924H145.049V20.232ZM146.741 18.54H148.433V20.232H146.741V18.54ZM158.593 14.166V15.858H153.517V14.166H158.593ZM160.285 15.858V18.54H158.593V15.858H160.285ZM151.825 15.858H153.517V17.55H151.825V15.858ZM151.825 23.616H153.517V25.308H160.285V27H151.825V23.616ZM153.517 21.924H155.209V23.616H153.517V21.924ZM155.209 20.232H156.901V21.924H155.209V20.232ZM156.901 18.54H158.593V20.232H156.901V18.54Z" fill="#80FF9F"/>
<path d="M197.536 15.63L186.772 26.394V15.63H197.536ZM199.376 28.5L210.14 17.736V28.5H199.376ZM216.989 17.736L227.753 28.5H216.989V17.736ZM240.357 26.394L229.593 15.63H240.357V26.394ZM257.97 15.63L247.206 26.394V15.63H257.97ZM259.81 28.5L270.574 17.736V28.5H259.81ZM277.423 17.736L288.187 28.5H277.423V17.736ZM300.79 26.394L290.026 15.63H300.79V26.394ZM318.404 15.63L307.64 26.394V15.63H318.404ZM320.243 28.5L331.007 17.736V28.5H320.243ZM337.856 17.736L348.62 28.5H337.856V17.736ZM361.224 26.394L350.46 15.63H361.224V26.394Z" fill="#3388FF"/>
<path d="M391.079 15.858V14.166H399.539V15.858H391.079ZM391.079 15.858V17.55H389.387V15.858H391.079ZM402.923 23.616V25.308H401.231V23.616H402.923ZM399.539 21.924V15.858H401.231V21.924H399.539ZM401.231 25.308V27H391.079V25.308H401.231ZM397.847 21.924H399.539V23.616H392.771V21.924H396.155V19.242H392.771V17.55H397.847V21.924ZM391.079 19.242H392.771V21.924H391.079V19.242ZM391.079 23.616V25.308H389.387V23.616H391.079ZM387.695 17.55H389.387V23.616H387.695V17.55ZM413.1 15.858H414.792V19.746H413.1V15.858ZM413.1 19.746V21.438H406.314V25.308H413.1V27H404.622V14.166H413.1V15.858H406.314V19.746H413.1ZM413.1 21.438H414.792V25.308H413.1V21.438ZM424.966 25.308V27H418.18V25.308H424.966ZM416.488 14.166H418.18V25.308H416.488V14.166ZM424.966 14.166H426.658V25.308H424.966V14.166ZM430.045 15.858H428.353V25.308H430.045V21.438H435.139V19.746H430.045V15.876V15.858ZM436.831 27H430.045V25.308H436.831V27ZM436.831 15.858H430.045V14.166H436.831V15.858ZM441.915 15.858V17.55H440.223V27H438.531V14.166H440.223V15.858H441.915ZM448.701 14.166V27H447.009V25.308H445.317V23.616H447.009V14.166H448.701ZM441.915 19.242V17.55H443.607V19.242H441.915ZM443.607 23.616V19.242H445.299V23.616H443.607ZM453.798 25.308H452.106V23.616H453.798V25.308ZM458.874 27H453.798V25.308H458.874V27ZM452.106 23.616H450.396V17.55H452.106V23.616ZM458.874 25.308H460.584V23.616H458.874V25.308ZM460.584 23.616H462.276V17.55H460.584V23.616ZM458.874 15.858H460.584V17.55H458.874V15.858ZM453.798 14.166H458.874V15.858H453.798V14.166ZM453.798 15.858H452.106V17.55H453.798V15.858ZM463.966 25.308V23.616H465.658V25.308H463.966ZM472.444 25.308V21.438H474.136V25.308H472.444ZM472.444 17.55V15.858H474.136V17.55H472.444ZM463.966 19.746V15.858H465.658V19.746H463.966ZM465.658 21.438V19.746H472.444V21.438H465.658ZM465.658 15.858V14.166H472.444V15.858H465.658ZM465.658 27V25.308H472.444V27H465.658ZM479.215 15.858V14.166H482.599V15.858H479.215ZM479.215 17.55H477.523V15.858H479.215V17.55ZM485.983 17.55V27H484.291V23.13H477.523V27H475.831V17.55H477.523V21.438H484.291V17.55H485.983ZM482.599 17.55V15.858H484.291V17.55H482.599ZM487.679 14.166H489.371V27H487.679V14.166ZM499.568 15.858H501.26V19.746H499.568V15.858ZM499.568 19.746V21.438H501.26V27H499.568V23.13H497.876V21.438H492.782V27H491.072V14.166H499.568V15.858H492.782V19.746H499.568ZM504.646 15.858H502.954V25.308H504.646V21.438H509.74V19.746H504.646V15.876V15.858ZM511.432 27H504.646V25.308H511.432V27ZM511.432 15.858H504.646V14.166H511.432V15.858ZM513.132 25.308V23.616H514.824V25.308H513.132ZM521.61 25.308V21.438H523.302V25.308H521.61ZM521.61 17.55V15.858H523.302V17.55H521.61ZM513.132 19.746V15.858H514.824V19.746H513.132ZM514.824 21.438V19.746H521.61V21.438H514.824ZM514.824 15.858V14.166H521.61V15.858H514.824ZM514.824 27V25.308H521.61V27H514.824Z" fill="#FF6A4C"/>
<path d="M553.09 15.858V14.166H556.474V15.858H553.09ZM553.09 17.55H551.398V15.858H553.09V17.55ZM559.858 17.55V27H558.166V23.13H551.398V27H549.706V17.55H551.398V21.438H558.166V17.55H559.858ZM556.474 17.55V15.858H558.166V17.55H556.474ZM570.032 25.308V27H563.246V25.308H570.032ZM561.554 14.166H563.246V25.308H561.554V14.166ZM570.032 14.166H571.724V25.308H570.032V14.166ZM581.879 14.166V15.858H575.111V14.166H581.879ZM583.571 18.036V15.858H581.879V18.036H583.571ZM583.571 20.592H578.495V22.284H581.879V25.308H583.571V20.592ZM581.879 27V25.308H575.111V27H581.879ZM573.419 25.308H575.111V15.858H573.419V25.308ZM592.061 14.166H593.753V27H592.061V17.55H588.659V15.858H592.061V14.166ZM598.847 14.166H600.539V27H598.847V17.55H595.445V15.858H598.847V14.166ZM606.946 19.746V21.438H602.23V19.746H606.946ZM612.048 14.166H613.74V27H612.048V17.55H608.646V15.858H612.048V14.166ZM622.199 14.166V15.858H617.123V14.166H622.199ZM623.891 15.858V18.54H622.199V15.858H623.891ZM615.431 15.858H617.123V17.55H615.431V15.858ZM615.431 23.616H617.123V25.308H623.891V27H615.431V23.616ZM617.123 21.924H618.815V23.616H617.123V21.924ZM618.815 20.232H620.507V21.924H618.815V20.232ZM620.507 18.54H622.199V20.232H620.507V18.54ZM630.307 19.746V21.438H625.591V19.746H630.307ZM635.409 14.166H637.101V27H635.409V17.55H632.007V15.858H635.409V14.166ZM645.56 14.166V15.858H640.484V14.166H645.56ZM647.252 19.746H645.56V15.858H647.252V19.746ZM645.56 19.746V21.438H642.176V19.746H645.56ZM638.792 15.858H640.484V17.55H638.792V15.858ZM640.484 23.616V25.308H638.792V23.616H640.484ZM645.56 25.308V27H640.484V25.308H645.56ZM645.56 25.308V21.438H647.252V25.308H645.56ZM659.113 14.166V15.858H654.037V14.166H659.113ZM660.805 15.858V18.54H659.113V15.858H660.805ZM652.345 15.858H654.037V17.55H652.345V15.858ZM652.345 23.616H654.037V25.308H660.805V27H652.345V23.616ZM654.037 21.924H655.729V23.616H654.037V21.924ZM655.729 20.232H657.421V21.924H655.729V20.232ZM657.421 18.54H659.113V20.232H657.421V18.54ZM664.197 27V25.308H669.273V27H664.197ZM662.505 25.308V15.858H664.197V25.308H662.505ZM669.273 25.308V15.858H670.965V25.308H669.273ZM664.197 15.858V14.166H669.273V15.858H664.197ZM679.433 14.166V15.858H674.357V14.166H679.433ZM681.125 15.858V18.54H679.433V15.858H681.125ZM672.665 15.858H674.357V17.55H672.665V15.858ZM672.665 23.616H674.357V25.308H681.125V27H672.665V23.616ZM674.357 21.924H676.049V23.616H674.357V21.924ZM676.049 20.232H677.741V21.924H676.049V20.232ZM677.741 18.54H679.433V20.232H677.741V18.54ZM689.593 14.166V15.858H684.517V14.166H689.593ZM691.285 15.858V18.54H689.593V15.858H691.285ZM682.825 15.858H684.517V17.55H682.825V15.858ZM682.825 23.616H684.517V25.308H691.285V27H682.825V23.616ZM684.517 21.924H686.209V23.616H684.517V21.924ZM686.209 20.232H687.901V21.924H686.209V20.232ZM687.901 18.54H689.593V20.232H687.901V18.54Z" fill="#DCF908"/>
<path d="M717.433 28.5L724.687 15.954L731.923 28.5H717.433ZM741.017 28.5L733.763 15.954H748.253L741.017 28.5ZM750.093 28.5L757.347 15.954L764.583 28.5H750.093ZM773.677 28.5L766.423 15.954H780.913L773.677 28.5ZM782.753 28.5L790.007 15.954L797.243 28.5H782.753ZM806.337 28.5L799.083 15.954H813.573L806.337 28.5ZM815.413 28.5L822.667 15.954L829.903 28.5H815.413ZM838.997 28.5L831.743 15.954H846.233L838.997 28.5ZM848.073 28.5L855.327 15.954L862.563 28.5H848.073Z" fill="white"/>
<path d="M892.079 15.858V14.166H900.539V15.858H892.079ZM892.079 15.858V17.55H890.387V15.858H892.079ZM903.923 23.616V25.308H902.231V23.616H903.923ZM900.539 21.924V15.858H902.231V21.924H900.539ZM902.231 25.308V27H892.079V25.308H902.231ZM898.847 21.924H900.539V23.616H893.771V21.924H897.155V19.242H893.771V17.55H898.847V21.924ZM892.079 19.242H893.771V21.924H892.079V19.242ZM892.079 23.616V25.308H890.387V23.616H892.079ZM888.695 17.55H890.387V23.616H888.695V17.55ZM914.1 15.858H915.792V19.746H914.1V15.858ZM914.1 19.746V21.438H907.314V25.308H914.1V27H905.622V14.166H914.1V15.858H907.314V19.746H914.1ZM914.1 21.438H915.792V25.308H914.1V21.438ZM925.966 25.308V27H919.18V25.308H925.966ZM917.488 14.166H919.18V25.308H917.488V14.166ZM925.966 14.166H927.658V25.308H925.966V14.166ZM931.045 15.858H929.353V25.308H931.045V21.438H936.139V19.746H931.045V15.876V15.858ZM937.831 27H931.045V25.308H937.831V27ZM937.831 15.858H931.045V14.166H937.831V15.858ZM942.915 15.858V17.55H941.223V27H939.531V14.166H941.223V15.858H942.915ZM949.701 14.166V27H948.009V25.308H946.317V23.616H948.009V14.166H949.701ZM942.915 19.242V17.55H944.607V19.242H942.915ZM944.607 23.616V19.242H946.299V23.616H944.607ZM954.798 25.308H953.106V23.616H954.798V25.308ZM959.874 27H954.798V25.308H959.874V27ZM953.106 23.616H951.396V17.55H953.106V23.616ZM959.874 25.308H961.584V23.616H959.874V25.308ZM961.584 23.616H963.276V17.55H961.584V23.616ZM959.874 15.858H961.584V17.55H959.874V15.858ZM954.798 14.166H959.874V15.858H954.798V14.166ZM954.798 15.858H953.106V17.55H954.798V15.858ZM964.966 25.308V23.616H966.658V25.308H964.966ZM973.444 25.308V21.438H975.136V25.308H973.444ZM973.444 17.55V15.858H975.136V17.55H973.444ZM964.966 19.746V15.858H966.658V19.746H964.966ZM966.658 21.438V19.746H973.444V21.438H966.658ZM966.658 15.858V14.166H973.444V15.858H966.658ZM966.658 27V25.308H973.444V27H966.658ZM980.215 15.858V14.166H983.599V15.858H980.215ZM980.215 17.55H978.523V15.858H980.215V17.55ZM986.983 17.55V27H985.291V23.13H978.523V27H976.831V17.55H978.523V21.438H985.291V17.55H986.983ZM983.599 17.55V15.858H985.291V17.55H983.599ZM988.679 14.166H990.371V27H988.679V14.166ZM1000.57 15.858H1002.26V19.746H1000.57V15.858ZM1000.57 19.746V21.438H1002.26V27H1000.57V23.13H998.876V21.438H993.782V27H992.072V14.166H1000.57V15.858H993.782V19.746H1000.57ZM1005.65 15.858H1003.95V25.308H1005.65V21.438H1010.74V19.746H1005.65V15.876V15.858ZM1012.43 27H1005.65V25.308H1012.43V27ZM1012.43 15.858H1005.65V14.166H1012.43V15.858ZM1014.13 25.308V23.616H1015.82V25.308H1014.13ZM1022.61 25.308V21.438H1024.3V25.308H1022.61ZM1022.61 17.55V15.858H1024.3V17.55H1022.61ZM1014.13 19.746V15.858H1015.82V19.746H1014.13ZM1015.82 21.438V19.746H1022.61V21.438H1015.82ZM1015.82 15.858V14.166H1022.61V15.858H1015.82ZM1015.82 27V25.308H1022.61V27H1015.82Z" fill="#E573E5"/>
<path d="M1054.09 15.858V14.166H1057.47V15.858H1054.09ZM1054.09 17.55H1052.4V15.858H1054.09V17.55ZM1060.86 17.55V27H1059.17V23.13H1052.4V27H1050.71V17.55H1052.4V21.438H1059.17V17.55H1060.86ZM1057.47 17.55V15.858H1059.17V17.55H1057.47ZM1071.03 25.308V27H1064.25V25.308H1071.03ZM1062.55 14.166H1064.25V25.308H1062.55V14.166ZM1071.03 14.166H1072.72V25.308H1071.03V14.166ZM1082.88 14.166V15.858H1076.11V14.166H1082.88ZM1084.57 18.036V15.858H1082.88V18.036H1084.57ZM1084.57 20.592H1079.5V22.284H1082.88V25.308H1084.57V20.592ZM1082.88 27V25.308H1076.11V27H1082.88ZM1074.42 25.308H1076.11V15.858H1074.42V25.308ZM1093.06 14.166H1094.75V27H1093.06V17.55H1089.66V15.858H1093.06V14.166ZM1099.85 14.166H1101.54V27H1099.85V17.55H1096.44V15.858H1099.85V14.166ZM1107.95 19.746V21.438H1103.23V19.746H1107.95ZM1113.05 14.166H1114.74V27H1113.05V17.55H1109.65V15.858H1113.05V14.166ZM1123.2 14.166V15.858H1118.12V14.166H1123.2ZM1124.89 15.858V18.54H1123.2V15.858H1124.89ZM1116.43 15.858H1118.12V17.55H1116.43V15.858ZM1116.43 23.616H1118.12V25.308H1124.89V27H1116.43V23.616ZM1118.12 21.924H1119.81V23.616H1118.12V21.924ZM1119.81 20.232H1121.51V21.924H1119.81V20.232ZM1121.51 18.54H1123.2V20.232H1121.51V18.54ZM1131.31 19.746V21.438H1126.59V19.746H1131.31ZM1136.41 14.166H1138.1V27H1136.41V17.55H1133.01V15.858H1136.41V14.166ZM1146.56 14.166V15.858H1141.48V14.166H1146.56ZM1148.25 19.746H1146.56V15.858H1148.25V19.746ZM1146.56 19.746V21.438H1143.18V19.746H1146.56ZM1139.79 15.858H1141.48V17.55H1139.79V15.858ZM1141.48 23.616V25.308H1139.79V23.616H1141.48ZM1146.56 25.308V27H1141.48V25.308H1146.56ZM1146.56 25.308V21.438H1148.25V25.308H1146.56ZM1160.11 14.166V15.858H1155.04V14.166H1160.11ZM1161.81 15.858V18.54H1160.11V15.858H1161.81ZM1153.35 15.858H1155.04V17.55H1153.35V15.858ZM1153.35 23.616H1155.04V25.308H1161.81V27H1153.35V23.616ZM1155.04 21.924H1156.73V23.616H1155.04V21.924ZM1156.73 20.232H1158.42V21.924H1156.73V20.232ZM1158.42 18.54H1160.11V20.232H1158.42V18.54ZM1165.2 27V25.308H1170.27V27H1165.2ZM1163.51 25.308V15.858H1165.2V25.308H1163.51ZM1170.27 25.308V15.858H1171.97V25.308H1170.27ZM1165.2 15.858V14.166H1170.27V15.858H1165.2ZM1180.43 14.166V15.858H1175.36V14.166H1180.43ZM1182.13 15.858V18.54H1180.43V15.858H1182.13ZM1173.67 15.858H1175.36V17.55H1173.67V15.858ZM1173.67 23.616H1175.36V25.308H1182.13V27H1173.67V23.616ZM1175.36 21.924H1177.05V23.616H1175.36V21.924ZM1177.05 20.232H1178.74V21.924H1177.05V20.232ZM1178.74 18.54H1180.43V20.232H1178.74V18.54ZM1190.59 14.166V15.858H1185.52V14.166H1190.59ZM1192.29 15.858V18.54H1190.59V15.858H1192.29ZM1183.83 15.858H1185.52V17.55H1183.83V15.858ZM1183.83 23.616H1185.52V25.308H1192.29V27H1183.83V23.616ZM1185.52 21.924H1187.21V23.616H1185.52V21.924ZM1187.21 20.232H1188.9V21.924H1187.21V20.232ZM1188.9 18.54H1190.59V20.232H1188.9V18.54Z" fill="#3388FF"/>
<path d="M1227.57 31.038L1218.49 21.984L1227.57 12.912L1236.62 21.984L1227.57 31.038ZM1227.57 29.4L1234.98 21.984L1227.57 14.55L1220.15 21.984L1227.57 29.4ZM1227.57 25.746L1223.79 21.984L1227.57 18.204L1231.35 21.984L1227.57 25.746ZM1243.54 25.368L1238.19 22.704L1243.54 20.022V25.368ZM1244.86 25.368V20.022L1250.2 22.704L1244.86 25.368ZM1260.86 31.038L1251.79 21.984L1260.86 12.912L1269.91 21.984L1260.86 31.038ZM1260.86 29.4L1268.28 21.984L1260.86 14.55L1253.44 21.984L1260.86 29.4ZM1260.86 25.746L1257.08 21.984L1260.86 18.204L1264.64 21.984L1260.86 25.746ZM1276.83 25.368L1271.49 22.704L1276.83 20.022V25.368ZM1278.15 25.368V20.022L1283.49 22.704L1278.15 25.368ZM1294.15 31.038L1285.08 21.984L1294.15 12.912L1303.21 21.984L1294.15 31.038ZM1294.15 29.4L1301.57 21.984L1294.15 14.55L1286.74 21.984L1294.15 29.4ZM1294.15 25.746L1290.37 21.984L1294.15 18.204L1297.93 21.984L1294.15 25.746ZM1310.12 25.368L1304.78 22.704L1310.12 20.022V25.368ZM1311.44 25.368V20.022L1316.79 22.704L1311.44 25.368ZM1327.45 31.038L1318.37 21.984L1327.45 12.912L1336.5 21.984L1327.45 31.038ZM1327.45 29.4L1334.86 21.984L1327.45 14.55L1320.03 21.984L1327.45 29.4ZM1327.45 25.746L1323.67 21.984L1327.45 18.204L1331.23 21.984L1327.45 25.746Z" fill="#80FF9F"/>
<path d="M1366.08 15.858V14.166H1374.54V15.858H1366.08ZM1366.08 15.858V17.55H1364.39V15.858H1366.08ZM1377.92 23.616V25.308H1376.23V23.616H1377.92ZM1374.54 21.924V15.858H1376.23V21.924H1374.54ZM1376.23 25.308V27H1366.08V25.308H1376.23ZM1372.85 21.924H1374.54V23.616H1367.77V21.924H1371.15V19.242H1367.77V17.55H1372.85V21.924ZM1366.08 19.242H1367.77V21.924H1366.08V19.242ZM1366.08 23.616V25.308H1364.39V23.616H1366.08ZM1362.69 17.55H1364.39V23.616H1362.69V17.55ZM1388.1 15.858H1389.79V19.746H1388.1V15.858ZM1388.1 19.746V21.438H1381.31V25.308H1388.1V27H1379.62V14.166H1388.1V15.858H1381.31V19.746H1388.1ZM1388.1 21.438H1389.79V25.308H1388.1V21.438ZM1399.97 25.308V27H1393.18V25.308H1399.97ZM1391.49 14.166H1393.18V25.308H1391.49V14.166ZM1399.97 14.166H1401.66V25.308H1399.97V14.166ZM1405.04 15.858H1403.35V25.308H1405.04V21.438H1410.14V19.746H1405.04V15.876V15.858ZM1411.83 27H1405.04V25.308H1411.83V27ZM1411.83 15.858H1405.04V14.166H1411.83V15.858ZM1416.91 15.858V17.55H1415.22V27H1413.53V14.166H1415.22V15.858H1416.91ZM1423.7 14.166V27H1422.01V25.308H1420.32V23.616H1422.01V14.166H1423.7ZM1416.91 19.242V17.55H1418.61V19.242H1416.91ZM1418.61 23.616V19.242H1420.3V23.616H1418.61ZM1428.8 25.308H1427.11V23.616H1428.8V25.308ZM1433.87 27H1428.8V25.308H1433.87V27ZM1427.11 23.616H1425.4V17.55H1427.11V23.616ZM1433.87 25.308H1435.58V23.616H1433.87V25.308ZM1435.58 23.616H1437.28V17.55H1435.58V23.616ZM1433.87 15.858H1435.58V17.55H1433.87V15.858ZM1428.8 14.166H1433.87V15.858H1428.8V14.166ZM1428.8 15.858H1427.11V17.55H1428.8V15.858ZM1438.97 25.308V23.616H1440.66V25.308H1438.97ZM1447.44 25.308V21.438H1449.14V25.308H1447.44ZM1447.44 17.55V15.858H1449.14V17.55H1447.44ZM1438.97 19.746V15.858H1440.66V19.746H1438.97ZM1440.66 21.438V19.746H1447.44V21.438H1440.66ZM1440.66 15.858V14.166H1447.44V15.858H1440.66ZM1440.66 27V25.308H1447.44V27H1440.66ZM1454.22 15.858V14.166H1457.6V15.858H1454.22ZM1454.22 17.55H1452.52V15.858H1454.22V17.55ZM1460.98 17.55V27H1459.29V23.13H1452.52V27H1450.83V17.55H1452.52V21.438H1459.29V17.55H1460.98ZM1457.6 17.55V15.858H1459.29V17.55H1457.6ZM1462.68 14.166H1464.37V27H1462.68V14.166ZM1474.57 15.858H1476.26V19.746H1474.57V15.858ZM1474.57 19.746V21.438H1476.26V27H1474.57V23.13H1472.88V21.438H1467.78V27H1466.07V14.166H1474.57V15.858H1467.78V19.746H1474.57ZM1479.65 15.858H1477.95V25.308H1479.65V21.438H1484.74V19.746H1479.65V15.876V15.858ZM1486.43 27H1479.65V25.308H1486.43V27ZM1486.43 15.858H1479.65V14.166H1486.43V15.858ZM1488.13 25.308V23.616H1489.82V25.308H1488.13ZM1496.61 25.308V21.438H1498.3V25.308H1496.61ZM1496.61 17.55V15.858H1498.3V17.55H1496.61ZM1488.13 19.746V15.858H1489.82V19.746H1488.13ZM1489.82 21.438V19.746H1496.61V21.438H1489.82ZM1489.82 15.858V14.166H1496.61V15.858H1489.82ZM1489.82 27V25.308H1496.61V27H1489.82Z" fill="#FAF7F5"/>
</svg>
