<svg width="1685" height="44" viewBox="0 0 1685 44" fill="none" xmlns="http://www.w3.org/2000/svg">
<path d="M17.6963 26H20.5583L21.5663 23.138H26.3723L27.3443 26H30.2783L25.4723 13.148H22.5743L17.6963 26ZM23.9783 16.316H24.0143L25.6343 21.032H22.3043L23.9783 16.316ZM42.2945 13.148H39.4685V21.14C39.4685 23.048 38.8205 23.93 36.8045 23.93C34.5185 23.93 34.1585 22.544 34.1585 21.14V13.148H31.3325V21.14C31.3325 24.632 33.3485 26.306 36.8045 26.306C40.2425 26.306 42.2945 24.614 42.2945 21.14V13.148ZM54.3043 26H56.1043V19.052H50.7043V21.158H53.5483C53.3863 22.94 52.3243 23.93 50.4883 23.93C47.9503 23.93 46.9963 21.77 46.9963 19.628C46.9963 17.378 47.9503 15.218 50.4883 15.218C51.8203 15.218 52.8823 15.956 53.2063 17.378H55.9063C55.6003 14.462 53.1163 12.842 50.4883 12.842C46.5103 12.842 44.1703 15.812 44.1703 19.628C44.1703 23.336 46.5103 26.306 50.4883 26.306C51.7303 26.306 53.0263 25.82 54.0163 24.542L54.3043 26ZM69.2103 13.4H67.1763C66.9063 15.326 65.2683 15.938 63.4863 15.902V17.828H66.6543V26H69.2103V13.4ZM79.2123 13.4H77.1783C76.9082 15.326 75.2703 15.938 73.4883 15.902V17.828H76.6562V26H79.2123V13.4ZM83.1122 22.184H88.5302V19.988H83.1122V22.184ZM96.5443 13.4H94.5103C94.2403 15.326 92.6023 15.938 90.8203 15.902V17.828H93.9883V26H96.5443V13.4ZM102.604 18.242C102.604 16.91 103.09 15.344 104.602 15.344C105.7 15.344 106.492 16.1 106.492 17.288C106.474 18.836 104.962 19.61 103.846 20.366C101.668 21.842 99.8862 23.084 99.8682 26H109.12V23.804H103.162C104.08 22.508 105.556 21.788 106.798 20.906C108.04 20.024 109.048 18.98 109.048 17.09C109.048 14.624 107.032 13.148 104.728 13.148C101.704 13.148 100.066 15.362 100.156 18.242H102.604ZM110.446 22.184H115.864V19.988H110.446V22.184ZM123.878 13.4H121.844C121.574 15.326 119.936 15.938 118.154 15.902V17.828H121.322V26H123.878V13.4ZM130.928 20.294C132.17 20.294 133.844 20.258 133.844 22.166C133.844 23.354 132.944 24.146 131.792 24.146C130.316 24.146 129.632 23.03 129.578 21.662H127.148C127.094 24.56 129.002 26.252 131.828 26.252C134.294 26.252 136.508 24.758 136.508 22.112C136.508 20.708 135.662 19.556 134.276 19.25V19.214C135.446 18.89 136.04 17.828 136.04 16.64C136.04 14.39 133.826 13.148 131.81 13.148C129.218 13.148 127.544 14.93 127.454 17.504H129.884C129.866 16.208 130.55 15.254 131.828 15.254C132.764 15.254 133.61 15.866 133.61 16.928C133.61 18.368 132.026 18.584 130.928 18.494V20.294ZM137.78 22.184H143.198V19.988H137.78V22.184ZM151.212 13.4H149.178C148.908 15.326 147.27 15.938 145.488 15.902V17.828H148.656V26H151.212V13.4ZM159.774 26H162.204V23.084H163.878V20.978H162.204V13.4H159.918L154.446 20.744V23.084H159.774V26ZM159.774 20.978H156.462L159.72 16.604H159.774V20.978ZM172.284 18.242C172.284 16.91 172.77 15.344 174.282 15.344C175.38 15.344 176.172 16.1 176.172 17.288C176.154 18.836 174.642 19.61 173.526 20.366C171.348 21.842 169.566 23.084 169.548 26H178.8V23.804H172.842C173.76 22.508 175.236 21.788 176.478 20.906C177.72 20.024 178.728 18.98 178.728 17.09C178.728 14.624 176.712 13.148 174.408 13.148C171.384 13.148 169.746 15.362 169.836 18.242H172.284ZM179.55 19.646C179.55 24.668 181.674 26.252 184.158 26.252C186.678 26.252 188.802 24.668 188.802 19.646C188.802 14.732 186.678 13.148 184.158 13.148C181.674 13.148 179.55 14.732 179.55 19.646ZM182.106 19.646C182.106 18.332 182.106 15.254 184.158 15.254C186.246 15.254 186.246 18.332 186.246 19.646C186.246 21.068 186.246 24.146 184.158 24.146C182.106 24.146 182.106 21.068 182.106 19.646ZM192.288 18.242C192.288 16.91 192.774 15.344 194.286 15.344C195.384 15.344 196.176 16.1 196.176 17.288C196.158 18.836 194.646 19.61 193.53 20.366C191.352 21.842 189.57 23.084 189.552 26H198.804V23.804H192.846C193.764 22.508 195.24 21.788 196.482 20.906C197.724 20.024 198.732 18.98 198.732 17.09C198.732 14.624 196.716 13.148 194.412 13.148C191.388 13.148 189.75 15.362 189.84 18.242H192.288ZM202.29 18.242C202.29 16.91 202.776 15.344 204.288 15.344C205.386 15.344 206.178 16.1 206.178 17.288C206.16 18.836 204.648 19.61 203.532 20.366C201.354 21.842 199.572 23.084 199.554 26H208.806V23.804H202.848C203.766 22.508 205.242 21.788 206.484 20.906C207.726 20.024 208.734 18.98 208.734 17.09C208.734 14.624 206.718 13.148 204.414 13.148C201.39 13.148 199.752 15.362 199.842 18.242H202.29Z" fill="#80FF9F"/>
<path d="M245.536 15.63L234.772 26.394V15.63H245.536ZM247.376 28.5L258.14 17.736V28.5H247.376ZM264.989 17.736L275.753 28.5H264.989V17.736ZM288.357 26.394L277.593 15.63H288.357V26.394ZM305.97 15.63L295.206 26.394V15.63H305.97ZM307.81 28.5L318.574 17.736V28.5H307.81ZM325.423 17.736L336.187 28.5H325.423V17.736ZM348.79 26.394L338.026 15.63H348.79V26.394ZM366.404 15.63L355.64 26.394V15.63H366.404ZM368.243 28.5L379.007 17.736V28.5H368.243ZM385.856 17.736L396.62 28.5H385.856V17.736ZM409.224 26.394L398.46 15.63H409.224V26.394Z" fill="#3388FF"/>
<path d="M440.184 20.258C440.184 19.07 441.12 17.612 442.416 17.612C443.19 17.612 443.802 18.26 443.802 19.142C443.802 20.384 442.884 21.86 441.588 21.86C440.76 21.86 440.184 21.212 440.184 20.258ZM446.142 16.19H444.666L444.378 17.162C443.964 16.226 443.046 15.902 442.272 15.902C439.896 15.902 438.348 18.224 438.348 20.492C438.348 22.166 439.626 23.57 441.174 23.57C441.93 23.57 442.686 23.246 443.118 22.526H443.154C443.19 23.12 443.712 23.552 444.468 23.552C445.62 23.552 448.698 22.04 448.698 18.332C448.698 15.02 445.71 12.842 442.434 12.842C438.69 12.842 435.594 15.776 435.594 19.574C435.594 23.426 438.69 26.306 442.524 26.306C444.774 26.306 446.79 25.244 448.014 23.39H446.502C445.566 24.326 444.144 24.866 442.632 24.866C439.536 24.866 437.322 22.76 437.322 19.61C437.322 16.568 439.32 14.282 442.416 14.282C445.152 14.282 447.294 15.848 447.294 18.71C447.294 20.636 446.196 22.022 445.17 22.022C444.72 22.022 444.864 21.32 445.008 20.834L446.142 16.19ZM453.411 20.276H456.489C457.695 20.276 458.523 20.798 458.523 22.112C458.523 23.444 457.551 23.804 456.435 23.804H453.411V20.276ZM450.585 26H456.813C459.135 26 461.349 24.884 461.349 22.274C461.349 20.672 460.557 19.466 458.991 19.016C460.107 18.476 460.737 17.594 460.737 16.334C460.737 13.94 459.081 13.148 456.633 13.148H450.585V26ZM453.411 15.344H456.057C457.065 15.344 458.001 15.596 458.001 16.82C458.001 17.9 457.263 18.35 456.273 18.35H453.411V15.344ZM474.167 13.148H471.341V21.14C471.341 23.048 470.693 23.93 468.677 23.93C466.391 23.93 466.031 22.544 466.031 21.14V13.148H463.205V21.14C463.205 24.632 465.221 26.306 468.677 26.306C472.115 26.306 474.167 24.614 474.167 21.14V13.148ZM476.6 26H486.356V23.624H479.426V20.474H485.654V18.278H479.426V15.524H486.212V13.148H476.6V26ZM488.272 26H490.918V17.396H490.954L496.3 26H499.126V13.148H496.48V21.77H496.444L491.08 13.148H488.272V26ZM501.056 19.628C501.056 23.336 503.396 26.306 507.374 26.306C511.352 26.306 513.692 23.336 513.692 19.628C513.692 15.812 511.352 12.842 507.374 12.842C503.396 12.842 501.056 15.812 501.056 19.628ZM503.882 19.628C503.882 17.378 504.836 15.218 507.374 15.218C509.912 15.218 510.866 17.378 510.866 19.628C510.866 21.77 509.912 23.93 507.374 23.93C504.836 23.93 503.882 21.77 503.882 19.628ZM514.814 21.734C514.778 24.902 517.442 26.306 520.286 26.306C523.778 26.306 525.632 24.542 525.632 22.184C525.632 19.268 522.752 18.674 521.816 18.44C518.594 17.612 517.982 17.486 517.982 16.496C517.982 15.416 519.026 15.038 519.926 15.038C521.276 15.038 522.374 15.434 522.464 16.982H525.2C525.2 14.012 522.734 12.842 520.052 12.842C517.73 12.842 515.246 14.102 515.246 16.73C515.246 19.142 517.172 19.88 519.08 20.384C520.97 20.888 522.896 21.122 522.896 22.508C522.896 23.822 521.384 24.11 520.394 24.11C518.882 24.11 517.55 23.444 517.55 21.734H514.814ZM525.945 26H528.807L529.815 23.138H534.621L535.593 26H538.527L533.721 13.148H530.823L525.945 26ZM532.227 16.316H532.263L533.883 21.032H530.553L532.227 16.316ZM539.636 26H542.462V13.148H539.636V26ZM544.944 26H547.77V20.978H550.596C552.018 20.978 552.54 21.572 552.738 22.922C552.882 23.948 552.846 25.19 553.188 26H556.014C555.51 25.28 555.528 23.768 555.474 22.958C555.384 21.662 554.988 20.312 553.602 19.952V19.916C555.024 19.34 555.636 18.206 555.636 16.694C555.636 14.75 554.178 13.148 551.874 13.148H544.944V26ZM547.77 15.344H550.866C552.126 15.344 552.81 15.884 552.81 17.126C552.81 18.422 552.126 18.962 550.866 18.962H547.77V15.344ZM557.934 26H567.69V23.624H560.76V20.474H566.988V18.278H560.76V15.524H567.546V13.148H557.934V26ZM568.796 21.734C568.76 24.902 571.424 26.306 574.268 26.306C577.76 26.306 579.614 24.542 579.614 22.184C579.614 19.268 576.734 18.674 575.798 18.44C572.576 17.612 571.964 17.486 571.964 16.496C571.964 15.416 573.008 15.038 573.908 15.038C575.258 15.038 576.356 15.434 576.446 16.982H579.182C579.182 14.012 576.716 12.842 574.034 12.842C571.712 12.842 569.228 14.102 569.228 16.73C569.228 19.142 571.154 19.88 573.062 20.384C574.952 20.888 576.878 21.122 576.878 22.508C576.878 23.822 575.366 24.11 574.376 24.11C572.864 24.11 571.532 23.444 571.532 21.734H568.796Z" fill="#FF6A4C"/>
<path d="M604.696 26H607.558L608.566 23.138H613.372L614.344 26H617.278L612.472 13.148H609.574L604.696 26ZM610.978 16.316H611.014L612.634 21.032H609.304L610.978 16.316ZM629.295 13.148H626.469V21.14C626.469 23.048 625.821 23.93 623.805 23.93C621.519 23.93 621.159 22.544 621.159 21.14V13.148H618.333V21.14C618.333 24.632 620.349 26.306 623.805 26.306C627.243 26.306 629.295 24.614 629.295 21.14V13.148ZM641.304 26H643.104V19.052H637.704V21.158H640.548C640.386 22.94 639.324 23.93 637.488 23.93C634.95 23.93 633.996 21.77 633.996 19.628C633.996 17.378 634.95 15.218 637.488 15.218C638.82 15.218 639.882 15.956 640.206 17.378H642.906C642.6 14.462 640.116 12.842 637.488 12.842C633.51 12.842 631.17 15.812 631.17 19.628C631.17 23.336 633.51 26.306 637.488 26.306C638.73 26.306 640.026 25.82 641.016 24.542L641.304 26ZM656.21 13.4H654.176C653.906 15.326 652.268 15.938 650.486 15.902V17.828H653.654V26H656.21V13.4ZM666.212 13.4H664.178C663.908 15.326 662.27 15.938 660.488 15.902V17.828H663.656V26H666.212V13.4ZM670.112 22.184H675.53V19.988H670.112V22.184ZM683.544 13.4H681.51C681.24 15.326 679.602 15.938 677.82 15.902V17.828H680.988V26H683.544V13.4ZM689.604 18.242C689.604 16.91 690.09 15.344 691.602 15.344C692.7 15.344 693.492 16.1 693.492 17.288C693.474 18.836 691.962 19.61 690.846 20.366C688.668 21.842 686.886 23.084 686.868 26H696.12V23.804H690.162C691.08 22.508 692.556 21.788 693.798 20.906C695.04 20.024 696.048 18.98 696.048 17.09C696.048 14.624 694.032 13.148 691.728 13.148C688.704 13.148 687.066 15.362 687.156 18.242H689.604ZM697.446 22.184H702.864V19.988H697.446V22.184ZM710.878 13.4H708.844C708.574 15.326 706.936 15.938 705.154 15.902V17.828H708.322V26H710.878V13.4ZM717.928 20.294C719.17 20.294 720.844 20.258 720.844 22.166C720.844 23.354 719.944 24.146 718.792 24.146C717.316 24.146 716.632 23.03 716.578 21.662H714.148C714.094 24.56 716.002 26.252 718.828 26.252C721.294 26.252 723.508 24.758 723.508 22.112C723.508 20.708 722.662 19.556 721.276 19.25V19.214C722.446 18.89 723.04 17.828 723.04 16.64C723.04 14.39 720.826 13.148 718.81 13.148C716.218 13.148 714.544 14.93 714.454 17.504H716.884C716.866 16.208 717.55 15.254 718.828 15.254C719.764 15.254 720.61 15.866 720.61 16.928C720.61 18.368 719.026 18.584 717.928 18.494V20.294ZM724.78 22.184H730.198V19.988H724.78V22.184ZM738.212 13.4H736.178C735.908 15.326 734.27 15.938 732.488 15.902V17.828H735.656V26H738.212V13.4ZM746.774 26H749.204V23.084H750.878V20.978H749.204V13.4H746.918L741.446 20.744V23.084H746.774V26ZM746.774 20.978H743.462L746.72 16.604H746.774V20.978ZM759.284 18.242C759.284 16.91 759.77 15.344 761.282 15.344C762.38 15.344 763.172 16.1 763.172 17.288C763.154 18.836 761.642 19.61 760.526 20.366C758.348 21.842 756.566 23.084 756.548 26H765.8V23.804H759.842C760.76 22.508 762.236 21.788 763.478 20.906C764.72 20.024 765.728 18.98 765.728 17.09C765.728 14.624 763.712 13.148 761.408 13.148C758.384 13.148 756.746 15.362 756.836 18.242H759.284ZM766.55 19.646C766.55 24.668 768.674 26.252 771.158 26.252C773.678 26.252 775.802 24.668 775.802 19.646C775.802 14.732 773.678 13.148 771.158 13.148C768.674 13.148 766.55 14.732 766.55 19.646ZM769.106 19.646C769.106 18.332 769.106 15.254 771.158 15.254C773.246 15.254 773.246 18.332 773.246 19.646C773.246 21.068 773.246 24.146 771.158 24.146C769.106 24.146 769.106 21.068 769.106 19.646ZM779.288 18.242C779.288 16.91 779.774 15.344 781.286 15.344C782.384 15.344 783.176 16.1 783.176 17.288C783.158 18.836 781.646 19.61 780.53 20.366C778.352 21.842 776.57 23.084 776.552 26H785.804V23.804H779.846C780.764 22.508 782.24 21.788 783.482 20.906C784.724 20.024 785.732 18.98 785.732 17.09C785.732 14.624 783.716 13.148 781.412 13.148C778.388 13.148 776.75 15.362 776.84 18.242H779.288ZM789.29 18.242C789.29 16.91 789.776 15.344 791.288 15.344C792.386 15.344 793.178 16.1 793.178 17.288C793.16 18.836 791.648 19.61 790.532 20.366C788.354 21.842 786.572 23.084 786.554 26H795.806V23.804H789.848C790.766 22.508 792.242 21.788 793.484 20.906C794.726 20.024 795.734 18.98 795.734 17.09C795.734 14.624 793.718 13.148 791.414 13.148C788.39 13.148 786.752 15.362 786.842 18.242H789.29Z" fill="#DCF908"/>
<path d="M821.433 28.5L828.687 15.954L835.923 28.5H821.433ZM845.017 28.5L837.763 15.954H852.253L845.017 28.5ZM854.093 28.5L861.347 15.954L868.583 28.5H854.093ZM877.677 28.5L870.423 15.954H884.913L877.677 28.5ZM886.753 28.5L894.007 15.954L901.243 28.5H886.753ZM910.337 28.5L903.083 15.954H917.573L910.337 28.5ZM919.413 28.5L926.667 15.954L933.903 28.5H919.413ZM942.997 28.5L935.743 15.954H950.233L942.997 28.5ZM952.073 28.5L959.327 15.954L966.563 28.5H952.073Z" fill="white"/>
<path d="M997.184 20.258C997.184 19.07 998.12 17.612 999.416 17.612C1000.19 17.612 1000.8 18.26 1000.8 19.142C1000.8 20.384 999.884 21.86 998.588 21.86C997.76 21.86 997.184 21.212 997.184 20.258ZM1003.14 16.19H1001.67L1001.38 17.162C1000.96 16.226 1000.05 15.902 999.272 15.902C996.896 15.902 995.348 18.224 995.348 20.492C995.348 22.166 996.626 23.57 998.174 23.57C998.93 23.57 999.686 23.246 1000.12 22.526H1000.15C1000.19 23.12 1000.71 23.552 1001.47 23.552C1002.62 23.552 1005.7 22.04 1005.7 18.332C1005.7 15.02 1002.71 12.842 999.434 12.842C995.69 12.842 992.594 15.776 992.594 19.574C992.594 23.426 995.69 26.306 999.524 26.306C1001.77 26.306 1003.79 25.244 1005.01 23.39H1003.5C1002.57 24.326 1001.14 24.866 999.632 24.866C996.536 24.866 994.322 22.76 994.322 19.61C994.322 16.568 996.32 14.282 999.416 14.282C1002.15 14.282 1004.29 15.848 1004.29 18.71C1004.29 20.636 1003.2 22.022 1002.17 22.022C1001.72 22.022 1001.86 21.32 1002.01 20.834L1003.14 16.19ZM1010.41 20.276H1013.49C1014.69 20.276 1015.52 20.798 1015.52 22.112C1015.52 23.444 1014.55 23.804 1013.43 23.804H1010.41V20.276ZM1007.58 26H1013.81C1016.13 26 1018.35 24.884 1018.35 22.274C1018.35 20.672 1017.56 19.466 1015.99 19.016C1017.11 18.476 1017.74 17.594 1017.74 16.334C1017.74 13.94 1016.08 13.148 1013.63 13.148H1007.58V26ZM1010.41 15.344H1013.06C1014.06 15.344 1015 15.596 1015 16.82C1015 17.9 1014.26 18.35 1013.27 18.35H1010.41V15.344ZM1031.17 13.148H1028.34V21.14C1028.34 23.048 1027.69 23.93 1025.68 23.93C1023.39 23.93 1023.03 22.544 1023.03 21.14V13.148H1020.2V21.14C1020.2 24.632 1022.22 26.306 1025.68 26.306C1029.11 26.306 1031.17 24.614 1031.17 21.14V13.148ZM1033.6 26H1043.36V23.624H1036.43V20.474H1042.65V18.278H1036.43V15.524H1043.21V13.148H1033.6V26ZM1045.27 26H1047.92V17.396H1047.95L1053.3 26H1056.13V13.148H1053.48V21.77H1053.44L1048.08 13.148H1045.27V26ZM1058.06 19.628C1058.06 23.336 1060.4 26.306 1064.37 26.306C1068.35 26.306 1070.69 23.336 1070.69 19.628C1070.69 15.812 1068.35 12.842 1064.37 12.842C1060.4 12.842 1058.06 15.812 1058.06 19.628ZM1060.88 19.628C1060.88 17.378 1061.84 15.218 1064.37 15.218C1066.91 15.218 1067.87 17.378 1067.87 19.628C1067.87 21.77 1066.91 23.93 1064.37 23.93C1061.84 23.93 1060.88 21.77 1060.88 19.628ZM1071.81 21.734C1071.78 24.902 1074.44 26.306 1077.29 26.306C1080.78 26.306 1082.63 24.542 1082.63 22.184C1082.63 19.268 1079.75 18.674 1078.82 18.44C1075.59 17.612 1074.98 17.486 1074.98 16.496C1074.98 15.416 1076.03 15.038 1076.93 15.038C1078.28 15.038 1079.37 15.434 1079.46 16.982H1082.2C1082.2 14.012 1079.73 12.842 1077.05 12.842C1074.73 12.842 1072.25 14.102 1072.25 16.73C1072.25 19.142 1074.17 19.88 1076.08 20.384C1077.97 20.888 1079.9 21.122 1079.9 22.508C1079.9 23.822 1078.38 24.11 1077.39 24.11C1075.88 24.11 1074.55 23.444 1074.55 21.734H1071.81ZM1082.95 26H1085.81L1086.82 23.138H1091.62L1092.59 26H1095.53L1090.72 13.148H1087.82L1082.95 26ZM1089.23 16.316H1089.26L1090.88 21.032H1087.55L1089.23 16.316ZM1096.64 26H1099.46V13.148H1096.64V26ZM1101.94 26H1104.77V20.978H1107.6C1109.02 20.978 1109.54 21.572 1109.74 22.922C1109.88 23.948 1109.85 25.19 1110.19 26H1113.01C1112.51 25.28 1112.53 23.768 1112.47 22.958C1112.38 21.662 1111.99 20.312 1110.6 19.952V19.916C1112.02 19.34 1112.64 18.206 1112.64 16.694C1112.64 14.75 1111.18 13.148 1108.87 13.148H1101.94V26ZM1104.77 15.344H1107.87C1109.13 15.344 1109.81 15.884 1109.81 17.126C1109.81 18.422 1109.13 18.962 1107.87 18.962H1104.77V15.344ZM1114.93 26H1124.69V23.624H1117.76V20.474H1123.99V18.278H1117.76V15.524H1124.55V13.148H1114.93V26ZM1125.8 21.734C1125.76 24.902 1128.42 26.306 1131.27 26.306C1134.76 26.306 1136.61 24.542 1136.61 22.184C1136.61 19.268 1133.73 18.674 1132.8 18.44C1129.58 17.612 1128.96 17.486 1128.96 16.496C1128.96 15.416 1130.01 15.038 1130.91 15.038C1132.26 15.038 1133.36 15.434 1133.45 16.982H1136.18C1136.18 14.012 1133.72 12.842 1131.03 12.842C1128.71 12.842 1126.23 14.102 1126.23 16.73C1126.23 19.142 1128.15 19.88 1130.06 20.384C1131.95 20.888 1133.88 21.122 1133.88 22.508C1133.88 23.822 1132.37 24.11 1131.38 24.11C1129.86 24.11 1128.53 23.444 1128.53 21.734H1125.8Z" fill="#E573E5"/>
<path d="M1161.7 26H1164.56L1165.57 23.138H1170.37L1171.34 26H1174.28L1169.47 13.148H1166.57L1161.7 26ZM1167.98 16.316H1168.01L1169.63 21.032H1166.3L1167.98 16.316ZM1186.29 13.148H1183.47V21.14C1183.47 23.048 1182.82 23.93 1180.8 23.93C1178.52 23.93 1178.16 22.544 1178.16 21.14V13.148H1175.33V21.14C1175.33 24.632 1177.35 26.306 1180.8 26.306C1184.24 26.306 1186.29 24.614 1186.29 21.14V13.148ZM1198.3 26H1200.1V19.052H1194.7V21.158H1197.55C1197.39 22.94 1196.32 23.93 1194.49 23.93C1191.95 23.93 1191 21.77 1191 19.628C1191 17.378 1191.95 15.218 1194.49 15.218C1195.82 15.218 1196.88 15.956 1197.21 17.378H1199.91C1199.6 14.462 1197.12 12.842 1194.49 12.842C1190.51 12.842 1188.17 15.812 1188.17 19.628C1188.17 23.336 1190.51 26.306 1194.49 26.306C1195.73 26.306 1197.03 25.82 1198.02 24.542L1198.3 26ZM1213.21 13.4H1211.18C1210.91 15.326 1209.27 15.938 1207.49 15.902V17.828H1210.65V26H1213.21V13.4ZM1223.21 13.4H1221.18C1220.91 15.326 1219.27 15.938 1217.49 15.902V17.828H1220.66V26H1223.21V13.4ZM1227.11 22.184H1232.53V19.988H1227.11V22.184ZM1240.54 13.4H1238.51C1238.24 15.326 1236.6 15.938 1234.82 15.902V17.828H1237.99V26H1240.54V13.4ZM1246.6 18.242C1246.6 16.91 1247.09 15.344 1248.6 15.344C1249.7 15.344 1250.49 16.1 1250.49 17.288C1250.47 18.836 1248.96 19.61 1247.85 20.366C1245.67 21.842 1243.89 23.084 1243.87 26H1253.12V23.804H1247.16C1248.08 22.508 1249.56 21.788 1250.8 20.906C1252.04 20.024 1253.05 18.98 1253.05 17.09C1253.05 14.624 1251.03 13.148 1248.73 13.148C1245.7 13.148 1244.07 15.362 1244.16 18.242H1246.6ZM1254.45 22.184H1259.86V19.988H1254.45V22.184ZM1267.88 13.4H1265.84C1265.57 15.326 1263.94 15.938 1262.15 15.902V17.828H1265.32V26H1267.88V13.4ZM1274.93 20.294C1276.17 20.294 1277.84 20.258 1277.84 22.166C1277.84 23.354 1276.94 24.146 1275.79 24.146C1274.32 24.146 1273.63 23.03 1273.58 21.662H1271.15C1271.09 24.56 1273 26.252 1275.83 26.252C1278.29 26.252 1280.51 24.758 1280.51 22.112C1280.51 20.708 1279.66 19.556 1278.28 19.25V19.214C1279.45 18.89 1280.04 17.828 1280.04 16.64C1280.04 14.39 1277.83 13.148 1275.81 13.148C1273.22 13.148 1271.54 14.93 1271.45 17.504H1273.88C1273.87 16.208 1274.55 15.254 1275.83 15.254C1276.76 15.254 1277.61 15.866 1277.61 16.928C1277.61 18.368 1276.03 18.584 1274.93 18.494V20.294ZM1281.78 22.184H1287.2V19.988H1281.78V22.184ZM1295.21 13.4H1293.18C1292.91 15.326 1291.27 15.938 1289.49 15.902V17.828H1292.66V26H1295.21V13.4ZM1303.77 26H1306.2V23.084H1307.88V20.978H1306.2V13.4H1303.92L1298.45 20.744V23.084H1303.77V26ZM1303.77 20.978H1300.46L1303.72 16.604H1303.77V20.978ZM1316.28 18.242C1316.28 16.91 1316.77 15.344 1318.28 15.344C1319.38 15.344 1320.17 16.1 1320.17 17.288C1320.15 18.836 1318.64 19.61 1317.53 20.366C1315.35 21.842 1313.57 23.084 1313.55 26H1322.8V23.804H1316.84C1317.76 22.508 1319.24 21.788 1320.48 20.906C1321.72 20.024 1322.73 18.98 1322.73 17.09C1322.73 14.624 1320.71 13.148 1318.41 13.148C1315.38 13.148 1313.75 15.362 1313.84 18.242H1316.28ZM1323.55 19.646C1323.55 24.668 1325.67 26.252 1328.16 26.252C1330.68 26.252 1332.8 24.668 1332.8 19.646C1332.8 14.732 1330.68 13.148 1328.16 13.148C1325.67 13.148 1323.55 14.732 1323.55 19.646ZM1326.11 19.646C1326.11 18.332 1326.11 15.254 1328.16 15.254C1330.25 15.254 1330.25 18.332 1330.25 19.646C1330.25 21.068 1330.25 24.146 1328.16 24.146C1326.11 24.146 1326.11 21.068 1326.11 19.646ZM1336.29 18.242C1336.29 16.91 1336.77 15.344 1338.29 15.344C1339.38 15.344 1340.18 16.1 1340.18 17.288C1340.16 18.836 1338.65 19.61 1337.53 20.366C1335.35 21.842 1333.57 23.084 1333.55 26H1342.8V23.804H1336.85C1337.76 22.508 1339.24 21.788 1340.48 20.906C1341.72 20.024 1342.73 18.98 1342.73 17.09C1342.73 14.624 1340.72 13.148 1338.41 13.148C1335.39 13.148 1333.75 15.362 1333.84 18.242H1336.29ZM1346.29 18.242C1346.29 16.91 1346.78 15.344 1348.29 15.344C1349.39 15.344 1350.18 16.1 1350.18 17.288C1350.16 18.836 1348.65 19.61 1347.53 20.366C1345.35 21.842 1343.57 23.084 1343.55 26H1352.81V23.804H1346.85C1347.77 22.508 1349.24 21.788 1350.48 20.906C1351.73 20.024 1352.73 18.98 1352.73 17.09C1352.73 14.624 1350.72 13.148 1348.41 13.148C1345.39 13.148 1343.75 15.362 1343.84 18.242H1346.29Z" fill="#3388FF"/>
<path d="M1387.57 31.038L1378.49 21.984L1387.57 12.912L1396.62 21.984L1387.57 31.038ZM1387.57 29.4L1394.98 21.984L1387.57 14.55L1380.15 21.984L1387.57 29.4ZM1387.57 25.746L1383.79 21.984L1387.57 18.204L1391.35 21.984L1387.57 25.746ZM1403.54 25.368L1398.19 22.704L1403.54 20.022V25.368ZM1404.86 25.368V20.022L1410.2 22.704L1404.86 25.368ZM1420.86 31.038L1411.79 21.984L1420.86 12.912L1429.91 21.984L1420.86 31.038ZM1420.86 29.4L1428.28 21.984L1420.86 14.55L1413.44 21.984L1420.86 29.4ZM1420.86 25.746L1417.08 21.984L1420.86 18.204L1424.64 21.984L1420.86 25.746ZM1436.83 25.368L1431.49 22.704L1436.83 20.022V25.368ZM1438.15 25.368V20.022L1443.49 22.704L1438.15 25.368ZM1454.15 31.038L1445.08 21.984L1454.15 12.912L1463.21 21.984L1454.15 31.038ZM1454.15 29.4L1461.57 21.984L1454.15 14.55L1446.74 21.984L1454.15 29.4ZM1454.15 25.746L1450.37 21.984L1454.15 18.204L1457.93 21.984L1454.15 25.746ZM1470.12 25.368L1464.78 22.704L1470.12 20.022V25.368ZM1471.44 25.368V20.022L1476.79 22.704L1471.44 25.368ZM1487.45 31.038L1478.37 21.984L1487.45 12.912L1496.5 21.984L1487.45 31.038ZM1487.45 29.4L1494.86 21.984L1487.45 14.55L1480.03 21.984L1487.45 29.4ZM1487.45 25.746L1483.67 21.984L1487.45 18.204L1491.23 21.984L1487.45 25.746Z" fill="#80FF9F"/>
<path d="M1527.18 20.258C1527.18 19.07 1528.12 17.612 1529.42 17.612C1530.19 17.612 1530.8 18.26 1530.8 19.142C1530.8 20.384 1529.88 21.86 1528.59 21.86C1527.76 21.86 1527.18 21.212 1527.18 20.258ZM1533.14 16.19H1531.67L1531.38 17.162C1530.96 16.226 1530.05 15.902 1529.27 15.902C1526.9 15.902 1525.35 18.224 1525.35 20.492C1525.35 22.166 1526.63 23.57 1528.17 23.57C1528.93 23.57 1529.69 23.246 1530.12 22.526H1530.15C1530.19 23.12 1530.71 23.552 1531.47 23.552C1532.62 23.552 1535.7 22.04 1535.7 18.332C1535.7 15.02 1532.71 12.842 1529.43 12.842C1525.69 12.842 1522.59 15.776 1522.59 19.574C1522.59 23.426 1525.69 26.306 1529.52 26.306C1531.77 26.306 1533.79 25.244 1535.01 23.39H1533.5C1532.57 24.326 1531.14 24.866 1529.63 24.866C1526.54 24.866 1524.32 22.76 1524.32 19.61C1524.32 16.568 1526.32 14.282 1529.42 14.282C1532.15 14.282 1534.29 15.848 1534.29 18.71C1534.29 20.636 1533.2 22.022 1532.17 22.022C1531.72 22.022 1531.86 21.32 1532.01 20.834L1533.14 16.19ZM1540.41 20.276H1543.49C1544.69 20.276 1545.52 20.798 1545.52 22.112C1545.52 23.444 1544.55 23.804 1543.43 23.804H1540.41V20.276ZM1537.58 26H1543.81C1546.13 26 1548.35 24.884 1548.35 22.274C1548.35 20.672 1547.56 19.466 1545.99 19.016C1547.11 18.476 1547.74 17.594 1547.74 16.334C1547.74 13.94 1546.08 13.148 1543.63 13.148H1537.58V26ZM1540.41 15.344H1543.06C1544.06 15.344 1545 15.596 1545 16.82C1545 17.9 1544.26 18.35 1543.27 18.35H1540.41V15.344ZM1561.17 13.148H1558.34V21.14C1558.34 23.048 1557.69 23.93 1555.68 23.93C1553.39 23.93 1553.03 22.544 1553.03 21.14V13.148H1550.2V21.14C1550.2 24.632 1552.22 26.306 1555.68 26.306C1559.11 26.306 1561.17 24.614 1561.17 21.14V13.148ZM1563.6 26H1573.36V23.624H1566.43V20.474H1572.65V18.278H1566.43V15.524H1573.21V13.148H1563.6V26ZM1575.27 26H1577.92V17.396H1577.95L1583.3 26H1586.13V13.148H1583.48V21.77H1583.44L1578.08 13.148H1575.27V26ZM1588.06 19.628C1588.06 23.336 1590.4 26.306 1594.37 26.306C1598.35 26.306 1600.69 23.336 1600.69 19.628C1600.69 15.812 1598.35 12.842 1594.37 12.842C1590.4 12.842 1588.06 15.812 1588.06 19.628ZM1590.88 19.628C1590.88 17.378 1591.84 15.218 1594.37 15.218C1596.91 15.218 1597.87 17.378 1597.87 19.628C1597.87 21.77 1596.91 23.93 1594.37 23.93C1591.84 23.93 1590.88 21.77 1590.88 19.628ZM1601.81 21.734C1601.78 24.902 1604.44 26.306 1607.29 26.306C1610.78 26.306 1612.63 24.542 1612.63 22.184C1612.63 19.268 1609.75 18.674 1608.82 18.44C1605.59 17.612 1604.98 17.486 1604.98 16.496C1604.98 15.416 1606.03 15.038 1606.93 15.038C1608.28 15.038 1609.37 15.434 1609.46 16.982H1612.2C1612.2 14.012 1609.73 12.842 1607.05 12.842C1604.73 12.842 1602.25 14.102 1602.25 16.73C1602.25 19.142 1604.17 19.88 1606.08 20.384C1607.97 20.888 1609.9 21.122 1609.9 22.508C1609.9 23.822 1608.38 24.11 1607.39 24.11C1605.88 24.11 1604.55 23.444 1604.55 21.734H1601.81ZM1612.95 26H1615.81L1616.82 23.138H1621.62L1622.59 26H1625.53L1620.72 13.148H1617.82L1612.95 26ZM1619.23 16.316H1619.26L1620.88 21.032H1617.55L1619.23 16.316ZM1626.64 26H1629.46V13.148H1626.64V26ZM1631.94 26H1634.77V20.978H1637.6C1639.02 20.978 1639.54 21.572 1639.74 22.922C1639.88 23.948 1639.85 25.19 1640.19 26H1643.01C1642.51 25.28 1642.53 23.768 1642.47 22.958C1642.38 21.662 1641.99 20.312 1640.6 19.952V19.916C1642.02 19.34 1642.64 18.206 1642.64 16.694C1642.64 14.75 1641.18 13.148 1638.87 13.148H1631.94V26ZM1634.77 15.344H1637.87C1639.13 15.344 1639.81 15.884 1639.81 17.126C1639.81 18.422 1639.13 18.962 1637.87 18.962H1634.77V15.344ZM1644.93 26H1654.69V23.624H1647.76V20.474H1653.99V18.278H1647.76V15.524H1654.55V13.148H1644.93V26ZM1655.8 21.734C1655.76 24.902 1658.42 26.306 1661.27 26.306C1664.76 26.306 1666.61 24.542 1666.61 22.184C1666.61 19.268 1663.73 18.674 1662.8 18.44C1659.58 17.612 1658.96 17.486 1658.96 16.496C1658.96 15.416 1660.01 15.038 1660.91 15.038C1662.26 15.038 1663.36 15.434 1663.45 16.982H1666.18C1666.18 14.012 1663.72 12.842 1661.03 12.842C1658.71 12.842 1656.23 14.102 1656.23 16.73C1656.23 19.142 1658.15 19.88 1660.06 20.384C1661.95 20.888 1663.88 21.122 1663.88 22.508C1663.88 23.822 1662.37 24.11 1661.38 24.11C1659.86 24.11 1658.53 23.444 1658.53 21.734H1655.8Z" fill="#FAF7F5"/>
</svg>
