<svg width="1712" height="46" viewBox="0 0 1712 46" fill="none" xmlns="http://www.w3.org/2000/svg">
<path d="M28.2589 30.112C27.2749 30.112 26.3509 29.926 25.4869 29.554C24.6229 29.194 23.8609 28.69 23.2009 28.042C22.5529 27.382 22.0429 26.62 21.6709 25.756C21.3109 24.892 21.1309 23.968 21.1309 22.984C21.1309 21.988 21.3109 21.064 21.6709 20.212C22.0429 19.348 22.5529 18.592 23.2009 17.944C23.8609 17.284 24.6229 16.774 25.4869 16.414C26.3509 16.042 27.2749 15.856 28.2589 15.856C29.2549 15.856 30.1789 16.042 31.0309 16.414C31.8949 16.774 32.6509 17.284 33.2989 17.944C33.9589 18.592 34.4689 19.348 34.8289 20.212C35.2009 21.064 35.3869 21.988 35.3869 22.984C35.3869 23.968 35.2009 24.892 34.8289 25.756C34.4689 26.62 33.9589 27.382 33.2989 28.042C32.6509 28.69 31.8949 29.194 31.0309 29.554C30.1789 29.926 29.2549 30.112 28.2589 30.112ZM28.2589 29.356V16.612C27.3709 16.612 26.5429 16.78 25.7749 17.116C25.0069 17.44 24.3289 17.896 23.7409 18.484C23.1649 19.06 22.7089 19.732 22.3729 20.5C22.0489 21.268 21.8869 22.096 21.8869 22.984C21.8869 23.872 22.0489 24.7 22.3729 25.468C22.7089 26.236 23.1649 26.914 23.7409 27.502C24.3289 28.078 25.0069 28.534 25.7749 28.87C26.5429 29.194 27.3709 29.356 28.2589 29.356ZM49.3526 30.112C48.3686 30.112 47.4446 29.926 46.5806 29.554C45.7286 29.194 44.9726 28.69 44.3126 28.042C43.6646 27.382 43.1546 26.62 42.7826 25.756C42.4106 24.892 42.2246 23.968 42.2246 22.984C42.2246 22 42.4106 21.076 42.7826 20.212C43.1546 19.348 43.6646 18.592 44.3126 17.944C44.9726 17.284 45.7286 16.774 46.5806 16.414C47.4446 16.042 48.3686 15.856 49.3526 15.856C50.3366 15.856 51.2606 16.042 52.1246 16.414C52.9886 16.774 53.7446 17.284 54.3926 17.944C55.0526 18.592 55.5626 19.348 55.9226 20.212C56.2946 21.076 56.4806 22 56.4806 22.984C56.4806 23.968 56.2946 24.892 55.9226 25.756C55.5626 26.62 55.0526 27.382 54.3926 28.042C53.7446 28.69 52.9886 29.194 52.1246 29.554C51.2606 29.926 50.3366 30.112 49.3526 30.112ZM49.3526 28.87C50.1686 28.87 50.9306 28.72 51.6386 28.42C52.3466 28.108 52.9706 27.682 53.5106 27.142C54.0506 26.602 54.4706 25.978 54.7706 25.27C55.0826 24.562 55.2386 23.8 55.2386 22.984C55.2386 22.168 55.0826 21.406 54.7706 20.698C54.4706 19.99 54.0506 19.366 53.5106 18.826C52.9706 18.286 52.3466 17.866 51.6386 17.566C50.9306 17.254 50.1686 17.098 49.3526 17.098C48.5366 17.098 47.7746 17.254 47.0666 17.566C46.3586 17.866 45.7346 18.286 45.1946 18.826C44.6546 19.366 44.2286 19.99 43.9166 20.698C43.6166 21.406 43.4666 22.168 43.4666 22.984C43.4666 23.8 43.6166 24.562 43.9166 25.27C44.2286 25.978 44.6546 26.602 45.1946 27.142C45.7346 27.682 46.3586 28.108 47.0666 28.42C47.7746 28.72 48.5366 28.87 49.3526 28.87ZM49.3526 28.006C48.6566 28.006 48.0026 27.88 47.3906 27.628C46.7906 27.364 46.2566 27.004 45.7886 26.548C45.3326 26.08 44.9726 25.546 44.7086 24.946C44.4566 24.334 44.3306 23.68 44.3306 22.984C44.3306 22.288 44.4566 21.64 44.7086 21.04C44.9726 20.428 45.3326 19.894 45.7886 19.438C46.2566 18.97 46.7906 18.61 47.3906 18.358C48.0026 18.094 48.6566 17.962 49.3526 17.962C50.0486 17.962 50.7026 18.094 51.3146 18.358C51.9266 18.61 52.4606 18.97 52.9166 19.438C53.3846 19.894 53.7446 20.428 53.9966 21.04C54.2606 21.64 54.3926 22.288 54.3926 22.984C54.3926 23.68 54.2606 24.334 53.9966 24.946C53.7446 25.546 53.3846 26.08 52.9166 26.548C52.4606 27.004 51.9266 27.364 51.3146 27.628C50.7026 27.88 50.0486 28.006 49.3526 28.006ZM70.4464 30.112C69.4624 30.112 68.5384 29.926 67.6744 29.554C66.8104 29.194 66.0484 28.69 65.3884 28.042C64.7404 27.382 64.2304 26.62 63.8584 25.756C63.4984 24.892 63.3184 23.968 63.3184 22.984C63.3184 21.988 63.4984 21.064 63.8584 20.212C64.2304 19.348 64.7404 18.592 65.3884 17.944C66.0484 17.284 66.8104 16.774 67.6744 16.414C68.5384 16.042 69.4624 15.856 70.4464 15.856C71.4424 15.856 72.3664 16.042 73.2184 16.414C74.0824 16.774 74.8384 17.284 75.4864 17.944C76.1464 18.592 76.6564 19.348 77.0164 20.212C77.3884 21.064 77.5744 21.988 77.5744 22.984C77.5744 23.968 77.3884 24.892 77.0164 25.756C76.6564 26.62 76.1464 27.382 75.4864 28.042C74.8384 28.69 74.0824 29.194 73.2184 29.554C72.3664 29.926 71.4424 30.112 70.4464 30.112ZM70.4464 29.356C71.3344 29.356 72.1624 29.194 72.9304 28.87C73.6984 28.534 74.3704 28.078 74.9464 27.502C75.5344 26.914 75.9904 26.236 76.3144 25.468C76.6504 24.7 76.8184 23.872 76.8184 22.984C76.8184 22.096 76.6504 21.268 76.3144 20.5C75.9904 19.732 75.5344 19.06 74.9464 18.484C74.3704 17.896 73.6984 17.44 72.9304 17.116C72.1624 16.78 71.3344 16.612 70.4464 16.612V29.356ZM84.4121 29.572V16.396H97.5881V29.572H84.4121ZM111.562 30.112C110.578 30.112 109.654 29.926 108.79 29.554C107.926 29.194 107.164 28.69 106.504 28.042C105.856 27.382 105.346 26.62 104.974 25.756C104.614 24.892 104.434 23.968 104.434 22.984C104.434 21.988 104.614 21.064 104.974 20.212C105.346 19.348 105.856 18.592 106.504 17.944C107.164 17.284 107.926 16.774 108.79 16.414C109.654 16.042 110.578 15.856 111.562 15.856C112.558 15.856 113.482 16.042 114.334 16.414C115.198 16.774 115.954 17.284 116.602 17.944C117.262 18.592 117.772 19.348 118.132 20.212C118.504 21.064 118.69 21.988 118.69 22.984C118.69 23.968 118.504 24.892 118.132 25.756C117.772 26.62 117.262 27.382 116.602 28.042C115.954 28.69 115.198 29.194 114.334 29.554C113.482 29.926 112.558 30.112 111.562 30.112ZM111.562 29.356V16.612C110.674 16.612 109.846 16.78 109.078 17.116C108.31 17.44 107.632 17.896 107.044 18.484C106.468 19.06 106.012 19.732 105.676 20.5C105.352 21.268 105.19 22.096 105.19 22.984C105.19 23.872 105.352 24.7 105.676 25.468C106.012 26.236 106.468 26.914 107.044 27.502C107.632 28.078 108.31 28.534 109.078 28.87C109.846 29.194 110.674 29.356 111.562 29.356ZM132.655 30.112C131.671 30.112 130.747 29.926 129.883 29.554C129.031 29.194 128.275 28.69 127.615 28.042C126.967 27.382 126.457 26.62 126.085 25.756C125.713 24.892 125.527 23.968 125.527 22.984C125.527 22 125.713 21.076 126.085 20.212C126.457 19.348 126.967 18.592 127.615 17.944C128.275 17.284 129.031 16.774 129.883 16.414C130.747 16.042 131.671 15.856 132.655 15.856C133.639 15.856 134.563 16.042 135.427 16.414C136.291 16.774 137.047 17.284 137.695 17.944C138.355 18.592 138.865 19.348 139.225 20.212C139.597 21.076 139.783 22 139.783 22.984C139.783 23.968 139.597 24.892 139.225 25.756C138.865 26.62 138.355 27.382 137.695 28.042C137.047 28.69 136.291 29.194 135.427 29.554C134.563 29.926 133.639 30.112 132.655 30.112ZM132.655 28.87C133.471 28.87 134.233 28.72 134.941 28.42C135.649 28.108 136.273 27.682 136.813 27.142C137.353 26.602 137.773 25.978 138.073 25.27C138.385 24.562 138.541 23.8 138.541 22.984C138.541 22.168 138.385 21.406 138.073 20.698C137.773 19.99 137.353 19.366 136.813 18.826C136.273 18.286 135.649 17.866 134.941 17.566C134.233 17.254 133.471 17.098 132.655 17.098C131.839 17.098 131.077 17.254 130.369 17.566C129.661 17.866 129.037 18.286 128.497 18.826C127.957 19.366 127.531 19.99 127.219 20.698C126.919 21.406 126.769 22.168 126.769 22.984C126.769 23.8 126.919 24.562 127.219 25.27C127.531 25.978 127.957 26.602 128.497 27.142C129.037 27.682 129.661 28.108 130.369 28.42C131.077 28.72 131.839 28.87 132.655 28.87ZM132.655 28.006C131.959 28.006 131.305 27.88 130.693 27.628C130.093 27.364 129.559 27.004 129.091 26.548C128.635 26.08 128.275 25.546 128.011 24.946C127.759 24.334 127.633 23.68 127.633 22.984C127.633 22.288 127.759 21.64 128.011 21.04C128.275 20.428 128.635 19.894 129.091 19.438C129.559 18.97 130.093 18.61 130.693 18.358C131.305 18.094 131.959 17.962 132.655 17.962C133.351 17.962 134.005 18.094 134.617 18.358C135.229 18.61 135.763 18.97 136.219 19.438C136.687 19.894 137.047 20.428 137.299 21.04C137.563 21.64 137.695 22.288 137.695 22.984C137.695 23.68 137.563 24.334 137.299 24.946C137.047 25.546 136.687 26.08 136.219 26.548C135.763 27.004 135.229 27.364 134.617 27.628C134.005 27.88 133.351 28.006 132.655 28.006ZM153.749 30.112C152.765 30.112 151.841 29.926 150.977 29.554C150.113 29.194 149.351 28.69 148.691 28.042C148.043 27.382 147.533 26.62 147.161 25.756C146.801 24.892 146.621 23.968 146.621 22.984C146.621 21.988 146.801 21.064 147.161 20.212C147.533 19.348 148.043 18.592 148.691 17.944C149.351 17.284 150.113 16.774 150.977 16.414C151.841 16.042 152.765 15.856 153.749 15.856C154.745 15.856 155.669 16.042 156.521 16.414C157.385 16.774 158.141 17.284 158.789 17.944C159.449 18.592 159.959 19.348 160.319 20.212C160.691 21.064 160.877 21.988 160.877 22.984C160.877 23.968 160.691 24.892 160.319 25.756C159.959 26.62 159.449 27.382 158.789 28.042C158.141 28.69 157.385 29.194 156.521 29.554C155.669 29.926 154.745 30.112 153.749 30.112ZM153.749 29.356C154.637 29.356 155.465 29.194 156.233 28.87C157.001 28.534 157.673 28.078 158.249 27.502C158.837 26.914 159.293 26.236 159.617 25.468C159.953 24.7 160.121 23.872 160.121 22.984C160.121 22.096 159.953 21.268 159.617 20.5C159.293 19.732 158.837 19.06 158.249 18.484C157.673 17.896 157.001 17.44 156.233 17.116C155.465 16.78 154.637 16.612 153.749 16.612V29.356Z" fill="#DCF908"/>
<path d="M191.684 21.258C191.684 20.07 192.62 18.612 193.916 18.612C194.69 18.612 195.302 19.26 195.302 20.142C195.302 21.384 194.384 22.86 193.088 22.86C192.26 22.86 191.684 22.212 191.684 21.258ZM197.642 17.19H196.166L195.878 18.162C195.464 17.226 194.546 16.902 193.772 16.902C191.396 16.902 189.848 19.224 189.848 21.492C189.848 23.166 191.126 24.57 192.674 24.57C193.43 24.57 194.186 24.246 194.618 23.526H194.654C194.69 24.12 195.212 24.552 195.968 24.552C197.12 24.552 200.198 23.04 200.198 19.332C200.198 16.02 197.21 13.842 193.934 13.842C190.19 13.842 187.094 16.776 187.094 20.574C187.094 24.426 190.19 27.306 194.024 27.306C196.274 27.306 198.29 26.244 199.514 24.39H198.002C197.066 25.326 195.644 25.866 194.132 25.866C191.036 25.866 188.822 23.76 188.822 20.61C188.822 17.568 190.82 15.282 193.916 15.282C196.652 15.282 198.794 16.848 198.794 19.71C198.794 21.636 197.696 23.022 196.67 23.022C196.22 23.022 196.364 22.32 196.508 21.834L197.642 17.19ZM204.911 21.276H207.989C209.195 21.276 210.023 21.798 210.023 23.112C210.023 24.444 209.051 24.804 207.935 24.804H204.911V21.276ZM202.085 27H208.313C210.635 27 212.849 25.884 212.849 23.274C212.849 21.672 212.057 20.466 210.491 20.016C211.607 19.476 212.237 18.594 212.237 17.334C212.237 14.94 210.581 14.148 208.133 14.148H202.085V27ZM204.911 16.344H207.557C208.565 16.344 209.501 16.596 209.501 17.82C209.501 18.9 208.763 19.35 207.773 19.35H204.911V16.344ZM225.667 14.148H222.841V22.14C222.841 24.048 222.193 24.93 220.177 24.93C217.891 24.93 217.531 23.544 217.531 22.14V14.148H214.705V22.14C214.705 25.632 216.721 27.306 220.177 27.306C223.615 27.306 225.667 25.614 225.667 22.14V14.148ZM228.1 27H237.856V24.624H230.926V21.474H237.154V19.278H230.926V16.524H237.712V14.148H228.1V27ZM239.772 27H242.418V18.396H242.454L247.8 27H250.626V14.148H247.98V22.77H247.944L242.58 14.148H239.772V27ZM252.556 20.628C252.556 24.336 254.896 27.306 258.874 27.306C262.852 27.306 265.192 24.336 265.192 20.628C265.192 16.812 262.852 13.842 258.874 13.842C254.896 13.842 252.556 16.812 252.556 20.628ZM255.382 20.628C255.382 18.378 256.336 16.218 258.874 16.218C261.412 16.218 262.366 18.378 262.366 20.628C262.366 22.77 261.412 24.93 258.874 24.93C256.336 24.93 255.382 22.77 255.382 20.628ZM266.314 22.734C266.278 25.902 268.942 27.306 271.786 27.306C275.278 27.306 277.132 25.542 277.132 23.184C277.132 20.268 274.252 19.674 273.316 19.44C270.094 18.612 269.482 18.486 269.482 17.496C269.482 16.416 270.526 16.038 271.426 16.038C272.776 16.038 273.874 16.434 273.964 17.982H276.7C276.7 15.012 274.234 13.842 271.552 13.842C269.23 13.842 266.746 15.102 266.746 17.73C266.746 20.142 268.672 20.88 270.58 21.384C272.47 21.888 274.396 22.122 274.396 23.508C274.396 24.822 272.884 25.11 271.894 25.11C270.382 25.11 269.05 24.444 269.05 22.734H266.314ZM277.445 27H280.307L281.315 24.138H286.121L287.093 27H290.027L285.221 14.148H282.323L277.445 27ZM283.727 17.316H283.763L285.383 22.032H282.053L283.727 17.316ZM291.136 27H293.962V14.148H291.136V27ZM296.444 27H299.27V21.978H302.096C303.518 21.978 304.04 22.572 304.238 23.922C304.382 24.948 304.346 26.19 304.688 27H307.514C307.01 26.28 307.028 24.768 306.974 23.958C306.884 22.662 306.488 21.312 305.102 20.952V20.916C306.524 20.34 307.136 19.206 307.136 17.694C307.136 15.75 305.678 14.148 303.374 14.148H296.444V27ZM299.27 16.344H302.366C303.626 16.344 304.31 16.884 304.31 18.126C304.31 19.422 303.626 19.962 302.366 19.962H299.27V16.344ZM309.434 27H319.19V24.624H312.26V21.474H318.488V19.278H312.26V16.524H319.046V14.148H309.434V27ZM320.296 22.734C320.26 25.902 322.924 27.306 325.768 27.306C329.26 27.306 331.114 25.542 331.114 23.184C331.114 20.268 328.234 19.674 327.298 19.44C324.076 18.612 323.464 18.486 323.464 17.496C323.464 16.416 324.508 16.038 325.408 16.038C326.758 16.038 327.856 16.434 327.946 17.982H330.682C330.682 15.012 328.216 13.842 325.534 13.842C323.212 13.842 320.728 15.102 320.728 17.73C320.728 20.142 322.654 20.88 324.562 21.384C326.452 21.888 328.378 22.122 328.378 23.508C328.378 24.822 326.866 25.11 325.876 25.11C324.364 25.11 323.032 24.444 323.032 22.734H320.296Z" fill="#E573E5"/>
<path d="M356.196 27H359.058L360.066 24.138H364.872L365.844 27H368.778L363.972 14.148H361.074L356.196 27ZM362.478 17.316H362.514L364.134 22.032H360.804L362.478 17.316ZM380.795 14.148H377.969V22.14C377.969 24.048 377.321 24.93 375.305 24.93C373.019 24.93 372.659 23.544 372.659 22.14V14.148H369.833V22.14C369.833 25.632 371.849 27.306 375.305 27.306C378.743 27.306 380.795 25.614 380.795 22.14V14.148ZM392.804 27H394.604V20.052H389.204V22.158H392.048C391.886 23.94 390.824 24.93 388.988 24.93C386.45 24.93 385.496 22.77 385.496 20.628C385.496 18.378 386.45 16.218 388.988 16.218C390.32 16.218 391.382 16.956 391.706 18.378H394.406C394.1 15.462 391.616 13.842 388.988 13.842C385.01 13.842 382.67 16.812 382.67 20.628C382.67 24.336 385.01 27.306 388.988 27.306C390.23 27.306 391.526 26.82 392.516 25.542L392.804 27ZM407.71 14.4H405.676C405.406 16.326 403.768 16.938 401.986 16.902V18.828H405.154V27H407.71V14.4ZM417.712 14.4H415.678C415.408 16.326 413.77 16.938 411.988 16.902V18.828H415.156V27H417.712V14.4ZM421.612 23.184H427.03V20.988H421.612V23.184ZM435.044 14.4H433.01C432.74 16.326 431.102 16.938 429.32 16.902V18.828H432.488V27H435.044V14.4ZM441.104 19.242C441.104 17.91 441.59 16.344 443.102 16.344C444.2 16.344 444.992 17.1 444.992 18.288C444.974 19.836 443.462 20.61 442.346 21.366C440.168 22.842 438.386 24.084 438.368 27H447.62V24.804H441.662C442.58 23.508 444.056 22.788 445.298 21.906C446.54 21.024 447.548 19.98 447.548 18.09C447.548 15.624 445.532 14.148 443.228 14.148C440.204 14.148 438.566 16.362 438.656 19.242H441.104ZM448.946 23.184H454.364V20.988H448.946V23.184ZM462.378 14.4H460.344C460.074 16.326 458.436 16.938 456.654 16.902V18.828H459.822V27H462.378V14.4ZM469.428 21.294C470.67 21.294 472.344 21.258 472.344 23.166C472.344 24.354 471.444 25.146 470.292 25.146C468.816 25.146 468.132 24.03 468.078 22.662H465.648C465.594 25.56 467.502 27.252 470.328 27.252C472.794 27.252 475.008 25.758 475.008 23.112C475.008 21.708 474.162 20.556 472.776 20.25V20.214C473.946 19.89 474.54 18.828 474.54 17.64C474.54 15.39 472.326 14.148 470.31 14.148C467.718 14.148 466.044 15.93 465.954 18.504H468.384C468.366 17.208 469.05 16.254 470.328 16.254C471.264 16.254 472.11 16.866 472.11 17.928C472.11 19.368 470.526 19.584 469.428 19.494V21.294ZM476.28 23.184H481.698V20.988H476.28V23.184ZM489.712 14.4H487.678C487.408 16.326 485.77 16.938 483.988 16.902V18.828H487.156V27H489.712V14.4ZM498.274 27H500.704V24.084H502.378V21.978H500.704V14.4H498.418L492.946 21.744V24.084H498.274V27ZM498.274 21.978H494.962L498.22 17.604H498.274V21.978ZM510.784 19.242C510.784 17.91 511.27 16.344 512.782 16.344C513.88 16.344 514.672 17.1 514.672 18.288C514.654 19.836 513.142 20.61 512.026 21.366C509.848 22.842 508.066 24.084 508.048 27H517.3V24.804H511.342C512.26 23.508 513.736 22.788 514.978 21.906C516.22 21.024 517.228 19.98 517.228 18.09C517.228 15.624 515.212 14.148 512.908 14.148C509.884 14.148 508.246 16.362 508.336 19.242H510.784ZM518.05 20.646C518.05 25.668 520.174 27.252 522.658 27.252C525.178 27.252 527.302 25.668 527.302 20.646C527.302 15.732 525.178 14.148 522.658 14.148C520.174 14.148 518.05 15.732 518.05 20.646ZM520.606 20.646C520.606 19.332 520.606 16.254 522.658 16.254C524.746 16.254 524.746 19.332 524.746 20.646C524.746 22.068 524.746 25.146 522.658 25.146C520.606 25.146 520.606 22.068 520.606 20.646ZM530.788 19.242C530.788 17.91 531.274 16.344 532.786 16.344C533.884 16.344 534.676 17.1 534.676 18.288C534.658 19.836 533.146 20.61 532.03 21.366C529.852 22.842 528.07 24.084 528.052 27H537.304V24.804H531.346C532.264 23.508 533.74 22.788 534.982 21.906C536.224 21.024 537.232 19.98 537.232 18.09C537.232 15.624 535.216 14.148 532.912 14.148C529.888 14.148 528.25 16.362 528.34 19.242H530.788ZM540.79 19.242C540.79 17.91 541.276 16.344 542.788 16.344C543.886 16.344 544.678 17.1 544.678 18.288C544.66 19.836 543.148 20.61 542.032 21.366C539.854 22.842 538.072 24.084 538.054 27H547.306V24.804H541.348C542.266 23.508 543.742 22.788 544.984 21.906C546.226 21.024 547.234 19.98 547.234 18.09C547.234 15.624 545.218 14.148 542.914 14.148C539.89 14.148 538.252 16.362 538.342 19.242H540.79Z" fill="#FAF7F5"/>
<path d="M584.036 16.63L573.272 27.394V16.63H584.036ZM585.876 29.5L596.64 18.736V29.5H585.876ZM603.489 18.736L614.253 29.5H603.489V18.736ZM626.857 27.394L616.093 16.63H626.857V27.394ZM644.47 16.63L633.706 27.394V16.63H644.47ZM646.31 29.5L657.074 18.736V29.5H646.31ZM663.923 18.736L674.687 29.5H663.923V18.736ZM687.29 27.394L676.526 16.63H687.29V27.394ZM704.904 16.63L694.14 27.394V16.63H704.904ZM706.743 29.5L717.507 18.736V29.5H706.743ZM724.356 18.736L735.12 29.5H724.356V18.736ZM747.724 27.394L736.96 16.63H747.724V27.394Z" fill="#80FF9F"/>
<path d="M778.684 21.258C778.684 20.07 779.62 18.612 780.916 18.612C781.69 18.612 782.302 19.26 782.302 20.142C782.302 21.384 781.384 22.86 780.088 22.86C779.26 22.86 778.684 22.212 778.684 21.258ZM784.642 17.19H783.166L782.878 18.162C782.464 17.226 781.546 16.902 780.772 16.902C778.396 16.902 776.848 19.224 776.848 21.492C776.848 23.166 778.126 24.57 779.674 24.57C780.43 24.57 781.186 24.246 781.618 23.526H781.654C781.69 24.12 782.212 24.552 782.968 24.552C784.12 24.552 787.198 23.04 787.198 19.332C787.198 16.02 784.21 13.842 780.934 13.842C777.19 13.842 774.094 16.776 774.094 20.574C774.094 24.426 777.19 27.306 781.024 27.306C783.274 27.306 785.29 26.244 786.514 24.39H785.002C784.066 25.326 782.644 25.866 781.132 25.866C778.036 25.866 775.822 23.76 775.822 20.61C775.822 17.568 777.82 15.282 780.916 15.282C783.652 15.282 785.794 16.848 785.794 19.71C785.794 21.636 784.696 23.022 783.67 23.022C783.22 23.022 783.364 22.32 783.508 21.834L784.642 17.19ZM791.911 21.276H794.989C796.195 21.276 797.023 21.798 797.023 23.112C797.023 24.444 796.051 24.804 794.935 24.804H791.911V21.276ZM789.085 27H795.313C797.635 27 799.849 25.884 799.849 23.274C799.849 21.672 799.057 20.466 797.491 20.016C798.607 19.476 799.237 18.594 799.237 17.334C799.237 14.94 797.581 14.148 795.133 14.148H789.085V27ZM791.911 16.344H794.557C795.565 16.344 796.501 16.596 796.501 17.82C796.501 18.9 795.763 19.35 794.773 19.35H791.911V16.344ZM812.667 14.148H809.841V22.14C809.841 24.048 809.193 24.93 807.177 24.93C804.891 24.93 804.531 23.544 804.531 22.14V14.148H801.705V22.14C801.705 25.632 803.721 27.306 807.177 27.306C810.615 27.306 812.667 25.614 812.667 22.14V14.148ZM815.1 27H824.856V24.624H817.926V21.474H824.154V19.278H817.926V16.524H824.712V14.148H815.1V27ZM826.772 27H829.418V18.396H829.454L834.8 27H837.626V14.148H834.98V22.77H834.944L829.58 14.148H826.772V27ZM839.556 20.628C839.556 24.336 841.896 27.306 845.874 27.306C849.852 27.306 852.192 24.336 852.192 20.628C852.192 16.812 849.852 13.842 845.874 13.842C841.896 13.842 839.556 16.812 839.556 20.628ZM842.382 20.628C842.382 18.378 843.336 16.218 845.874 16.218C848.412 16.218 849.366 18.378 849.366 20.628C849.366 22.77 848.412 24.93 845.874 24.93C843.336 24.93 842.382 22.77 842.382 20.628ZM853.314 22.734C853.278 25.902 855.942 27.306 858.786 27.306C862.278 27.306 864.132 25.542 864.132 23.184C864.132 20.268 861.252 19.674 860.316 19.44C857.094 18.612 856.482 18.486 856.482 17.496C856.482 16.416 857.526 16.038 858.426 16.038C859.776 16.038 860.874 16.434 860.964 17.982H863.7C863.7 15.012 861.234 13.842 858.552 13.842C856.23 13.842 853.746 15.102 853.746 17.73C853.746 20.142 855.672 20.88 857.58 21.384C859.47 21.888 861.396 22.122 861.396 23.508C861.396 24.822 859.884 25.11 858.894 25.11C857.382 25.11 856.05 24.444 856.05 22.734H853.314ZM864.445 27H867.307L868.315 24.138H873.121L874.093 27H877.027L872.221 14.148H869.323L864.445 27ZM870.727 17.316H870.763L872.383 22.032H869.053L870.727 17.316ZM878.136 27H880.962V14.148H878.136V27ZM883.444 27H886.27V21.978H889.096C890.518 21.978 891.04 22.572 891.238 23.922C891.382 24.948 891.346 26.19 891.688 27H894.514C894.01 26.28 894.028 24.768 893.974 23.958C893.884 22.662 893.488 21.312 892.102 20.952V20.916C893.524 20.34 894.136 19.206 894.136 17.694C894.136 15.75 892.678 14.148 890.374 14.148H883.444V27ZM886.27 16.344H889.366C890.626 16.344 891.31 16.884 891.31 18.126C891.31 19.422 890.626 19.962 889.366 19.962H886.27V16.344ZM896.434 27H906.19V24.624H899.26V21.474H905.488V19.278H899.26V16.524H906.046V14.148H896.434V27ZM907.296 22.734C907.26 25.902 909.924 27.306 912.768 27.306C916.26 27.306 918.114 25.542 918.114 23.184C918.114 20.268 915.234 19.674 914.298 19.44C911.076 18.612 910.464 18.486 910.464 17.496C910.464 16.416 911.508 16.038 912.408 16.038C913.758 16.038 914.856 16.434 914.946 17.982H917.682C917.682 15.012 915.216 13.842 912.534 13.842C910.212 13.842 907.728 15.102 907.728 17.73C907.728 20.142 909.654 20.88 911.562 21.384C913.452 21.888 915.378 22.122 915.378 23.508C915.378 24.822 913.866 25.11 912.876 25.11C911.364 25.11 910.032 24.444 910.032 22.734H907.296Z" fill="#3388FF"/>
<path d="M943.196 27H946.058L947.066 24.138H951.872L952.844 27H955.778L950.972 14.148H948.074L943.196 27ZM949.478 17.316H949.514L951.134 22.032H947.804L949.478 17.316ZM967.795 14.148H964.969V22.14C964.969 24.048 964.321 24.93 962.305 24.93C960.019 24.93 959.659 23.544 959.659 22.14V14.148H956.833V22.14C956.833 25.632 958.849 27.306 962.305 27.306C965.743 27.306 967.795 25.614 967.795 22.14V14.148ZM979.804 27H981.604V20.052H976.204V22.158H979.048C978.886 23.94 977.824 24.93 975.988 24.93C973.45 24.93 972.496 22.77 972.496 20.628C972.496 18.378 973.45 16.218 975.988 16.218C977.32 16.218 978.382 16.956 978.706 18.378H981.406C981.1 15.462 978.616 13.842 975.988 13.842C972.01 13.842 969.67 16.812 969.67 20.628C969.67 24.336 972.01 27.306 975.988 27.306C977.23 27.306 978.526 26.82 979.516 25.542L979.804 27ZM994.71 14.4H992.676C992.406 16.326 990.768 16.938 988.986 16.902V18.828H992.154V27H994.71V14.4ZM1004.71 14.4H1002.68C1002.41 16.326 1000.77 16.938 998.988 16.902V18.828H1002.16V27H1004.71V14.4ZM1008.61 23.184H1014.03V20.988H1008.61V23.184ZM1022.04 14.4H1020.01C1019.74 16.326 1018.1 16.938 1016.32 16.902V18.828H1019.49V27H1022.04V14.4ZM1028.1 19.242C1028.1 17.91 1028.59 16.344 1030.1 16.344C1031.2 16.344 1031.99 17.1 1031.99 18.288C1031.97 19.836 1030.46 20.61 1029.35 21.366C1027.17 22.842 1025.39 24.084 1025.37 27H1034.62V24.804H1028.66C1029.58 23.508 1031.06 22.788 1032.3 21.906C1033.54 21.024 1034.55 19.98 1034.55 18.09C1034.55 15.624 1032.53 14.148 1030.23 14.148C1027.2 14.148 1025.57 16.362 1025.66 19.242H1028.1ZM1035.95 23.184H1041.36V20.988H1035.95V23.184ZM1049.38 14.4H1047.34C1047.07 16.326 1045.44 16.938 1043.65 16.902V18.828H1046.82V27H1049.38V14.4ZM1056.43 21.294C1057.67 21.294 1059.34 21.258 1059.34 23.166C1059.34 24.354 1058.44 25.146 1057.29 25.146C1055.82 25.146 1055.13 24.03 1055.08 22.662H1052.65C1052.59 25.56 1054.5 27.252 1057.33 27.252C1059.79 27.252 1062.01 25.758 1062.01 23.112C1062.01 21.708 1061.16 20.556 1059.78 20.25V20.214C1060.95 19.89 1061.54 18.828 1061.54 17.64C1061.54 15.39 1059.33 14.148 1057.31 14.148C1054.72 14.148 1053.04 15.93 1052.95 18.504H1055.38C1055.37 17.208 1056.05 16.254 1057.33 16.254C1058.26 16.254 1059.11 16.866 1059.11 17.928C1059.11 19.368 1057.53 19.584 1056.43 19.494V21.294ZM1063.28 23.184H1068.7V20.988H1063.28V23.184ZM1076.71 14.4H1074.68C1074.41 16.326 1072.77 16.938 1070.99 16.902V18.828H1074.16V27H1076.71V14.4ZM1085.27 27H1087.7V24.084H1089.38V21.978H1087.7V14.4H1085.42L1079.95 21.744V24.084H1085.27V27ZM1085.27 21.978H1081.96L1085.22 17.604H1085.27V21.978ZM1097.78 19.242C1097.78 17.91 1098.27 16.344 1099.78 16.344C1100.88 16.344 1101.67 17.1 1101.67 18.288C1101.65 19.836 1100.14 20.61 1099.03 21.366C1096.85 22.842 1095.07 24.084 1095.05 27H1104.3V24.804H1098.34C1099.26 23.508 1100.74 22.788 1101.98 21.906C1103.22 21.024 1104.23 19.98 1104.23 18.09C1104.23 15.624 1102.21 14.148 1099.91 14.148C1096.88 14.148 1095.25 16.362 1095.34 19.242H1097.78ZM1105.05 20.646C1105.05 25.668 1107.17 27.252 1109.66 27.252C1112.18 27.252 1114.3 25.668 1114.3 20.646C1114.3 15.732 1112.18 14.148 1109.66 14.148C1107.17 14.148 1105.05 15.732 1105.05 20.646ZM1107.61 20.646C1107.61 19.332 1107.61 16.254 1109.66 16.254C1111.75 16.254 1111.75 19.332 1111.75 20.646C1111.75 22.068 1111.75 25.146 1109.66 25.146C1107.61 25.146 1107.61 22.068 1107.61 20.646ZM1117.79 19.242C1117.79 17.91 1118.27 16.344 1119.79 16.344C1120.88 16.344 1121.68 17.1 1121.68 18.288C1121.66 19.836 1120.15 20.61 1119.03 21.366C1116.85 22.842 1115.07 24.084 1115.05 27H1124.3V24.804H1118.35C1119.26 23.508 1120.74 22.788 1121.98 21.906C1123.22 21.024 1124.23 19.98 1124.23 18.09C1124.23 15.624 1122.22 14.148 1119.91 14.148C1116.89 14.148 1115.25 16.362 1115.34 19.242H1117.79ZM1127.79 19.242C1127.79 17.91 1128.28 16.344 1129.79 16.344C1130.89 16.344 1131.68 17.1 1131.68 18.288C1131.66 19.836 1130.15 20.61 1129.03 21.366C1126.85 22.842 1125.07 24.084 1125.05 27H1134.31V24.804H1128.35C1129.27 23.508 1130.74 22.788 1131.98 21.906C1133.23 21.024 1134.23 19.98 1134.23 18.09C1134.23 15.624 1132.22 14.148 1129.91 14.148C1126.89 14.148 1125.25 16.362 1125.34 19.242H1127.79Z" fill="#DCF908"/>
<path d="M1159.93 29.5L1167.19 16.954L1174.42 29.5H1159.93ZM1183.52 29.5L1176.26 16.954H1190.75L1183.52 29.5ZM1192.59 29.5L1199.85 16.954L1207.08 29.5H1192.59ZM1216.18 29.5L1208.92 16.954H1223.41L1216.18 29.5ZM1225.25 29.5L1232.51 16.954L1239.74 29.5H1225.25ZM1248.84 29.5L1241.58 16.954H1256.07L1248.84 29.5ZM1257.91 29.5L1265.17 16.954L1272.4 29.5H1257.91ZM1281.5 29.5L1274.24 16.954H1288.73L1281.5 29.5ZM1290.57 29.5L1297.83 16.954L1305.06 29.5H1290.57Z" fill="#FF6A4C"/>
<path d="M1335.68 21.258C1335.68 20.07 1336.62 18.612 1337.92 18.612C1338.69 18.612 1339.3 19.26 1339.3 20.142C1339.3 21.384 1338.38 22.86 1337.09 22.86C1336.26 22.86 1335.68 22.212 1335.68 21.258ZM1341.64 17.19H1340.17L1339.88 18.162C1339.46 17.226 1338.55 16.902 1337.77 16.902C1335.4 16.902 1333.85 19.224 1333.85 21.492C1333.85 23.166 1335.13 24.57 1336.67 24.57C1337.43 24.57 1338.19 24.246 1338.62 23.526H1338.65C1338.69 24.12 1339.21 24.552 1339.97 24.552C1341.12 24.552 1344.2 23.04 1344.2 19.332C1344.2 16.02 1341.21 13.842 1337.93 13.842C1334.19 13.842 1331.09 16.776 1331.09 20.574C1331.09 24.426 1334.19 27.306 1338.02 27.306C1340.27 27.306 1342.29 26.244 1343.51 24.39H1342C1341.07 25.326 1339.64 25.866 1338.13 25.866C1335.04 25.866 1332.82 23.76 1332.82 20.61C1332.82 17.568 1334.82 15.282 1337.92 15.282C1340.65 15.282 1342.79 16.848 1342.79 19.71C1342.79 21.636 1341.7 23.022 1340.67 23.022C1340.22 23.022 1340.36 22.32 1340.51 21.834L1341.64 17.19ZM1348.91 21.276H1351.99C1353.19 21.276 1354.02 21.798 1354.02 23.112C1354.02 24.444 1353.05 24.804 1351.93 24.804H1348.91V21.276ZM1346.08 27H1352.31C1354.63 27 1356.85 25.884 1356.85 23.274C1356.85 21.672 1356.06 20.466 1354.49 20.016C1355.61 19.476 1356.24 18.594 1356.24 17.334C1356.24 14.94 1354.58 14.148 1352.13 14.148H1346.08V27ZM1348.91 16.344H1351.56C1352.56 16.344 1353.5 16.596 1353.5 17.82C1353.5 18.9 1352.76 19.35 1351.77 19.35H1348.91V16.344ZM1369.67 14.148H1366.84V22.14C1366.84 24.048 1366.19 24.93 1364.18 24.93C1361.89 24.93 1361.53 23.544 1361.53 22.14V14.148H1358.7V22.14C1358.7 25.632 1360.72 27.306 1364.18 27.306C1367.61 27.306 1369.67 25.614 1369.67 22.14V14.148ZM1372.1 27H1381.86V24.624H1374.93V21.474H1381.15V19.278H1374.93V16.524H1381.71V14.148H1372.1V27ZM1383.77 27H1386.42V18.396H1386.45L1391.8 27H1394.63V14.148H1391.98V22.77H1391.94L1386.58 14.148H1383.77V27ZM1396.56 20.628C1396.56 24.336 1398.9 27.306 1402.87 27.306C1406.85 27.306 1409.19 24.336 1409.19 20.628C1409.19 16.812 1406.85 13.842 1402.87 13.842C1398.9 13.842 1396.56 16.812 1396.56 20.628ZM1399.38 20.628C1399.38 18.378 1400.34 16.218 1402.87 16.218C1405.41 16.218 1406.37 18.378 1406.37 20.628C1406.37 22.77 1405.41 24.93 1402.87 24.93C1400.34 24.93 1399.38 22.77 1399.38 20.628ZM1410.31 22.734C1410.28 25.902 1412.94 27.306 1415.79 27.306C1419.28 27.306 1421.13 25.542 1421.13 23.184C1421.13 20.268 1418.25 19.674 1417.32 19.44C1414.09 18.612 1413.48 18.486 1413.48 17.496C1413.48 16.416 1414.53 16.038 1415.43 16.038C1416.78 16.038 1417.87 16.434 1417.96 17.982H1420.7C1420.7 15.012 1418.23 13.842 1415.55 13.842C1413.23 13.842 1410.75 15.102 1410.75 17.73C1410.75 20.142 1412.67 20.88 1414.58 21.384C1416.47 21.888 1418.4 22.122 1418.4 23.508C1418.4 24.822 1416.88 25.11 1415.89 25.11C1414.38 25.11 1413.05 24.444 1413.05 22.734H1410.31ZM1421.45 27H1424.31L1425.32 24.138H1430.12L1431.09 27H1434.03L1429.22 14.148H1426.32L1421.45 27ZM1427.73 17.316H1427.76L1429.38 22.032H1426.05L1427.73 17.316ZM1435.14 27H1437.96V14.148H1435.14V27ZM1440.44 27H1443.27V21.978H1446.1C1447.52 21.978 1448.04 22.572 1448.24 23.922C1448.38 24.948 1448.35 26.19 1448.69 27H1451.51C1451.01 26.28 1451.03 24.768 1450.97 23.958C1450.88 22.662 1450.49 21.312 1449.1 20.952V20.916C1450.52 20.34 1451.14 19.206 1451.14 17.694C1451.14 15.75 1449.68 14.148 1447.37 14.148H1440.44V27ZM1443.27 16.344H1446.37C1447.63 16.344 1448.31 16.884 1448.31 18.126C1448.31 19.422 1447.63 19.962 1446.37 19.962H1443.27V16.344ZM1453.43 27H1463.19V24.624H1456.26V21.474H1462.49V19.278H1456.26V16.524H1463.05V14.148H1453.43V27ZM1464.3 22.734C1464.26 25.902 1466.92 27.306 1469.77 27.306C1473.26 27.306 1475.11 25.542 1475.11 23.184C1475.11 20.268 1472.23 19.674 1471.3 19.44C1468.08 18.612 1467.46 18.486 1467.46 17.496C1467.46 16.416 1468.51 16.038 1469.41 16.038C1470.76 16.038 1471.86 16.434 1471.95 17.982H1474.68C1474.68 15.012 1472.22 13.842 1469.53 13.842C1467.21 13.842 1464.73 15.102 1464.73 17.73C1464.73 20.142 1466.65 20.88 1468.56 21.384C1470.45 21.888 1472.38 22.122 1472.38 23.508C1472.38 24.822 1470.87 25.11 1469.88 25.11C1468.36 25.11 1467.03 24.444 1467.03 22.734H1464.3Z" fill="#FAF7F5"/>
<path d="M1500.2 27H1503.06L1504.07 24.138H1508.87L1509.84 27H1512.78L1507.97 14.148H1505.07L1500.2 27ZM1506.48 17.316H1506.51L1508.13 22.032H1504.8L1506.48 17.316ZM1524.79 14.148H1521.97V22.14C1521.97 24.048 1521.32 24.93 1519.3 24.93C1517.02 24.93 1516.66 23.544 1516.66 22.14V14.148H1513.83V22.14C1513.83 25.632 1515.85 27.306 1519.3 27.306C1522.74 27.306 1524.79 25.614 1524.79 22.14V14.148ZM1536.8 27H1538.6V20.052H1533.2V22.158H1536.05C1535.89 23.94 1534.82 24.93 1532.99 24.93C1530.45 24.93 1529.5 22.77 1529.5 20.628C1529.5 18.378 1530.45 16.218 1532.99 16.218C1534.32 16.218 1535.38 16.956 1535.71 18.378H1538.41C1538.1 15.462 1535.62 13.842 1532.99 13.842C1529.01 13.842 1526.67 16.812 1526.67 20.628C1526.67 24.336 1529.01 27.306 1532.99 27.306C1534.23 27.306 1535.53 26.82 1536.52 25.542L1536.8 27ZM1551.71 14.4H1549.68C1549.41 16.326 1547.77 16.938 1545.99 16.902V18.828H1549.15V27H1551.71V14.4ZM1561.71 14.4H1559.68C1559.41 16.326 1557.77 16.938 1555.99 16.902V18.828H1559.16V27H1561.71V14.4ZM1565.61 23.184H1571.03V20.988H1565.61V23.184ZM1579.04 14.4H1577.01C1576.74 16.326 1575.1 16.938 1573.32 16.902V18.828H1576.49V27H1579.04V14.4ZM1585.1 19.242C1585.1 17.91 1585.59 16.344 1587.1 16.344C1588.2 16.344 1588.99 17.1 1588.99 18.288C1588.97 19.836 1587.46 20.61 1586.35 21.366C1584.17 22.842 1582.39 24.084 1582.37 27H1591.62V24.804H1585.66C1586.58 23.508 1588.06 22.788 1589.3 21.906C1590.54 21.024 1591.55 19.98 1591.55 18.09C1591.55 15.624 1589.53 14.148 1587.23 14.148C1584.2 14.148 1582.57 16.362 1582.66 19.242H1585.1ZM1592.95 23.184H1598.36V20.988H1592.95V23.184ZM1606.38 14.4H1604.34C1604.07 16.326 1602.44 16.938 1600.65 16.902V18.828H1603.82V27H1606.38V14.4ZM1613.43 21.294C1614.67 21.294 1616.34 21.258 1616.34 23.166C1616.34 24.354 1615.44 25.146 1614.29 25.146C1612.82 25.146 1612.13 24.03 1612.08 22.662H1609.65C1609.59 25.56 1611.5 27.252 1614.33 27.252C1616.79 27.252 1619.01 25.758 1619.01 23.112C1619.01 21.708 1618.16 20.556 1616.78 20.25V20.214C1617.95 19.89 1618.54 18.828 1618.54 17.64C1618.54 15.39 1616.33 14.148 1614.31 14.148C1611.72 14.148 1610.04 15.93 1609.95 18.504H1612.38C1612.37 17.208 1613.05 16.254 1614.33 16.254C1615.26 16.254 1616.11 16.866 1616.11 17.928C1616.11 19.368 1614.53 19.584 1613.43 19.494V21.294ZM1620.28 23.184H1625.7V20.988H1620.28V23.184ZM1633.71 14.4H1631.68C1631.41 16.326 1629.77 16.938 1627.99 16.902V18.828H1631.16V27H1633.71V14.4ZM1642.27 27H1644.7V24.084H1646.38V21.978H1644.7V14.4H1642.42L1636.95 21.744V24.084H1642.27V27ZM1642.27 21.978H1638.96L1642.22 17.604H1642.27V21.978ZM1654.78 19.242C1654.78 17.91 1655.27 16.344 1656.78 16.344C1657.88 16.344 1658.67 17.1 1658.67 18.288C1658.65 19.836 1657.14 20.61 1656.03 21.366C1653.85 22.842 1652.07 24.084 1652.05 27H1661.3V24.804H1655.34C1656.26 23.508 1657.74 22.788 1658.98 21.906C1660.22 21.024 1661.23 19.98 1661.23 18.09C1661.23 15.624 1659.21 14.148 1656.91 14.148C1653.88 14.148 1652.25 16.362 1652.34 19.242H1654.78ZM1662.05 20.646C1662.05 25.668 1664.17 27.252 1666.66 27.252C1669.18 27.252 1671.3 25.668 1671.3 20.646C1671.3 15.732 1669.18 14.148 1666.66 14.148C1664.17 14.148 1662.05 15.732 1662.05 20.646ZM1664.61 20.646C1664.61 19.332 1664.61 16.254 1666.66 16.254C1668.75 16.254 1668.75 19.332 1668.75 20.646C1668.75 22.068 1668.75 25.146 1666.66 25.146C1664.61 25.146 1664.61 22.068 1664.61 20.646ZM1674.79 19.242C1674.79 17.91 1675.27 16.344 1676.79 16.344C1677.88 16.344 1678.68 17.1 1678.68 18.288C1678.66 19.836 1677.15 20.61 1676.03 21.366C1673.85 22.842 1672.07 24.084 1672.05 27H1681.3V24.804H1675.35C1676.26 23.508 1677.74 22.788 1678.98 21.906C1680.22 21.024 1681.23 19.98 1681.23 18.09C1681.23 15.624 1679.22 14.148 1676.91 14.148C1673.89 14.148 1672.25 16.362 1672.34 19.242H1674.79ZM1684.79 19.242C1684.79 17.91 1685.28 16.344 1686.79 16.344C1687.89 16.344 1688.68 17.1 1688.68 18.288C1688.66 19.836 1687.15 20.61 1686.03 21.366C1683.85 22.842 1682.07 24.084 1682.05 27H1691.31V24.804H1685.35C1686.27 23.508 1687.74 22.788 1688.98 21.906C1690.23 21.024 1691.23 19.98 1691.23 18.09C1691.23 15.624 1689.22 14.148 1686.91 14.148C1683.89 14.148 1682.25 16.362 1682.34 19.242H1684.79Z" fill="#E573E5"/>
</svg>
