<svg width="1440" height="46" viewBox="0 0 1440 46" fill="none" xmlns="http://www.w3.org/2000/svg">
<path d="M0.990641 20.628C0.990641 24.336 3.33064 27.306 7.30864 27.306C11.2866 27.306 13.6266 24.336 13.6266 20.628C13.6266 16.812 11.2866 13.842 7.30864 13.842C3.33064 13.842 0.990641 16.812 0.990641 20.628ZM3.81664 20.628C3.81664 18.378 4.77064 16.218 7.30864 16.218C9.84664 16.218 10.8006 18.378 10.8006 20.628C10.8006 22.77 9.84664 24.93 7.30864 24.93C4.77064 24.93 3.81664 22.77 3.81664 20.628ZM26.8624 18.468C26.5204 15.498 24.1444 13.842 21.3184 13.842C17.3404 13.842 15.0004 16.812 15.0004 20.628C15.0004 24.336 17.3404 27.306 21.3184 27.306C24.4684 27.306 26.6824 25.254 26.9704 22.05H24.2344C24.0184 23.742 23.0464 24.93 21.3184 24.93C18.7804 24.93 17.8264 22.77 17.8264 20.628C17.8264 18.378 18.7804 16.218 21.3184 16.218C22.7224 16.218 23.9464 17.19 24.1264 18.468H26.8624ZM31.7442 27H34.5702V16.524H38.4222V14.148H27.8922V16.524H31.7442V27ZM37.2958 23.184H42.7138V20.988H37.2958V23.184ZM50.7279 14.4H48.6939C48.4239 16.326 46.7859 16.938 45.0039 16.902V18.828H48.1719V27H50.7279V14.4ZM54.0518 20.646C54.0518 25.668 56.1758 27.252 58.6598 27.252C61.1798 27.252 63.3038 25.668 63.3038 20.646C63.3038 15.732 61.1798 14.148 58.6598 14.148C56.1758 14.148 54.0518 15.732 54.0518 20.646ZM56.6078 20.646C56.6078 19.332 56.6078 16.254 58.6598 16.254C60.7478 16.254 60.7478 19.332 60.7478 20.646C60.7478 22.068 60.7478 25.146 58.6598 25.146C56.6078 25.146 56.6078 22.068 56.6078 20.646ZM71.7995 19.242C71.7995 17.91 72.2855 16.344 73.7975 16.344C74.8955 16.344 75.6875 17.1 75.6875 18.288C75.6695 19.836 74.1575 20.61 73.0415 21.366C70.8635 22.842 69.0815 24.084 69.0635 27H78.3155V24.804H72.3575C73.2755 23.508 74.7515 22.788 75.9935 21.906C77.2355 21.024 78.2435 19.98 78.2435 18.09C78.2435 15.624 76.2275 14.148 73.9235 14.148C70.8995 14.148 69.2615 16.362 69.3515 19.242H71.7995ZM79.0655 20.646C79.0655 25.668 81.1895 27.252 83.6735 27.252C86.1935 27.252 88.3175 25.668 88.3175 20.646C88.3175 15.732 86.1935 14.148 83.6735 14.148C81.1895 14.148 79.0655 15.732 79.0655 20.646ZM81.6215 20.646C81.6215 19.332 81.6215 16.254 83.6735 16.254C85.7615 16.254 85.7615 19.332 85.7615 20.646C85.7615 22.068 85.7615 25.146 83.6735 25.146C81.6215 25.146 81.6215 22.068 81.6215 20.646ZM91.8035 19.242C91.8035 17.91 92.2895 16.344 93.8015 16.344C94.8995 16.344 95.6915 17.1 95.6915 18.288C95.6735 19.836 94.1615 20.61 93.0455 21.366C90.8675 22.842 89.0855 24.084 89.0675 27H98.3195V24.804H92.3615C93.2795 23.508 94.7555 22.788 95.9975 21.906C97.2395 21.024 98.2475 19.98 98.2475 18.09C98.2475 15.624 96.2315 14.148 93.9275 14.148C90.9035 14.148 89.2655 16.362 89.3555 19.242H91.8035ZM101.805 19.242C101.805 17.91 102.291 16.344 103.803 16.344C104.901 16.344 105.693 17.1 105.693 18.288C105.675 19.836 104.163 20.61 103.047 21.366C100.869 22.842 99.0874 24.084 99.0694 27H108.321V24.804H102.363C103.281 23.508 104.757 22.788 105.999 21.906C107.241 21.024 108.249 19.98 108.249 18.09C108.249 15.624 106.233 14.148 103.929 14.148C100.905 14.148 99.2674 16.362 99.3574 19.242H101.805Z" fill="#80FF9F"/>
<path d="M145.036 15.63H134.272V26.394L145.036 15.63ZM146.876 28.5H157.64V17.736L146.876 28.5ZM164.489 17.736V28.5H175.253L164.489 17.736ZM187.857 26.394V15.63H177.093L187.857 26.394ZM205.47 15.63H194.706V26.394L205.47 15.63ZM207.31 28.5H218.074V17.736L207.31 28.5ZM224.923 17.736V28.5H235.687L224.923 17.736ZM248.29 26.394V15.63H237.526L248.29 26.394ZM265.904 15.63H255.14V26.394L265.904 15.63ZM267.743 28.5H278.507V17.736L267.743 28.5ZM285.356 17.736V28.5H296.12L285.356 17.736ZM308.724 26.394V15.63H297.96L308.724 26.394Z" fill="#3388FF"/>
<path d="M339.369 21.258C339.369 20.07 340.305 18.612 341.601 18.612C342.375 18.612 342.987 19.26 342.987 20.142C342.987 21.384 342.069 22.86 340.773 22.86C339.945 22.86 339.369 22.212 339.369 21.258ZM345.327 17.19H343.851L343.563 18.162C343.149 17.226 342.231 16.902 341.457 16.902C339.081 16.902 337.533 19.224 337.533 21.492C337.533 23.166 338.811 24.57 340.359 24.57C341.115 24.57 341.871 24.246 342.303 23.526H342.339C342.375 24.12 342.897 24.552 343.653 24.552C344.805 24.552 347.883 23.04 347.883 19.332C347.883 16.02 344.895 13.842 341.619 13.842C337.875 13.842 334.779 16.776 334.779 20.574C334.779 24.426 337.875 27.306 341.709 27.306C343.959 27.306 345.975 26.244 347.199 24.39H345.687C344.751 25.326 343.329 25.866 341.817 25.866C338.721 25.866 336.507 23.76 336.507 20.61C336.507 17.568 338.505 15.282 341.601 15.282C344.337 15.282 346.479 16.848 346.479 19.71C346.479 21.636 345.381 23.022 344.355 23.022C343.905 23.022 344.049 22.32 344.193 21.834L345.327 17.19ZM352.595 21.276H355.673C356.879 21.276 357.707 21.798 357.707 23.112C357.707 24.444 356.735 24.804 355.619 24.804H352.595V21.276ZM349.769 27H355.997C358.319 27 360.533 25.884 360.533 23.274C360.533 21.672 359.741 20.466 358.175 20.016C359.291 19.476 359.921 18.594 359.921 17.334C359.921 14.94 358.265 14.148 355.817 14.148H349.769V27ZM352.595 16.344H355.241C356.249 16.344 357.185 16.596 357.185 17.82C357.185 18.9 356.447 19.35 355.457 19.35H352.595V16.344ZM361.885 20.628C361.885 24.336 364.225 27.306 368.203 27.306C372.181 27.306 374.521 24.336 374.521 20.628C374.521 16.812 372.181 13.842 368.203 13.842C364.225 13.842 361.885 16.812 361.885 20.628ZM364.711 20.628C364.711 18.378 365.665 16.218 368.203 16.218C370.741 16.218 371.695 18.378 371.695 20.628C371.695 22.77 370.741 24.93 368.203 24.93C365.665 24.93 364.711 22.77 364.711 20.628ZM386.029 27H387.829V20.052H382.429V22.158H385.273C385.111 23.94 384.049 24.93 382.213 24.93C379.675 24.93 378.721 22.77 378.721 20.628C378.721 18.378 379.675 16.218 382.213 16.218C383.545 16.218 384.607 16.956 384.931 18.378H387.631C387.325 15.462 384.841 13.842 382.213 13.842C378.235 13.842 375.895 16.812 375.895 20.628C375.895 24.336 378.235 27.306 382.213 27.306C383.455 27.306 384.751 26.82 385.741 25.542L386.029 27ZM389.553 20.628C389.553 24.336 391.893 27.306 395.871 27.306C399.849 27.306 402.189 24.336 402.189 20.628C402.189 16.812 399.849 13.842 395.871 13.842C391.893 13.842 389.553 16.812 389.553 20.628ZM392.379 20.628C392.379 18.378 393.333 16.218 395.871 16.218C398.409 16.218 399.363 18.378 399.363 20.628C399.363 22.77 398.409 24.93 395.871 24.93C393.333 24.93 392.379 22.77 392.379 20.628ZM406.965 27H409.791V16.524H413.643V14.148H403.113V16.524H406.965V27ZM412.421 27H415.283L416.291 24.138H421.097L422.069 27H425.003L420.197 14.148H417.299L412.421 27ZM418.703 17.316H418.739L420.359 22.032H417.029L418.703 17.316ZM421.907 10.44H419.081L417.353 12.996H419.135L421.907 10.44Z" fill="#FF6A4C"/>
<path d="M449.993 20.628C449.993 24.336 452.333 27.306 456.311 27.306C460.289 27.306 462.629 24.336 462.629 20.628C462.629 16.812 460.289 13.842 456.311 13.842C452.333 13.842 449.993 16.812 449.993 20.628ZM452.819 20.628C452.819 18.378 453.773 16.218 456.311 16.218C458.849 16.218 459.803 18.378 459.803 20.628C459.803 22.77 458.849 24.93 456.311 24.93C453.773 24.93 452.819 22.77 452.819 20.628ZM475.864 18.468C475.522 15.498 473.146 13.842 470.32 13.842C466.342 13.842 464.002 16.812 464.002 20.628C464.002 24.336 466.342 27.306 470.32 27.306C473.47 27.306 475.684 25.254 475.972 22.05H473.236C473.02 23.742 472.048 24.93 470.32 24.93C467.782 24.93 466.828 22.77 466.828 20.628C466.828 18.378 467.782 16.218 470.32 16.218C471.724 16.218 472.948 17.19 473.128 18.468H475.864ZM480.746 27H483.572V16.524H487.424V14.148H476.894V16.524H480.746V27ZM486.298 23.184H491.716V20.988H486.298V23.184ZM499.73 14.4H497.696C497.426 16.326 495.788 16.938 494.006 16.902V18.828H497.174V27H499.73V14.4ZM503.054 20.646C503.054 25.668 505.178 27.252 507.662 27.252C510.182 27.252 512.306 25.668 512.306 20.646C512.306 15.732 510.182 14.148 507.662 14.148C505.178 14.148 503.054 15.732 503.054 20.646ZM505.61 20.646C505.61 19.332 505.61 16.254 507.662 16.254C509.75 16.254 509.75 19.332 509.75 20.646C509.75 22.068 509.75 25.146 507.662 25.146C505.61 25.146 505.61 22.068 505.61 20.646ZM520.802 19.242C520.802 17.91 521.288 16.344 522.8 16.344C523.898 16.344 524.69 17.1 524.69 18.288C524.672 19.836 523.16 20.61 522.044 21.366C519.866 22.842 518.084 24.084 518.066 27H527.318V24.804H521.36C522.278 23.508 523.754 22.788 524.996 21.906C526.238 21.024 527.246 19.98 527.246 18.09C527.246 15.624 525.23 14.148 522.926 14.148C519.902 14.148 518.264 16.362 518.354 19.242H520.802ZM530.803 19.242C530.803 17.91 531.289 16.344 532.801 16.344C533.899 16.344 534.691 17.1 534.691 18.288C534.673 19.836 533.161 20.61 532.045 21.366C529.867 22.842 528.085 24.084 528.067 27H537.319V24.804H531.361C532.279 23.508 533.755 22.788 534.997 21.906C536.239 21.024 537.247 19.98 537.247 18.09C537.247 15.624 535.231 14.148 532.927 14.148C529.903 14.148 528.265 16.362 528.355 19.242H530.803Z" fill="#DCF908"/>
<path d="M562.933 28.5H577.423L570.187 15.954L562.933 28.5ZM586.517 28.5L593.753 15.954H579.263L586.517 28.5ZM595.593 28.5H610.083L602.847 15.954L595.593 28.5ZM619.177 28.5L626.413 15.954H611.923L619.177 28.5ZM628.253 28.5H642.743L635.507 15.954L628.253 28.5ZM651.837 28.5L659.073 15.954H644.583L651.837 28.5ZM660.913 28.5H675.403L668.167 15.954L660.913 28.5ZM684.497 28.5L691.733 15.954H677.243L684.497 28.5ZM693.573 28.5H708.063L700.827 15.954L693.573 28.5Z" fill="white"/>
<path d="M738.369 21.258C738.369 20.07 739.305 18.612 740.601 18.612C741.375 18.612 741.987 19.26 741.987 20.142C741.987 21.384 741.069 22.86 739.773 22.86C738.945 22.86 738.369 22.212 738.369 21.258ZM744.327 17.19H742.851L742.563 18.162C742.149 17.226 741.231 16.902 740.457 16.902C738.081 16.902 736.533 19.224 736.533 21.492C736.533 23.166 737.811 24.57 739.359 24.57C740.115 24.57 740.871 24.246 741.303 23.526H741.339C741.375 24.12 741.897 24.552 742.653 24.552C743.805 24.552 746.883 23.04 746.883 19.332C746.883 16.02 743.895 13.842 740.619 13.842C736.875 13.842 733.779 16.776 733.779 20.574C733.779 24.426 736.875 27.306 740.709 27.306C742.959 27.306 744.975 26.244 746.199 24.39H744.687C743.751 25.326 742.329 25.866 740.817 25.866C737.721 25.866 735.507 23.76 735.507 20.61C735.507 17.568 737.505 15.282 740.601 15.282C743.337 15.282 745.479 16.848 745.479 19.71C745.479 21.636 744.381 23.022 743.355 23.022C742.905 23.022 743.049 22.32 743.193 21.834L744.327 17.19ZM751.595 21.276H754.673C755.879 21.276 756.707 21.798 756.707 23.112C756.707 24.444 755.735 24.804 754.619 24.804H751.595V21.276ZM748.769 27H754.997C757.319 27 759.533 25.884 759.533 23.274C759.533 21.672 758.741 20.466 757.175 20.016C758.291 19.476 758.921 18.594 758.921 17.334C758.921 14.94 757.265 14.148 754.817 14.148H748.769V27ZM751.595 16.344H754.241C755.249 16.344 756.185 16.596 756.185 17.82C756.185 18.9 755.447 19.35 754.457 19.35H751.595V16.344ZM760.885 20.628C760.885 24.336 763.225 27.306 767.203 27.306C771.181 27.306 773.521 24.336 773.521 20.628C773.521 16.812 771.181 13.842 767.203 13.842C763.225 13.842 760.885 16.812 760.885 20.628ZM763.711 20.628C763.711 18.378 764.665 16.218 767.203 16.218C769.741 16.218 770.695 18.378 770.695 20.628C770.695 22.77 769.741 24.93 767.203 24.93C764.665 24.93 763.711 22.77 763.711 20.628ZM785.029 27H786.829V20.052H781.429V22.158H784.273C784.111 23.94 783.049 24.93 781.213 24.93C778.675 24.93 777.721 22.77 777.721 20.628C777.721 18.378 778.675 16.218 781.213 16.218C782.545 16.218 783.607 16.956 783.931 18.378H786.631C786.325 15.462 783.841 13.842 781.213 13.842C777.235 13.842 774.895 16.812 774.895 20.628C774.895 24.336 777.235 27.306 781.213 27.306C782.455 27.306 783.751 26.82 784.741 25.542L785.029 27ZM788.553 20.628C788.553 24.336 790.893 27.306 794.871 27.306C798.849 27.306 801.189 24.336 801.189 20.628C801.189 16.812 798.849 13.842 794.871 13.842C790.893 13.842 788.553 16.812 788.553 20.628ZM791.379 20.628C791.379 18.378 792.333 16.218 794.871 16.218C797.409 16.218 798.363 18.378 798.363 20.628C798.363 22.77 797.409 24.93 794.871 24.93C792.333 24.93 791.379 22.77 791.379 20.628ZM805.965 27H808.791V16.524H812.643V14.148H802.113V16.524H805.965V27ZM811.421 27H814.283L815.291 24.138H820.097L821.069 27H824.003L819.197 14.148H816.299L811.421 27ZM817.703 17.316H817.739L819.359 22.032H816.029L817.703 17.316ZM820.907 10.44H818.081L816.353 12.996H818.135L820.907 10.44Z" fill="#E573E5"/>
<path d="M848.993 20.628C848.993 24.336 851.333 27.306 855.311 27.306C859.289 27.306 861.629 24.336 861.629 20.628C861.629 16.812 859.289 13.842 855.311 13.842C851.333 13.842 848.993 16.812 848.993 20.628ZM851.819 20.628C851.819 18.378 852.773 16.218 855.311 16.218C857.849 16.218 858.803 18.378 858.803 20.628C858.803 22.77 857.849 24.93 855.311 24.93C852.773 24.93 851.819 22.77 851.819 20.628ZM874.864 18.468C874.522 15.498 872.146 13.842 869.32 13.842C865.342 13.842 863.002 16.812 863.002 20.628C863.002 24.336 865.342 27.306 869.32 27.306C872.47 27.306 874.684 25.254 874.972 22.05H872.236C872.02 23.742 871.048 24.93 869.32 24.93C866.782 24.93 865.828 22.77 865.828 20.628C865.828 18.378 866.782 16.218 869.32 16.218C870.724 16.218 871.948 17.19 872.128 18.468H874.864ZM879.746 27H882.572V16.524H886.424V14.148H875.894V16.524H879.746V27ZM885.298 23.184H890.716V20.988H885.298V23.184ZM898.73 14.4H896.696C896.426 16.326 894.788 16.938 893.006 16.902V18.828H896.174V27H898.73V14.4ZM902.054 20.646C902.054 25.668 904.178 27.252 906.662 27.252C909.182 27.252 911.306 25.668 911.306 20.646C911.306 15.732 909.182 14.148 906.662 14.148C904.178 14.148 902.054 15.732 902.054 20.646ZM904.61 20.646C904.61 19.332 904.61 16.254 906.662 16.254C908.75 16.254 908.75 19.332 908.75 20.646C908.75 22.068 908.75 25.146 906.662 25.146C904.61 25.146 904.61 22.068 904.61 20.646ZM919.802 19.242C919.802 17.91 920.288 16.344 921.8 16.344C922.898 16.344 923.69 17.1 923.69 18.288C923.672 19.836 922.16 20.61 921.044 21.366C918.866 22.842 917.084 24.084 917.066 27H926.318V24.804H920.36C921.278 23.508 922.754 22.788 923.996 21.906C925.238 21.024 926.246 19.98 926.246 18.09C926.246 15.624 924.23 14.148 921.926 14.148C918.902 14.148 917.264 16.362 917.354 19.242H919.802ZM929.803 19.242C929.803 17.91 930.289 16.344 931.801 16.344C932.899 16.344 933.691 17.1 933.691 18.288C933.673 19.836 932.161 20.61 931.045 21.366C928.867 22.842 927.085 24.084 927.067 27H936.319V24.804H930.361C931.279 23.508 932.755 22.788 933.997 21.906C935.239 21.024 936.247 19.98 936.247 18.09C936.247 15.624 934.231 14.148 931.927 14.148C928.903 14.148 927.265 16.362 927.355 19.242H929.803Z" fill="#3388FF"/>
<path d="M971.066 31.038L980.12 21.984L971.066 12.912L961.994 21.984L971.066 31.038ZM971.066 29.4L963.65 21.984L971.066 14.55L978.482 21.984L971.066 29.4ZM971.066 25.746L974.846 21.984L971.066 18.204L967.286 21.984L971.066 25.746ZM987.039 25.368V20.022L981.693 22.704L987.039 25.368ZM988.355 25.368L993.701 22.704L988.355 20.022V25.368ZM1004.36 31.038L1013.41 21.984L1004.36 12.912L995.287 21.984L1004.36 31.038ZM1004.36 29.4L996.943 21.984L1004.36 14.55L1011.78 21.984L1004.36 29.4ZM1004.36 25.746L1008.14 21.984L1004.36 18.204L1000.58 21.984L1004.36 25.746ZM1020.33 25.368V20.022L1014.99 22.704L1020.33 25.368ZM1021.65 25.368L1026.99 22.704L1021.65 20.022V25.368ZM1037.65 31.038L1046.71 21.984L1037.65 12.912L1028.58 21.984L1037.65 31.038ZM1037.65 29.4L1030.24 21.984L1037.65 14.55L1045.07 21.984L1037.65 29.4ZM1037.65 25.746L1041.43 21.984L1037.65 18.204L1033.87 21.984L1037.65 25.746ZM1053.62 25.368V20.022L1048.28 22.704L1053.62 25.368ZM1054.94 25.368L1060.29 22.704L1054.94 20.022V25.368ZM1070.95 31.038L1080 21.984L1070.95 12.912L1061.87 21.984L1070.95 31.038ZM1070.95 29.4L1063.53 21.984L1070.95 14.55L1078.36 21.984L1070.95 29.4ZM1070.95 25.746L1074.73 21.984L1070.95 18.204L1067.17 21.984L1070.95 25.746Z" fill="#80FF9F"/>
<path d="M1110.37 21.258C1110.37 20.07 1111.3 18.612 1112.6 18.612C1113.37 18.612 1113.99 19.26 1113.99 20.142C1113.99 21.384 1113.07 22.86 1111.77 22.86C1110.94 22.86 1110.37 22.212 1110.37 21.258ZM1116.33 17.19H1114.85L1114.56 18.162C1114.15 17.226 1113.23 16.902 1112.46 16.902C1110.08 16.902 1108.53 19.224 1108.53 21.492C1108.53 23.166 1109.81 24.57 1111.36 24.57C1112.11 24.57 1112.87 24.246 1113.3 23.526H1113.34C1113.37 24.12 1113.9 24.552 1114.65 24.552C1115.8 24.552 1118.88 23.04 1118.88 19.332C1118.88 16.02 1115.89 13.842 1112.62 13.842C1108.87 13.842 1105.78 16.776 1105.78 20.574C1105.78 24.426 1108.87 27.306 1112.71 27.306C1114.96 27.306 1116.97 26.244 1118.2 24.39H1116.69C1115.75 25.326 1114.33 25.866 1112.82 25.866C1109.72 25.866 1107.51 23.76 1107.51 20.61C1107.51 17.568 1109.5 15.282 1112.6 15.282C1115.34 15.282 1117.48 16.848 1117.48 19.71C1117.48 21.636 1116.38 23.022 1115.35 23.022C1114.9 23.022 1115.05 22.32 1115.19 21.834L1116.33 17.19ZM1123.6 21.276H1126.67C1127.88 21.276 1128.71 21.798 1128.71 23.112C1128.71 24.444 1127.74 24.804 1126.62 24.804H1123.6V21.276ZM1120.77 27H1127C1129.32 27 1131.53 25.884 1131.53 23.274C1131.53 21.672 1130.74 20.466 1129.18 20.016C1130.29 19.476 1130.92 18.594 1130.92 17.334C1130.92 14.94 1129.27 14.148 1126.82 14.148H1120.77V27ZM1123.6 16.344H1126.24C1127.25 16.344 1128.19 16.596 1128.19 17.82C1128.19 18.9 1127.45 19.35 1126.46 19.35H1123.6V16.344ZM1132.89 20.628C1132.89 24.336 1135.23 27.306 1139.2 27.306C1143.18 27.306 1145.52 24.336 1145.52 20.628C1145.52 16.812 1143.18 13.842 1139.2 13.842C1135.23 13.842 1132.89 16.812 1132.89 20.628ZM1135.71 20.628C1135.71 18.378 1136.67 16.218 1139.2 16.218C1141.74 16.218 1142.7 18.378 1142.7 20.628C1142.7 22.77 1141.74 24.93 1139.2 24.93C1136.67 24.93 1135.71 22.77 1135.71 20.628ZM1157.03 27H1158.83V20.052H1153.43V22.158H1156.27C1156.11 23.94 1155.05 24.93 1153.21 24.93C1150.67 24.93 1149.72 22.77 1149.72 20.628C1149.72 18.378 1150.67 16.218 1153.21 16.218C1154.54 16.218 1155.61 16.956 1155.93 18.378H1158.63C1158.32 15.462 1155.84 13.842 1153.21 13.842C1149.23 13.842 1146.89 16.812 1146.89 20.628C1146.89 24.336 1149.23 27.306 1153.21 27.306C1154.45 27.306 1155.75 26.82 1156.74 25.542L1157.03 27ZM1160.55 20.628C1160.55 24.336 1162.89 27.306 1166.87 27.306C1170.85 27.306 1173.19 24.336 1173.19 20.628C1173.19 16.812 1170.85 13.842 1166.87 13.842C1162.89 13.842 1160.55 16.812 1160.55 20.628ZM1163.38 20.628C1163.38 18.378 1164.33 16.218 1166.87 16.218C1169.41 16.218 1170.36 18.378 1170.36 20.628C1170.36 22.77 1169.41 24.93 1166.87 24.93C1164.33 24.93 1163.38 22.77 1163.38 20.628ZM1177.96 27H1180.79V16.524H1184.64V14.148H1174.11V16.524H1177.96V27ZM1183.42 27H1186.28L1187.29 24.138H1192.1L1193.07 27H1196L1191.2 14.148H1188.3L1183.42 27ZM1189.7 17.316H1189.74L1191.36 22.032H1188.03L1189.7 17.316ZM1192.91 10.44H1190.08L1188.35 12.996H1190.13L1192.91 10.44Z" fill="#FAF7F5"/>
<path d="M1220.99 20.628C1220.99 24.336 1223.33 27.306 1227.31 27.306C1231.29 27.306 1233.63 24.336 1233.63 20.628C1233.63 16.812 1231.29 13.842 1227.31 13.842C1223.33 13.842 1220.99 16.812 1220.99 20.628ZM1223.82 20.628C1223.82 18.378 1224.77 16.218 1227.31 16.218C1229.85 16.218 1230.8 18.378 1230.8 20.628C1230.8 22.77 1229.85 24.93 1227.31 24.93C1224.77 24.93 1223.82 22.77 1223.82 20.628ZM1246.86 18.468C1246.52 15.498 1244.15 13.842 1241.32 13.842C1237.34 13.842 1235 16.812 1235 20.628C1235 24.336 1237.34 27.306 1241.32 27.306C1244.47 27.306 1246.68 25.254 1246.97 22.05H1244.24C1244.02 23.742 1243.05 24.93 1241.32 24.93C1238.78 24.93 1237.83 22.77 1237.83 20.628C1237.83 18.378 1238.78 16.218 1241.32 16.218C1242.72 16.218 1243.95 17.19 1244.13 18.468H1246.86ZM1251.75 27H1254.57V16.524H1258.42V14.148H1247.89V16.524H1251.75V27ZM1257.3 23.184H1262.72V20.988H1257.3V23.184ZM1270.73 14.4H1268.7C1268.43 16.326 1266.79 16.938 1265.01 16.902V18.828H1268.17V27H1270.73V14.4ZM1274.05 20.646C1274.05 25.668 1276.18 27.252 1278.66 27.252C1281.18 27.252 1283.31 25.668 1283.31 20.646C1283.31 15.732 1281.18 14.148 1278.66 14.148C1276.18 14.148 1274.05 15.732 1274.05 20.646ZM1276.61 20.646C1276.61 19.332 1276.61 16.254 1278.66 16.254C1280.75 16.254 1280.75 19.332 1280.75 20.646C1280.75 22.068 1280.75 25.146 1278.66 25.146C1276.61 25.146 1276.61 22.068 1276.61 20.646ZM1291.8 19.242C1291.8 17.91 1292.29 16.344 1293.8 16.344C1294.9 16.344 1295.69 17.1 1295.69 18.288C1295.67 19.836 1294.16 20.61 1293.04 21.366C1290.87 22.842 1289.08 24.084 1289.07 27H1298.32V24.804H1292.36C1293.28 23.508 1294.75 22.788 1296 21.906C1297.24 21.024 1298.25 19.98 1298.25 18.09C1298.25 15.624 1296.23 14.148 1293.93 14.148C1290.9 14.148 1289.26 16.362 1289.35 19.242H1291.8ZM1301.8 19.242C1301.8 17.91 1302.29 16.344 1303.8 16.344C1304.9 16.344 1305.69 17.1 1305.69 18.288C1305.67 19.836 1304.16 20.61 1303.05 21.366C1300.87 22.842 1299.09 24.084 1299.07 27H1308.32V24.804H1302.36C1303.28 23.508 1304.76 22.788 1306 21.906C1307.24 21.024 1308.25 19.98 1308.25 18.09C1308.25 15.624 1306.23 14.148 1303.93 14.148C1300.9 14.148 1299.27 16.362 1299.36 19.242H1301.8Z" fill="#80FF9F"/>
<path d="M1343.07 31.038L1352.12 21.984L1343.07 12.912L1333.99 21.984L1343.07 31.038ZM1343.07 29.4L1335.65 21.984L1343.07 14.55L1350.48 21.984L1343.07 29.4ZM1343.07 25.746L1346.85 21.984L1343.07 18.204L1339.29 21.984L1343.07 25.746ZM1359.04 25.368V20.022L1353.69 22.704L1359.04 25.368ZM1360.36 25.368L1365.7 22.704L1360.36 20.022V25.368ZM1376.36 31.038L1385.41 21.984L1376.36 12.912L1367.29 21.984L1376.36 31.038ZM1376.36 29.4L1368.94 21.984L1376.36 14.55L1383.78 21.984L1376.36 29.4ZM1376.36 25.746L1380.14 21.984L1376.36 18.204L1372.58 21.984L1376.36 25.746ZM1392.33 25.368V20.022L1386.99 22.704L1392.33 25.368ZM1393.65 25.368L1398.99 22.704L1393.65 20.022V25.368ZM1409.65 31.038L1418.71 21.984L1409.65 12.912L1400.58 21.984L1409.65 31.038ZM1409.65 29.4L1402.24 21.984L1409.65 14.55L1417.07 21.984L1409.65 29.4ZM1409.65 25.746L1413.43 21.984L1409.65 18.204L1405.87 21.984L1409.65 25.746ZM1425.62 25.368V20.022L1420.28 22.704L1425.62 25.368ZM1426.94 25.368L1432.29 22.704L1426.94 20.022V25.368ZM1442.95 31.038L1452 21.984L1442.95 12.912L1433.87 21.984L1442.95 31.038ZM1442.95 29.4L1435.53 21.984L1442.95 14.55L1450.36 21.984L1442.95 29.4ZM1442.95 25.746L1446.73 21.984L1442.95 18.204L1439.17 21.984L1442.95 25.746Z" fill="#80FF9F"/>
</svg>
