<svg fill="none" height="46" viewBox="0 0 1712 46" width="1712" xmlns="http://www.w3.org/2000/svg"><path d="m28.2589 30.112c-.984 0-1.908-.186-2.772-.558-.864-.36-1.626-.864-2.286-1.512-.648-.66-1.158-1.422-1.53-2.286-.36-.864-.54-1.788-.54-2.772 0-.996.18-1.92.54-2.772.372-.864.882-1.62 1.53-2.268.66-.66 1.422-1.17 2.286-1.53.864-.372 1.788-.558 2.772-.558.996 0 1.92.186 2.772.558.864.36 1.62.87 2.268 1.53.66.648 1.17 1.404 1.53 2.268.372.852.558 1.776.558 2.772 0 .984-.186 1.908-.558 2.772-.36.864-.87 1.626-1.53 2.286-.648.648-1.404 1.152-2.268 1.512-.852.372-1.776.558-2.772.558zm0-.756v-12.744c-.888 0-1.716.168-2.484.504-.768.324-1.446.78-2.034 1.368-.576.576-1.032 1.248-1.368 2.016-.324.768-.486 1.596-.486 2.484s.162 1.716.486 2.484c.336.768.792 1.446 1.368 2.034.588.576 1.266 1.032 2.034 1.368.768.324 1.596.486 2.484.486zm21.0937.756c-.984 0-1.908-.186-2.772-.558-.852-.36-1.608-.864-2.268-1.512-.648-.66-1.158-1.422-1.53-2.286s-.558-1.788-.558-2.772.186-1.908.558-2.772.882-1.62 1.53-2.268c.66-.66 1.416-1.17 2.268-1.53.864-.372 1.788-.558 2.772-.558s1.908.186 2.772.558c.864.36 1.62.87 2.268 1.53.66.648 1.17 1.404 1.53 2.268.372.864.558 1.788.558 2.772s-.186 1.908-.558 2.772c-.36.864-.87 1.626-1.53 2.286-.648.648-1.404 1.152-2.268 1.512-.864.372-1.788.558-2.772.558zm0-1.242c.816 0 1.578-.15 2.286-.45.708-.312 1.332-.738 1.872-1.278s.96-1.164 1.26-1.872c.312-.708.468-1.47.468-2.286s-.156-1.578-.468-2.286c-.3-.708-.72-1.332-1.26-1.872s-1.164-.96-1.872-1.26c-.708-.312-1.47-.468-2.286-.468s-1.578.156-2.286.468c-.708.3-1.332.72-1.872 1.26s-.966 1.164-1.278 1.872c-.3.708-.45 1.47-.45 2.286s.15 1.578.45 2.286c.312.708.738 1.332 1.278 1.872s1.164.966 1.872 1.278c.708.3 1.47.45 2.286.45zm0-.864c-.696 0-1.35-.126-1.962-.378-.6-.264-1.134-.624-1.602-1.08-.456-.468-.816-1.002-1.08-1.602-.252-.612-.378-1.266-.378-1.962s.126-1.344.378-1.944c.264-.612.624-1.146 1.08-1.602.468-.468 1.002-.828 1.602-1.08.612-.264 1.266-.396 1.962-.396s1.35.132 1.962.396c.612.252 1.146.612 1.602 1.08.468.456.828.99 1.08 1.602.264.6.396 1.248.396 1.944s-.132 1.35-.396 1.962c-.252.6-.612 1.134-1.08 1.602-.456.456-.99.816-1.602 1.08-.612.252-1.266.378-1.962.378zm21.0938 2.106c-.984 0-1.908-.186-2.772-.558-.864-.36-1.626-.864-2.286-1.512-.648-.66-1.158-1.422-1.53-2.286-.36-.864-.54-1.788-.54-2.772 0-.996.18-1.92.54-2.772.372-.864.882-1.62 1.53-2.268.66-.66 1.422-1.17 2.286-1.53.864-.372 1.788-.558 2.772-.558.996 0 1.92.186 2.772.558.864.36 1.62.87 2.268 1.53.66.648 1.17 1.404 1.53 2.268.372.852.558 1.776.558 2.772 0 .984-.186 1.908-.558 2.772-.36.864-.87 1.626-1.53 2.286-.648.648-1.404 1.152-2.268 1.512-.852.372-1.776.558-2.772.558zm0-.756c.888 0 1.716-.162 2.484-.486.768-.336 1.44-.792 2.016-1.368.588-.588 1.044-1.266 1.368-2.034.336-.768.504-1.596.504-2.484s-.168-1.716-.504-2.484c-.324-.768-.78-1.44-1.368-2.016-.576-.588-1.248-1.044-2.016-1.368-.768-.336-1.596-.504-2.484-.504zm13.9657.216v-13.176h13.176v13.176zm27.1499.54c-.984 0-1.908-.186-2.772-.558-.864-.36-1.626-.864-2.286-1.512-.648-.66-1.158-1.422-1.53-2.286-.36-.864-.54-1.788-.54-2.772 0-.996.18-1.92.54-2.772.372-.864.882-1.62 1.53-2.268.66-.66 1.422-1.17 2.286-1.53.864-.372 1.788-.558 2.772-.558.996 0 1.92.186 2.772.558.864.36 1.62.87 2.268 1.53.66.648 1.17 1.404 1.53 2.268.372.852.558 1.776.558 2.772 0 .984-.186 1.908-.558 2.772-.36.864-.87 1.626-1.53 2.286-.648.648-1.404 1.152-2.268 1.512-.852.372-1.776.558-2.772.558zm0-.756v-12.744c-.888 0-1.716.168-2.484.504-.768.324-1.446.78-2.034 1.368-.576.576-1.032 1.248-1.368 2.016-.324.768-.486 1.596-.486 2.484s.162 1.716.486 2.484c.336.768.792 1.446 1.368 2.034.588.576 1.266 1.032 2.034 1.368.768.324 1.596.486 2.484.486zm21.093.756c-.984 0-1.908-.186-2.772-.558-.852-.36-1.608-.864-2.268-1.512-.648-.66-1.158-1.422-1.53-2.286s-.558-1.788-.558-2.772.186-1.908.558-2.772.882-1.62 1.53-2.268c.66-.66 1.416-1.17 2.268-1.53.864-.372 1.788-.558 2.772-.558s1.908.186 2.772.558c.864.36 1.62.87 2.268 1.53.66.648 1.17 1.404 1.53 2.268.372.864.558 1.788.558 2.772s-.186 1.908-.558 2.772c-.36.864-.87 1.626-1.53 2.286-.648.648-1.404 1.152-2.268 1.512-.864.372-1.788.558-2.772.558zm0-1.242c.816 0 1.578-.15 2.286-.45.708-.312 1.332-.738 1.872-1.278s.96-1.164 1.26-1.872c.312-.708.468-1.47.468-2.286s-.156-1.578-.468-2.286c-.3-.708-.72-1.332-1.26-1.872s-1.164-.96-1.872-1.26c-.708-.312-1.47-.468-2.286-.468s-1.578.156-2.286.468c-.708.3-1.332.72-1.872 1.26s-.966 1.164-1.278 1.872c-.3.708-.45 1.47-.45 2.286s.15 1.578.45 2.286c.312.708.738 1.332 1.278 1.872s1.164.966 1.872 1.278c.708.3 1.47.45 2.286.45zm0-.864c-.696 0-1.35-.126-1.962-.378-.6-.264-1.134-.624-1.602-1.08-.456-.468-.816-1.002-1.08-1.602-.252-.612-.378-1.266-.378-1.962s.126-1.344.378-1.944c.264-.612.624-1.146 1.08-1.602.468-.468 1.002-.828 1.602-1.08.612-.264 1.266-.396 1.962-.396s1.35.132 1.962.396c.612.252 1.146.612 1.602 1.08.468.456.828.99 1.08 1.602.264.6.396 1.248.396 1.944s-.132 1.35-.396 1.962c-.252.6-.612 1.134-1.08 1.602-.456.456-.99.816-1.602 1.08-.612.252-1.266.378-1.962.378zm21.094 2.106c-.984 0-1.908-.186-2.772-.558-.864-.36-1.626-.864-2.286-1.512-.648-.66-1.158-1.422-1.53-2.286-.36-.864-.54-1.788-.54-2.772 0-.996.18-1.92.54-2.772.372-.864.882-1.62 1.53-2.268.66-.66 1.422-1.17 2.286-1.53.864-.372 1.788-.558 2.772-.558.996 0 1.92.186 2.772.558.864.36 1.62.87 2.268 1.53.66.648 1.17 1.404 1.53 2.268.372.852.558 1.776.558 2.772 0 .984-.186 1.908-.558 2.772-.36.864-.87 1.626-1.53 2.286-.648.648-1.404 1.152-2.268 1.512-.852.372-1.776.558-2.772.558zm0-.756c.888 0 1.716-.162 2.484-.486.768-.336 1.44-.792 2.016-1.368.588-.588 1.044-1.266 1.368-2.034.336-.768.504-1.596.504-2.484s-.168-1.716-.504-2.484c-.324-.768-.78-1.44-1.368-2.016-.576-.588-1.248-1.044-2.016-1.368-.768-.336-1.596-.504-2.484-.504z" fill="#dcf908"/><path d="m191.684 21.258c0-1.188.936-2.646 2.232-2.646.774 0 1.386.648 1.386 1.53 0 1.242-.918 2.718-2.214 2.718-.828 0-1.404-.648-1.404-1.602zm5.958-4.068h-1.476l-.288.972c-.414-.936-1.332-1.26-2.106-1.26-2.376 0-3.924 2.322-3.924 4.59 0 1.674 1.278 3.078 2.826 3.078.756 0 1.512-.324 1.944-1.044h.036c.036.594.558 1.026 1.314 1.026 1.152 0 4.23-1.512 4.23-5.22 0-3.312-2.988-5.49-6.264-5.49-3.744 0-6.84 2.934-6.84 6.732 0 3.852 3.096 6.732 6.93 6.732 2.25 0 4.266-1.062 5.49-2.916h-1.512c-.936.936-2.358 1.476-3.87 1.476-3.096 0-5.31-2.106-5.31-5.256 0-3.042 1.998-5.328 5.094-5.328 2.736 0 4.878 1.566 4.878 4.428 0 1.926-1.098 3.312-2.124 3.312-.45 0-.306-.702-.162-1.188zm7.269 4.086h3.078c1.206 0 2.034.522 2.034 1.836 0 1.332-.972 1.692-2.088 1.692h-3.024zm-2.826 5.724h6.228c2.322 0 4.536-1.116 4.536-3.726 0-1.602-.792-2.808-2.358-3.258 1.116-.54 1.746-1.422 1.746-2.682 0-2.394-1.656-3.186-4.104-3.186h-6.048zm2.826-10.656h2.646c1.008 0 1.944.252 1.944 1.476 0 1.08-.738 1.53-1.728 1.53h-2.862zm20.756-2.196h-2.826v7.992c0 1.908-.648 2.79-2.664 2.79-2.286 0-2.646-1.386-2.646-2.79v-7.992h-2.826v7.992c0 3.492 2.016 5.166 5.472 5.166 3.438 0 5.49-1.692 5.49-5.166zm2.433 12.852h9.756v-2.376h-6.93v-3.15h6.228v-2.196h-6.228v-2.754h6.786v-2.376h-9.612zm11.672 0h2.646v-8.604h.036l5.346 8.604h2.826v-12.852h-2.646v8.622h-.036l-5.364-8.622h-2.808zm12.784-6.372c0 3.708 2.34 6.678 6.318 6.678s6.318-2.97 6.318-6.678c0-3.816-2.34-6.786-6.318-6.786s-6.318 2.97-6.318 6.786zm2.826 0c0-2.25.954-4.41 3.492-4.41s3.492 2.16 3.492 4.41c0 2.142-.954 4.302-3.492 4.302s-3.492-2.16-3.492-4.302zm10.932 2.106c-.036 3.168 2.628 4.572 5.472 4.572 3.492 0 5.346-1.764 5.346-4.122 0-2.916-2.88-3.51-3.816-3.744-3.222-.828-3.834-.954-3.834-1.944 0-1.08 1.044-1.458 1.944-1.458 1.35 0 2.448.396 2.538 1.944h2.736c0-2.97-2.466-4.14-5.148-4.14-2.322 0-4.806 1.26-4.806 3.888 0 2.412 1.926 3.15 3.834 3.654 1.89.504 3.816.738 3.816 2.124 0 1.314-1.512 1.602-2.502 1.602-1.512 0-2.844-.666-2.844-2.376zm11.131 4.266h2.862l1.008-2.862h4.806l.972 2.862h2.934l-4.806-12.852h-2.898zm6.282-9.684h.036l1.62 4.716h-3.33zm7.409 9.684h2.826v-12.852h-2.826zm5.308 0h2.826v-5.022h2.826c1.422 0 1.944.594 2.142 1.944.144 1.026.108 2.268.45 3.078h2.826c-.504-.72-.486-2.232-.54-3.042-.09-1.296-.486-2.646-1.872-3.006v-.036c1.422-.576 2.034-1.71 2.034-3.222 0-1.944-1.458-3.546-3.762-3.546h-6.93zm2.826-10.656h3.096c1.26 0 1.944.54 1.944 1.782 0 1.296-.684 1.836-1.944 1.836h-3.096zm10.164 10.656h9.756v-2.376h-6.93v-3.15h6.228v-2.196h-6.228v-2.754h6.786v-2.376h-9.612zm10.862-4.266c-.036 3.168 2.628 4.572 5.472 4.572 3.492 0 5.346-1.764 5.346-4.122 0-2.916-2.88-3.51-3.816-3.744-3.222-.828-3.834-.954-3.834-1.944 0-1.08 1.044-1.458 1.944-1.458 1.35 0 2.448.396 2.538 1.944h2.736c0-2.97-2.466-4.14-5.148-4.14-2.322 0-4.806 1.26-4.806 3.888 0 2.412 1.926 3.15 3.834 3.654 1.89.504 3.816.738 3.816 2.124 0 1.314-1.512 1.602-2.502 1.602-1.512 0-2.844-.666-2.844-2.376z" fill="#e573e5"/><path d="m356.196 27h2.862l1.008-2.862h4.806l.972 2.862h2.934l-4.806-12.852h-2.898zm6.282-9.684h.036l1.62 4.716h-3.33zm18.317-3.168h-2.826v7.992c0 1.908-.648 2.79-2.664 2.79-2.286 0-2.646-1.386-2.646-2.79v-7.992h-2.826v7.992c0 3.492 2.016 5.166 5.472 5.166 3.438 0 5.49-1.692 5.49-5.166zm12.009 12.852h1.8v-6.948h-5.4v2.106h2.844c-.162 1.782-1.224 2.772-3.06 2.772-2.538 0-3.492-2.16-3.492-4.302 0-2.25.954-4.41 3.492-4.41 1.332 0 2.394.738 2.718 2.16h2.7c-.306-2.916-2.79-4.536-5.418-4.536-3.978 0-6.318 2.97-6.318 6.786 0 3.708 2.34 6.678 6.318 6.678 1.242 0 2.538-.486 3.528-1.764zm14.906-12.6h-2.034c-.27 1.926-1.908 2.538-3.69 2.502v1.926h3.168v8.172h2.556zm10.002 0h-2.034c-.27 1.926-1.908 2.538-3.69 2.502v1.926h3.168v8.172h2.556zm3.9 8.784h5.418v-2.196h-5.418zm13.432-8.784h-2.034c-.27 1.926-1.908 2.538-3.69 2.502v1.926h3.168v8.172h2.556zm6.06 4.842c0-1.332.486-2.898 1.998-2.898 1.098 0 1.89.756 1.89 1.944-.018 1.548-1.53 2.322-2.646 3.078-2.178 1.476-3.96 2.718-3.978 5.634h9.252v-2.196h-5.958c.918-1.296 2.394-2.016 3.636-2.898s2.25-1.926 2.25-3.816c0-2.466-2.016-3.942-4.32-3.942-3.024 0-4.662 2.214-4.572 5.094zm7.842 3.942h5.418v-2.196h-5.418zm13.432-8.784h-2.034c-.27 1.926-1.908 2.538-3.69 2.502v1.926h3.168v8.172h2.556zm7.05 6.894c1.242 0 2.916-.036 2.916 1.872 0 1.188-.9 1.98-2.052 1.98-1.476 0-2.16-1.116-2.214-2.484h-2.43c-.054 2.898 1.854 4.59 4.68 4.59 2.466 0 4.68-1.494 4.68-4.14 0-1.404-.846-2.556-2.232-2.862v-.036c1.17-.324 1.764-1.386 1.764-2.574 0-2.25-2.214-3.492-4.23-3.492-2.592 0-4.266 1.782-4.356 4.356h2.43c-.018-1.296.666-2.25 1.944-2.25.936 0 1.782.612 1.782 1.674 0 1.44-1.584 1.656-2.682 1.566zm6.852 1.89h5.418v-2.196h-5.418zm13.432-8.784h-2.034c-.27 1.926-1.908 2.538-3.69 2.502v1.926h3.168v8.172h2.556zm8.562 12.6h2.43v-2.916h1.674v-2.106h-1.674v-7.578h-2.286l-5.472 7.344v2.34h5.328zm0-5.022h-3.312l3.258-4.374h.054zm12.51-2.736c0-1.332.486-2.898 1.998-2.898 1.098 0 1.89.756 1.89 1.944-.018 1.548-1.53 2.322-2.646 3.078-2.178 1.476-3.96 2.718-3.978 5.634h9.252v-2.196h-5.958c.918-1.296 2.394-2.016 3.636-2.898s2.25-1.926 2.25-3.816c0-2.466-2.016-3.942-4.32-3.942-3.024 0-4.662 2.214-4.572 5.094zm7.266 1.404c0 5.022 2.124 6.606 4.608 6.606 2.52 0 4.644-1.584 4.644-6.606 0-4.914-2.124-6.498-4.644-6.498-2.484 0-4.608 1.584-4.608 6.498zm2.556 0c0-1.314 0-4.392 2.052-4.392 2.088 0 2.088 3.078 2.088 4.392 0 1.422 0 4.5-2.088 4.5-2.052 0-2.052-3.078-2.052-4.5zm10.182-1.404c0-1.332.486-2.898 1.998-2.898 1.098 0 1.89.756 1.89 1.944-.018 1.548-1.53 2.322-2.646 3.078-2.178 1.476-3.96 2.718-3.978 5.634h9.252v-2.196h-5.958c.918-1.296 2.394-2.016 3.636-2.898s2.25-1.926 2.25-3.816c0-2.466-2.016-3.942-4.32-3.942-3.024 0-4.662 2.214-4.572 5.094zm10.002 0c0-1.332.486-2.898 1.998-2.898 1.098 0 1.89.756 1.89 1.944-.018 1.548-1.53 2.322-2.646 3.078-2.178 1.476-3.96 2.718-3.978 5.634h9.252v-2.196h-5.958c.918-1.296 2.394-2.016 3.636-2.898s2.25-1.926 2.25-3.816c0-2.466-2.016-3.942-4.32-3.942-3.024 0-4.662 2.214-4.572 5.094z" fill="#faf7f5"/><path d="m584.036 16.63-10.764 10.764v-10.764zm1.84 12.87 10.764-10.764v10.764zm17.613-10.764 10.764 10.764h-10.764zm23.368 8.658-10.764-10.764h10.764zm17.613-10.764-10.764 10.764v-10.764zm1.84 12.87 10.764-10.764v10.764zm17.613-10.764 10.764 10.764h-10.764zm23.367 8.658-10.764-10.764h10.764zm17.614-10.764-10.764 10.764v-10.764zm1.839 12.87 10.764-10.764v10.764zm17.613-10.764 10.764 10.764h-10.764zm23.368 8.658-10.764-10.764h10.764z" fill="#80ff9f"/><path d="m778.684 21.258c0-1.188.936-2.646 2.232-2.646.774 0 1.386.648 1.386 1.53 0 1.242-.918 2.718-2.214 2.718-.828 0-1.404-.648-1.404-1.602zm5.958-4.068h-1.476l-.288.972c-.414-.936-1.332-1.26-2.106-1.26-2.376 0-3.924 2.322-3.924 4.59 0 1.674 1.278 3.078 2.826 3.078.756 0 1.512-.324 1.944-1.044h.036c.036.594.558 1.026 1.314 1.026 1.152 0 4.23-1.512 4.23-5.22 0-3.312-2.988-5.49-6.264-5.49-3.744 0-6.84 2.934-6.84 6.732 0 3.852 3.096 6.732 6.93 6.732 2.25 0 4.266-1.062 5.49-2.916h-1.512c-.936.936-2.358 1.476-3.87 1.476-3.096 0-5.31-2.106-5.31-5.256 0-3.042 1.998-5.328 5.094-5.328 2.736 0 4.878 1.566 4.878 4.428 0 1.926-1.098 3.312-2.124 3.312-.45 0-.306-.702-.162-1.188zm7.269 4.086h3.078c1.206 0 2.034.522 2.034 1.836 0 1.332-.972 1.692-2.088 1.692h-3.024zm-2.826 5.724h6.228c2.322 0 4.536-1.116 4.536-3.726 0-1.602-.792-2.808-2.358-3.258 1.116-.54 1.746-1.422 1.746-2.682 0-2.394-1.656-3.186-4.104-3.186h-6.048zm2.826-10.656h2.646c1.008 0 1.944.252 1.944 1.476 0 1.08-.738 1.53-1.728 1.53h-2.862zm20.756-2.196h-2.826v7.992c0 1.908-.648 2.79-2.664 2.79-2.286 0-2.646-1.386-2.646-2.79v-7.992h-2.826v7.992c0 3.492 2.016 5.166 5.472 5.166 3.438 0 5.49-1.692 5.49-5.166zm2.433 12.852h9.756v-2.376h-6.93v-3.15h6.228v-2.196h-6.228v-2.754h6.786v-2.376h-9.612zm11.672 0h2.646v-8.604h.036l5.346 8.604h2.826v-12.852h-2.646v8.622h-.036l-5.364-8.622h-2.808zm12.784-6.372c0 3.708 2.34 6.678 6.318 6.678s6.318-2.97 6.318-6.678c0-3.816-2.34-6.786-6.318-6.786s-6.318 2.97-6.318 6.786zm2.826 0c0-2.25.954-4.41 3.492-4.41s3.492 2.16 3.492 4.41c0 2.142-.954 4.302-3.492 4.302s-3.492-2.16-3.492-4.302zm10.932 2.106c-.036 3.168 2.628 4.572 5.472 4.572 3.492 0 5.346-1.764 5.346-4.122 0-2.916-2.88-3.51-3.816-3.744-3.222-.828-3.834-.954-3.834-1.944 0-1.08 1.044-1.458 1.944-1.458 1.35 0 2.448.396 2.538 1.944h2.736c0-2.97-2.466-4.14-5.148-4.14-2.322 0-4.806 1.26-4.806 3.888 0 2.412 1.926 3.15 3.834 3.654 1.89.504 3.816.738 3.816 2.124 0 1.314-1.512 1.602-2.502 1.602-1.512 0-2.844-.666-2.844-2.376zm11.131 4.266h2.862l1.008-2.862h4.806l.972 2.862h2.934l-4.806-12.852h-2.898zm6.282-9.684h.036l1.62 4.716h-3.33zm7.409 9.684h2.826v-12.852h-2.826zm5.308 0h2.826v-5.022h2.826c1.422 0 1.944.594 2.142 1.944.144 1.026.108 2.268.45 3.078h2.826c-.504-.72-.486-2.232-.54-3.042-.09-1.296-.486-2.646-1.872-3.006v-.036c1.422-.576 2.034-1.71 2.034-3.222 0-1.944-1.458-3.546-3.762-3.546h-6.93zm2.826-10.656h3.096c1.26 0 1.944.54 1.944 1.782 0 1.296-.684 1.836-1.944 1.836h-3.096zm10.164 10.656h9.756v-2.376h-6.93v-3.15h6.228v-2.196h-6.228v-2.754h6.786v-2.376h-9.612zm10.862-4.266c-.036 3.168 2.628 4.572 5.472 4.572 3.492 0 5.346-1.764 5.346-4.122 0-2.916-2.88-3.51-3.816-3.744-3.222-.828-3.834-.954-3.834-1.944 0-1.08 1.044-1.458 1.944-1.458 1.35 0 2.448.396 2.538 1.944h2.736c0-2.97-2.466-4.14-5.148-4.14-2.322 0-4.806 1.26-4.806 3.888 0 2.412 1.926 3.15 3.834 3.654 1.89.504 3.816.738 3.816 2.124 0 1.314-1.512 1.602-2.502 1.602-1.512 0-2.844-.666-2.844-2.376z" fill="#38f"/><path d="m943.196 27h2.862l1.008-2.862h4.806l.972 2.862h2.934l-4.806-12.852h-2.898zm6.282-9.684h.036l1.62 4.716h-3.33zm18.317-3.168h-2.826v7.992c0 1.908-.648 2.79-2.664 2.79-2.286 0-2.646-1.386-2.646-2.79v-7.992h-2.826v7.992c0 3.492 2.016 5.166 5.472 5.166 3.438 0 5.49-1.692 5.49-5.166zm12.009 12.852h1.8v-6.948h-5.4v2.106h2.844c-.162 1.782-1.224 2.772-3.06 2.772-2.538 0-3.492-2.16-3.492-4.302 0-2.25.954-4.41 3.492-4.41 1.332 0 2.394.738 2.718 2.16h2.7c-.306-2.916-2.79-4.536-5.418-4.536-3.978 0-6.318 2.97-6.318 6.786 0 3.708 2.34 6.678 6.318 6.678 1.242 0 2.538-.486 3.528-1.764zm14.906-12.6h-2.034c-.27 1.926-1.908 2.538-3.69 2.502v1.926h3.168v8.172h2.556zm10 0h-2.03c-.27 1.926-1.91 2.538-3.692 2.502v1.926h3.172v8.172h2.55zm3.9 8.784h5.42v-2.196h-5.42zm13.43-8.784h-2.03c-.27 1.926-1.91 2.538-3.69 2.502v1.926h3.17v8.172h2.55zm6.06 4.842c0-1.332.49-2.898 2-2.898 1.1 0 1.89.756 1.89 1.944-.02 1.548-1.53 2.322-2.64 3.078-2.18 1.476-3.96 2.718-3.98 5.634h9.25v-2.196h-5.96c.92-1.296 2.4-2.016 3.64-2.898s2.25-1.926 2.25-3.816c0-2.466-2.02-3.942-4.32-3.942-3.03 0-4.66 2.214-4.57 5.094zm7.85 3.942h5.41v-2.196h-5.41zm13.43-8.784h-2.04c-.27 1.926-1.9 2.538-3.69 2.502v1.926h3.17v8.172h2.56zm7.05 6.894c1.24 0 2.91-.036 2.91 1.872 0 1.188-.9 1.98-2.05 1.98-1.47 0-2.16-1.116-2.21-2.484h-2.43c-.06 2.898 1.85 4.59 4.68 4.59 2.46 0 4.68-1.494 4.68-4.14 0-1.404-.85-2.556-2.23-2.862v-.036c1.17-.324 1.76-1.386 1.76-2.574 0-2.25-2.21-3.492-4.23-3.492-2.59 0-4.27 1.782-4.36 4.356h2.43c-.01-1.296.67-2.25 1.95-2.25.93 0 1.78.612 1.78 1.674 0 1.44-1.58 1.656-2.68 1.566zm6.85 1.89h5.42v-2.196h-5.42zm13.43-8.784h-2.03c-.27 1.926-1.91 2.538-3.69 2.502v1.926h3.17v8.172h2.55zm8.56 12.6h2.43v-2.916h1.68v-2.106h-1.68v-7.578h-2.28l-5.47 7.344v2.34h5.32zm0-5.022h-3.31l3.26-4.374h.05zm12.51-2.736c0-1.332.49-2.898 2-2.898 1.1 0 1.89.756 1.89 1.944-.02 1.548-1.53 2.322-2.64 3.078-2.18 1.476-3.96 2.718-3.98 5.634h9.25v-2.196h-5.96c.92-1.296 2.4-2.016 3.64-2.898s2.25-1.926 2.25-3.816c0-2.466-2.02-3.942-4.32-3.942-3.03 0-4.66 2.214-4.57 5.094zm7.27 1.404c0 5.022 2.12 6.606 4.61 6.606 2.52 0 4.64-1.584 4.64-6.606 0-4.914-2.12-6.498-4.64-6.498-2.49 0-4.61 1.584-4.61 6.498zm2.56 0c0-1.314 0-4.392 2.05-4.392 2.09 0 2.09 3.078 2.09 4.392 0 1.422 0 4.5-2.09 4.5-2.05 0-2.05-3.078-2.05-4.5zm10.18-1.404c0-1.332.48-2.898 2-2.898 1.09 0 1.89.756 1.89 1.944-.02 1.548-1.53 2.322-2.65 3.078-2.18 1.476-3.96 2.718-3.98 5.634h9.25v-2.196h-5.95c.91-1.296 2.39-2.016 3.63-2.898s2.25-1.926 2.25-3.816c0-2.466-2.01-3.942-4.32-3.942-3.02 0-4.66 2.214-4.57 5.094zm10 0c0-1.332.49-2.898 2-2.898 1.1 0 1.89.756 1.89 1.944-.02 1.548-1.53 2.322-2.65 3.078-2.18 1.476-3.96 2.718-3.98 5.634h9.26v-2.196h-5.96c.92-1.296 2.39-2.016 3.63-2.898 1.25-.882 2.25-1.926 2.25-3.816 0-2.466-2.01-3.942-4.32-3.942-3.02 0-4.66 2.214-4.57 5.094z" fill="#dcf908"/><path d="m1159.93 29.5 7.26-12.546 7.23 12.546zm23.59 0-7.26-12.546h14.49zm9.07 0 7.26-12.546 7.23 12.546zm23.59 0-7.26-12.546h14.49zm9.07 0 7.26-12.546 7.23 12.546zm23.59 0-7.26-12.546h14.49zm9.07 0 7.26-12.546 7.23 12.546zm23.59 0-7.26-12.546h14.49zm9.07 0 7.26-12.546 7.23 12.546z" fill="#ff6a4c"/><path d="m1335.68 21.258c0-1.188.94-2.646 2.24-2.646.77 0 1.38.648 1.38 1.53 0 1.242-.92 2.718-2.21 2.718-.83 0-1.41-.648-1.41-1.602zm5.96-4.068h-1.47l-.29.972c-.42-.936-1.33-1.26-2.11-1.26-2.37 0-3.92 2.322-3.92 4.59 0 1.674 1.28 3.078 2.82 3.078.76 0 1.52-.324 1.95-1.044h.03c.04.594.56 1.026 1.32 1.026 1.15 0 4.23-1.512 4.23-5.22 0-3.312-2.99-5.49-6.27-5.49-3.74 0-6.84 2.934-6.84 6.732 0 3.852 3.1 6.732 6.93 6.732 2.25 0 4.27-1.062 5.49-2.916h-1.51c-.93.936-2.36 1.476-3.87 1.476-3.09 0-5.31-2.106-5.31-5.256 0-3.042 2-5.328 5.1-5.328 2.73 0 4.87 1.566 4.87 4.428 0 1.926-1.09 3.312-2.12 3.312-.45 0-.31-.702-.16-1.188zm7.27 4.086h3.08c1.2 0 2.03.522 2.03 1.836 0 1.332-.97 1.692-2.09 1.692h-3.02zm-2.83 5.724h6.23c2.32 0 4.54-1.116 4.54-3.726 0-1.602-.79-2.808-2.36-3.258 1.12-.54 1.75-1.422 1.75-2.682 0-2.394-1.66-3.186-4.11-3.186h-6.05zm2.83-10.656h2.65c1 0 1.94.252 1.94 1.476 0 1.08-.74 1.53-1.73 1.53h-2.86zm20.76-2.196h-2.83v7.992c0 1.908-.65 2.79-2.66 2.79-2.29 0-2.65-1.386-2.65-2.79v-7.992h-2.83v7.992c0 3.492 2.02 5.166 5.48 5.166 3.43 0 5.49-1.692 5.49-5.166zm2.43 12.852h9.76v-2.376h-6.93v-3.15h6.22v-2.196h-6.22v-2.754h6.78v-2.376h-9.61zm11.67 0h2.65v-8.604h.03l5.35 8.604h2.83v-12.852h-2.65v8.622h-.04l-5.36-8.622h-2.81zm12.79-6.372c0 3.708 2.34 6.678 6.31 6.678 3.98 0 6.32-2.97 6.32-6.678 0-3.816-2.34-6.786-6.32-6.786-3.97 0-6.31 2.97-6.31 6.786zm2.82 0c0-2.25.96-4.41 3.49-4.41 2.54 0 3.5 2.16 3.5 4.41 0 2.142-.96 4.302-3.5 4.302-2.53 0-3.49-2.16-3.49-4.302zm10.93 2.106c-.03 3.168 2.63 4.572 5.48 4.572 3.49 0 5.34-1.764 5.34-4.122 0-2.916-2.88-3.51-3.81-3.744-3.23-.828-3.84-.954-3.84-1.944 0-1.08 1.05-1.458 1.95-1.458 1.35 0 2.44.396 2.53 1.944h2.74c0-2.97-2.47-4.14-5.15-4.14-2.32 0-4.8 1.26-4.8 3.888 0 2.412 1.92 3.15 3.83 3.654 1.89.504 3.82.738 3.82 2.124 0 1.314-1.52 1.602-2.51 1.602-1.51 0-2.84-.666-2.84-2.376zm11.14 4.266h2.86l1.01-2.862h4.8l.97 2.862h2.94l-4.81-12.852h-2.9zm6.28-9.684h.03l1.62 4.716h-3.33zm7.41 9.684h2.82v-12.852h-2.82zm5.3 0h2.83v-5.022h2.83c1.42 0 1.94.594 2.14 1.944.14 1.026.11 2.268.45 3.078h2.82c-.5-.72-.48-2.232-.54-3.042-.09-1.296-.48-2.646-1.87-3.006v-.036c1.42-.576 2.04-1.71 2.04-3.222 0-1.944-1.46-3.546-3.77-3.546h-6.93zm2.83-10.656h3.1c1.26 0 1.94.54 1.94 1.782 0 1.296-.68 1.836-1.94 1.836h-3.1zm10.16 10.656h9.76v-2.376h-6.93v-3.15h6.23v-2.196h-6.23v-2.754h6.79v-2.376h-9.62zm10.87-4.266c-.04 3.168 2.62 4.572 5.47 4.572 3.49 0 5.34-1.764 5.34-4.122 0-2.916-2.88-3.51-3.81-3.744-3.22-.828-3.84-.954-3.84-1.944 0-1.08 1.05-1.458 1.95-1.458 1.35 0 2.45.396 2.54 1.944h2.73c0-2.97-2.46-4.14-5.15-4.14-2.32 0-4.8 1.26-4.8 3.888 0 2.412 1.92 3.15 3.83 3.654 1.89.504 3.82.738 3.82 2.124 0 1.314-1.51 1.602-2.5 1.602-1.52 0-2.85-.666-2.85-2.376z" fill="#faf7f5"/><path d="m1500.2 27h2.86l1.01-2.862h4.8l.97 2.862h2.94l-4.81-12.852h-2.9zm6.28-9.684h.03l1.62 4.716h-3.33zm18.31-3.168h-2.82v7.992c0 1.908-.65 2.79-2.67 2.79-2.28 0-2.64-1.386-2.64-2.79v-7.992h-2.83v7.992c0 3.492 2.02 5.166 5.47 5.166 3.44 0 5.49-1.692 5.49-5.166zm12.01 12.852h1.8v-6.948h-5.4v2.106h2.85c-.16 1.782-1.23 2.772-3.06 2.772-2.54 0-3.49-2.16-3.49-4.302 0-2.25.95-4.41 3.49-4.41 1.33 0 2.39.738 2.72 2.16h2.7c-.31-2.916-2.79-4.536-5.42-4.536-3.98 0-6.32 2.97-6.32 6.786 0 3.708 2.34 6.678 6.32 6.678 1.24 0 2.54-.486 3.53-1.764zm14.91-12.6h-2.03c-.27 1.926-1.91 2.538-3.69 2.502v1.926h3.16v8.172h2.56zm10 0h-2.03c-.27 1.926-1.91 2.538-3.69 2.502v1.926h3.17v8.172h2.55zm3.9 8.784h5.42v-2.196h-5.42zm13.43-8.784h-2.03c-.27 1.926-1.91 2.538-3.69 2.502v1.926h3.17v8.172h2.55zm6.06 4.842c0-1.332.49-2.898 2-2.898 1.1 0 1.89.756 1.89 1.944-.02 1.548-1.53 2.322-2.64 3.078-2.18 1.476-3.96 2.718-3.98 5.634h9.25v-2.196h-5.96c.92-1.296 2.4-2.016 3.64-2.898s2.25-1.926 2.25-3.816c0-2.466-2.02-3.942-4.32-3.942-3.03 0-4.66 2.214-4.57 5.094zm7.85 3.942h5.41v-2.196h-5.41zm13.43-8.784h-2.04c-.27 1.926-1.9 2.538-3.69 2.502v1.926h3.17v8.172h2.56zm7.05 6.894c1.24 0 2.91-.036 2.91 1.872 0 1.188-.9 1.98-2.05 1.98-1.47 0-2.16-1.116-2.21-2.484h-2.43c-.06 2.898 1.85 4.59 4.68 4.59 2.46 0 4.68-1.494 4.68-4.14 0-1.404-.85-2.556-2.23-2.862v-.036c1.17-.324 1.76-1.386 1.76-2.574 0-2.25-2.21-3.492-4.23-3.492-2.59 0-4.27 1.782-4.36 4.356h2.43c-.01-1.296.67-2.25 1.95-2.25.93 0 1.78.612 1.78 1.674 0 1.44-1.58 1.656-2.68 1.566zm6.85 1.89h5.42v-2.196h-5.42zm13.43-8.784h-2.03c-.27 1.926-1.91 2.538-3.69 2.502v1.926h3.17v8.172h2.55zm8.56 12.6h2.43v-2.916h1.68v-2.106h-1.68v-7.578h-2.28l-5.47 7.344v2.34h5.32zm0-5.022h-3.31l3.26-4.374h.05zm12.51-2.736c0-1.332.49-2.898 2-2.898 1.1 0 1.89.756 1.89 1.944-.02 1.548-1.53 2.322-2.64 3.078-2.18 1.476-3.96 2.718-3.98 5.634h9.25v-2.196h-5.96c.92-1.296 2.4-2.016 3.64-2.898s2.25-1.926 2.25-3.816c0-2.466-2.02-3.942-4.32-3.942-3.03 0-4.66 2.214-4.57 5.094zm7.27 1.404c0 5.022 2.12 6.606 4.61 6.606 2.52 0 4.64-1.584 4.64-6.606 0-4.914-2.12-6.498-4.64-6.498-2.49 0-4.61 1.584-4.61 6.498zm2.56 0c0-1.314 0-4.392 2.05-4.392 2.09 0 2.09 3.078 2.09 4.392 0 1.422 0 4.5-2.09 4.5-2.05 0-2.05-3.078-2.05-4.5zm10.18-1.404c0-1.332.48-2.898 2-2.898 1.09 0 1.89.756 1.89 1.944-.02 1.548-1.53 2.322-2.65 3.078-2.18 1.476-3.96 2.718-3.98 5.634h9.25v-2.196h-5.95c.91-1.296 2.39-2.016 3.63-2.898s2.25-1.926 2.25-3.816c0-2.466-2.01-3.942-4.32-3.942-3.02 0-4.66 2.214-4.57 5.094zm10 0c0-1.332.49-2.898 2-2.898 1.1 0 1.89.756 1.89 1.944-.02 1.548-1.53 2.322-2.65 3.078-2.18 1.476-3.96 2.718-3.98 5.634h9.26v-2.196h-5.96c.92-1.296 2.39-2.016 3.63-2.898 1.25-.882 2.25-1.926 2.25-3.816 0-2.466-2.01-3.942-4.32-3.942-3.02 0-4.66 2.214-4.57 5.094z" fill="#e573e5"/></svg>