<svg width="1512" height="49" viewBox="0 0 1512 49" fill="none" xmlns="http://www.w3.org/2000/svg">
<path d="M12.2589 31.612C11.2749 31.612 10.3509 31.426 9.48689 31.054C8.62289 30.694 7.86089 30.19 7.20089 29.542C6.55289 28.882 6.04289 28.12 5.67089 27.256C5.31089 26.392 5.13089 25.468 5.13089 24.484C5.13089 23.488 5.31089 22.564 5.67089 21.712C6.04289 20.848 6.55289 20.092 7.20089 19.444C7.86089 18.784 8.62289 18.274 9.48689 17.914C10.3509 17.542 11.2749 17.356 12.2589 17.356C13.2549 17.356 14.1789 17.542 15.0309 17.914C15.8949 18.274 16.6509 18.784 17.2989 19.444C17.9589 20.092 18.4689 20.848 18.8289 21.712C19.2009 22.564 19.3869 23.488 19.3869 24.484C19.3869 25.468 19.2009 26.392 18.8289 27.256C18.4689 28.12 17.9589 28.882 17.2989 29.542C16.6509 30.19 15.8949 30.694 15.0309 31.054C14.1789 31.426 13.2549 31.612 12.2589 31.612ZM12.2589 30.856V18.112C11.3709 18.112 10.5429 18.28 9.77489 18.616C9.00689 18.94 8.32889 19.396 7.74089 19.984C7.16489 20.56 6.70889 21.232 6.37289 22C6.04889 22.768 5.88689 23.596 5.88689 24.484C5.88689 25.372 6.04889 26.2 6.37289 26.968C6.70889 27.736 7.16489 28.414 7.74089 29.002C8.32889 29.578 9.00689 30.034 9.77489 30.37C10.5429 30.694 11.3709 30.856 12.2589 30.856ZM33.3526 31.612C32.3686 31.612 31.4446 31.426 30.5806 31.054C29.7286 30.694 28.9726 30.19 28.3126 29.542C27.6646 28.882 27.1546 28.12 26.7826 27.256C26.4106 26.392 26.2246 25.468 26.2246 24.484C26.2246 23.5 26.4106 22.576 26.7826 21.712C27.1546 20.848 27.6646 20.092 28.3126 19.444C28.9726 18.784 29.7286 18.274 30.5806 17.914C31.4446 17.542 32.3686 17.356 33.3526 17.356C34.3366 17.356 35.2606 17.542 36.1246 17.914C36.9886 18.274 37.7446 18.784 38.3926 19.444C39.0526 20.092 39.5626 20.848 39.9226 21.712C40.2946 22.576 40.4806 23.5 40.4806 24.484C40.4806 25.468 40.2946 26.392 39.9226 27.256C39.5626 28.12 39.0526 28.882 38.3926 29.542C37.7446 30.19 36.9886 30.694 36.1246 31.054C35.2606 31.426 34.3366 31.612 33.3526 31.612ZM33.3526 30.37C34.1686 30.37 34.9306 30.22 35.6386 29.92C36.3466 29.608 36.9706 29.182 37.5106 28.642C38.0506 28.102 38.4706 27.478 38.7706 26.77C39.0826 26.062 39.2386 25.3 39.2386 24.484C39.2386 23.668 39.0826 22.906 38.7706 22.198C38.4706 21.49 38.0506 20.866 37.5106 20.326C36.9706 19.786 36.3466 19.366 35.6386 19.066C34.9306 18.754 34.1686 18.598 33.3526 18.598C32.5366 18.598 31.7746 18.754 31.0666 19.066C30.3586 19.366 29.7346 19.786 29.1946 20.326C28.6546 20.866 28.2286 21.49 27.9166 22.198C27.6166 22.906 27.4666 23.668 27.4666 24.484C27.4666 25.3 27.6166 26.062 27.9166 26.77C28.2286 27.478 28.6546 28.102 29.1946 28.642C29.7346 29.182 30.3586 29.608 31.0666 29.92C31.7746 30.22 32.5366 30.37 33.3526 30.37ZM33.3526 29.506C32.6566 29.506 32.0026 29.38 31.3906 29.128C30.7906 28.864 30.2566 28.504 29.7886 28.048C29.3326 27.58 28.9726 27.046 28.7086 26.446C28.4566 25.834 28.3306 25.18 28.3306 24.484C28.3306 23.788 28.4566 23.14 28.7086 22.54C28.9726 21.928 29.3326 21.394 29.7886 20.938C30.2566 20.47 30.7906 20.11 31.3906 19.858C32.0026 19.594 32.6566 19.462 33.3526 19.462C34.0486 19.462 34.7026 19.594 35.3146 19.858C35.9266 20.11 36.4606 20.47 36.9166 20.938C37.3846 21.394 37.7446 21.928 37.9966 22.54C38.2606 23.14 38.3926 23.788 38.3926 24.484C38.3926 25.18 38.2606 25.834 37.9966 26.446C37.7446 27.046 37.3846 27.58 36.9166 28.048C36.4606 28.504 35.9266 28.864 35.3146 29.128C34.7026 29.38 34.0486 29.506 33.3526 29.506ZM54.4464 31.612C53.4624 31.612 52.5384 31.426 51.6744 31.054C50.8104 30.694 50.0484 30.19 49.3884 29.542C48.7404 28.882 48.2304 28.12 47.8584 27.256C47.4984 26.392 47.3184 25.468 47.3184 24.484C47.3184 23.488 47.4984 22.564 47.8584 21.712C48.2304 20.848 48.7404 20.092 49.3884 19.444C50.0484 18.784 50.8104 18.274 51.6744 17.914C52.5384 17.542 53.4624 17.356 54.4464 17.356C55.4424 17.356 56.3664 17.542 57.2184 17.914C58.0824 18.274 58.8384 18.784 59.4864 19.444C60.1464 20.092 60.6564 20.848 61.0164 21.712C61.3884 22.564 61.5744 23.488 61.5744 24.484C61.5744 25.468 61.3884 26.392 61.0164 27.256C60.6564 28.12 60.1464 28.882 59.4864 29.542C58.8384 30.19 58.0824 30.694 57.2184 31.054C56.3664 31.426 55.4424 31.612 54.4464 31.612ZM54.4464 30.856C55.3344 30.856 56.1624 30.694 56.9304 30.37C57.6984 30.034 58.3704 29.578 58.9464 29.002C59.5344 28.414 59.9904 27.736 60.3144 26.968C60.6504 26.2 60.8184 25.372 60.8184 24.484C60.8184 23.596 60.6504 22.768 60.3144 22C59.9904 21.232 59.5344 20.56 58.9464 19.984C58.3704 19.396 57.6984 18.94 56.9304 18.616C56.1624 18.28 55.3344 18.112 54.4464 18.112V30.856ZM68.4121 31.072V17.896H81.5881V31.072H68.4121ZM95.5616 31.612C94.5776 31.612 93.6536 31.426 92.7896 31.054C91.9256 30.694 91.1636 30.19 90.5036 29.542C89.8556 28.882 89.3456 28.12 88.9736 27.256C88.6136 26.392 88.4336 25.468 88.4336 24.484C88.4336 23.488 88.6136 22.564 88.9736 21.712C89.3456 20.848 89.8556 20.092 90.5036 19.444C91.1636 18.784 91.9256 18.274 92.7896 17.914C93.6536 17.542 94.5776 17.356 95.5616 17.356C96.5576 17.356 97.4816 17.542 98.3336 17.914C99.1976 18.274 99.9536 18.784 100.602 19.444C101.262 20.092 101.772 20.848 102.132 21.712C102.504 22.564 102.69 23.488 102.69 24.484C102.69 25.468 102.504 26.392 102.132 27.256C101.772 28.12 101.262 28.882 100.602 29.542C99.9536 30.19 99.1976 30.694 98.3336 31.054C97.4816 31.426 96.5576 31.612 95.5616 31.612ZM95.5616 30.856V18.112C94.6736 18.112 93.8456 18.28 93.0776 18.616C92.3096 18.94 91.6316 19.396 91.0436 19.984C90.4676 20.56 90.0116 21.232 89.6756 22C89.3516 22.768 89.1896 23.596 89.1896 24.484C89.1896 25.372 89.3516 26.2 89.6756 26.968C90.0116 27.736 90.4676 28.414 91.0436 29.002C91.6316 29.578 92.3096 30.034 93.0776 30.37C93.8456 30.694 94.6736 30.856 95.5616 30.856ZM116.655 31.612C115.671 31.612 114.747 31.426 113.883 31.054C113.031 30.694 112.275 30.19 111.615 29.542C110.967 28.882 110.457 28.12 110.085 27.256C109.713 26.392 109.527 25.468 109.527 24.484C109.527 23.5 109.713 22.576 110.085 21.712C110.457 20.848 110.967 20.092 111.615 19.444C112.275 18.784 113.031 18.274 113.883 17.914C114.747 17.542 115.671 17.356 116.655 17.356C117.639 17.356 118.563 17.542 119.427 17.914C120.291 18.274 121.047 18.784 121.695 19.444C122.355 20.092 122.865 20.848 123.225 21.712C123.597 22.576 123.783 23.5 123.783 24.484C123.783 25.468 123.597 26.392 123.225 27.256C122.865 28.12 122.355 28.882 121.695 29.542C121.047 30.19 120.291 30.694 119.427 31.054C118.563 31.426 117.639 31.612 116.655 31.612ZM116.655 30.37C117.471 30.37 118.233 30.22 118.941 29.92C119.649 29.608 120.273 29.182 120.813 28.642C121.353 28.102 121.773 27.478 122.073 26.77C122.385 26.062 122.541 25.3 122.541 24.484C122.541 23.668 122.385 22.906 122.073 22.198C121.773 21.49 121.353 20.866 120.813 20.326C120.273 19.786 119.649 19.366 118.941 19.066C118.233 18.754 117.471 18.598 116.655 18.598C115.839 18.598 115.077 18.754 114.369 19.066C113.661 19.366 113.037 19.786 112.497 20.326C111.957 20.866 111.531 21.49 111.219 22.198C110.919 22.906 110.769 23.668 110.769 24.484C110.769 25.3 110.919 26.062 111.219 26.77C111.531 27.478 111.957 28.102 112.497 28.642C113.037 29.182 113.661 29.608 114.369 29.92C115.077 30.22 115.839 30.37 116.655 30.37ZM116.655 29.506C115.959 29.506 115.305 29.38 114.693 29.128C114.093 28.864 113.559 28.504 113.091 28.048C112.635 27.58 112.275 27.046 112.011 26.446C111.759 25.834 111.633 25.18 111.633 24.484C111.633 23.788 111.759 23.14 112.011 22.54C112.275 21.928 112.635 21.394 113.091 20.938C113.559 20.47 114.093 20.11 114.693 19.858C115.305 19.594 115.959 19.462 116.655 19.462C117.351 19.462 118.005 19.594 118.617 19.858C119.229 20.11 119.763 20.47 120.219 20.938C120.687 21.394 121.047 21.928 121.299 22.54C121.563 23.14 121.695 23.788 121.695 24.484C121.695 25.18 121.563 25.834 121.299 26.446C121.047 27.046 120.687 27.58 120.219 28.048C119.763 28.504 119.229 28.864 118.617 29.128C118.005 29.38 117.351 29.506 116.655 29.506ZM137.749 31.612C136.765 31.612 135.841 31.426 134.977 31.054C134.113 30.694 133.351 30.19 132.691 29.542C132.043 28.882 131.533 28.12 131.161 27.256C130.801 26.392 130.621 25.468 130.621 24.484C130.621 23.488 130.801 22.564 131.161 21.712C131.533 20.848 132.043 20.092 132.691 19.444C133.351 18.784 134.113 18.274 134.977 17.914C135.841 17.542 136.765 17.356 137.749 17.356C138.745 17.356 139.669 17.542 140.521 17.914C141.385 18.274 142.141 18.784 142.789 19.444C143.449 20.092 143.959 20.848 144.319 21.712C144.691 22.564 144.877 23.488 144.877 24.484C144.877 25.468 144.691 26.392 144.319 27.256C143.959 28.12 143.449 28.882 142.789 29.542C142.141 30.19 141.385 30.694 140.521 31.054C139.669 31.426 138.745 31.612 137.749 31.612ZM137.749 30.856C138.637 30.856 139.465 30.694 140.233 30.37C141.001 30.034 141.673 29.578 142.249 29.002C142.837 28.414 143.293 27.736 143.617 26.968C143.953 26.2 144.121 25.372 144.121 24.484C144.121 23.596 143.953 22.768 143.617 22C143.293 21.232 142.837 20.56 142.249 19.984C141.673 19.396 141.001 18.94 140.233 18.616C139.465 18.28 138.637 18.112 137.749 18.112V30.856Z" fill="#DCF908"/>
<path d="M174.579 18.358V16.666H183.039V18.358H174.579ZM174.579 18.358V20.05H172.887V18.358H174.579ZM186.423 26.116V27.808H184.731V26.116H186.423ZM183.039 24.424V18.358H184.731V24.424H183.039ZM184.731 27.808V29.5H174.579V27.808H184.731ZM181.347 24.424H183.039V26.116H176.271V24.424H179.655V21.742H176.271V20.05H181.347V24.424ZM174.579 21.742H176.271V24.424H174.579V21.742ZM174.579 26.116V27.808H172.887V26.116H174.579ZM171.195 20.05H172.887V26.116H171.195V20.05ZM196.6 18.358H198.292V22.246H196.6V18.358ZM196.6 22.246V23.938H189.814V27.808H196.6V29.5H188.122V16.666H196.6V18.358H189.814V22.246H196.6ZM196.6 23.938H198.292V27.808H196.6V23.938ZM208.466 27.808V29.5H201.68V27.808H208.466ZM199.988 16.666H201.68V27.808H199.988V16.666ZM208.466 16.666H210.158V27.808H208.466V16.666ZM213.545 18.358H211.853V27.808H213.545V23.938H218.639V22.246H213.545V18.376V18.358ZM220.331 29.5H213.545V27.808H220.331V29.5ZM220.331 18.358H213.545V16.666H220.331V18.358ZM225.415 18.358V20.05H223.723V29.5H222.031V16.666H223.723V18.358H225.415ZM232.201 16.666V29.5H230.509V27.808H228.817V26.116H230.509V16.666H232.201ZM225.415 21.742V20.05H227.107V21.742H225.415ZM227.107 26.116V21.742H228.799V26.116H227.107ZM237.298 27.808H235.606V26.116H237.298V27.808ZM242.374 29.5H237.298V27.808H242.374V29.5ZM235.606 26.116H233.896V20.05H235.606V26.116ZM242.374 27.808H244.084V26.116H242.374V27.808ZM244.084 26.116H245.776V20.05H244.084V26.116ZM242.374 18.358H244.084V20.05H242.374V18.358ZM237.298 16.666H242.374V18.358H237.298V16.666ZM237.298 18.358H235.606V20.05H237.298V18.358ZM247.466 27.808V26.116H249.158V27.808H247.466ZM255.944 27.808V23.938H257.636V27.808H255.944ZM255.944 20.05V18.358H257.636V20.05H255.944ZM247.466 22.246V18.358H249.158V22.246H247.466ZM249.158 23.938V22.246H255.944V23.938H249.158ZM249.158 18.358V16.666H255.944V18.358H249.158ZM249.158 29.5V27.808H255.944V29.5H249.158ZM262.715 18.358V16.666H266.099V18.358H262.715ZM262.715 20.05H261.023V18.358H262.715V20.05ZM269.483 20.05V29.5H267.791V25.63H261.023V29.5H259.331V20.05H261.023V23.938H267.791V20.05H269.483ZM266.099 20.05V18.358H267.791V20.05H266.099ZM271.179 16.666H272.871V29.5H271.179V16.666ZM283.068 18.358H284.76V22.246H283.068V18.358ZM283.068 22.246V23.938H284.76V29.5H283.068V25.63H281.376V23.938H276.282V29.5H274.572V16.666H283.068V18.358H276.282V22.246H283.068ZM288.146 18.358H286.454V27.808H288.146V23.938H293.24V22.246H288.146V18.376V18.358ZM294.932 29.5H288.146V27.808H294.932V29.5ZM294.932 18.358H288.146V16.666H294.932V18.358ZM296.632 27.808V26.116H298.324V27.808H296.632ZM305.11 27.808V23.938H306.802V27.808H305.11ZM305.11 20.05V18.358H306.802V20.05H305.11ZM296.632 22.246V18.358H298.324V22.246H296.632ZM298.324 23.938V22.246H305.11V23.938H298.324ZM298.324 18.358V16.666H305.11V18.358H298.324ZM298.324 29.5V27.808H305.11V29.5H298.324Z" fill="#E573E5"/>
<path d="M336.59 18.358V16.666H339.974V18.358H336.59ZM336.59 20.05H334.898V18.358H336.59V20.05ZM343.358 20.05V29.5H341.666V25.63H334.898V29.5H333.206V20.05H334.898V23.938H341.666V20.05H343.358ZM339.974 20.05V18.358H341.666V20.05H339.974ZM353.532 27.808V29.5H346.746V27.808H353.532ZM345.054 16.666H346.746V27.808H345.054V16.666ZM353.532 16.666H355.224V27.808H353.532V16.666ZM365.379 16.666V18.358H358.611V16.666H365.379ZM367.071 20.536V18.358H365.379V20.536H367.071ZM367.071 23.092H361.995V24.784H365.379V27.808H367.071V23.092ZM365.379 29.5V27.808H358.611V29.5H365.379ZM356.919 27.808H358.611V18.358H356.919V27.808ZM375.561 16.666H377.253V29.5H375.561V20.05H372.159V18.358H375.561V16.666ZM382.347 16.666H384.039V29.5H382.347V20.05H378.945V18.358H382.347V16.666ZM390.446 22.246V23.938H385.73V22.246H390.446ZM395.548 16.666H397.24V29.5H395.548V20.05H392.146V18.358H395.548V16.666ZM405.699 16.666V18.358H400.623V16.666H405.699ZM407.391 18.358V21.04H405.699V18.358H407.391ZM398.931 18.358H400.623V20.05H398.931V18.358ZM398.931 26.116H400.623V27.808H407.391V29.5H398.931V26.116ZM400.623 24.424H402.315V26.116H400.623V24.424ZM402.315 22.732H404.007V24.424H402.315V22.732ZM404.007 21.04H405.699V22.732H404.007V21.04ZM413.807 22.246V23.938H409.091V22.246H413.807ZM418.909 16.666H420.601V29.5H418.909V20.05H415.507V18.358H418.909V16.666ZM429.06 16.666V18.358H423.984V16.666H429.06ZM430.752 22.246H429.06V18.358H430.752V22.246ZM429.06 22.246V23.938H425.676V22.246H429.06ZM422.292 18.358H423.984V20.05H422.292V18.358ZM423.984 26.116V27.808H422.292V26.116H423.984ZM429.06 27.808V29.5H423.984V27.808H429.06ZM429.06 27.808V23.938H430.752V27.808H429.06ZM442.613 16.666V18.358H437.537V16.666H442.613ZM444.305 18.358V21.04H442.613V18.358H444.305ZM435.845 18.358H437.537V20.05H435.845V18.358ZM435.845 26.116H437.537V27.808H444.305V29.5H435.845V26.116ZM437.537 24.424H439.229V26.116H437.537V24.424ZM439.229 22.732H440.921V24.424H439.229V22.732ZM440.921 21.04H442.613V22.732H440.921V21.04ZM447.697 29.5V27.808H452.773V29.5H447.697ZM446.005 27.808V18.358H447.697V27.808H446.005ZM452.773 27.808V18.358H454.465V27.808H452.773ZM447.697 18.358V16.666H452.773V18.358H447.697ZM462.933 16.666V18.358H457.857V16.666H462.933ZM464.625 18.358V21.04H462.933V18.358H464.625ZM456.165 18.358H457.857V20.05H456.165V18.358ZM456.165 26.116H457.857V27.808H464.625V29.5H456.165V26.116ZM457.857 24.424H459.549V26.116H457.857V24.424ZM459.549 22.732H461.241V24.424H459.549V22.732ZM461.241 21.04H462.933V22.732H461.241V21.04ZM473.093 16.666V18.358H468.017V16.666H473.093ZM474.785 18.358V21.04H473.093V18.358H474.785ZM466.325 18.358H468.017V20.05H466.325V18.358ZM466.325 26.116H468.017V27.808H474.785V29.5H466.325V26.116ZM468.017 24.424H469.709V26.116H468.017V24.424ZM469.709 22.732H471.401V24.424H469.709V22.732ZM471.401 21.04H473.093V22.732H471.401V21.04Z" fill="#FAF7F5"/>
<path d="M512.036 18.13L501.272 28.894V18.13H512.036ZM513.876 31L524.64 20.236V31H513.876ZM531.489 20.236L542.253 31H531.489V20.236ZM554.857 28.894L544.093 18.13H554.857V28.894ZM572.47 18.13L561.706 28.894V18.13H572.47ZM574.31 31L585.074 20.236V31H574.31ZM591.923 20.236L602.687 31H591.923V20.236ZM615.29 28.894L604.526 18.13H615.29V28.894ZM632.904 18.13L622.14 28.894V18.13H632.904ZM634.743 31L645.507 20.236V31H634.743ZM652.356 20.236L663.12 31H652.356V20.236ZM675.724 28.894L664.96 18.13H675.724V28.894Z" fill="#80FF9F"/>
<path d="M705.579 18.358V16.666H714.039V18.358H705.579ZM705.579 18.358V20.05H703.887V18.358H705.579ZM717.423 26.116V27.808H715.731V26.116H717.423ZM714.039 24.424V18.358H715.731V24.424H714.039ZM715.731 27.808V29.5H705.579V27.808H715.731ZM712.347 24.424H714.039V26.116H707.271V24.424H710.655V21.742H707.271V20.05H712.347V24.424ZM705.579 21.742H707.271V24.424H705.579V21.742ZM705.579 26.116V27.808H703.887V26.116H705.579ZM702.195 20.05H703.887V26.116H702.195V20.05ZM727.6 18.358H729.292V22.246H727.6V18.358ZM727.6 22.246V23.938H720.814V27.808H727.6V29.5H719.122V16.666H727.6V18.358H720.814V22.246H727.6ZM727.6 23.938H729.292V27.808H727.6V23.938ZM739.466 27.808V29.5H732.68V27.808H739.466ZM730.988 16.666H732.68V27.808H730.988V16.666ZM739.466 16.666H741.158V27.808H739.466V16.666ZM744.545 18.358H742.853V27.808H744.545V23.938H749.639V22.246H744.545V18.376V18.358ZM751.331 29.5H744.545V27.808H751.331V29.5ZM751.331 18.358H744.545V16.666H751.331V18.358ZM756.415 18.358V20.05H754.723V29.5H753.031V16.666H754.723V18.358H756.415ZM763.201 16.666V29.5H761.509V27.808H759.817V26.116H761.509V16.666H763.201ZM756.415 21.742V20.05H758.107V21.742H756.415ZM758.107 26.116V21.742H759.799V26.116H758.107ZM768.298 27.808H766.606V26.116H768.298V27.808ZM773.374 29.5H768.298V27.808H773.374V29.5ZM766.606 26.116H764.896V20.05H766.606V26.116ZM773.374 27.808H775.084V26.116H773.374V27.808ZM775.084 26.116H776.776V20.05H775.084V26.116ZM773.374 18.358H775.084V20.05H773.374V18.358ZM768.298 16.666H773.374V18.358H768.298V16.666ZM768.298 18.358H766.606V20.05H768.298V18.358ZM778.466 27.808V26.116H780.158V27.808H778.466ZM786.944 27.808V23.938H788.636V27.808H786.944ZM786.944 20.05V18.358H788.636V20.05H786.944ZM778.466 22.246V18.358H780.158V22.246H778.466ZM780.158 23.938V22.246H786.944V23.938H780.158ZM780.158 18.358V16.666H786.944V18.358H780.158ZM780.158 29.5V27.808H786.944V29.5H780.158ZM793.715 18.358V16.666H797.099V18.358H793.715ZM793.715 20.05H792.023V18.358H793.715V20.05ZM800.483 20.05V29.5H798.791V25.63H792.023V29.5H790.331V20.05H792.023V23.938H798.791V20.05H800.483ZM797.099 20.05V18.358H798.791V20.05H797.099ZM802.179 16.666H803.871V29.5H802.179V16.666ZM814.068 18.358H815.76V22.246H814.068V18.358ZM814.068 22.246V23.938H815.76V29.5H814.068V25.63H812.376V23.938H807.282V29.5H805.572V16.666H814.068V18.358H807.282V22.246H814.068ZM819.146 18.358H817.454V27.808H819.146V23.938H824.24V22.246H819.146V18.376V18.358ZM825.932 29.5H819.146V27.808H825.932V29.5ZM825.932 18.358H819.146V16.666H825.932V18.358ZM827.632 27.808V26.116H829.324V27.808H827.632ZM836.11 27.808V23.938H837.802V27.808H836.11ZM836.11 20.05V18.358H837.802V20.05H836.11ZM827.632 22.246V18.358H829.324V22.246H827.632ZM829.324 23.938V22.246H836.11V23.938H829.324ZM829.324 18.358V16.666H836.11V18.358H829.324ZM829.324 29.5V27.808H836.11V29.5H829.324Z" fill="#3388FF"/>
<path d="M867.59 18.358V16.666H870.974V18.358H867.59ZM867.59 20.05H865.898V18.358H867.59V20.05ZM874.358 20.05V29.5H872.666V25.63H865.898V29.5H864.206V20.05H865.898V23.938H872.666V20.05H874.358ZM870.974 20.05V18.358H872.666V20.05H870.974ZM884.532 27.808V29.5H877.746V27.808H884.532ZM876.054 16.666H877.746V27.808H876.054V16.666ZM884.532 16.666H886.224V27.808H884.532V16.666ZM896.379 16.666V18.358H889.611V16.666H896.379ZM898.071 20.536V18.358H896.379V20.536H898.071ZM898.071 23.092H892.995V24.784H896.379V27.808H898.071V23.092ZM896.379 29.5V27.808H889.611V29.5H896.379ZM887.919 27.808H889.611V18.358H887.919V27.808ZM906.561 16.666H908.253V29.5H906.561V20.05H903.159V18.358H906.561V16.666ZM913.347 16.666H915.039V29.5H913.347V20.05H909.945V18.358H913.347V16.666ZM921.446 22.246V23.938H916.73V22.246H921.446ZM926.548 16.666H928.24V29.5H926.548V20.05H923.146V18.358H926.548V16.666ZM936.699 16.666V18.358H931.623V16.666H936.699ZM938.391 18.358V21.04H936.699V18.358H938.391ZM929.931 18.358H931.623V20.05H929.931V18.358ZM929.931 26.116H931.623V27.808H938.391V29.5H929.931V26.116ZM931.623 24.424H933.315V26.116H931.623V24.424ZM933.315 22.732H935.007V24.424H933.315V22.732ZM935.007 21.04H936.699V22.732H935.007V21.04ZM944.807 22.246V23.938H940.091V22.246H944.807ZM949.909 16.666H951.601V29.5H949.909V20.05H946.507V18.358H949.909V16.666ZM960.06 16.666V18.358H954.984V16.666H960.06ZM961.752 22.246H960.06V18.358H961.752V22.246ZM960.06 22.246V23.938H956.676V22.246H960.06ZM953.292 18.358H954.984V20.05H953.292V18.358ZM954.984 26.116V27.808H953.292V26.116H954.984ZM960.06 27.808V29.5H954.984V27.808H960.06ZM960.06 27.808V23.938H961.752V27.808H960.06ZM973.613 16.666V18.358H968.537V16.666H973.613ZM975.305 18.358V21.04H973.613V18.358H975.305ZM966.845 18.358H968.537V20.05H966.845V18.358ZM966.845 26.116H968.537V27.808H975.305V29.5H966.845V26.116ZM968.537 24.424H970.229V26.116H968.537V24.424ZM970.229 22.732H971.921V24.424H970.229V22.732ZM971.921 21.04H973.613V22.732H971.921V21.04ZM978.697 29.5V27.808H983.773V29.5H978.697ZM977.005 27.808V18.358H978.697V27.808H977.005ZM983.773 27.808V18.358H985.465V27.808H983.773ZM978.697 18.358V16.666H983.773V18.358H978.697ZM993.933 16.666V18.358H988.857V16.666H993.933ZM995.625 18.358V21.04H993.933V18.358H995.625ZM987.165 18.358H988.857V20.05H987.165V18.358ZM987.165 26.116H988.857V27.808H995.625V29.5H987.165V26.116ZM988.857 24.424H990.549V26.116H988.857V24.424ZM990.549 22.732H992.241V24.424H990.549V22.732ZM992.241 21.04H993.933V22.732H992.241V21.04ZM1004.09 16.666V18.358H999.017V16.666H1004.09ZM1005.79 18.358V21.04H1004.09V18.358H1005.79ZM997.325 18.358H999.017V20.05H997.325V18.358ZM997.325 26.116H999.017V27.808H1005.79V29.5H997.325V26.116ZM999.017 24.424H1000.71V26.116H999.017V24.424ZM1000.71 22.732H1002.4V24.424H1000.71V22.732ZM1002.4 21.04H1004.09V22.732H1002.4V21.04Z" fill="#DCF908"/>
<path d="M1031.93 31L1039.19 18.454L1046.42 31H1031.93ZM1055.52 31L1048.26 18.454H1062.75L1055.52 31ZM1064.59 31L1071.85 18.454L1079.08 31H1064.59ZM1088.18 31L1080.92 18.454H1095.41L1088.18 31ZM1097.25 31L1104.51 18.454L1111.74 31H1097.25ZM1120.84 31L1113.58 18.454H1128.07L1120.84 31ZM1129.91 31L1137.17 18.454L1144.4 31H1129.91ZM1153.5 31L1146.24 18.454H1160.73L1153.5 31ZM1162.57 31L1169.83 18.454L1177.06 31H1162.57Z" fill="#FF6A4C"/>
<path d="M1206.58 18.358V16.666H1215.04V18.358H1206.58ZM1206.58 18.358V20.05H1204.89V18.358H1206.58ZM1218.42 26.116V27.808H1216.73V26.116H1218.42ZM1215.04 24.424V18.358H1216.73V24.424H1215.04ZM1216.73 27.808V29.5H1206.58V27.808H1216.73ZM1213.35 24.424H1215.04V26.116H1208.27V24.424H1211.65V21.742H1208.27V20.05H1213.35V24.424ZM1206.58 21.742H1208.27V24.424H1206.58V21.742ZM1206.58 26.116V27.808H1204.89V26.116H1206.58ZM1203.19 20.05H1204.89V26.116H1203.19V20.05ZM1228.6 18.358H1230.29V22.246H1228.6V18.358ZM1228.6 22.246V23.938H1221.81V27.808H1228.6V29.5H1220.12V16.666H1228.6V18.358H1221.81V22.246H1228.6ZM1228.6 23.938H1230.29V27.808H1228.6V23.938ZM1240.47 27.808V29.5H1233.68V27.808H1240.47ZM1231.99 16.666H1233.68V27.808H1231.99V16.666ZM1240.47 16.666H1242.16V27.808H1240.47V16.666ZM1245.54 18.358H1243.85V27.808H1245.54V23.938H1250.64V22.246H1245.54V18.376V18.358ZM1252.33 29.5H1245.54V27.808H1252.33V29.5ZM1252.33 18.358H1245.54V16.666H1252.33V18.358ZM1257.41 18.358V20.05H1255.72V29.5H1254.03V16.666H1255.72V18.358H1257.41ZM1264.2 16.666V29.5H1262.51V27.808H1260.82V26.116H1262.51V16.666H1264.2ZM1257.41 21.742V20.05H1259.11V21.742H1257.41ZM1259.11 26.116V21.742H1260.8V26.116H1259.11ZM1269.3 27.808H1267.61V26.116H1269.3V27.808ZM1274.37 29.5H1269.3V27.808H1274.37V29.5ZM1267.61 26.116H1265.9V20.05H1267.61V26.116ZM1274.37 27.808H1276.08V26.116H1274.37V27.808ZM1276.08 26.116H1277.78V20.05H1276.08V26.116ZM1274.37 18.358H1276.08V20.05H1274.37V18.358ZM1269.3 16.666H1274.37V18.358H1269.3V16.666ZM1269.3 18.358H1267.61V20.05H1269.3V18.358ZM1279.47 27.808V26.116H1281.16V27.808H1279.47ZM1287.94 27.808V23.938H1289.64V27.808H1287.94ZM1287.94 20.05V18.358H1289.64V20.05H1287.94ZM1279.47 22.246V18.358H1281.16V22.246H1279.47ZM1281.16 23.938V22.246H1287.94V23.938H1281.16ZM1281.16 18.358V16.666H1287.94V18.358H1281.16ZM1281.16 29.5V27.808H1287.94V29.5H1281.16ZM1294.72 18.358V16.666H1298.1V18.358H1294.72ZM1294.72 20.05H1293.02V18.358H1294.72V20.05ZM1301.48 20.05V29.5H1299.79V25.63H1293.02V29.5H1291.33V20.05H1293.02V23.938H1299.79V20.05H1301.48ZM1298.1 20.05V18.358H1299.79V20.05H1298.1ZM1303.18 16.666H1304.87V29.5H1303.18V16.666ZM1315.07 18.358H1316.76V22.246H1315.07V18.358ZM1315.07 22.246V23.938H1316.76V29.5H1315.07V25.63H1313.38V23.938H1308.28V29.5H1306.57V16.666H1315.07V18.358H1308.28V22.246H1315.07ZM1320.15 18.358H1318.45V27.808H1320.15V23.938H1325.24V22.246H1320.15V18.376V18.358ZM1326.93 29.5H1320.15V27.808H1326.93V29.5ZM1326.93 18.358H1320.15V16.666H1326.93V18.358ZM1328.63 27.808V26.116H1330.32V27.808H1328.63ZM1337.11 27.808V23.938H1338.8V27.808H1337.11ZM1337.11 20.05V18.358H1338.8V20.05H1337.11ZM1328.63 22.246V18.358H1330.32V22.246H1328.63ZM1330.32 23.938V22.246H1337.11V23.938H1330.32ZM1330.32 18.358V16.666H1337.11V18.358H1330.32ZM1330.32 29.5V27.808H1337.11V29.5H1330.32Z" fill="#FAF7F5"/>
<path d="M1368.59 18.358V16.666H1371.97V18.358H1368.59ZM1368.59 20.05H1366.9V18.358H1368.59V20.05ZM1375.36 20.05V29.5H1373.67V25.63H1366.9V29.5H1365.21V20.05H1366.9V23.938H1373.67V20.05H1375.36ZM1371.97 20.05V18.358H1373.67V20.05H1371.97ZM1385.53 27.808V29.5H1378.75V27.808H1385.53ZM1377.05 16.666H1378.75V27.808H1377.05V16.666ZM1385.53 16.666H1387.22V27.808H1385.53V16.666ZM1397.38 16.666V18.358H1390.61V16.666H1397.38ZM1399.07 20.536V18.358H1397.38V20.536H1399.07ZM1399.07 23.092H1394V24.784H1397.38V27.808H1399.07V23.092ZM1397.38 29.5V27.808H1390.61V29.5H1397.38ZM1388.92 27.808H1390.61V18.358H1388.92V27.808ZM1407.56 16.666H1409.25V29.5H1407.56V20.05H1404.16V18.358H1407.56V16.666ZM1414.35 16.666H1416.04V29.5H1414.35V20.05H1410.94V18.358H1414.35V16.666ZM1422.45 22.246V23.938H1417.73V22.246H1422.45ZM1427.55 16.666H1429.24V29.5H1427.55V20.05H1424.15V18.358H1427.55V16.666ZM1437.7 16.666V18.358H1432.62V16.666H1437.7ZM1439.39 18.358V21.04H1437.7V18.358H1439.39ZM1430.93 18.358H1432.62V20.05H1430.93V18.358ZM1430.93 26.116H1432.62V27.808H1439.39V29.5H1430.93V26.116ZM1432.62 24.424H1434.31V26.116H1432.62V24.424ZM1434.31 22.732H1436.01V24.424H1434.31V22.732ZM1436.01 21.04H1437.7V22.732H1436.01V21.04ZM1445.81 22.246V23.938H1441.09V22.246H1445.81ZM1450.91 16.666H1452.6V29.5H1450.91V20.05H1447.51V18.358H1450.91V16.666ZM1461.06 16.666V18.358H1455.98V16.666H1461.06ZM1462.75 22.246H1461.06V18.358H1462.75V22.246ZM1461.06 22.246V23.938H1457.68V22.246H1461.06ZM1454.29 18.358H1455.98V20.05H1454.29V18.358ZM1455.98 26.116V27.808H1454.29V26.116H1455.98ZM1461.06 27.808V29.5H1455.98V27.808H1461.06ZM1461.06 27.808V23.938H1462.75V27.808H1461.06ZM1474.61 16.666V18.358H1469.54V16.666H1474.61ZM1476.31 18.358V21.04H1474.61V18.358H1476.31ZM1467.85 18.358H1469.54V20.05H1467.85V18.358ZM1467.85 26.116H1469.54V27.808H1476.31V29.5H1467.85V26.116ZM1469.54 24.424H1471.23V26.116H1469.54V24.424ZM1471.23 22.732H1472.92V24.424H1471.23V22.732ZM1472.92 21.04H1474.61V22.732H1472.92V21.04ZM1479.7 29.5V27.808H1484.77V29.5H1479.7ZM1478.01 27.808V18.358H1479.7V27.808H1478.01ZM1484.77 27.808V18.358H1486.47V27.808H1484.77ZM1479.7 18.358V16.666H1484.77V18.358H1479.7ZM1494.93 16.666V18.358H1489.86V16.666H1494.93ZM1496.63 18.358V21.04H1494.93V18.358H1496.63ZM1488.17 18.358H1489.86V20.05H1488.17V18.358ZM1488.17 26.116H1489.86V27.808H1496.63V29.5H1488.17V26.116ZM1489.86 24.424H1491.55V26.116H1489.86V24.424ZM1491.55 22.732H1493.24V24.424H1491.55V22.732ZM1493.24 21.04H1494.93V22.732H1493.24V21.04ZM1505.09 16.666V18.358H1500.02V16.666H1505.09ZM1506.79 18.358V21.04H1505.09V18.358H1506.79ZM1498.33 18.358H1500.02V20.05H1498.33V18.358ZM1498.33 26.116H1500.02V27.808H1506.79V29.5H1498.33V26.116ZM1500.02 24.424H1501.71V26.116H1500.02V24.424ZM1501.71 22.732H1503.4V24.424H1501.71V22.732ZM1503.4 21.04H1505.09V22.732H1503.4V21.04Z" fill="#E573E5"/>
</svg>
