<svg width="1440" height="46" viewBox="0 0 1440 46" fill="none" xmlns="http://www.w3.org/2000/svg">
<path d="M39.7589 29.112C43.7189 29.112 46.8869 25.944 46.8869 21.984C46.8869 18.024 43.7189 14.856 39.7589 14.856C35.7989 14.856 32.6309 18.024 32.6309 21.984C32.6309 25.944 35.7989 29.112 39.7589 29.112ZM39.7589 28.356C36.2129 28.356 33.3869 25.53 33.3869 21.984C33.3869 18.438 36.2129 15.612 39.7589 15.612V28.356ZM60.8526 29.112C64.7946 29.112 67.9806 25.926 67.9806 21.984C67.9806 18.042 64.7946 14.856 60.8526 14.856C56.9286 14.856 53.7246 18.042 53.7246 21.984C53.7246 25.926 56.9286 29.112 60.8526 29.112ZM60.8526 27.87C57.5946 27.87 54.9666 25.242 54.9666 21.984C54.9666 18.726 57.5946 16.098 60.8526 16.098C64.1106 16.098 66.7386 18.726 66.7386 21.984C66.7386 25.242 64.1106 27.87 60.8526 27.87ZM60.8526 27.006C63.6426 27.006 65.8926 24.774 65.8926 21.984C65.8926 19.194 63.6426 16.962 60.8526 16.962C58.0626 16.962 55.8306 19.194 55.8306 21.984C55.8306 24.774 58.0626 27.006 60.8526 27.006ZM81.9464 29.112C85.9064 29.112 89.0744 25.944 89.0744 21.984C89.0744 18.024 85.9064 14.856 81.9464 14.856C77.9864 14.856 74.8184 18.024 74.8184 21.984C74.8184 25.944 77.9864 29.112 81.9464 29.112ZM81.9464 28.356V15.612C85.4924 15.612 88.3184 18.438 88.3184 21.984C88.3184 25.53 85.4924 28.356 81.9464 28.356ZM95.9121 28.572H109.088V15.396H95.9121V28.572ZM123.062 29.112C127.022 29.112 130.19 25.944 130.19 21.984C130.19 18.024 127.022 14.856 123.062 14.856C119.102 14.856 115.934 18.024 115.934 21.984C115.934 25.944 119.102 29.112 123.062 29.112ZM123.062 28.356C119.516 28.356 116.69 25.53 116.69 21.984C116.69 18.438 119.516 15.612 123.062 15.612V28.356ZM144.155 29.112C148.097 29.112 151.283 25.926 151.283 21.984C151.283 18.042 148.097 14.856 144.155 14.856C140.231 14.856 137.027 18.042 137.027 21.984C137.027 25.926 140.231 29.112 144.155 29.112ZM144.155 27.87C140.897 27.87 138.269 25.242 138.269 21.984C138.269 18.726 140.897 16.098 144.155 16.098C147.413 16.098 150.041 18.726 150.041 21.984C150.041 25.242 147.413 27.87 144.155 27.87ZM144.155 27.006C146.945 27.006 149.195 24.774 149.195 21.984C149.195 19.194 146.945 16.962 144.155 16.962C141.365 16.962 139.133 19.194 139.133 21.984C139.133 24.774 141.365 27.006 144.155 27.006ZM165.249 29.112C169.209 29.112 172.377 25.944 172.377 21.984C172.377 18.024 169.209 14.856 165.249 14.856C161.289 14.856 158.121 18.024 158.121 21.984C158.121 25.944 161.289 29.112 165.249 29.112ZM165.249 28.356V15.612C168.795 15.612 171.621 18.438 171.621 21.984C171.621 25.53 168.795 28.356 165.249 28.356Z" fill="#DCF908"/>
<path d="M202.869 21.258C202.869 20.07 203.805 18.612 205.101 18.612C205.875 18.612 206.487 19.26 206.487 20.142C206.487 21.384 205.569 22.86 204.273 22.86C203.445 22.86 202.869 22.212 202.869 21.258ZM208.827 17.19H207.351L207.063 18.162C206.649 17.226 205.731 16.902 204.957 16.902C202.581 16.902 201.033 19.224 201.033 21.492C201.033 23.166 202.311 24.57 203.859 24.57C204.615 24.57 205.371 24.246 205.803 23.526H205.839C205.875 24.12 206.397 24.552 207.153 24.552C208.305 24.552 211.383 23.04 211.383 19.332C211.383 16.02 208.395 13.842 205.119 13.842C201.375 13.842 198.279 16.776 198.279 20.574C198.279 24.426 201.375 27.306 205.209 27.306C207.459 27.306 209.475 26.244 210.699 24.39H209.187C208.251 25.326 206.829 25.866 205.317 25.866C202.221 25.866 200.007 23.76 200.007 20.61C200.007 17.568 202.005 15.282 205.101 15.282C207.837 15.282 209.979 16.848 209.979 19.71C209.979 21.636 208.881 23.022 207.855 23.022C207.405 23.022 207.549 22.32 207.693 21.834L208.827 17.19ZM216.095 21.276H219.173C220.379 21.276 221.207 21.798 221.207 23.112C221.207 24.444 220.235 24.804 219.119 24.804H216.095V21.276ZM213.269 27H219.497C221.819 27 224.033 25.884 224.033 23.274C224.033 21.672 223.241 20.466 221.675 20.016C222.791 19.476 223.421 18.594 223.421 17.334C223.421 14.94 221.765 14.148 219.317 14.148H213.269V27ZM216.095 16.344H218.741C219.749 16.344 220.685 16.596 220.685 17.82C220.685 18.9 219.947 19.35 218.957 19.35H216.095V16.344ZM225.385 20.628C225.385 24.336 227.725 27.306 231.703 27.306C235.681 27.306 238.021 24.336 238.021 20.628C238.021 16.812 235.681 13.842 231.703 13.842C227.725 13.842 225.385 16.812 225.385 20.628ZM228.211 20.628C228.211 18.378 229.165 16.218 231.703 16.218C234.241 16.218 235.195 18.378 235.195 20.628C235.195 22.77 234.241 24.93 231.703 24.93C229.165 24.93 228.211 22.77 228.211 20.628ZM249.529 27H251.329V20.052H245.929V22.158H248.773C248.611 23.94 247.549 24.93 245.713 24.93C243.175 24.93 242.221 22.77 242.221 20.628C242.221 18.378 243.175 16.218 245.713 16.218C247.045 16.218 248.107 16.956 248.431 18.378H251.131C250.825 15.462 248.341 13.842 245.713 13.842C241.735 13.842 239.395 16.812 239.395 20.628C239.395 24.336 241.735 27.306 245.713 27.306C246.955 27.306 248.251 26.82 249.241 25.542L249.529 27ZM253.053 20.628C253.053 24.336 255.393 27.306 259.371 27.306C263.349 27.306 265.689 24.336 265.689 20.628C265.689 16.812 263.349 13.842 259.371 13.842C255.393 13.842 253.053 16.812 253.053 20.628ZM255.879 20.628C255.879 18.378 256.833 16.218 259.371 16.218C261.909 16.218 262.863 18.378 262.863 20.628C262.863 22.77 261.909 24.93 259.371 24.93C256.833 24.93 255.879 22.77 255.879 20.628ZM270.465 27H273.291V16.524H277.143V14.148H266.613V16.524H270.465V27ZM275.921 27H278.783L279.791 24.138H284.597L285.569 27H288.503L283.697 14.148H280.799L275.921 27ZM282.203 17.316H282.239L283.859 22.032H280.529L282.203 17.316ZM285.407 10.44H282.581L280.853 12.996H282.635L285.407 10.44Z" fill="#E573E5"/>
<path d="M313.491 20.628C313.491 24.336 315.831 27.306 319.809 27.306C323.787 27.306 326.127 24.336 326.127 20.628C326.127 16.812 323.787 13.842 319.809 13.842C315.831 13.842 313.491 16.812 313.491 20.628ZM316.317 20.628C316.317 18.378 317.271 16.218 319.809 16.218C322.347 16.218 323.301 18.378 323.301 20.628C323.301 22.77 322.347 24.93 319.809 24.93C317.271 24.93 316.317 22.77 316.317 20.628ZM339.362 18.468C339.02 15.498 336.644 13.842 333.818 13.842C329.84 13.842 327.5 16.812 327.5 20.628C327.5 24.336 329.84 27.306 333.818 27.306C336.968 27.306 339.182 25.254 339.47 22.05H336.734C336.518 23.742 335.546 24.93 333.818 24.93C331.28 24.93 330.326 22.77 330.326 20.628C330.326 18.378 331.28 16.218 333.818 16.218C335.222 16.218 336.446 17.19 336.626 18.468H339.362ZM344.244 27H347.07V16.524H350.922V14.148H340.392V16.524H344.244V27ZM349.796 23.184H355.214V20.988H349.796V23.184ZM363.228 14.4H361.194C360.924 16.326 359.286 16.938 357.504 16.902V18.828H360.672V27H363.228V14.4ZM366.552 20.646C366.552 25.668 368.676 27.252 371.16 27.252C373.68 27.252 375.804 25.668 375.804 20.646C375.804 15.732 373.68 14.148 371.16 14.148C368.676 14.148 366.552 15.732 366.552 20.646ZM369.108 20.646C369.108 19.332 369.108 16.254 371.16 16.254C373.248 16.254 373.248 19.332 373.248 20.646C373.248 22.068 373.248 25.146 371.16 25.146C369.108 25.146 369.108 22.068 369.108 20.646ZM384.3 19.242C384.3 17.91 384.786 16.344 386.298 16.344C387.396 16.344 388.188 17.1 388.188 18.288C388.17 19.836 386.658 20.61 385.542 21.366C383.364 22.842 381.582 24.084 381.564 27H390.816V24.804H384.858C385.776 23.508 387.252 22.788 388.494 21.906C389.736 21.024 390.744 19.98 390.744 18.09C390.744 15.624 388.728 14.148 386.424 14.148C383.4 14.148 381.762 16.362 381.852 19.242H384.3ZM391.566 20.646C391.566 25.668 393.69 27.252 396.174 27.252C398.694 27.252 400.818 25.668 400.818 20.646C400.818 15.732 398.694 14.148 396.174 14.148C393.69 14.148 391.566 15.732 391.566 20.646ZM394.122 20.646C394.122 19.332 394.122 16.254 396.174 16.254C398.262 16.254 398.262 19.332 398.262 20.646C398.262 22.068 398.262 25.146 396.174 25.146C394.122 25.146 394.122 22.068 394.122 20.646ZM404.303 19.242C404.303 17.91 404.789 16.344 406.301 16.344C407.399 16.344 408.191 17.1 408.191 18.288C408.173 19.836 406.661 20.61 405.545 21.366C403.367 22.842 401.585 24.084 401.567 27H410.819V24.804H404.861C405.779 23.508 407.255 22.788 408.497 21.906C409.739 21.024 410.747 19.98 410.747 18.09C410.747 15.624 408.731 14.148 406.427 14.148C403.403 14.148 401.765 16.362 401.855 19.242H404.303ZM414.305 19.242C414.305 17.91 414.791 16.344 416.303 16.344C417.401 16.344 418.193 17.1 418.193 18.288C418.175 19.836 416.663 20.61 415.547 21.366C413.369 22.842 411.587 24.084 411.569 27H420.821V24.804H414.863C415.781 23.508 417.257 22.788 418.499 21.906C419.741 21.024 420.749 19.98 420.749 18.09C420.749 15.624 418.733 14.148 416.429 14.148C413.405 14.148 411.767 16.362 411.857 19.242H414.305Z" fill="#FAF7F5"/>
<path d="M457.536 15.63H446.772V26.394L457.536 15.63ZM459.376 28.5H470.14V17.736L459.376 28.5ZM476.989 17.736V28.5H487.753L476.989 17.736ZM500.357 26.394V15.63H489.593L500.357 26.394ZM517.97 15.63H507.206V26.394L517.97 15.63ZM519.81 28.5H530.574V17.736L519.81 28.5ZM537.423 17.736V28.5H548.187L537.423 17.736ZM560.79 26.394V15.63H550.026L560.79 26.394ZM578.404 15.63H567.64V26.394L578.404 15.63ZM580.243 28.5H591.007V17.736L580.243 28.5ZM597.856 17.736V28.5H608.62L597.856 17.736ZM621.224 26.394V15.63H610.46L621.224 26.394Z" fill="#80FF9F"/>
<path d="M651.869 21.258C651.869 20.07 652.805 18.612 654.101 18.612C654.875 18.612 655.487 19.26 655.487 20.142C655.487 21.384 654.569 22.86 653.273 22.86C652.445 22.86 651.869 22.212 651.869 21.258ZM657.827 17.19H656.351L656.063 18.162C655.649 17.226 654.731 16.902 653.957 16.902C651.581 16.902 650.033 19.224 650.033 21.492C650.033 23.166 651.311 24.57 652.859 24.57C653.615 24.57 654.371 24.246 654.803 23.526H654.839C654.875 24.12 655.397 24.552 656.153 24.552C657.305 24.552 660.383 23.04 660.383 19.332C660.383 16.02 657.395 13.842 654.119 13.842C650.375 13.842 647.279 16.776 647.279 20.574C647.279 24.426 650.375 27.306 654.209 27.306C656.459 27.306 658.475 26.244 659.699 24.39H658.187C657.251 25.326 655.829 25.866 654.317 25.866C651.221 25.866 649.007 23.76 649.007 20.61C649.007 17.568 651.005 15.282 654.101 15.282C656.837 15.282 658.979 16.848 658.979 19.71C658.979 21.636 657.881 23.022 656.855 23.022C656.405 23.022 656.549 22.32 656.693 21.834L657.827 17.19ZM665.095 21.276H668.173C669.379 21.276 670.207 21.798 670.207 23.112C670.207 24.444 669.235 24.804 668.119 24.804H665.095V21.276ZM662.269 27H668.497C670.819 27 673.033 25.884 673.033 23.274C673.033 21.672 672.241 20.466 670.675 20.016C671.791 19.476 672.421 18.594 672.421 17.334C672.421 14.94 670.765 14.148 668.317 14.148H662.269V27ZM665.095 16.344H667.741C668.749 16.344 669.685 16.596 669.685 17.82C669.685 18.9 668.947 19.35 667.957 19.35H665.095V16.344ZM674.385 20.628C674.385 24.336 676.725 27.306 680.703 27.306C684.681 27.306 687.021 24.336 687.021 20.628C687.021 16.812 684.681 13.842 680.703 13.842C676.725 13.842 674.385 16.812 674.385 20.628ZM677.211 20.628C677.211 18.378 678.165 16.218 680.703 16.218C683.241 16.218 684.195 18.378 684.195 20.628C684.195 22.77 683.241 24.93 680.703 24.93C678.165 24.93 677.211 22.77 677.211 20.628ZM698.529 27H700.329V20.052H694.929V22.158H697.773C697.611 23.94 696.549 24.93 694.713 24.93C692.175 24.93 691.221 22.77 691.221 20.628C691.221 18.378 692.175 16.218 694.713 16.218C696.045 16.218 697.107 16.956 697.431 18.378H700.131C699.825 15.462 697.341 13.842 694.713 13.842C690.735 13.842 688.395 16.812 688.395 20.628C688.395 24.336 690.735 27.306 694.713 27.306C695.955 27.306 697.251 26.82 698.241 25.542L698.529 27ZM702.053 20.628C702.053 24.336 704.393 27.306 708.371 27.306C712.349 27.306 714.689 24.336 714.689 20.628C714.689 16.812 712.349 13.842 708.371 13.842C704.393 13.842 702.053 16.812 702.053 20.628ZM704.879 20.628C704.879 18.378 705.833 16.218 708.371 16.218C710.909 16.218 711.863 18.378 711.863 20.628C711.863 22.77 710.909 24.93 708.371 24.93C705.833 24.93 704.879 22.77 704.879 20.628ZM719.465 27H722.291V16.524H726.143V14.148H715.613V16.524H719.465V27ZM724.921 27H727.783L728.791 24.138H733.597L734.569 27H737.503L732.697 14.148H729.799L724.921 27ZM731.203 17.316H731.239L732.859 22.032H729.529L731.203 17.316ZM734.407 10.44H731.581L729.853 12.996H731.635L734.407 10.44Z" fill="#3388FF"/>
<path d="M762.493 20.628C762.493 24.336 764.833 27.306 768.811 27.306C772.789 27.306 775.129 24.336 775.129 20.628C775.129 16.812 772.789 13.842 768.811 13.842C764.833 13.842 762.493 16.812 762.493 20.628ZM765.319 20.628C765.319 18.378 766.273 16.218 768.811 16.218C771.349 16.218 772.303 18.378 772.303 20.628C772.303 22.77 771.349 24.93 768.811 24.93C766.273 24.93 765.319 22.77 765.319 20.628ZM788.364 18.468C788.022 15.498 785.646 13.842 782.82 13.842C778.842 13.842 776.502 16.812 776.502 20.628C776.502 24.336 778.842 27.306 782.82 27.306C785.97 27.306 788.184 25.254 788.472 22.05H785.736C785.52 23.742 784.548 24.93 782.82 24.93C780.282 24.93 779.328 22.77 779.328 20.628C779.328 18.378 780.282 16.218 782.82 16.218C784.224 16.218 785.448 17.19 785.628 18.468H788.364ZM793.246 27H796.072V16.524H799.924V14.148H789.394V16.524H793.246V27ZM798.798 23.184H804.216V20.988H798.798V23.184ZM812.23 14.4H810.196C809.926 16.326 808.288 16.938 806.506 16.902V18.828H809.674V27H812.23V14.4ZM815.554 20.646C815.554 25.668 817.678 27.252 820.162 27.252C822.682 27.252 824.806 25.668 824.806 20.646C824.806 15.732 822.682 14.148 820.162 14.148C817.678 14.148 815.554 15.732 815.554 20.646ZM818.11 20.646C818.11 19.332 818.11 16.254 820.162 16.254C822.25 16.254 822.25 19.332 822.25 20.646C822.25 22.068 822.25 25.146 820.162 25.146C818.11 25.146 818.11 22.068 818.11 20.646ZM833.302 19.242C833.302 17.91 833.788 16.344 835.3 16.344C836.398 16.344 837.19 17.1 837.19 18.288C837.172 19.836 835.66 20.61 834.544 21.366C832.366 22.842 830.584 24.084 830.566 27H839.818V24.804H833.86C834.778 23.508 836.254 22.788 837.496 21.906C838.738 21.024 839.746 19.98 839.746 18.09C839.746 15.624 837.73 14.148 835.426 14.148C832.402 14.148 830.764 16.362 830.854 19.242H833.302ZM843.303 19.242C843.303 17.91 843.789 16.344 845.301 16.344C846.399 16.344 847.191 17.1 847.191 18.288C847.173 19.836 845.661 20.61 844.545 21.366C842.367 22.842 840.585 24.084 840.567 27H849.819V24.804H843.861C844.779 23.508 846.255 22.788 847.497 21.906C848.739 21.024 849.747 19.98 849.747 18.09C849.747 15.624 847.731 14.148 845.427 14.148C842.403 14.148 840.765 16.362 840.855 19.242H843.303Z" fill="#DCF908"/>
<path d="M875.433 28.5H889.923L882.687 15.954L875.433 28.5ZM899.017 28.5L906.253 15.954H891.763L899.017 28.5ZM908.093 28.5H922.583L915.347 15.954L908.093 28.5ZM931.677 28.5L938.913 15.954H924.423L931.677 28.5ZM940.753 28.5H955.243L948.007 15.954L940.753 28.5ZM964.337 28.5L971.573 15.954H957.083L964.337 28.5ZM973.413 28.5H987.903L980.667 15.954L973.413 28.5ZM996.997 28.5L1004.23 15.954H989.743L996.997 28.5ZM1006.07 28.5H1020.56L1013.33 15.954L1006.07 28.5Z" fill="#FF6A4C"/>
<path d="M1050.87 21.258C1050.87 20.07 1051.8 18.612 1053.1 18.612C1053.87 18.612 1054.49 19.26 1054.49 20.142C1054.49 21.384 1053.57 22.86 1052.27 22.86C1051.44 22.86 1050.87 22.212 1050.87 21.258ZM1056.83 17.19H1055.35L1055.06 18.162C1054.65 17.226 1053.73 16.902 1052.96 16.902C1050.58 16.902 1049.03 19.224 1049.03 21.492C1049.03 23.166 1050.31 24.57 1051.86 24.57C1052.61 24.57 1053.37 24.246 1053.8 23.526H1053.84C1053.87 24.12 1054.4 24.552 1055.15 24.552C1056.3 24.552 1059.38 23.04 1059.38 19.332C1059.38 16.02 1056.39 13.842 1053.12 13.842C1049.37 13.842 1046.28 16.776 1046.28 20.574C1046.28 24.426 1049.37 27.306 1053.21 27.306C1055.46 27.306 1057.47 26.244 1058.7 24.39H1057.19C1056.25 25.326 1054.83 25.866 1053.32 25.866C1050.22 25.866 1048.01 23.76 1048.01 20.61C1048.01 17.568 1050 15.282 1053.1 15.282C1055.84 15.282 1057.98 16.848 1057.98 19.71C1057.98 21.636 1056.88 23.022 1055.85 23.022C1055.4 23.022 1055.55 22.32 1055.69 21.834L1056.83 17.19ZM1064.1 21.276H1067.17C1068.38 21.276 1069.21 21.798 1069.21 23.112C1069.21 24.444 1068.24 24.804 1067.12 24.804H1064.1V21.276ZM1061.27 27H1067.5C1069.82 27 1072.03 25.884 1072.03 23.274C1072.03 21.672 1071.24 20.466 1069.68 20.016C1070.79 19.476 1071.42 18.594 1071.42 17.334C1071.42 14.94 1069.77 14.148 1067.32 14.148H1061.27V27ZM1064.1 16.344H1066.74C1067.75 16.344 1068.69 16.596 1068.69 17.82C1068.69 18.9 1067.95 19.35 1066.96 19.35H1064.1V16.344ZM1073.39 20.628C1073.39 24.336 1075.73 27.306 1079.7 27.306C1083.68 27.306 1086.02 24.336 1086.02 20.628C1086.02 16.812 1083.68 13.842 1079.7 13.842C1075.73 13.842 1073.39 16.812 1073.39 20.628ZM1076.21 20.628C1076.21 18.378 1077.17 16.218 1079.7 16.218C1082.24 16.218 1083.2 18.378 1083.2 20.628C1083.2 22.77 1082.24 24.93 1079.7 24.93C1077.17 24.93 1076.21 22.77 1076.21 20.628ZM1097.53 27H1099.33V20.052H1093.93V22.158H1096.77C1096.61 23.94 1095.55 24.93 1093.71 24.93C1091.17 24.93 1090.22 22.77 1090.22 20.628C1090.22 18.378 1091.17 16.218 1093.71 16.218C1095.04 16.218 1096.11 16.956 1096.43 18.378H1099.13C1098.82 15.462 1096.34 13.842 1093.71 13.842C1089.73 13.842 1087.39 16.812 1087.39 20.628C1087.39 24.336 1089.73 27.306 1093.71 27.306C1094.95 27.306 1096.25 26.82 1097.24 25.542L1097.53 27ZM1101.05 20.628C1101.05 24.336 1103.39 27.306 1107.37 27.306C1111.35 27.306 1113.69 24.336 1113.69 20.628C1113.69 16.812 1111.35 13.842 1107.37 13.842C1103.39 13.842 1101.05 16.812 1101.05 20.628ZM1103.88 20.628C1103.88 18.378 1104.83 16.218 1107.37 16.218C1109.91 16.218 1110.86 18.378 1110.86 20.628C1110.86 22.77 1109.91 24.93 1107.37 24.93C1104.83 24.93 1103.88 22.77 1103.88 20.628ZM1118.46 27H1121.29V16.524H1125.14V14.148H1114.61V16.524H1118.46V27ZM1123.92 27H1126.78L1127.79 24.138H1132.6L1133.57 27H1136.5L1131.7 14.148H1128.8L1123.92 27ZM1130.2 17.316H1130.24L1131.86 22.032H1128.53L1130.2 17.316ZM1133.41 10.44H1130.58L1128.85 12.996H1130.63L1133.41 10.44Z" fill="#FAF7F5"/>
<path d="M1161.49 20.628C1161.49 24.336 1163.83 27.306 1167.81 27.306C1171.79 27.306 1174.13 24.336 1174.13 20.628C1174.13 16.812 1171.79 13.842 1167.81 13.842C1163.83 13.842 1161.49 16.812 1161.49 20.628ZM1164.32 20.628C1164.32 18.378 1165.27 16.218 1167.81 16.218C1170.35 16.218 1171.3 18.378 1171.3 20.628C1171.3 22.77 1170.35 24.93 1167.81 24.93C1165.27 24.93 1164.32 22.77 1164.32 20.628ZM1187.36 18.468C1187.02 15.498 1184.65 13.842 1181.82 13.842C1177.84 13.842 1175.5 16.812 1175.5 20.628C1175.5 24.336 1177.84 27.306 1181.82 27.306C1184.97 27.306 1187.18 25.254 1187.47 22.05H1184.74C1184.52 23.742 1183.55 24.93 1181.82 24.93C1179.28 24.93 1178.33 22.77 1178.33 20.628C1178.33 18.378 1179.28 16.218 1181.82 16.218C1183.22 16.218 1184.45 17.19 1184.63 18.468H1187.36ZM1192.25 27H1195.07V16.524H1198.92V14.148H1188.39V16.524H1192.25V27ZM1197.8 23.184H1203.22V20.988H1197.8V23.184ZM1211.23 14.4H1209.2C1208.93 16.326 1207.29 16.938 1205.51 16.902V18.828H1208.67V27H1211.23V14.4ZM1214.55 20.646C1214.55 25.668 1216.68 27.252 1219.16 27.252C1221.68 27.252 1223.81 25.668 1223.81 20.646C1223.81 15.732 1221.68 14.148 1219.16 14.148C1216.68 14.148 1214.55 15.732 1214.55 20.646ZM1217.11 20.646C1217.11 19.332 1217.11 16.254 1219.16 16.254C1221.25 16.254 1221.25 19.332 1221.25 20.646C1221.25 22.068 1221.25 25.146 1219.16 25.146C1217.11 25.146 1217.11 22.068 1217.11 20.646ZM1232.3 19.242C1232.3 17.91 1232.79 16.344 1234.3 16.344C1235.4 16.344 1236.19 17.1 1236.19 18.288C1236.17 19.836 1234.66 20.61 1233.54 21.366C1231.37 22.842 1229.58 24.084 1229.57 27H1238.82V24.804H1232.86C1233.78 23.508 1235.25 22.788 1236.5 21.906C1237.74 21.024 1238.75 19.98 1238.75 18.09C1238.75 15.624 1236.73 14.148 1234.43 14.148C1231.4 14.148 1229.76 16.362 1229.85 19.242H1232.3ZM1242.3 19.242C1242.3 17.91 1242.79 16.344 1244.3 16.344C1245.4 16.344 1246.19 17.1 1246.19 18.288C1246.17 19.836 1244.66 20.61 1243.55 21.366C1241.37 22.842 1239.59 24.084 1239.57 27H1248.82V24.804H1242.86C1243.78 23.508 1245.26 22.788 1246.5 21.906C1247.74 21.024 1248.75 19.98 1248.75 18.09C1248.75 15.624 1246.73 14.148 1244.43 14.148C1241.4 14.148 1239.77 16.362 1239.86 19.242H1242.3Z" fill="#E573E5"/>
<path d="M1274.43 28.5H1288.92L1281.69 15.954L1274.43 28.5ZM1298.02 28.5L1305.25 15.954H1290.76L1298.02 28.5ZM1307.09 28.5H1321.58L1314.35 15.954L1307.09 28.5ZM1330.68 28.5L1337.91 15.954H1323.42L1330.68 28.5ZM1339.75 28.5H1354.24L1347.01 15.954L1339.75 28.5ZM1363.34 28.5L1370.57 15.954H1356.08L1363.34 28.5ZM1372.41 28.5H1386.9L1379.67 15.954L1372.41 28.5ZM1396 28.5L1403.23 15.954H1388.74L1396 28.5ZM1405.07 28.5H1419.56L1412.33 15.954L1405.07 28.5Z" fill="#FF6A4C"/>
</svg>
