<svg fill="none" height="24" viewBox="0 0 24 24" width="24" xmlns="http://www.w3.org/2000/svg"><path d="m9.87605 4.98866c-.1744-.4848-.3504-.9736-.3536-.98-.084-.188-.2784-.3064-.4832-.2856-.1296.0104-3.196.2744-5.1608 1.8544-1.0272.9488-3.078401 6.49604-3.078401 11.29204 0 .0848.0216.1672.064.2408 1.416801 2.488 5.279201 3.1392 6.159201 3.1672.0056.0008.0104.0008.0152.0008.1552 0 .3008-.0744.3936-.2l.952-1.2896c-1.5728-.2392-1.8568-.5512-1.9232-.6-.3552-.2616-.6176-.628-.2992-1.0904.2448-.3592.7584-.4776 1.152-.2752.4032.188 1.4824.7928 4.68635.7768 3.1816-.0096 4.5784-.676 4.5984-.6904.5344-.2408.9512-.1416 1.2112.2152.3096.4856.0888.8144-.2648 1.0752-.0664.0488-.2272.1856-1.9168.5856l.94 1.292c.092.1264.2384.2.3936.2.0056 0 .0104 0 .0153-.0008.8807-.028 4.7431-.6792 6.1591-3.1672.0424-.0736.064-.156.064-.2408 0-4.7952-2.0512-10.34244-3.1039-11.31204-1.9393-1.5584-5.0057-1.8224-5.1353-1.8336-.2048-.0176-.3992.0984-.4832.2856-.0032.0064-.1744.5032-.34.9824 0 0-1.3048-.1912-2.1376-.1912s-2.12395.1888-2.12395.1888zm-1.076 10.21124c-.884 0-1.6-1.0664-1.6-2.3832s.716-2.3832 1.6-2.3832c.8872-.132 1.58075 1.0664 1.59995 2.3832 0 1.3168-.71595 2.3832-1.59995 2.3832zm6.39995 0c-.884 0-1.6-1.0736-1.6-2.3976s.716-2.3976 1.6-2.3976 1.6 1.0736 1.6 2.3976-.716 2.3976-1.6 2.3976z" fill="#737373"/></svg>