<svg fill="none" height="24" viewBox="0 0 24 24" width="24" xmlns="http://www.w3.org/2000/svg"><path d="m7.99834 2.3999c-3.0872 0-5.59844 2.51357-5.59844 5.60156v8.00004c0 3.0872 2.51357 5.5984 5.60156 5.5984h8.00004c3.0872 0 5.5984-2.5136 5.5984-5.6016v-7.99996c0-3.0872-2.5136-5.59844-5.6016-5.59844zm9.60156 3.2c.4416 0 .8.3584.8.8s-.3584.8-.8.8-.8-.3584-.8-.8.3584-.8.8-.8zm-5.6 1.6c2.6472 0 4.8 2.1528 4.8 4.8s-2.1528 4.8-4.8 4.8-4.8-2.1528-4.8-4.8 2.1528-4.8 4.8-4.8zm0 1.6c-.8487 0-1.6626.33714-2.26274.93726-.60012.60014-.93726 1.41404-.93726 2.26274s.33714 1.6626.93726 2.2627c.60014.6002 1.41404.9373 2.26274.9373s1.6626-.3371 2.2627-.9373c.6002-.6001.9373-1.414.9373-2.2627s-.3371-1.6626-.9373-2.26274c-.6001-.60012-1.414-.93726-2.2627-.93726z" fill="#737373"/></svg>