<svg width="480" height="161" viewBox="0 0 480 161" fill="none" xmlns="http://www.w3.org/2000/svg">
<path d="M151.009 10.3151H141.053V65.9381H151.009V43.1592H180.984V33.2H151.009V10.3151ZM190.941 75.8973H151.009V65.9381H190.941V75.8973ZM190.941 10.3151H151.009V0.355947H190.941V10.3151Z" fill="#FAF7F5"/>
<path d="M221.385 75.8973H231.447V8.72589H256.656V0.25H196.176V8.72589H221.385V75.8973Z" fill="#FAF7F5"/>
<path d="M265.047 75.8973H275.109V41.2521H314.935V75.8973H324.997V0.25H314.935V32.7762H275.109V0.25H265.047V75.8973Z" fill="#FAF7F5"/>
<path d="M190.941 150.291V160.25H151.009V150.291H190.941ZM141.053 84.7086H151.009V150.291H141.053V84.7086Z" fill="#FAF7F5"/>
<path d="M220.855 94.6678V84.7086H240.768V94.6678H220.855ZM220.855 104.627H210.899V94.6678H220.855V104.627ZM260.681 104.627V160.25H250.725V137.471H210.899V160.25H200.943V104.627H210.899V127.512H250.725V104.627H260.681ZM240.768 104.627V94.6678H250.725V104.627H240.768Z" fill="#FAF7F5"/>
<path d="M291.101 160.25H301.164V93.0786H326.373V84.6027H265.893V93.0786H291.101V160.25Z" fill="#FAF7F5"/>
<path d="M351.393 94.6678V84.7086H371.305V94.6678H351.393ZM351.393 104.627H341.436V94.6678H351.393V104.627ZM391.218 104.627V160.25H381.262V137.471H341.436V160.25H331.48V104.627H341.436V127.512H381.262V104.627H391.218ZM371.305 104.627V94.6678H381.262V104.627H371.305Z" fill="#FAF7F5"/>
<path d="M404.692 160.25H414.224V97.3165H414.436L438.056 160.25H446.636L470.256 97.3165H470.467V160.25H480V84.6027H466.231L442.293 148.172L418.461 84.6027H404.692V160.25Z" fill="#FAF7F5"/>
<path d="M71.5789 0.25L53.6842 26.9167L35.7895 0.25H71.5789Z" fill="#FAF7F5"/>
<path d="M53.6842 73.2325L49.1228 80.25L53.6842 87.2675L58.2456 80.25L53.6842 73.2325Z" fill="#FAF7F5"/>
<path fill-rule="evenodd" clip-rule="evenodd" d="M53.6842 55.6886L37.193 80.25L53.6842 104.811L70.1754 80.25L53.6842 55.6886ZM53.6842 62.7061L42.1053 80.25L53.6842 97.7939L65.2632 80.25L53.6842 62.7061Z" fill="#FAF7F5"/>
<path fill-rule="evenodd" clip-rule="evenodd" d="M25.2632 80.25L53.6842 37.443L82.1053 80.25L53.6842 123.057L25.2632 80.25ZM30.1754 80.25L53.6842 45.1623L77.193 80.25L53.6842 115.338L30.1754 80.25Z" fill="#FAF7F5"/>
<path fill-rule="evenodd" clip-rule="evenodd" d="M71.5789 53.5833L89.4737 26.9167H53.6842H17.8947L35.7895 53.5833H0L17.8947 80.25L0 106.917H35.7895L17.8947 133.583H53.6842L35.7895 160.25H71.5789L53.6842 133.583H89.4737L71.5789 106.917H107.368L89.4737 80.25L107.368 53.5833H71.5789ZM71.5789 53.5833L53.6842 26.9167L35.7895 53.5833L17.8947 80.25L35.7895 106.917L53.6842 133.583L71.5789 106.917L89.4737 80.25L71.5789 53.5833Z" fill="#FAF7F5"/>
</svg>
