<svg width="1044" height="800" viewBox="0 0 1044 800" fill="none" xmlns="http://www.w3.org/2000/svg">
<rect x="968.362" y="273.719" width="88.0328" height="88.0328" fill="#DCF908"/>
<rect x="968.362" y="361.751" width="88.0328" height="88.0328" fill="#DCF908"/>
<rect x="968.362" y="97.5729" width="88.0328" height="88.0328" fill="#DCF908"/>
<rect x="968.362" y="449.783" width="88.0328" height="88.0328" fill="#DCF908"/>
<rect x="968.362" y="185.605" width="88.0328" height="88.0328" fill="#DCF908"/>
<rect x="968.362" y="713.879" width="88.0328" height="88.0328" fill="#DCF908"/>
<rect x="616.231" y="713.879" width="88.0328" height="88.0328" fill="#DCF908"/>
<rect x="528.197" y="713.879" width="88.0328" height="88.0328" fill="#DCF908"/>
<rect x="528.197" y="625.847" width="88.0328" height="88.0328" fill="#DCF908"/>
<rect x="440.165" y="537.815" width="88.0328" height="88.0328" fill="#DCF908"/>
<rect x="352.131" y="449.783" width="88.0328" height="88.0328" fill="#DCF908"/>
<rect x="176.066" y="449.783" width="88.0328" height="88.0328" fill="#DCF908"/>
<rect x="440.165" y="625.847" width="88.0328" height="88.0328" fill="#DCF908"/>
<rect x="352.131" y="537.815" width="88.0328" height="88.0328" fill="#DCF908"/>
<rect x="264.099" y="449.783" width="88.0328" height="88.0328" fill="#DCF908"/>
<rect x="88.033" y="537.815" width="88.0328" height="88.0328" fill="#DCF908"/>
<rect x="88.033" y="625.847" width="88.0328" height="88.0328" fill="#DCF908"/>
<rect y="625.847" width="88.0328" height="88.0328" fill="#DCF908"/>
<rect y="713.879" width="88.0328" height="88.0328" fill="#DCF908"/>
<rect x="615.576" y="71.6478" width="88.0329" height="88.0329" transform="rotate(-180 615.576 71.6478)" fill="#DCF908"/>
<rect x="787.801" y="160.05" width="88.0329" height="88.0329" transform="rotate(-180 787.801 160.05)" fill="#DCF908"/>
<rect x="703.609" y="71.6478" width="88.0329" height="88.0329" transform="rotate(-180 703.609 71.6478)" fill="#DCF908"/>
<rect x="528.132" y="71.6478" width="88.0329" height="88.0329" transform="rotate(-180 528.132 71.6478)" fill="#DCF908"/>
</svg>
