<svg fill="none" height="35" viewBox="0 0 36 35" width="36" xmlns="http://www.w3.org/2000/svg"><g fill="#faf7f5"><path d="m21.8262.460327h33.6622v7.08678h-33.6622z" transform="matrix(0 1 -1 0 22.286527 -21.365873)"/><path d="m21.8262 27.0355h7.08678v7.08678h-7.08678z" transform="matrix(0 1 -1 0 48.8617 5.2093)"/><path d="m28.9141 19.9486h7.08678v7.08678h-7.08678z" transform="matrix(0 1 -1 0 48.8627 -8.9655)"/><path d="m14.7422 19.9486h7.08678v7.08678h-7.08678z" transform="matrix(0 1 -1 0 34.6908 5.2064)"/><path d="m36 12.8607h7.08678v7.08678h-7.08678z" transform="matrix(0 1 -1 0 48.8607 -23.1393)"/><path d="m7.65234 12.8607h7.08678v7.08678h-7.08678z" transform="matrix(0 1 -1 0 20.51304 5.20836)"/></g></svg>