<svg id="Capa_1" data-name="Capa 1" xmlns="http://www.w3.org/2000/svg" viewBox="0 0 401.26 145.83"><defs><style>.cls-1{fill:#fff;}</style></defs><title>Bitso-light</title><path class="cls-1" d="M90.11,93.27a1.85,1.85,0,0,0-1.94-1.85c-1.77.1-4.29.17-6,.17A18.62,18.62,0,0,1,63.54,73V28.58a.66.66,0,0,0-.66-.67H37.63a.41.41,0,0,0-.41.42V73a45,45,0,0,0,45,44.94,44.21,44.21,0,0,0,7.33-.61.66.66,0,0,0,.56-.66Z"/><path class="cls-1" d="M82.22,27.91a44.43,44.43,0,0,0-7.43.63.67.67,0,0,0-.55.66V52.63a1.84,1.84,0,0,0,1.9,1.9c1-.1,6-.17,6-.17A18.61,18.61,0,0,1,100.77,73h0v40.57a.23.23,0,0,0,.32.21,45,45,0,0,0-18.9-85.84Z"/><path class="cls-1" d="M226.81,46.42V34.32L212.5,35.38v11Zm26.37-3.71-13.69,1.06V89.61c0,9,4.15,14.48,14.57,14.48A26.66,26.66,0,0,0,265,102V90.75a23.37,23.37,0,0,1-8.21,1.59c-2.39,0-3.62-1.32-3.62-3.53V66h11.56V54.72H253.18ZM212.5,103.29h14.31V54.72H212.5ZM185.24,92.7a35.43,35.43,0,0,1-8,.7c-4.5,0-8.3-.09-10.95-.17v-14h10.51c7.6,0,10.78,2.21,10.78,7.25A9.4,9.4,0,0,1,185.24,92.7Zm-18.9-38.33c2.39-.09,5.3-.18,8.66-.18,7.77,0,11.21,2.3,11.21,7.33,0,2.83-1.06,4.86-3.7,6.71a33.61,33.61,0,0,1-7.25.71c-3.35,0-6.53-.09-8.92-.18ZM192.57,72c4.51-2.65,8.39-7,8.39-13.16,0-10.51-8.12-16.07-25.08-16.07H151.51v60.49h28.35c15.1,0,22.78-5.74,22.78-17.13C202.64,78.57,198.22,74.33,192.57,72Zm102.61,2.3c-7.25-1.24-8.92-2.12-8.92-4.33a4.15,4.15,0,0,1,.88-2.65,26,26,0,0,1,7.59-1,50.67,50.67,0,0,1,15.1,2.21V57.11c-3.26-1.68-8.65-3.27-16.16-3.27-12.71,0-20.66,6-20.66,16.25,0,9.8,5.83,12.8,16.51,14.75,7.86,1.5,9.54,2.29,9.54,4.68a3.65,3.65,0,0,1-.71,2.38,25.61,25.61,0,0,1-8.65,1.15,52.51,52.51,0,0,1-15.37-2.47v11.21c4,1.59,10.25,2.39,15.81,2.39,13.51,0,22.25-4.24,22.25-15.1C312.39,79.8,306.66,76.45,295.18,74.33Zm52.05,17a11.4,11.4,0,0,1-6.72,1.94c-5.56,0-8.91-4.76-8.91-13.33,0-4.77,1-9,2.56-11.22a10.52,10.52,0,0,1,6.71-2.12c5.91,0,8.83,4.86,8.83,11.93C349.7,83.87,348.81,88.55,347.23,91.37ZM341.7,53.84c-16.6,0-23.93,11.21-23.93,26.4,0,14.93,8.74,23.94,22.43,23.94,16.6,0,23.84-11,23.84-26.05S355.48,53.84,341.7,53.84Z"/></svg>