<svg fill="none" height="44" viewBox="0 0 1517 44" width="1517" xmlns="http://www.w3.org/2000/svg"><path d="m22.0904 15.858v-1.692h3.384v1.692zm0 1.692h-1.692v-1.692h1.692zm6.768 0v9.45h-1.692v-3.87h-6.768v3.87h-1.692v-9.45h1.692v3.888h6.768v-3.888zm-3.384 0v-1.692h1.692v1.692zm13.5576 7.758v1.692h-6.786v-1.692zm-8.478-11.142h1.692v11.142h-1.692zm8.478 0h1.692v11.142h-1.692zm11.8472 0v1.692h-6.768v-1.692zm1.692 3.87v-2.178h-1.692v2.178zm0 2.556h-5.076v1.692h3.384v3.024h1.692zm-1.692 6.408v-1.692h-6.768v1.692zm-8.46-1.692h1.692v-9.45h-1.692zm18.6423-11.142h1.692v12.834h-1.692v-9.45h-3.402v-1.692h3.402zm6.7851 0h1.692v12.834h-1.692v-9.45h-3.402v-1.692h3.402zm8.0992 5.58v1.692h-4.716v-1.692zm5.102-5.58h1.692v12.834h-1.692v-9.45h-3.402v-1.692h3.402zm10.1512 0v1.692h-5.076v-1.692zm1.692 1.692v2.682h-1.692v-2.682zm-8.46 0h1.692v1.692h-1.692zm0 7.758h1.692v1.692h6.768v1.692h-8.46zm1.692-1.692h1.692v1.692h-1.692zm1.692-1.692h1.692v1.692h-1.692zm1.692-1.692h1.692v1.692h-1.692zm9.8001 1.206v1.692h-4.716v-1.692zm5.1019-5.58h1.692v12.834h-1.692v-9.45h-3.402v-1.692h3.402zm10.151 0v1.692h-5.076v-1.692zm1.692 5.58h-1.692v-3.888h1.692zm-1.692 0v1.692h-3.384v-1.692zm-6.768-3.888h1.692v1.692h-1.692zm1.692 7.758v1.692h-1.692v-1.692zm5.076 1.692v1.692h-5.076v-1.692zm0 0v-3.87h1.692v3.87zm13.553-11.142v1.692h-5.076v-1.692zm1.692 1.692v2.682h-1.692v-2.682zm-8.46 0h1.692v1.692h-1.692zm0 7.758h1.692v1.692h6.768v1.692h-8.46zm1.692-1.692h1.692v1.692h-1.692zm1.692-1.692h1.692v1.692h-1.692zm1.692-1.692h1.692v1.692h-1.692zm6.776 8.46v-1.692h5.076v1.692zm-1.692-1.692v-9.45h1.692v9.45zm6.768 0v-9.45h1.692v9.45zm-5.076-9.45v-1.692h5.076v1.692zm15.236-1.692v1.692h-5.076v-1.692zm1.692 1.692v2.682h-1.692v-2.682zm-8.46 0h1.692v1.692h-1.692zm0 7.758h1.692v1.692h6.768v1.692h-8.46zm1.692-1.692h1.692v1.692h-1.692zm1.692-1.692h1.692v1.692h-1.692zm1.692-1.692h1.692v1.692h-1.692zm11.852-4.374v1.692h-5.076v-1.692zm1.692 1.692v2.682h-1.692v-2.682zm-8.46 0h1.692v1.692h-1.692zm0 7.758h1.692v1.692h6.768v1.692h-8.46zm1.692-1.692h1.692v1.692h-1.692zm1.692-1.692h1.692v1.692h-1.692zm1.692-1.692h1.692v1.692h-1.692z" fill="#80ff9f"/><path d="m197.536 15.63-10.764 10.764v-10.764zm1.84 12.87 10.764-10.764v10.764zm17.613-10.764 10.764 10.764h-10.764zm23.368 8.658-10.764-10.764h10.764zm17.613-10.764-10.764 10.764v-10.764zm1.84 12.87 10.764-10.764v10.764zm17.613-10.764 10.764 10.764h-10.764zm23.367 8.658-10.764-10.764h10.764zm17.614-10.764-10.764 10.764v-10.764zm1.839 12.87 10.764-10.764v10.764zm17.613-10.764 10.764 10.764h-10.764zm23.368 8.658-10.764-10.764h10.764z" fill="#38f"/><path d="m391.079 15.858v-1.692h8.46v1.692zm0 0v1.692h-1.692v-1.692zm11.844 7.758v1.692h-1.692v-1.692zm-3.384-1.692v-6.066h1.692v6.066zm1.692 3.384v1.692h-10.152v-1.692zm-3.384-3.384h1.692v1.692h-6.768v-1.692h3.384v-2.682h-3.384v-1.692h5.076zm-6.768-2.682h1.692v2.682h-1.692zm0 4.374v1.692h-1.692v-1.692zm-3.384-6.066h1.692v6.066h-1.692zm25.405-1.692h1.692v3.888h-1.692zm0 3.888v1.692h-6.786v3.87h6.786v1.692h-8.478v-12.834h8.478v1.692h-6.786v3.888zm0 1.692h1.692v3.87h-1.692zm11.866 3.87v1.692h-6.786v-1.692zm-8.478-11.142h1.692v11.142h-1.692zm8.478 0h1.692v11.142h-1.692zm5.079 1.692h-1.692v9.45h1.692v-3.87h5.094v-1.692h-5.094v-3.87zm6.786 11.142h-6.786v-1.692h6.786zm0-11.142h-6.786v-1.692h6.786zm5.084 0v1.692h-1.692v9.45h-1.692v-12.834h1.692v1.692zm6.786-1.692v12.834h-1.692v-1.692h-1.692v-1.692h1.692v-9.45zm-6.786 5.076v-1.692h1.692v1.692zm1.692 4.374v-4.374h1.692v4.374zm10.191 1.692h-1.692v-1.692h1.692zm5.076 1.692h-5.076v-1.692h5.076zm-6.768-3.384h-1.71v-6.066h1.71zm6.768 1.692h1.71v-1.692h-1.71zm1.71-1.692h1.692v-6.066h-1.692zm-1.71-7.758h1.71v1.692h-1.71zm-5.076-1.692h5.076v1.692h-5.076zm0 1.692h-1.692v1.692h1.692zm10.168 9.45v-1.692h1.692v1.692zm8.478 0v-3.87h1.692v3.87zm0-7.758v-1.692h1.692v1.692zm-8.478 2.196v-3.888h1.692v3.888zm1.692 1.692v-1.692h6.786v1.692zm0-5.58v-1.692h6.786v1.692zm0 11.142v-1.692h6.786v1.692zm13.557-11.142v-1.692h3.384v1.692zm0 1.692h-1.692v-1.692h1.692zm6.768 0v9.45h-1.692v-3.87h-6.768v3.87h-1.692v-9.45h1.692v3.888h6.768v-3.888zm-3.384 0v-1.692h1.692v1.692zm5.08-3.384h1.692v12.834h-1.692zm11.889 1.692h1.692v3.888h-1.692zm0 3.888v1.692h1.692v5.562h-1.692v-3.87h-1.692v-1.692h-5.094v5.562h-1.71v-12.834h8.496v1.692h-6.786v3.888zm5.078-3.888h-1.692v9.45h1.692v-3.87h5.094v-1.692h-5.094v-3.87zm6.786 11.142h-6.786v-1.692h6.786zm0-11.142h-6.786v-1.692h6.786zm1.7 9.45v-1.692h1.692v1.692zm8.478 0v-3.87h1.692v3.87zm0-7.758v-1.692h1.692v1.692zm-8.478 2.196v-3.888h1.692v3.888zm1.692 1.692v-1.692h6.786v1.692zm0-5.58v-1.692h6.786v1.692zm0 11.142v-1.692h6.786v1.692z" fill="#ff6a4c"/><path d="m553.09 15.858v-1.692h3.384v1.692zm0 1.692h-1.692v-1.692h1.692zm6.768 0v9.45h-1.692v-3.87h-6.768v3.87h-1.692v-9.45h1.692v3.888h6.768v-3.888zm-3.384 0v-1.692h1.692v1.692zm13.558 7.758v1.692h-6.786v-1.692zm-8.478-11.142h1.692v11.142h-1.692zm8.478 0h1.692v11.142h-1.692zm11.847 0v1.692h-6.768v-1.692zm1.692 3.87v-2.178h-1.692v2.178zm0 2.556h-5.076v1.692h3.384v3.024h1.692zm-1.692 6.408v-1.692h-6.768v1.692zm-8.46-1.692h1.692v-9.45h-1.692zm18.642-11.142h1.692v12.834h-1.692v-9.45h-3.402v-1.692h3.402zm6.786 0h1.692v12.834h-1.692v-9.45h-3.402v-1.692h3.402zm8.099 5.58v1.692h-4.716v-1.692zm5.102-5.58h1.692v12.834h-1.692v-9.45h-3.402v-1.692h3.402zm10.151 0v1.692h-5.076v-1.692zm1.692 1.692v2.682h-1.692v-2.682zm-8.46 0h1.692v1.692h-1.692zm0 7.758h1.692v1.692h6.768v1.692h-8.46zm1.692-1.692h1.692v1.692h-1.692zm1.692-1.692h1.692v1.692h-1.692zm1.692-1.692h1.692v1.692h-1.692zm9.8 1.206v1.692h-4.716v-1.692zm5.102-5.58h1.692v12.834h-1.692v-9.45h-3.402v-1.692h3.402zm10.151 0v1.692h-5.076v-1.692zm1.692 5.58h-1.692v-3.888h1.692zm-1.692 0v1.692h-3.384v-1.692zm-6.768-3.888h1.692v1.692h-1.692zm1.692 7.758v1.692h-1.692v-1.692zm5.076 1.692v1.692h-5.076v-1.692zm0 0v-3.87h1.692v3.87zm13.553-11.142v1.692h-5.076v-1.692zm1.692 1.692v2.682h-1.692v-2.682zm-8.46 0h1.692v1.692h-1.692zm0 7.758h1.692v1.692h6.768v1.692h-8.46zm1.692-1.692h1.692v1.692h-1.692zm1.692-1.692h1.692v1.692h-1.692zm1.692-1.692h1.692v1.692h-1.692zm6.776 8.46v-1.692h5.076v1.692zm-1.692-1.692v-9.45h1.692v9.45zm6.768 0v-9.45h1.692v9.45zm-5.076-9.45v-1.692h5.076v1.692zm15.236-1.692v1.692h-5.076v-1.692zm1.692 1.692v2.682h-1.692v-2.682zm-8.46 0h1.692v1.692h-1.692zm0 7.758h1.692v1.692h6.768v1.692h-8.46zm1.692-1.692h1.692v1.692h-1.692zm1.692-1.692h1.692v1.692h-1.692zm1.692-1.692h1.692v1.692h-1.692zm11.852-4.374v1.692h-5.076v-1.692zm1.692 1.692v2.682h-1.692v-2.682zm-8.46 0h1.692v1.692h-1.692zm0 7.758h1.692v1.692h6.768v1.692h-8.46zm1.692-1.692h1.692v1.692h-1.692zm1.692-1.692h1.692v1.692h-1.692zm1.692-1.692h1.692v1.692h-1.692z" fill="#dcf908"/><path d="m717.433 28.5 7.254-12.546 7.236 12.546zm23.584 0-7.254-12.546h14.49zm9.076 0 7.254-12.546 7.236 12.546zm23.584 0-7.254-12.546h14.49zm9.076 0 7.254-12.546 7.236 12.546zm23.584 0-7.254-12.546h14.49zm9.076 0 7.254-12.546 7.236 12.546zm23.584 0-7.254-12.546h14.49zm9.076 0 7.254-12.546 7.236 12.546z" fill="#fff"/><path d="m892.079 15.858v-1.692h8.46v1.692zm0 0v1.692h-1.692v-1.692zm11.844 7.758v1.692h-1.692v-1.692zm-3.384-1.692v-6.066h1.692v6.066zm1.692 3.384v1.692h-10.152v-1.692zm-3.384-3.384h1.692v1.692h-6.768v-1.692h3.384v-2.682h-3.384v-1.692h5.076zm-6.768-2.682h1.692v2.682h-1.692zm0 4.374v1.692h-1.692v-1.692zm-3.384-6.066h1.692v6.066h-1.692zm25.405-1.692h1.692v3.888h-1.692zm0 3.888v1.692h-6.786v3.87h6.786v1.692h-8.478v-12.834h8.478v1.692h-6.786v3.888zm0 1.692h1.692v3.87h-1.692zm11.866 3.87v1.692h-6.786v-1.692zm-8.478-11.142h1.692v11.142h-1.692zm8.478 0h1.692v11.142h-1.692zm5.079 1.692h-1.692v9.45h1.692v-3.87h5.094v-1.692h-5.094v-3.87zm6.786 11.142h-6.786v-1.692h6.786zm0-11.142h-6.786v-1.692h6.786zm5.084 0v1.692h-1.692v9.45h-1.692v-12.834h1.692v1.692zm6.786-1.692v12.834h-1.692v-1.692h-1.692v-1.692h1.692v-9.45zm-6.786 5.076v-1.692h1.692v1.692zm1.692 4.374v-4.374h1.692v4.374zm10.191 1.692h-1.692v-1.692h1.692zm5.076 1.692h-5.076v-1.692h5.076zm-6.768-3.384h-1.71v-6.066h1.71zm6.768 1.692h1.71v-1.692h-1.71zm1.71-1.692h1.692v-6.066h-1.692zm-1.71-7.758h1.71v1.692h-1.71zm-5.076-1.692h5.076v1.692h-5.076zm0 1.692h-1.692v1.692h1.692zm10.168 9.45v-1.692h1.692v1.692zm8.478 0v-3.87h1.692v3.87zm0-7.758v-1.692h1.692v1.692zm-8.478 2.196v-3.888h1.692v3.888zm1.692 1.692v-1.692h6.786v1.692zm0-5.58v-1.692h6.786v1.692zm0 11.142v-1.692h6.786v1.692zm13.557-11.142v-1.692h3.384v1.692zm0 1.692h-1.692v-1.692h1.692zm6.768 0v9.45h-1.692v-3.87h-6.768v3.87h-1.692v-9.45h1.692v3.888h6.768v-3.888zm-3.384 0v-1.692h1.692v1.692zm5.08-3.384h1.692v12.834h-1.692zm11.891 1.692h1.69v3.888h-1.69zm0 3.888v1.692h1.69v5.562h-1.69v-3.87h-1.694v-1.692h-5.094v5.562h-1.71v-12.834h8.498v1.692h-6.788v3.888zm5.08-3.888h-1.7v9.45h1.7v-3.87h5.09v-1.692h-5.09v-3.87zm6.78 11.142h-6.78v-1.692h6.78zm0-11.142h-6.78v-1.692h6.78zm1.7 9.45v-1.692h1.69v1.692zm8.48 0v-3.87h1.69v3.87zm0-7.758v-1.692h1.69v1.692zm-8.48 2.196v-3.888h1.69v3.888zm1.69 1.692v-1.692h6.79v1.692zm0-5.58v-1.692h6.79v1.692zm0 11.142v-1.692h6.79v1.692z" fill="#e573e5"/><path d="m1054.09 15.858v-1.692h3.38v1.692zm0 1.692h-1.69v-1.692h1.69zm6.77 0v9.45h-1.69v-3.87h-6.77v3.87h-1.69v-9.45h1.69v3.888h6.77v-3.888zm-3.39 0v-1.692h1.7v1.692zm13.56 7.758v1.692h-6.78v-1.692zm-8.48-11.142h1.7v11.142h-1.7zm8.48 0h1.69v11.142h-1.69zm11.85 0v1.692h-6.77v-1.692zm1.69 3.87v-2.178h-1.69v2.178zm0 2.556h-5.07v1.692h3.38v3.024h1.69zm-1.69 6.408v-1.692h-6.77v1.692zm-8.46-1.692h1.69v-9.45h-1.69zm18.64-11.142h1.69v12.834h-1.69v-9.45h-3.4v-1.692h3.4zm6.79 0h1.69v12.834h-1.69v-9.45h-3.41v-1.692h3.41zm8.1 5.58v1.692h-4.72v-1.692zm5.1-5.58h1.69v12.834h-1.69v-9.45h-3.4v-1.692h3.4zm10.15 0v1.692h-5.08v-1.692zm1.69 1.692v2.682h-1.69v-2.682zm-8.46 0h1.69v1.692h-1.69zm0 7.758h1.69v1.692h6.77v1.692h-8.46zm1.69-1.692h1.69v1.692h-1.69zm1.69-1.692h1.7v1.692h-1.7zm1.7-1.692h1.69v1.692h-1.69zm9.8 1.206v1.692h-4.72v-1.692zm5.1-5.58h1.69v12.834h-1.69v-9.45h-3.4v-1.692h3.4zm10.15 0v1.692h-5.08v-1.692zm1.69 5.58h-1.69v-3.888h1.69zm-1.69 0v1.692h-3.38v-1.692zm-6.77-3.888h1.69v1.692h-1.69zm1.69 7.758v1.692h-1.69v-1.692zm5.08 1.692v1.692h-5.08v-1.692zm0 0v-3.87h1.69v3.87zm13.55-11.142v1.692h-5.07v-1.692zm1.7 1.692v2.682h-1.7v-2.682zm-8.46 0h1.69v1.692h-1.69zm0 7.758h1.69v1.692h6.77v1.692h-8.46zm1.69-1.692h1.69v1.692h-1.69zm1.69-1.692h1.69v1.692h-1.69zm1.69-1.692h1.69v1.692h-1.69zm6.78 8.46v-1.692h5.07v1.692zm-1.69-1.692v-9.45h1.69v9.45zm6.76 0v-9.45h1.7v9.45zm-5.07-9.45v-1.692h5.07v1.692zm15.23-1.692v1.692h-5.07v-1.692zm1.7 1.692v2.682h-1.7v-2.682zm-8.46 0h1.69v1.692h-1.69zm0 7.758h1.69v1.692h6.77v1.692h-8.46zm1.69-1.692h1.69v1.692h-1.69zm1.69-1.692h1.69v1.692h-1.69zm1.69-1.692h1.69v1.692h-1.69zm11.85-4.374v1.692h-5.07v-1.692zm1.7 1.692v2.682h-1.7v-2.682zm-8.46 0h1.69v1.692h-1.69zm0 7.758h1.69v1.692h6.77v1.692h-8.46zm1.69-1.692h1.69v1.692h-1.69zm1.69-1.692h1.69v1.692h-1.69zm1.69-1.692h1.69v1.692h-1.69z" fill="#38f"/><path d="m1227.57 31.038-9.08-9.054 9.08-9.072 9.05 9.072zm0-1.638 7.41-7.416-7.41-7.434-7.42 7.434zm0-3.654-3.78-3.762 3.78-3.78 3.78 3.78zm15.97-.378-5.35-2.664 5.35-2.682zm1.32 0v-5.346l5.34 2.682zm16 5.67-9.07-9.054 9.07-9.072 9.05 9.072zm0-1.638 7.42-7.416-7.42-7.434-7.42 7.434zm0-3.654-3.78-3.762 3.78-3.78 3.78 3.78zm15.97-.378-5.34-2.664 5.34-2.682zm1.32 0v-5.346l5.34 2.682zm16 5.67-9.07-9.054 9.07-9.072 9.06 9.072zm0-1.638 7.42-7.416-7.42-7.434-7.41 7.434zm0-3.654-3.78-3.762 3.78-3.78 3.78 3.78zm15.97-.378-5.34-2.664 5.34-2.682zm1.32 0v-5.346l5.35 2.682zm16.01 5.67-9.08-9.054 9.08-9.072 9.05 9.072zm0-1.638 7.41-7.416-7.41-7.434-7.42 7.434zm0-3.654-3.78-3.762 3.78-3.78 3.78 3.78z" fill="#80ff9f"/><path d="m1366.08 15.858v-1.692h8.46v1.692zm0 0v1.692h-1.69v-1.692zm11.84 7.758v1.692h-1.69v-1.692zm-3.38-1.692v-6.066h1.69v6.066zm1.69 3.384v1.692h-10.15v-1.692zm-3.38-3.384h1.69v1.692h-6.77v-1.692h3.38v-2.682h-3.38v-1.692h5.08zm-6.77-2.682h1.69v2.682h-1.69zm0 4.374v1.692h-1.69v-1.692zm-3.39-6.066h1.7v6.066h-1.7zm25.41-1.692h1.69v3.888h-1.69zm0 3.888v1.692h-6.79v3.87h6.79v1.692h-8.48v-12.834h8.48v1.692h-6.79v3.888zm0 1.692h1.69v3.87h-1.69zm11.87 3.87v1.692h-6.79v-1.692zm-8.48-11.142h1.69v11.142h-1.69zm8.48 0h1.69v11.142h-1.69zm5.07 1.692h-1.69v9.45h1.69v-3.87h5.1v-1.692h-5.1v-3.87zm6.79 11.142h-6.79v-1.692h6.79zm0-11.142h-6.79v-1.692h6.79zm5.08 0v1.692h-1.69v9.45h-1.69v-12.834h1.69v1.692zm6.79-1.692v12.834h-1.69v-1.692h-1.69v-1.692h1.69v-9.45zm-6.79 5.076v-1.692h1.7v1.692zm1.7 4.374v-4.374h1.69v4.374zm10.19 1.692h-1.69v-1.692h1.69zm5.07 1.692h-5.07v-1.692h5.07zm-6.76-3.384h-1.71v-6.066h1.71zm6.76 1.692h1.71v-1.692h-1.71zm1.71-1.692h1.7v-6.066h-1.7zm-1.71-7.758h1.71v1.692h-1.71zm-5.07-1.692h5.07v1.692h-5.07zm0 1.692h-1.69v1.692h1.69zm10.17 9.45v-1.692h1.69v1.692zm8.47 0v-3.87h1.7v3.87zm0-7.758v-1.692h1.7v1.692zm-8.47 2.196v-3.888h1.69v3.888zm1.69 1.692v-1.692h6.78v1.692zm0-5.58v-1.692h6.78v1.692zm0 11.142v-1.692h6.78v1.692zm13.56-11.142v-1.692h3.38v1.692zm0 1.692h-1.7v-1.692h1.7zm6.76 0v9.45h-1.69v-3.87h-6.77v3.87h-1.69v-9.45h1.69v3.888h6.77v-3.888zm-3.38 0v-1.692h1.69v1.692zm5.08-3.384h1.69v12.834h-1.69zm11.89 1.692h1.69v3.888h-1.69zm0 3.888v1.692h1.69v5.562h-1.69v-3.87h-1.69v-1.692h-5.1v5.562h-1.71v-12.834h8.5v1.692h-6.79v3.888zm5.08-3.888h-1.7v9.45h1.7v-3.87h5.09v-1.692h-5.09v-3.87zm6.78 11.142h-6.78v-1.692h6.78zm0-11.142h-6.78v-1.692h6.78zm1.7 9.45v-1.692h1.69v1.692zm8.48 0v-3.87h1.69v3.87zm0-7.758v-1.692h1.69v1.692zm-8.48 2.196v-3.888h1.69v3.888zm1.69 1.692v-1.692h6.79v1.692zm0-5.58v-1.692h6.79v1.692zm0 11.142v-1.692h6.79v1.692z" fill="#faf7f5"/></svg>