<svg width="2798" height="619" viewBox="0 0 2798 619" fill="none" xmlns="http://www.w3.org/2000/svg">
<path d="M205.26 306.218L309.353 142.671L413.447 306.218L309.353 365.689L205.26 306.218Z" fill="white"/>
<path d="M205.26 334.15L309.353 393.622L413.447 334.15L309.353 475.395L205.26 334.15Z" fill="white"/>
<path d="M356.69 76.3262C340.524 83.8689 324.783 92.2911 309.538 101.555C294.199 92.1874 278.324 83.7243 261.996 76.2092C277.238 65.9097 292.988 56.3831 309.187 47.6655C325.1 56.2049 340.934 65.7584 356.69 76.3262Z" fill="#5F9A34"/>
<path d="M578.955 39.4741C521.819 -17.6513 417.688 -10.8274 309.188 47.6631C325.1 56.2025 340.935 65.7561 356.691 76.3239C398.694 56.905 438.709 46.4931 472.601 46.4931C502.904 46.4931 528.332 54.7993 545.961 72.4245C583.363 109.819 578.916 182.191 542.099 261.7C552.63 277.414 562.185 293.245 570.765 309.194C629.266 200.713 636.091 96.6004 578.955 39.4741Z" fill="#FFC750"/>
<path d="M356.692 76.3267C340.525 83.8693 324.785 92.2916 309.54 101.556C393.803 153.672 464.751 224.715 516.75 309.041C526.046 293.729 534.508 277.927 542.1 261.703C517.47 225.248 489.377 191.256 458.21 160.201C427.177 129.011 393.177 100.92 356.692 76.3267Z" fill="#FFC750"/>
<path d="M570.765 309.193C562.303 324.907 552.747 340.738 542.139 356.492C534.549 340.221 526.074 324.379 516.749 309.037C526.045 293.725 534.507 277.922 542.1 261.699C552.631 277.412 562.186 293.244 570.765 309.193Z" fill="#FF512F"/>
<path d="M542.139 356.494C534.55 340.224 526.074 324.382 516.75 309.039C490.981 351.176 460.25 390.07 425.215 424.889C390.459 459.937 351.623 490.689 309.54 516.486C324.768 525.779 340.51 534.202 356.692 541.715C393.177 517.121 427.177 489.03 458.21 457.839C489.391 426.844 517.499 392.904 542.139 356.494Z" fill="#FF6895"/>
<path d="M604.189 387.418C595.536 360.351 584.345 334.161 570.765 309.198C562.302 324.912 552.746 340.743 542.138 356.497C578.916 435.966 583.362 508.261 545.96 545.616C508.559 583.012 436.213 578.528 356.691 541.717C353.415 543.94 350.138 546.085 346.862 548.189C334.382 556.222 321.785 563.632 309.188 570.378C366.948 601.534 423.46 618.028 472.328 618.028C515.229 618.028 552.24 605.316 578.956 578.605C620.764 536.804 629.695 468.916 604.189 387.418Z" fill="#FF6895"/>
<path d="M356.692 541.716C353.416 543.939 350.14 546.084 346.863 548.189C334.383 556.222 321.786 563.631 309.189 570.377C293.511 561.955 277.78 552.44 261.998 541.833C278.326 534.318 294.2 525.855 309.54 516.487C324.768 525.78 340.511 534.204 356.692 541.716Z" fill="#552990"/>
<path d="M216.991 559.301C152.873 579.383 101.627 574.509 72.7273 545.615C43.8272 516.721 38.9521 465.483 59.0381 401.377C63.8887 386.036 69.7116 371.019 76.4714 356.417C65.9022 340.703 56.386 324.911 47.9226 309.235C34.3554 334.186 23.1774 360.363 14.5378 387.417C-11.0073 468.914 -2.03746 536.802 39.7326 578.603C65.941 604.769 102.367 618.065 145.97 618.065C174.844 617.629 203.484 612.817 230.914 603.794C257.999 595.143 284.207 583.954 309.188 570.376C293.51 561.954 277.78 552.439 261.997 541.832C247.385 548.614 232.352 554.449 216.991 559.301Z" fill="#5666F6"/>
<path d="M261.996 541.83C278.324 534.315 294.199 525.852 309.538 516.484C267.314 490.718 228.345 459.965 193.472 424.888C158.389 390.021 127.63 351.059 101.86 308.842C92.4928 324.201 84.0157 340.084 76.4705 356.414C101.152 392.851 129.298 426.816 160.517 457.837C191.528 489.07 225.516 517.201 261.996 541.83Z" fill="#5666F6"/>
<path d="M101.861 308.842C92.4942 324.2 84.0171 340.083 76.4718 356.414C65.9027 340.699 56.3865 324.907 47.9231 309.232C56.464 293.322 66.0584 277.412 76.628 261.699C84.1417 277.877 92.5663 293.616 101.861 308.842Z" fill="#204FA0"/>
<path d="M72.7263 72.4252C101.625 43.5302 152.872 38.656 216.99 58.7774C232.344 63.6335 247.376 69.4552 261.996 76.2076C277.238 65.9081 292.988 56.3815 309.187 47.6639C284.214 34.0697 258.004 22.88 230.913 14.246C149.44 -11.2551 81.5401 -2.32633 39.7314 39.4749C13.016 66.186 0.301758 103.191 0.301758 146.084C0.301758 194.943 16.799 251.484 47.9216 309.234C56.4625 293.324 66.0569 277.415 76.6265 261.701C39.8095 182.192 35.3243 109.82 72.7263 72.4252Z" fill="#5FC5A6"/>
<path d="M261.997 76.2061C189.055 125.789 126.158 188.728 76.6274 261.699C84.1412 277.878 92.5659 293.617 101.861 308.842C153.997 224.518 225.112 153.536 309.539 101.552C294.2 92.1842 278.325 83.7211 261.997 76.2061Z" fill="#5FC5A6"/>
<path d="M2726.24 435.18V461.011C2721.73 463.659 2716.6 465.032 2711.37 464.986C2690.1 465.51 2671.24 451.333 2665.79 430.71C2634.01 465.53 2582.68 474.216 2541.26 451.781C2499.84 429.347 2478.95 381.543 2490.58 335.811C2502.22 290.079 2543.39 258.142 2590.47 258.333C2617.57 258.264 2643.59 268.984 2662.81 288.14V262.308H2693.54V409.349C2693.54 427.729 2702.95 435.18 2713.85 435.18H2726.24ZM2662.81 361.66C2662.81 321.605 2630.42 289.135 2590.47 289.135C2550.51 289.135 2518.12 321.606 2518.12 361.662C2518.12 401.717 2550.51 434.187 2590.47 434.187C2630.41 434.14 2662.77 401.696 2662.81 361.66ZM2764.97 161.458H2797.25V465H2764.97V161.458ZM2442.2 360.323C2442.22 402.532 2417.22 440.62 2378.79 456.901C2340.36 473.182 2296.05 464.467 2266.42 434.802V460.971H2235.63V155H2266.42V285.843C2296.05 256.178 2340.36 247.463 2378.79 263.744C2417.22 280.026 2442.22 318.114 2442.2 360.323ZM2411.42 360.323C2411.42 319.745 2378.96 286.85 2338.92 286.85C2298.88 286.85 2266.42 319.745 2266.42 360.323C2266.42 400.901 2298.88 433.797 2338.92 433.797C2358.16 433.859 2376.64 426.138 2390.25 412.346C2403.86 398.553 2411.48 379.829 2411.42 360.323ZM1970.96 361.667C1970.96 304.598 2017.2 258.333 2074.25 258.333C2131.29 258.333 2177.53 304.597 2177.53 361.666C2177.53 418.736 2131.29 465 2074.25 465C2046.85 465.021 2020.56 454.141 2001.19 434.758C1981.82 415.375 1970.94 389.079 1970.96 361.667ZM2146.75 361.667C2146.75 321.609 2114.29 289.136 2074.25 289.136C2034.21 289.136 2001.75 321.61 2001.75 361.668C2001.75 401.726 2034.21 434.199 2074.25 434.199C2114.27 434.152 2146.7 401.706 2146.75 361.667ZM1816.03 299.95V308.945C1816.55 386.871 1760.36 453.074 1684.78 463.574C1609.21 474.074 1537.75 425.605 1517.89 350.367C1498.02 275.128 1535.93 196.521 1606.42 166.765C1676.92 137.01 1758.07 165.362 1795.98 232.985L1769.07 248.477C1740.44 196.784 1679.56 173.618 1624.8 193.573C1570.04 213.527 1537.26 270.822 1547.1 329.365C1556.94 387.908 1606.56 430.741 1664.7 430.881C1722.84 431.022 1772.66 388.429 1782.77 329.935H1664.89V299.95L1816.03 299.95ZM1880.59 161.458H1912.86V465H1880.59V161.458ZM1460.99 161.458V465H1395.94V342.572H1274.77V465H1209.23V161.458H1274.77V283.381H1395.94V161.458H1460.99ZM1183.41 220.649H1109.29V465H1044.99V220.649H970.379V161.458H1183.41V220.649ZM836.354 220.143V283.887H934.49V342.572H836.354V406.315H951.013V465H770.262V161.458H951.013V220.143H836.354Z" fill="white"/>
</svg>
