<svg width="2314" height="1504" viewBox="0 0 2314 1504" fill="none" xmlns="http://www.w3.org/2000/svg">
<mask id="mask0_2_3" style="mask-type:alpha" maskUnits="userSpaceOnUse" x="0" y="0" width="2314" height="1504">
<rect width="2314" height="1504" fill="#D9D9D9"/>
</mask>
<g mask="url(#mask0_2_3)">
<path d="M-702 940.581C-535.67 775.086 1047.13 -257.882 1210.62 299.526C1349.46 772.836 -57.5987 1755.08 93.0452 1207.55C230.122 709.325 958.754 876.212 1005.82 898.071C1070.5 928.116 1119.95 928.116 1407 928.116C1694.05 928.116 1789.57 -57.5605 2208.87 241.712C2628.16 540.985 2633 1171.84 3187.75 1207.55C3742.51 1243.25 3936.03 282.522 3815.08 241.712C3694.13 200.902 3319.99 1013.7 3957 1141.23C4466.6 1243.25 4746.67 1292.57 4823 1304.47" stroke="#FAF7F5"/>
</g>
</svg>
