<svg width="264" height="270" viewBox="0 0 264 270" fill="none" xmlns="http://www.w3.org/2000/svg">
<circle cx="131.919" cy="137.578" r="130.864" fill="#222222"/>
<circle cx="131.919" cy="137.578" r="130.864" stroke="white" stroke-width="2.11071"/>
<circle cx="131.919" cy="137.578" r="130.864" stroke="#FF1616" stroke-width="2.11071"/>
<circle cx="131.663" cy="137.315" r="123.74" fill="#222222" stroke="white" stroke-width="5.27678"/>
<g clip-path="url(#clip0_315_213)">
<path d="M66.3739 207.164C64.2069 207.164 62.4314 206.655 61.0474 205.635C59.6817 204.597 58.9988 203.122 58.9988 201.21C58.9988 200.809 59.0443 200.317 59.1354 199.735C59.3721 198.424 59.709 196.848 60.146 195.009C61.3843 190.001 64.5802 187.497 69.7337 187.497C71.1359 187.497 72.3924 187.734 73.5033 188.208C74.6141 188.663 75.4881 189.355 76.1255 190.283C76.7628 191.194 77.0816 192.287 77.0816 193.561C77.0816 193.944 77.0361 194.426 76.945 195.009C76.6718 196.63 76.344 198.205 75.9617 199.735C75.3243 202.229 74.2226 204.096 72.6565 205.334C71.0903 206.554 68.9962 207.164 66.3739 207.164ZM66.7564 203.231C67.7761 203.231 68.6411 202.931 69.3514 202.33C70.0797 201.729 70.5987 200.809 70.9083 199.571C71.3272 197.859 71.6458 196.366 71.8644 195.091C71.9372 194.709 71.9736 194.317 71.9736 193.916C71.9736 192.259 71.1086 191.431 69.3786 191.431C68.3589 191.431 67.4848 191.731 66.7564 192.332C66.0461 192.933 65.5363 193.853 65.2267 195.091C64.8989 196.311 64.5711 197.804 64.2433 199.571C64.1705 199.935 64.1341 200.317 64.1341 200.718C64.1341 202.393 65.0082 203.231 66.7564 203.231Z" fill="white"/>
<path d="M79.851 206.891C79.6506 206.891 79.4959 206.828 79.3866 206.7C79.2956 206.554 79.2682 206.39 79.3047 206.208L83.0742 188.453C83.1106 188.253 83.2108 188.089 83.3747 187.962C83.5386 187.834 83.7116 187.771 83.8937 187.771H91.1595C93.1809 187.771 94.8016 188.189 96.0217 189.027C97.26 189.865 97.8792 191.076 97.8792 192.66C97.8792 193.115 97.8245 193.589 97.7153 194.08C97.26 196.175 96.3404 197.722 94.9564 198.724C93.5906 199.726 91.7149 200.226 89.3294 200.226H85.6418L84.3853 206.208C84.3489 206.409 84.2487 206.573 84.0848 206.7C83.921 206.828 83.748 206.891 83.5658 206.891H79.851ZM89.5206 196.457C90.2855 196.457 90.9502 196.247 91.5146 195.829C92.0974 195.41 92.4798 194.809 92.6619 194.026C92.7165 193.716 92.7439 193.443 92.7439 193.206C92.7439 192.678 92.5891 192.278 92.2795 192.004C91.97 191.713 91.4418 191.567 90.6952 191.567H87.4173L86.3793 196.457H89.5206Z" fill="white"/>
<path d="M104.034 206.891C103.834 206.891 103.679 206.828 103.57 206.7C103.461 206.554 103.424 206.39 103.461 206.208L106.493 192.059H101.63C101.43 192.059 101.275 191.995 101.166 191.868C101.075 191.722 101.048 191.558 101.084 191.376L101.712 188.453C101.749 188.253 101.849 188.089 102.013 187.962C102.177 187.834 102.35 187.771 102.532 187.771H117.228C117.428 187.771 117.583 187.834 117.692 187.962C117.765 188.071 117.801 188.18 117.801 188.29C117.801 188.344 117.792 188.399 117.774 188.453L117.146 191.376C117.109 191.576 117.009 191.74 116.845 191.868C116.699 191.995 116.527 192.059 116.326 192.059H111.491L108.459 206.208C108.423 206.409 108.323 206.573 108.159 206.7C107.995 206.828 107.822 206.891 107.64 206.891H104.034Z" fill="white"/>
<path d="M118.498 206.891C118.298 206.891 118.143 206.828 118.034 206.7C117.925 206.554 117.888 206.39 117.925 206.208L121.721 188.453C121.758 188.253 121.858 188.089 122.022 187.962C122.186 187.834 122.359 187.771 122.541 187.771H126.228C126.429 187.771 126.584 187.834 126.693 187.962C126.766 188.071 126.802 188.18 126.802 188.29C126.802 188.344 126.793 188.399 126.775 188.453L123.005 206.208C122.969 206.409 122.869 206.573 122.705 206.7C122.541 206.828 122.368 206.891 122.186 206.891H118.498Z" fill="white"/>
<path d="M128.899 206.891C128.698 206.891 128.543 206.828 128.434 206.7C128.325 206.573 128.289 206.409 128.325 206.208L132.094 188.453C132.131 188.253 132.231 188.089 132.395 187.962C132.559 187.834 132.741 187.771 132.941 187.771H135.891C136.328 187.771 136.611 187.971 136.738 188.371L139.715 196.976L146.353 188.371C146.444 188.226 146.572 188.089 146.735 187.962C146.918 187.834 147.136 187.771 147.391 187.771H150.368C150.569 187.771 150.724 187.834 150.833 187.962C150.906 188.071 150.942 188.18 150.942 188.29C150.942 188.344 150.933 188.399 150.915 188.453L147.145 206.208C147.109 206.409 147.009 206.573 146.845 206.7C146.681 206.828 146.508 206.891 146.326 206.891H143.021C142.82 206.891 142.666 206.828 142.556 206.7C142.465 206.554 142.438 206.39 142.474 206.208L144.605 196.129L140.426 201.674C140.244 201.874 140.071 202.029 139.907 202.138C139.743 202.248 139.552 202.302 139.333 202.302H137.913C137.53 202.302 137.266 202.093 137.121 201.674L135.181 195.883L132.996 206.208C132.959 206.409 132.859 206.573 132.695 206.7C132.531 206.828 132.358 206.891 132.176 206.891H128.899Z" fill="white"/>
<path d="M153.01 206.891C152.81 206.891 152.655 206.828 152.546 206.7C152.437 206.554 152.4 206.39 152.437 206.208L156.233 188.453C156.27 188.253 156.37 188.089 156.534 187.962C156.697 187.834 156.871 187.771 157.053 187.771H160.74C160.941 187.771 161.096 187.834 161.205 187.962C161.278 188.071 161.314 188.18 161.314 188.29C161.314 188.344 161.305 188.399 161.287 188.453L157.517 206.208C157.481 206.409 157.381 206.573 157.216 206.7C157.053 206.828 156.879 206.891 156.697 206.891H153.01Z" fill="white"/>
<path d="M170.162 207.164C168.56 207.164 167.185 206.946 166.038 206.509C164.908 206.072 164.052 205.489 163.47 204.76C162.905 204.032 162.623 203.222 162.623 202.329C162.623 202.184 162.641 201.965 162.677 201.674C162.714 201.51 162.787 201.373 162.896 201.264C163.024 201.155 163.169 201.1 163.334 201.1H166.829C167.048 201.1 167.212 201.137 167.321 201.209C167.449 201.282 167.576 201.41 167.704 201.592C167.831 202.065 168.122 202.457 168.578 202.766C169.051 203.076 169.698 203.231 170.517 203.231C171.555 203.231 172.393 203.067 173.03 202.739C173.668 202.411 174.051 201.965 174.177 201.401C174.196 201.328 174.204 201.218 174.204 201.073C174.204 200.618 173.923 200.262 173.358 200.008C172.793 199.734 171.755 199.416 170.244 199.052C168.478 198.669 167.139 198.095 166.229 197.331C165.318 196.548 164.863 195.528 164.863 194.271C164.863 193.834 164.918 193.388 165.027 192.933C165.391 191.239 166.293 189.91 167.731 188.945C169.188 187.98 171.063 187.497 173.358 187.497C174.742 187.497 175.972 187.743 177.046 188.235C178.12 188.726 178.948 189.355 179.532 190.119C180.133 190.866 180.432 191.613 180.432 192.359C180.432 192.578 180.424 192.733 180.405 192.824C180.369 192.987 180.287 193.124 180.16 193.233C180.051 193.343 179.913 193.397 179.75 193.397H176.09C175.689 193.397 175.416 193.242 175.271 192.933C175.252 192.514 175.033 192.159 174.614 191.868C174.196 191.576 173.649 191.43 172.976 191.43C172.174 191.43 171.51 191.576 170.981 191.868C170.472 192.159 170.153 192.587 170.026 193.151C170.008 193.242 169.998 193.361 169.998 193.506C169.998 193.943 170.253 194.308 170.763 194.599C171.291 194.872 172.211 195.154 173.522 195.446C175.562 195.846 177.046 196.42 177.975 197.167C178.921 197.913 179.394 198.906 179.394 200.144C179.394 200.563 179.34 201.018 179.231 201.51C178.831 203.367 177.856 204.779 176.308 205.744C174.779 206.691 172.73 207.164 170.162 207.164Z" fill="white"/>
<path d="M183.013 206.891C182.813 206.891 182.658 206.828 182.549 206.7C182.44 206.573 182.403 206.409 182.44 206.208L186.209 188.453C186.245 188.253 186.346 188.089 186.51 187.962C186.674 187.834 186.856 187.771 187.056 187.771H190.006C190.443 187.771 190.725 187.971 190.853 188.371L193.831 196.976L200.468 188.371C200.559 188.226 200.687 188.089 200.85 187.962C201.032 187.834 201.251 187.771 201.506 187.771H204.483C204.684 187.771 204.839 187.834 204.948 187.962C205.021 188.071 205.057 188.18 205.057 188.29C205.057 188.344 205.048 188.399 205.03 188.453L201.26 206.208C201.223 206.409 201.123 206.573 200.959 206.7C200.796 206.828 200.623 206.891 200.44 206.891H197.136C196.935 206.891 196.78 206.828 196.671 206.7C196.58 206.554 196.552 206.39 196.589 206.208L198.72 196.129L194.541 201.674C194.358 201.874 194.185 202.029 194.022 202.138C193.858 202.248 193.666 202.302 193.448 202.302H192.027C191.645 202.302 191.381 202.093 191.236 201.674L189.296 195.883L187.111 206.208C187.074 206.409 186.974 206.573 186.81 206.7C186.646 206.828 186.473 206.891 186.291 206.891H183.013Z" fill="white"/>
</g>
<path d="M98.3913 224.946H91.8703V213.623H98.3913V215.59H94.2712V218.077H98.1048V220.044H94.2712V222.963H98.3913V224.946ZM105.493 216.125C106.417 216.125 107.161 216.378 107.724 216.884C108.286 217.385 108.568 218.19 108.568 219.3V224.946H106.206V219.889C106.206 219.269 106.092 218.802 105.865 218.487C105.643 218.172 105.292 218.015 104.812 218.015C104.089 218.015 103.596 218.26 103.332 218.75C103.069 219.241 102.937 219.948 102.937 220.872V224.946H100.575V216.288H102.38L102.697 217.395H102.829C103.015 217.096 103.245 216.853 103.518 216.667C103.797 216.481 104.104 216.344 104.44 216.257C104.781 216.169 105.132 216.125 105.493 216.125ZM118.69 216.125C119.49 216.125 120.18 216.28 120.758 216.59C121.336 216.894 121.783 217.338 122.098 217.922C122.413 218.505 122.57 219.218 122.57 220.059V221.205H116.986C117.012 221.871 117.211 222.395 117.583 222.778C117.96 223.154 118.481 223.343 119.147 223.343C119.7 223.343 120.205 223.286 120.665 223.173C121.125 223.059 121.597 222.889 122.082 222.661V224.489C121.654 224.701 121.205 224.856 120.735 224.954C120.27 225.052 119.705 225.101 119.039 225.101C118.171 225.101 117.402 224.941 116.731 224.621C116.065 224.301 115.541 223.813 115.159 223.157C114.782 222.501 114.593 221.675 114.593 220.679C114.593 219.667 114.764 218.825 115.104 218.154C115.45 217.478 115.93 216.972 116.545 216.636C117.159 216.295 117.874 216.125 118.69 216.125ZM118.706 217.805C118.246 217.805 117.864 217.953 117.559 218.247C117.26 218.541 117.087 219.003 117.041 219.633H120.355C120.35 219.282 120.286 218.97 120.162 218.696C120.043 218.422 119.862 218.206 119.619 218.046C119.382 217.885 119.077 217.805 118.706 217.805ZM130.532 222.375C130.532 222.963 130.392 223.462 130.114 223.87C129.84 224.272 129.429 224.579 128.882 224.791C128.335 224.998 127.653 225.101 126.838 225.101C126.233 225.101 125.715 225.062 125.281 224.985C124.852 224.907 124.419 224.778 123.98 224.598V222.646C124.45 222.858 124.953 223.033 125.49 223.173C126.032 223.307 126.507 223.374 126.915 223.374C127.374 223.374 127.702 223.307 127.899 223.173C128.1 223.033 128.201 222.852 128.201 222.63C128.201 222.486 128.159 222.357 128.077 222.243C127.999 222.124 127.829 221.993 127.566 221.848C127.302 221.698 126.889 221.505 126.326 221.267C125.784 221.04 125.338 220.81 124.987 220.578C124.641 220.346 124.382 220.072 124.212 219.757C124.047 219.437 123.964 219.032 123.964 218.541C123.964 217.741 124.274 217.139 124.894 216.737C125.518 216.329 126.352 216.125 127.395 216.125C127.932 216.125 128.443 216.179 128.929 216.288C129.419 216.396 129.922 216.569 130.439 216.806L129.726 218.51C129.298 218.324 128.892 218.172 128.51 218.053C128.133 217.935 127.749 217.875 127.356 217.875C127.01 217.875 126.75 217.922 126.574 218.015C126.399 218.108 126.311 218.249 126.311 218.441C126.311 218.58 126.355 218.704 126.443 218.812C126.535 218.921 126.711 219.042 126.969 219.176C127.232 219.305 127.617 219.473 128.123 219.68C128.614 219.881 129.04 220.093 129.401 220.315C129.762 220.532 130.041 220.803 130.237 221.128C130.434 221.448 130.532 221.864 130.532 222.375ZM137.192 216.125C138.168 216.125 138.955 216.504 139.554 217.263C140.158 218.022 140.46 219.135 140.46 220.601C140.46 221.582 140.318 222.408 140.034 223.08C139.75 223.746 139.358 224.249 138.857 224.59C138.356 224.931 137.781 225.101 137.13 225.101C136.712 225.101 136.353 225.049 136.054 224.946C135.754 224.838 135.499 224.701 135.287 224.536C135.075 224.365 134.892 224.184 134.737 223.993H134.613C134.654 224.2 134.685 224.412 134.706 224.629C134.727 224.845 134.737 225.057 134.737 225.264V228.756H132.375V216.288H134.296L134.629 217.41H134.737C134.892 217.178 135.08 216.964 135.302 216.768C135.524 216.571 135.79 216.417 136.1 216.303C136.415 216.184 136.779 216.125 137.192 216.125ZM136.433 218.015C136.02 218.015 135.692 218.1 135.45 218.27C135.207 218.441 135.029 218.696 134.915 219.037C134.807 219.378 134.747 219.809 134.737 220.33V220.586C134.737 221.143 134.789 221.616 134.892 222.003C135 222.39 135.179 222.685 135.426 222.886C135.679 223.087 136.025 223.188 136.464 223.188C136.826 223.188 137.122 223.087 137.355 222.886C137.587 222.685 137.76 222.39 137.874 222.003C137.992 221.611 138.052 221.133 138.052 220.57C138.052 219.724 137.92 219.086 137.657 218.657C137.393 218.229 136.986 218.015 136.433 218.015ZM145.959 216.109C147.121 216.109 148.011 216.362 148.631 216.868C149.251 217.374 149.56 218.144 149.56 219.176V224.946H147.911L147.454 223.769H147.392C147.144 224.079 146.891 224.332 146.633 224.528C146.375 224.724 146.078 224.869 145.742 224.962C145.407 225.054 144.999 225.101 144.519 225.101C144.007 225.101 143.548 225.003 143.14 224.807C142.737 224.61 142.42 224.311 142.187 223.908C141.955 223.5 141.839 222.984 141.839 222.359C141.839 221.44 142.162 220.764 142.807 220.33C143.452 219.891 144.42 219.649 145.711 219.602L147.214 219.556V219.176C147.214 218.722 147.095 218.389 146.857 218.177C146.62 217.966 146.29 217.86 145.866 217.86C145.448 217.86 145.037 217.919 144.635 218.038C144.232 218.157 143.829 218.306 143.427 218.487L142.644 216.892C143.104 216.649 143.618 216.458 144.186 216.318C144.759 216.179 145.35 216.109 145.959 216.109ZM147.214 220.934L146.3 220.965C145.536 220.986 145.004 221.123 144.704 221.376C144.41 221.629 144.263 221.962 144.263 222.375C144.263 222.736 144.369 222.994 144.581 223.149C144.792 223.299 145.068 223.374 145.409 223.374C145.915 223.374 146.341 223.224 146.687 222.925C147.038 222.625 147.214 222.199 147.214 221.647V220.934ZM156.918 216.125C157.842 216.125 158.585 216.378 159.148 216.884C159.711 217.385 159.992 218.19 159.992 219.3V224.946H157.63V219.889C157.63 219.269 157.517 218.802 157.29 218.487C157.068 218.172 156.716 218.015 156.236 218.015C155.513 218.015 155.02 218.26 154.757 218.75C154.494 219.241 154.362 219.948 154.362 220.872V224.946H152V216.288H153.804L154.122 217.395H154.254C154.44 217.096 154.669 216.853 154.943 216.667C155.222 216.481 155.529 216.344 155.865 216.257C156.205 216.169 156.556 216.125 156.918 216.125ZM152.759 215.35C152.79 214.937 152.865 214.581 152.984 214.282C153.102 213.977 153.257 213.729 153.448 213.538C153.639 213.342 153.854 213.197 154.091 213.104C154.334 213.006 154.592 212.957 154.865 212.957C155.077 212.957 155.284 212.999 155.485 213.081C155.692 213.159 155.893 213.252 156.089 213.36C156.29 213.468 156.487 213.564 156.678 213.647C156.874 213.724 157.065 213.763 157.251 213.763C157.406 213.763 157.555 213.696 157.7 213.561C157.85 213.422 157.958 213.215 158.025 212.942H159.179C159.117 213.758 158.885 214.362 158.482 214.754C158.08 215.141 157.61 215.335 157.073 215.335C156.861 215.335 156.652 215.294 156.445 215.211C156.244 215.128 156.043 215.035 155.841 214.932C155.645 214.824 155.451 214.728 155.26 214.646C155.069 214.563 154.881 214.522 154.695 214.522C154.535 214.522 154.38 214.591 154.23 214.731C154.086 214.865 153.98 215.072 153.913 215.35H152.759ZM170.293 220.601C170.293 221.324 170.195 221.964 169.999 222.522C169.808 223.08 169.526 223.552 169.154 223.939C168.788 224.321 168.344 224.61 167.822 224.807C167.306 225.003 166.723 225.101 166.072 225.101C165.463 225.101 164.903 225.003 164.391 224.807C163.885 224.61 163.444 224.321 163.067 223.939C162.695 223.552 162.406 223.08 162.2 222.522C161.998 221.964 161.898 221.324 161.898 220.601C161.898 219.641 162.068 218.828 162.409 218.162C162.75 217.496 163.235 216.99 163.865 216.644C164.495 216.298 165.246 216.125 166.118 216.125C166.929 216.125 167.647 216.298 168.271 216.644C168.901 216.99 169.394 217.496 169.751 218.162C170.112 218.828 170.293 219.641 170.293 220.601ZM164.306 220.601C164.306 221.169 164.368 221.647 164.492 222.034C164.616 222.421 164.81 222.713 165.073 222.909C165.336 223.105 165.68 223.203 166.103 223.203C166.521 223.203 166.859 223.105 167.118 222.909C167.381 222.713 167.572 222.421 167.691 222.034C167.815 221.647 167.877 221.169 167.877 220.601C167.877 220.028 167.815 219.553 167.691 219.176C167.572 218.794 167.381 218.508 167.118 218.317C166.854 218.126 166.511 218.03 166.087 218.03C165.463 218.03 165.008 218.244 164.724 218.673C164.446 219.101 164.306 219.744 164.306 220.601ZM174.607 224.946H172.245V212.895H174.607V224.946Z" fill="white"/>
<path d="M149.086 80.7879C147.006 80.7879 142.964 80.2677 136.961 79.2272C130.959 78.1868 126.597 77.6665 123.876 77.6665C121.234 77.6665 119.554 77.7066 118.833 77.7866C116.672 78.1868 114.832 79.5474 113.311 81.8683L109.589 81.028C110.23 76.6261 111.83 72.9845 114.392 70.1033C117.033 67.142 120.194 65.6614 123.876 65.6614C127.637 65.6614 132.599 66.1416 138.762 67.102C144.925 68.0624 149.206 68.5426 151.607 68.5426C154.089 68.5426 155.969 68.3025 157.25 67.8223C158.53 67.3421 159.731 66.3017 160.851 64.701L164.573 65.4213C163.773 70.0633 162.252 73.7849 160.011 76.5861C157.77 79.3873 154.129 80.7879 149.086 80.7879Z" fill="white"/>
<path d="M89.2501 165.247C80.8104 165.247 73.8955 163.303 68.5054 159.415C63.1862 155.457 60.5266 149.833 60.5266 142.543C60.5266 141.015 60.7039 139.141 61.0585 136.919C61.9805 131.92 63.2926 125.914 64.9947 118.902C69.8174 99.8085 82.2643 90.2618 102.335 90.2618C107.796 90.2618 112.69 91.1644 117.016 92.9696C121.343 94.7054 124.747 97.3438 127.229 100.885C129.711 104.356 130.952 108.522 130.952 113.382C130.952 114.84 130.775 116.68 130.421 118.902C129.357 125.081 128.08 131.087 126.591 136.919C124.108 146.431 119.818 153.548 113.718 158.269C107.619 162.921 99.463 165.247 89.2501 165.247ZM90.7395 150.25C94.7112 150.25 98.0799 149.104 100.846 146.813C103.683 144.522 105.704 141.015 106.91 136.294C108.541 129.768 109.782 124.074 110.633 119.214C110.917 117.756 111.059 116.264 111.059 114.736C111.059 108.418 107.69 105.259 100.952 105.259C96.9807 105.259 93.5764 106.404 90.7395 108.696C87.9735 110.987 85.9877 114.493 84.782 119.214C83.5054 123.866 82.2288 129.559 80.9522 136.294C80.6685 137.683 80.5267 139.141 80.5267 140.668C80.5267 147.056 83.931 150.25 90.7395 150.25Z" fill="white"/>
<path d="M134.551 164.204C133.77 164.204 133.168 163.961 132.742 163.475C132.388 162.919 132.281 162.294 132.423 161.6L147.104 93.9054C147.246 93.1417 147.636 92.5168 148.274 92.0308C148.913 91.5448 149.586 91.3018 150.296 91.3018H178.593C186.466 91.3018 192.778 92.8987 197.53 96.0925C202.352 99.2863 204.764 103.903 204.764 109.944C204.764 111.68 204.551 113.485 204.126 115.359C202.352 123.344 198.771 129.245 193.381 133.064C188.062 136.883 180.757 138.792 171.466 138.792H157.104L152.21 161.6C152.069 162.364 151.678 162.989 151.04 163.475C150.402 163.961 149.728 164.204 149.019 164.204H134.551ZM172.21 124.42C175.189 124.42 177.778 123.622 179.976 122.025C182.246 120.428 183.735 118.137 184.445 115.151C184.657 113.971 184.764 112.929 184.764 112.027C184.764 110.013 184.161 108.486 182.955 107.444C181.75 106.333 179.693 105.778 176.785 105.778H164.019L159.976 124.42H172.21Z" fill="white"/>
<defs>
<clipPath id="clip0_315_213">
<rect width="146.061" height="20.4485" fill="white" transform="translate(59 187.498)"/>
</clipPath>
</defs>
</svg>
