<svg width="308" height="72" viewBox="0 0 308 72" fill="none" xmlns="http://www.w3.org/2000/svg">
<path fill-rule="evenodd" clip-rule="evenodd" d="M76.2156 48.4759C76.7542 49.0212 77.4659 49.3221 78.216 49.3033C78.9662 49.3221 79.6778 49.04 80.2164 48.4759C80.7357 47.9118 81.005 47.1785 80.9858 46.4075V40.3528H85.1596C90.7568 40.3528 94.6806 36.8366 94.6806 31.628C94.6806 26.4571 90.8722 22.9784 85.1596 22.9784H78.2545C77.5043 22.9596 76.7734 23.2417 76.2349 23.8058C75.7156 24.3511 75.427 25.0844 75.4463 25.8742V46.4075C75.427 47.1785 75.6963 47.9306 76.2156 48.4759ZM85.1966 35.5768H80.9843V27.7734H85.1966C87.5047 27.7734 89.0434 29.3153 89.0434 31.6469C89.1011 32.6999 88.7164 33.7341 87.9855 34.4862C87.2354 35.2384 86.2352 35.6332 85.1966 35.5768Z" fill="white"/>
<path fill-rule="evenodd" clip-rule="evenodd" d="M117.854 47.55C118.397 48.4713 119.425 49.0166 120.531 48.9978C121.979 48.9996 123.174 47.8992 123.246 46.497C123.207 45.6508 122.897 44.8423 122.354 44.1842L118.242 38.5619L118.824 38.167C121.061 36.5858 122.357 34.0433 122.296 31.3602C122.296 26.2268 118.262 22.767 112.21 22.767H104.899C104.1 22.7351 103.324 23.0273 102.758 23.5733C102.191 24.1193 101.884 24.8697 101.912 25.6439V46.1209C101.912 47.689 103.223 48.9602 104.84 48.9602C106.458 48.9602 107.769 47.689 107.769 46.1209V40.0662H112.715L117.854 47.55ZM112.25 35.3097H107.789V27.5439H112.25C114.674 27.5439 116.323 29.0858 116.323 31.3986C116.38 32.4586 115.968 33.492 115.19 34.239C114.412 34.986 113.342 35.3755 112.25 35.3097Z" fill="white"/>
<path fill-rule="evenodd" clip-rule="evenodd" d="M127.477 35.7762C127.477 43.2539 133.722 49.0953 141.72 49.0953C149.756 49.0953 156.039 43.2539 156.039 35.7762C156.039 28.2984 149.699 22.457 141.72 22.457C133.741 22.457 127.477 28.2984 127.477 35.7762ZM135.787 29.8264C137.367 28.2589 139.534 27.4279 141.757 27.5368C143.978 27.4397 146.137 28.2745 147.714 29.8393C149.291 31.4041 150.141 33.5565 150.06 35.7756C150.06 40.6276 146.708 44.0145 141.757 44.0145C139.529 44.1415 137.351 43.3163 135.768 41.7447C134.184 40.1731 133.343 38.0031 133.455 35.7756C133.361 33.5532 134.208 31.3939 135.787 29.8264Z" fill="white"/>
<path d="M171.379 49.0943C170.594 49.1051 169.838 48.8 169.289 48.25C168.739 47.6999 168.443 46.953 168.47 46.1831V27.5173H162.302C160.886 27.5173 159.742 26.3757 159.742 24.9867C159.742 23.5787 160.886 22.4561 162.302 22.4561H180.456C181.871 22.4561 183.016 23.5977 183.016 24.9867C183.016 26.3757 181.871 27.5173 180.456 27.5173H174.308V46.1641C174.327 46.9442 174.036 47.7053 173.474 48.2571C172.911 48.8279 172.155 49.1133 171.36 49.0943H171.379Z" fill="white"/>
<path fill-rule="evenodd" clip-rule="evenodd" d="M184.6 35.7762C184.6 43.2539 190.845 49.0953 198.843 49.0953C206.86 49.0953 213.163 43.2539 213.163 35.7762C213.163 28.2984 206.822 22.457 198.843 22.457C190.864 22.457 184.6 28.2984 184.6 35.7762ZM192.911 29.8264C194.49 28.2589 196.657 27.4279 198.881 27.5368C201.101 27.4397 203.261 28.2745 204.837 29.8393C206.414 31.4042 207.265 33.5565 207.183 35.7757C207.183 40.6276 203.831 44.0145 198.881 44.0145C196.652 44.1415 194.475 43.3164 192.891 41.7448C191.307 40.1732 190.467 38.0032 190.578 35.7757C190.485 33.5532 191.331 31.3939 192.911 29.8264Z" fill="white"/>
<path d="M221.835 49.2902C221.062 49.3169 220.314 49.0208 219.779 48.476C219.236 47.908 218.945 47.1506 219.003 46.3933V25.6794C218.965 24.8842 219.256 24.1458 219.799 23.5967C220.342 23.0287 221.098 22.7446 221.874 22.7636H233.937C235.314 22.7636 236.439 23.8996 236.439 25.2818C236.455 25.9411 236.199 26.579 235.728 27.0524C235.258 27.5258 234.613 27.7951 233.937 27.8H224.686V34.427H231.765C233.161 34.427 234.286 35.563 234.286 36.9641C234.297 37.6235 234.036 38.2593 233.562 38.7291C233.088 39.199 232.441 39.4635 231.765 39.4634H224.686V46.3743C224.725 47.1317 224.434 47.8891 223.891 48.4571C223.348 49.0062 222.611 49.2902 221.835 49.2712V49.2902Z" fill="white"/>
<path d="M247.018 49.289C246.256 49.3079 245.494 49.0239 244.961 48.4938C244.414 47.9562 244.124 47.2126 244.162 46.4489V25.7161C244.123 24.6937 244.657 23.7091 245.552 23.179C246.456 22.6461 247.58 22.6461 248.484 23.179C249.379 23.7091 249.912 24.6937 249.874 25.7161V46.4489C249.912 47.2062 249.627 47.9636 249.093 48.4938C248.541 49.0429 247.799 49.3269 247.018 49.3079V49.289Z" fill="white"/>
<path fill-rule="evenodd" clip-rule="evenodd" d="M273.678 47.7367C274.194 48.6645 275.227 49.2136 276.298 49.1947C277.718 49.1864 278.885 48.0811 278.956 46.6764C278.918 45.8244 278.612 45.0102 278.076 44.3475L274.022 38.6863L274.577 38.2697C276.784 36.6854 278.069 34.1331 278.019 31.4345C278.019 26.2655 274.041 22.7817 268.075 22.7817H260.865C260.078 22.7496 259.313 23.0438 258.754 23.5936C258.195 24.1434 257.893 24.899 257.92 25.6786V46.2978C257.862 47.3521 258.4 48.3512 259.316 48.8917C260.23 49.4655 261.392 49.4817 262.321 48.9336C263.25 48.3855 263.789 47.3663 263.715 46.2978V40.201H268.591L273.678 47.7367ZM268.111 35.4106H263.713V27.5908H268.111C270.521 27.5908 272.127 29.1434 272.127 31.4723C272.178 32.538 271.769 33.5749 271.004 34.3257C270.238 35.0765 269.187 35.4707 268.111 35.4106Z" fill="white"/>
<path d="M287.46 49.2892C286.643 49.3156 285.851 49.0115 285.271 48.4488C284.691 47.8861 284.374 47.1146 284.396 46.3166V25.7542C284.356 24.9512 284.667 24.1695 285.251 23.6028C285.835 23.0362 286.638 22.7378 287.46 22.7816H300.629C302.084 22.7816 303.267 23.9176 303.267 25.3377C303.267 26.7577 302.084 27.9127 300.629 27.9127H290.389V33.2142H297.177C298.515 33.2142 299.582 34.2367 299.582 35.5242C299.582 36.8117 298.515 37.8531 297.177 37.8531H290.389V44.1581H301.153C302.607 44.1581 303.791 45.2941 303.791 46.7142C303.791 48.1343 302.607 49.2703 301.153 49.2703L287.46 49.2892Z" fill="white"/>
<path d="M5.00306 71.1546C2.2097 69.821 0.364654 67.1004 0.179401 64.042C-0.00585154 60.9836 1.49763 58.0652 4.11008 56.4123C6.72253 54.7593 10.0358 54.63 12.7722 56.0742C16.8862 58.2456 18.4855 63.2678 16.3704 67.3735C14.2552 71.4791 9.20278 73.1598 5.00306 71.1546V71.1546Z" fill="#F54703"/>
<path d="M3.04603 13.7027C-2.49457 23.8404 -0.29198 36.3893 8.38344 44.1117C9.34687 44.9837 10.8498 44.9648 11.7747 44.0927C15.5386 40.5934 16.7256 35.176 14.7614 30.4617C12.6055 25.5727 13.8883 19.8741 17.9407 16.3379C22.069 12.7258 28.0058 11.9246 32.9702 14.3093C37.8912 16.604 40.7811 21.7266 40.1574 27.0493C39.43 32.3819 35.3854 36.6949 30.0414 37.8365C24.9579 39.0206 21.0877 43.0822 20.2144 48.1498C20.0217 49.382 20.8888 50.5385 22.1991 50.766C35.3981 53.041 48.3466 45.7231 52.5664 33.6278C56.8055 21.4945 51.0249 8.28062 39.0206 2.59315C26.0721 -3.5114 9.71298 1.55045 3.04603 13.7027V13.7027Z" fill="url(#paint0_linear_1182_5256)"/>
<defs>
<linearGradient id="paint0_linear_1182_5256" x1="38.9255" y1="59.3155" x2="60.9574" y2="13.1724" gradientUnits="userSpaceOnUse">
<stop stop-color="#F54703"/>
<stop offset="1" stop-color="#FAC902"/>
</linearGradient>
</defs>
</svg>
