<svg fill="none" height="800" viewBox="0 0 1044 800" width="1044" xmlns="http://www.w3.org/2000/svg"><g fill="#dcf908"><path d="m968.362 273.719h88.0328v88.0328h-88.0328z"/><path d="m968.362 361.751h88.0328v88.0328h-88.0328z"/><path d="m968.362 97.5729h88.0328v88.0328h-88.0328z"/><path d="m968.362 449.783h88.0328v88.0328h-88.0328z"/><path d="m968.362 185.605h88.0328v88.0328h-88.0328z"/><path d="m968.362 713.879h88.0328v88.0328h-88.0328z"/><path d="m616.231 713.879h88.0328v88.0328h-88.0328z"/><path d="m528.197 713.879h88.0328v88.0328h-88.0328z"/><path d="m528.197 625.847h88.0328v88.0328h-88.0328z"/><path d="m440.165 537.815h88.0328v88.0328h-88.0328z"/><path d="m352.131 449.783h88.0328v88.0328h-88.0328z"/><path d="m176.066 449.783h88.0328v88.0328h-88.0328z"/><path d="m440.165 625.847h88.0328v88.0328h-88.0328z"/><path d="m352.131 537.815h88.0328v88.0328h-88.0328z"/><path d="m264.099 449.783h88.0328v88.0328h-88.0328z"/><path d="m88.033 537.815h88.0328v88.0328h-88.0328z"/><path d="m88.033 625.847h88.0328v88.0328h-88.0328z"/><path d="m0 625.847h88.0328v88.0328h-88.0328z"/><path d="m0 713.879h88.0328v88.0328h-88.0328z"/><path d="m615.576 71.6478h88.0329v88.0329h-88.0329z" transform="matrix(-1 0 0 -1 1231.152 143.2956)"/><path d="m787.801 160.05h88.0329v88.0329h-88.0329z" transform="matrix(-1 0 0 -1 1575.602 320.1)"/><path d="m703.609 71.6478h88.0329v88.0329h-88.0329z" transform="matrix(-1 0 0 -1 1407.218 143.2956)"/><path d="m528.132 71.6478h88.0329v88.0329h-88.0329z" transform="matrix(-1 0 0 -1 1056.264 143.2956)"/></g></svg>